<svg xmlns="http://www.w3.org/2000/svg" width="180" height="52" fill="none" xmlns:v="https://vecta.io/nano"><path d="M173.095 52H6.658C2.998 52 0 49.073 0 45.5v-39C0 2.927 2.998 0 6.658 0h166.438c3.66 0 6.658 2.927 6.658 6.5v39c0 3.573-2.998 6.5-6.658 6.5z" fill="#000"/><path d="M173.095 1.042c3.082 0 5.591 2.449 5.591 5.458v39c0 3.01-2.509 5.458-5.591 5.458H6.658c-3.082 0-5.591-2.449-5.591-5.458v-39c0-3.009 2.508-5.458 5.591-5.458h166.438zm0-1.042H6.658C2.998 0 0 2.927 0 6.5v39C0 49.073 2.998 52 6.658 52h166.438c3.66 0 6.658-2.927 6.658-6.5v-39c0-3.573-2.998-6.5-6.658-6.5z" fill="#a6a6a6"/><g fill="#fff"><path d="M63.136 13.317c0 1.085-.333 1.955-.989 2.603-.754.769-1.736 1.155-2.939 1.155a4.09 4.09 0 0 1-2.938-1.168A3.89 3.89 0 0 1 55.061 13c0-1.155.403-2.121 1.21-2.901s1.788-1.175 2.938-1.175a4.27 4.27 0 0 1 1.639.33c.519.216.942.509 1.248.869l-.696.686c-.534-.616-1.262-.92-2.192-.92a3.09 3.09 0 0 0-2.184.863c-.611.579-.917 1.328-.917 2.247s.306 1.675.917 2.254c.617.57 1.345.863 2.184.863.89 0 1.639-.293 2.23-.869.389-.382.611-.908.669-1.581h-2.899v-.939h3.868c.047.203.06.4.06.59zm6.137-3.257H65.64v2.47h3.276v.939H65.64v2.47h3.633v.957h-4.662V9.103h4.662v.957zm4.331 6.837h-1.029V10.06h-2.229v-.957h5.487v.957h-2.23v6.836zm6.201 0V9.103h1.027v7.794h-1.027zm5.579 0h-1.02V10.06h-2.237v-.957h5.494v.957h-2.237v6.836zm12.626-1.003c-.787.788-1.763 1.181-2.926 1.181-1.17 0-2.145-.393-2.933-1.181S90.975 14.142 90.975 13s.391-2.108 1.177-2.894 1.763-1.181 2.933-1.181c1.157 0 2.132.393 2.919 1.188A3.92 3.92 0 0 1 99.187 13c0 1.142-.391 2.108-1.177 2.894zm-5.098-.653c.593.583 1.313.876 2.172.876.852 0 1.579-.293 2.165-.876s.89-1.332.89-2.241-.3-1.658-.89-2.241-1.313-.876-2.165-.876c-.859 0-1.58.292-2.172.876s-.89 1.332-.89 2.241.3 1.658.89 2.241zm7.718 1.656V9.103h1.248l3.881 6.061h.045l-.045-1.498V9.103h1.027v7.794h-1.071l-4.065-6.36h-.045l.045 1.505v4.855h-1.02z" stroke="#fff" stroke-width=".16" stroke-miterlimit="10"/><path d="M90.722 28.278c-3.127 0-5.682 2.324-5.682 5.53 0 3.18 2.555 5.528 5.682 5.528 3.134 0 5.689-2.348 5.689-5.528 0-3.206-2.555-5.53-5.689-5.53zm0 8.881c-1.716 0-3.192-1.383-3.192-3.351 0-1.994 1.476-3.352 3.192-3.352s3.199 1.358 3.199 3.352c0 1.968-1.483 3.351-3.199 3.351zm-12.398-8.881c-3.134 0-5.682 2.324-5.682 5.53 0 3.18 2.548 5.528 5.682 5.528s5.682-2.348 5.682-5.528c0-3.206-2.55-5.53-5.682-5.53zm0 8.881c-1.718 0-3.199-1.383-3.199-3.351 0-1.994 1.481-3.352 3.199-3.352s3.192 1.358 3.192 3.352c0 1.968-1.476 3.351-3.192 3.351zm-14.753-7.186v2.35h5.747c-.168 1.313-.618 2.278-1.307 2.951-.839.813-2.145 1.714-4.44 1.714-3.537 0-6.306-2.787-6.306-6.24s2.77-6.24 6.306-6.24a6.17 6.17 0 0 1 4.331 1.675l1.696-1.656c-1.436-1.339-3.347-2.368-6.027-2.368-4.85 0-8.926 3.853-8.926 8.588s4.076 8.588 8.926 8.588c2.621 0 4.59-.838 6.138-2.411 1.586-1.549 2.081-3.726 2.081-5.484 0-.546-.047-1.048-.13-1.467h-8.089zm60.327 1.822c-.468-1.237-1.911-3.516-4.85-3.516-2.913 0-5.338 2.241-5.338 5.53 0 3.097 2.4 5.528 5.617 5.528 2.602 0 4.103-1.549 4.72-2.45l-1.93-1.256c-.644.92-1.522 1.529-2.79 1.529-1.26 0-2.164-.564-2.743-1.675l7.575-3.06-.261-.629zm-7.723 1.841a3.07 3.07 0 0 1 2.957-3.224c.989 0 1.828.483 2.108 1.173l-5.065 2.051zM110.018 39h2.49V22.75h-2.49V39zm-4.077-9.49h-.084c-.559-.647-1.626-1.232-2.977-1.232-2.836 0-5.429 2.431-5.429 5.548 0 3.099 2.593 5.51 5.429 5.51 1.351 0 2.418-.59 2.977-1.256h.084v.793c0 2.114-1.157 3.25-3.023 3.25-1.521 0-2.465-1.072-2.854-1.974l-2.166.882c.624 1.466 2.277 3.27 5.02 3.27 2.919 0 5.383-1.677 5.383-5.757v-9.929h-2.36v.895zm-2.848 7.649c-1.716 0-3.153-1.402-3.153-3.333 0-1.948 1.436-3.37 3.153-3.37 1.691 0 3.024 1.422 3.024 3.37 0 1.931-1.333 3.333-3.024 3.333zm32.462-14.409H129.6V39h2.483v-6.157h3.472c2.758 0 5.462-1.948 5.462-5.047s-2.711-5.046-5.462-5.046zm.065 7.833h-3.537V25.01h3.537c1.854 0 2.912 1.503 2.912 2.785a2.87 2.87 0 0 1-2.912 2.787zm15.35-2.335c-1.794 0-3.66.774-4.427 2.488l2.204.902c.474-.902 1.346-1.194 2.268-1.194 1.288 0 2.595.756 2.615 2.09v.171c-.449-.254-1.411-.629-2.595-.629-2.373 0-4.792 1.276-4.792 3.656 0 2.178 1.944 3.58 4.13 3.58 1.671 0 2.593-.736 3.172-1.593h.085v1.256h2.398V32.74c0-2.881-2.203-4.493-5.058-4.493zm-.299 8.905c-.813 0-1.944-.393-1.944-1.376 0-1.258 1.411-1.74 2.633-1.74 1.093 0 1.606.236 2.27.546-.195 1.505-1.521 2.571-2.959 2.571zm14.095-8.549l-2.854 7.044h-.085l-2.951-7.044h-2.678l4.434 9.844-2.53 5.478h2.595l6.832-15.322h-2.763zM142.382 39h2.49V22.75h-2.49V39z"/></g><path d="M13.894 9.8c-.391.4-.617 1.022-.617 1.828v28.75c0 .806.226 1.428.617 1.828l.097.088L30.491 26.19v-.38L13.99 9.706l-.097.094z" fill="url(#A)"/><path d="M35.985 31.561l-5.494-5.371v-.38l5.501-5.371.123.07 6.514 3.619c1.859 1.027 1.859 2.717 0 3.75l-6.514 3.612-.13.07z" fill="url(#B)"/><path d="M36.116 31.491L30.492 26 13.895 42.206c.617.634 1.624.71 2.77.076l19.452-10.792z" fill="url(#C)"/><path d="M36.116 20.509L16.664 9.718c-1.145-.627-2.152-.551-2.77.083L30.492 26l5.624-5.491z" fill="url(#D)"/><defs><linearGradient id="A" x1="29.026" y1="40.678" x2="7.215" y2="18.338" gradientUnits="userSpaceOnUse"><stop stop-color="#00a0ff"/><stop offset=".007" stop-color="#00a1ff"/><stop offset=".26" stop-color="#00beff"/><stop offset=".512" stop-color="#00d2ff"/><stop offset=".76" stop-color="#00dfff"/><stop offset="1" stop-color="#00e3ff"/></linearGradient><linearGradient id="B" x1="45.05" y1="25.998" x2="12.832" y2="25.998" gradientUnits="userSpaceOnUse"><stop stop-color="#ffe000"/><stop offset=".409" stop-color="#ffbd00"/><stop offset=".775" stop-color="orange"/><stop offset="1" stop-color="#ff9c00"/></linearGradient><linearGradient id="C" x1="33.058" y1="23.015" x2="3.48" y2="-7.279" gradientUnits="userSpaceOnUse"><stop stop-color="#ff3a44"/><stop offset="1" stop-color="#c31162"/></linearGradient><linearGradient id="D" x1="9.717" y1="51.771" x2="22.924" y2="38.243" gradientUnits="userSpaceOnUse"><stop stop-color="#32a071"/><stop offset=".069" stop-color="#2da771"/><stop offset=".476" stop-color="#15cf74"/><stop offset=".801" stop-color="#06e775"/><stop offset="1" stop-color="#00f076"/></linearGradient></defs></svg>