<svg width="1148" height="678" viewBox="0 0 1148 678" fill="none" xmlns="http://www.w3.org/2000/svg">
<path d="M885.829 674.473C1013.52 655.559 1090.11 599.304 1128.29 496.391C1148.64 441.512 1153.12 335.903 1138.12 264.611C1110.64 134.057 1043.09 52.6725 930.671 14.6782C882.583 -1.57458 767.539 -5.08676 710.72 7.96304C603.614 32.5628 531.005 100.944 502.907 203.677C489.656 252.125 489.711 365.798 503.011 425.875C523.974 520.539 581.801 600.109 657.592 638.579C721.024 670.776 813.067 685.251 885.829 674.473Z" fill="#FBD377"/>
<path d="M7.90038 521.693C32.1657 551.988 101.516 572.105 224.483 584.519C399.569 602.194 620.463 589.169 708.901 555.955C747.905 541.306 758.547 531.257 758.534 509.087C758.528 492.74 756.141 488.581 738.987 474.978C695.692 440.647 607.63 425.304 437.265 422.412C298.512 420.057 194.729 426.056 114.001 441.098C22.9507 458.064 -18.0933 489.241 7.90038 521.693Z" fill="#28508B"/>
<path d="M496.805 194.6C499.869 186.327 503.778 178.606 506.27 170.022V166.5C503.597 161.154 502.977 161.316 504.896 155.558C506.325 151.273 512.696 148.097 516.231 146.017C523.03 142.018 529.903 139.404 537.641 137.736C567.366 131.328 611.521 75.2989 642 76.5C651.5 79 663.401 121.738 679 124C690.416 125.656 695.293 137.858 705.752 142.506C713.291 145.857 720.238 149.188 727.086 153.841C733.791 158.398 736.905 162.542 739.909 169.717C743.909 179.275 747.323 188.792 750.976 198.493C755.833 211.392 757.006 224.104 757.006 237.763C757.006 263.248 756.576 289.509 749.45 314.129C743.035 336.287 734.44 357.066 721.285 376.107C717.289 381.891 711.008 387.285 704.264 389.693C680.512 398.176 655.351 396.607 630.455 394.655C612.402 393.239 597.454 384.655 580.537 379.16C565.42 374.25 550.528 369.644 535.122 365.65C525.344 363.115 515.953 358.626 506.041 356.643C498.166 355.068 489.554 354.882 481.54 354.277C472.821 353.619 463.908 354.125 455.169 354.125C449.457 354.125 443.778 353.939 438.109 354.659C426.81 356.094 416.195 358.246 404.678 358.246C390.044 358.246 376.284 356.918 362.125 353.17C351.966 350.481 340.715 338.902 340.715 327.868C340.715 323.96 341.295 320.209 341.402 316.342C341.506 312.621 344.53 309.456 345.829 306.115C348.369 299.585 353.026 293.131 353.806 286.117C354.484 280.008 356.839 273.938 357.927 267.951C358.387 265.425 360.002 262.997 360.79 260.547C361.821 257.338 364.335 255.128 365.446 252.075C366.625 248.833 370.6 246.833 372.315 243.831C373.437 241.868 374.296 241.149 376.284 239.939C381.974 236.475 387.594 233.477 393.61 230.627C409.176 223.253 425.755 223.708 442.384 220.475C451.765 218.651 461.646 217.845 470.701 214.827C476.635 212.849 482.292 209.823 487.722 206.965C491.581 204.934 495.386 198.431 496.805 194.6Z" fill="#FF7961"/>
<path fill-rule="evenodd" clip-rule="evenodd" d="M528.766 194.215C528.766 194.215 529.811 217.208 543.224 225.324C555.393 232.688 529.612 275.419 501.877 272.87C486.695 271.475 483.137 229.959 483.137 229.959C483.137 229.959 495.395 227.59 490.867 208.896L528.766 194.215Z" fill="#F6CBC3"/>
<path fill-rule="evenodd" clip-rule="evenodd" d="M506.557 217.594C524.537 215.419 537.514 203.597 539.331 183.986C544.557 184.818 545.79 171.198 544.335 166.823C542.877 162.442 538.121 165.004 538.121 165.004C537.858 164.311 537.634 163.586 537.45 162.829C529.595 130.611 507.596 131.889 507.596 131.889C467.172 133.995 476.644 175.266 478.954 186.214C481.263 197.164 489.176 219.694 506.557 217.594Z" fill="#F6CBC3"/>
<path fill-rule="evenodd" clip-rule="evenodd" d="M457.832 316.082L447.627 411.597C447.627 411.597 520.285 424.659 583.145 404.25L586.819 320.163C586.819 320.163 543.823 318.803 457.832 316.082Z" fill="#B6DDFA"/>
<mask id="mask0" mask-type="alpha" maskUnits="userSpaceOnUse" x="416" y="221" width="201" height="176">
<path fill-rule="evenodd" clip-rule="evenodd" d="M416.89 221.664H616.466V396.332H416.89V221.664Z" fill="white"/>
</mask>
<g mask="url(#mask0)">
<path fill-rule="evenodd" clip-rule="evenodd" d="M448.12 383.505C448.12 383.505 413.214 361.739 417.209 326.44C421.204 291.14 436.085 242.948 461.652 233.044C487.219 223.141 488.023 221.664 488.023 221.664C488.023 221.664 498.269 235.041 516.119 235.891C533.969 236.74 545.585 226.824 545.585 226.824C545.585 226.824 580.641 235.174 590.738 250.973C600.834 266.773 626.617 337.322 612.167 359.705C597.718 382.088 569.773 388.61 569.773 388.61C569.773 388.61 484.386 409.004 448.12 383.505Z" fill="#B6DDFA"/>
</g>
<path fill-rule="evenodd" clip-rule="evenodd" d="M498.269 306.561L498.012 283.895C498.012 283.895 497.239 279.078 504.709 278.795C512.178 278.512 532.269 278.228 532.269 278.228C532.269 278.228 537.162 277.095 537.42 284.178C537.678 291.262 537.935 315.628 537.935 315.628L507.026 324.411L495.436 323.844L498.269 306.561Z" fill="#204EB2"/>
<path fill-rule="evenodd" clip-rule="evenodd" d="M495.601 323.711L507.01 324.268L537.792 315.521C537.773 313.743 537.524 290.943 537.279 284.184C537.188 281.713 536.526 279.989 535.309 279.057C533.934 278.004 532.317 278.362 532.3 278.366L532.27 278.37C532.07 278.373 512.096 278.657 504.714 278.937C502 279.04 500.084 279.749 499.018 281.045C497.929 282.368 498.149 283.858 498.151 283.873L498.411 306.572L498.409 306.584L495.601 323.711ZM507.043 324.554L507.02 324.552L495.27 323.978L498.127 306.551L497.87 283.897C497.861 283.852 497.627 282.294 498.795 280.87C499.914 279.505 501.902 278.76 504.703 278.653C512.005 278.376 531.613 278.096 532.252 278.087C532.439 278.047 534.059 277.743 535.481 278.832C536.769 279.818 537.469 281.615 537.562 284.173C537.816 291.177 538.074 315.383 538.077 315.626L538.078 315.735L537.974 315.764L507.043 324.554Z" fill="#B6DDFA"/>
<path fill-rule="evenodd" clip-rule="evenodd" d="M498.003 284.743L497.986 280.84C497.986 280.84 497.986 277.723 502.236 277.44C506.485 277.156 531.702 276.59 531.702 276.59C531.702 276.59 535.102 276.306 536.518 278.29C537.935 280.273 537.485 285.094 537.485 285.094C537.485 285.094 537.327 278.338 531.682 278.455C526.035 278.573 504.07 279.027 504.07 279.027C504.07 279.027 498.303 278.446 498.003 284.743Z" fill="#56ACF6"/>
<path fill-rule="evenodd" clip-rule="evenodd" d="M531.826 278.312C535.675 278.312 536.973 281.507 537.409 283.511C537.419 281.94 537.272 279.588 536.403 278.372C535.049 276.476 531.747 276.727 531.714 276.731C531.453 276.737 506.443 277.301 502.245 277.581C500.553 277.694 499.305 278.296 498.636 279.323C498.133 280.094 498.127 280.832 498.127 280.84L498.136 282.91C498.442 281.793 498.988 280.891 499.771 280.216C501.583 278.654 503.983 278.876 504.084 278.886C504.067 278.885 526.032 278.431 531.679 278.314C531.728 278.313 531.777 278.312 531.826 278.312ZM537.626 285.108L537.344 285.098C537.343 285.081 537.295 283.411 536.568 281.781C535.604 279.621 533.964 278.546 531.684 278.597C526.038 278.715 504.073 279.169 504.073 279.169C504.033 279.165 501.671 278.95 499.954 280.432C498.844 281.39 498.235 282.843 498.144 284.75L497.861 284.743L497.844 280.84C497.844 280.807 497.894 277.587 502.226 277.298C506.431 277.018 531.446 276.454 531.699 276.448C531.832 276.437 535.187 276.182 536.634 278.207C538.065 280.21 537.645 284.909 537.626 285.108Z" fill="#B6DDFA"/>
<path fill-rule="evenodd" clip-rule="evenodd" d="M498.329 297.488C498.329 297.488 494.242 300.115 492.929 301.72C491.615 303.326 492.783 303.618 489.864 306.682C486.945 309.748 481.691 317.482 490.886 329.304C500.08 341.126 503.145 340.104 506.94 338.061C510.734 336.017 511.172 334.558 518.323 333.828C525.475 333.099 532.334 326.093 532.188 324.342L532.042 322.591C532.042 322.591 538.609 320.109 538.172 317.337C537.734 314.564 535.837 314.855 535.837 314.855C535.837 314.855 537.15 313.542 536.129 311.207C535.107 308.872 530.291 309.31 524.745 310.039C519.199 310.769 504.896 313.688 504.021 313.104C503.145 312.52 503.437 311.645 506.794 311.207C510.151 310.769 523.723 310.623 523.723 306.828C523.723 303.034 519.637 302.304 511.756 302.45C503.875 302.596 502.415 302.158 500.518 302.888L498.621 303.618L498.329 297.488Z" fill="#F6CBC3"/>
<path fill-rule="evenodd" clip-rule="evenodd" d="M535.952 314.839C535.952 314.839 536.371 314.536 533.248 315.729C532.111 316.163 530.507 316.616 528.248 317.044C519.783 318.65 506.502 321.569 502.416 322.153C498.329 322.736 501.686 323.612 511.026 321.715C520.367 319.817 531.486 317.272 531.985 317.106C532.835 316.822 535.385 315.972 535.952 314.839Z" fill="#B6DDFA"/>
<path fill-rule="evenodd" clip-rule="evenodd" d="M528.977 323.466C528.977 323.466 522.069 325.889 518.669 326.739C515.059 327.641 512.34 328.866 511.61 327.699C510.88 326.531 510.004 326.239 510.004 326.239L508.837 327.553C508.837 327.553 509.035 329.006 508.399 329.158C507.264 329.43 505.042 329.888 505.042 329.888C505.042 329.888 505.069 330.706 511.869 329.289C513.556 328.938 516.685 328.439 518.669 327.872C520.493 327.351 527.08 325.655 527.956 324.926C528.831 324.196 528.977 323.466 528.977 323.466Z" fill="#B6DDFA"/>
<path fill-rule="evenodd" clip-rule="evenodd" d="M507.523 322.737C507.523 322.737 507.416 328.614 509.075 328.521C510.734 328.428 511.318 328.428 511.61 327.99C511.902 327.553 511.172 326.093 511.172 324.488C511.172 322.882 511.172 322.153 509.859 322.299C508.545 322.445 507.669 322.445 507.523 322.737Z" fill="#F9C818"/>
<path fill-rule="evenodd" clip-rule="evenodd" d="M125.794 467.895L133.728 497.038L119.278 501.895L110.211 473.279L125.794 467.895Z" fill="#F8D8B8"/>
<path fill-rule="evenodd" clip-rule="evenodd" d="M111.061 471.295L121.261 503.595L106.528 508.411L95.7614 476.962L111.061 471.295Z" fill="#E4F9FF"/>
<path fill-rule="evenodd" clip-rule="evenodd" d="M94.628 473.562C94.628 473.562 96.8946 473.562 99.7279 474.979C102.561 476.395 117.294 495.945 108.794 508.128C108.794 508.128 107.378 508.978 105.678 509.261C103.978 509.545 100.861 514.645 95.478 517.478C95.478 517.478 96.6113 513.795 92.3614 502.745C88.1114 491.695 63.7452 433.046 52.1287 432.479C52.1287 432.479 56.662 428.796 70.5451 444.662C83.6598 459.65 94.628 473.562 94.628 473.562Z" fill="#2E2C36"/>
<path fill-rule="evenodd" clip-rule="evenodd" d="M95.4782 517.478C95.4782 517.478 90.6616 525.694 83.0117 524.278C75.3618 522.861 73.1414 515.853 70.5682 510.007C67.9953 504.161 41.9528 439.847 41.9528 439.847C41.9528 439.847 44.821 430.586 52.6706 432.382C61.762 434.463 70.2619 453.729 70.2619 453.729L94.9115 504.728C94.9115 504.728 97.4615 512.095 95.4782 517.478Z" fill="#E4F9FF"/>
<mask id="mask1" mask-type="alpha" maskUnits="userSpaceOnUse" x="41" y="437" width="48" height="84">
<path fill-rule="evenodd" clip-rule="evenodd" d="M88.6782 437.569H41V520.737H88.6782V437.569Z" fill="white"/>
</mask>
<g mask="url(#mask1)">
<path fill-rule="evenodd" clip-rule="evenodd" d="M88.6782 514.644L57.2287 447.212C57.2287 447.212 50.7122 435.596 44.1956 437.862C37.6791 440.129 42.779 450.612 45.0456 458.829C47.3122 467.045 69.9785 515.211 75.9284 519.744C80.084 522.911 88.3949 517.761 88.6782 514.644Z" fill="#2E2C36"/>
</g>
<path fill-rule="evenodd" clip-rule="evenodd" d="M105.678 509.261C105.678 509.261 108.795 501.045 105.111 491.128C101.428 481.212 94.6282 473.562 94.6282 473.562C94.6282 473.562 101.796 471.316 107.845 485.755C113.895 500.195 112.761 507.845 105.678 509.828" fill="#3B3D4A"/>
<path d="M103.371 501.254C103.371 501.254 104.275 493.065 100.018 490.68C95.7613 488.295 89.2448 487.162 88.3948 483.762C87.5448 480.362 88.1115 475.262 88.1115 475.262" stroke="white" stroke-width="10"/>
<path fill-rule="evenodd" clip-rule="evenodd" d="M454.421 507.201C454.421 507.201 451.31 519.635 449.877 521.866C448.444 524.097 421.822 536.089 413.326 535.269C404.83 534.449 390.546 529.042 388.673 524.971C386.8 520.901 389.322 508.334 392.013 506.021C394.704 503.709 454.421 507.201 454.421 507.201Z" fill="#E4F9FF"/>
<path fill-rule="evenodd" clip-rule="evenodd" d="M581.986 399.19C581.986 399.19 602.92 477.812 555.321 489.995C507.721 502.178 454.53 491.164 396.09 472.145C348.207 456.562 350.191 438.713 289.275 456.279C245.687 468.849 133.444 500.195 133.444 500.195L121.828 466.195C121.828 466.195 289.275 379.78 355.857 381.763C380.794 382.506 459.324 398.477 459.324 398.477L581.986 399.19Z" fill="#FFA500"/>
<path fill-rule="evenodd" clip-rule="evenodd" d="M576.002 411C576.002 411 523.693 309.393 503.828 300.343C483.962 291.293 476.3 302.206 474.597 314.184C472.895 326.162 436.002 440.087 436.002 440.087L479.989 451L576.002 411Z" fill="#FFA500"/>
<path d="M506.516 391.091L479.458 447.713L480.736 448.324L507.794 391.702L506.516 391.091Z" fill="black"/>
<path fill-rule="evenodd" clip-rule="evenodd" d="M442.4 439.963L439.08 450.832C452.274 450.819 462.724 456.824 465.58 458.255L468.561 447.6L442.4 439.963Z" fill="#F7C8A9"/>
<path fill-rule="evenodd" clip-rule="evenodd" d="M431.795 471.375L460.651 478.545L466.639 456.846C466.639 456.846 466.56 456.808 466.072 456.562C463.217 455.132 451.871 449.843 438.676 449.856" fill="#E4F9FF"/>
<path fill-rule="evenodd" clip-rule="evenodd" d="M441.317 514.449C441.317 514.449 421.101 522.777 407.408 517.502C393.715 512.228 390.563 508.715 390.641 508.368C390.719 508.02 413.378 488.467 417.84 486.553C422.301 484.639 433.795 476.283 438.366 483.516C442.937 490.748 449.748 496.296 448.869 501.571C447.99 506.846 441.317 514.449 441.317 514.449Z" fill="#353644"/>
<path fill-rule="evenodd" clip-rule="evenodd" d="M459.976 482.547C459.976 482.547 458.862 501.254 453.799 509.965L440.57 515.011C440.57 515.011 444.39 504.94 441.258 500.951C438.127 496.962 436.332 492.544 436.289 489.98C436.247 487.417 424.818 484.477 424.818 484.477C424.818 484.477 422.916 488.791 419.514 488.755C416.112 488.718 398.59 501.446 398.59 501.446C398.59 501.446 402.879 496.923 407.376 492.099C411.874 487.274 427.635 471.976 427.635 471.976L459.976 482.547Z" fill="#2C262B"/>
<path fill-rule="evenodd" clip-rule="evenodd" d="M461.483 474.956C461.483 474.956 464.302 477.915 462.511 480.706C460.721 483.498 454.702 481.851 448.96 480.267C443.218 478.682 429.46 475.292 428.452 473.322C427.444 471.353 429.269 467.117 432.959 466.206C432.959 466.206 431.873 469.737 433.407 470.663C434.941 471.59 458.953 478.452 459.969 477.81C460.985 477.167 461.483 474.956 461.483 474.956Z" fill="#3E454F"/>
<path fill-rule="evenodd" clip-rule="evenodd" d="M440.941 490.077C440.941 490.077 433.466 482.003 425.131 484.192C425.131 484.192 422.395 484.737 423.383 482.927C424.372 481.116 425.816 481.151 425.816 481.151C425.816 481.151 425.637 479.368 427.144 479.127C427.144 479.127 426.689 477.281 428.748 477.165C428.748 477.165 429.406 472.956 433.855 475.121C438.305 477.285 446.935 478.939 445.822 481.302C444.709 483.665 444.066 482.649 444.066 482.649C444.066 482.649 444.584 484.218 443.382 485.69C442.179 487.161 442.365 486.332 442.365 486.332C442.365 486.332 443.74 489.256 440.941 490.077Z" fill="white"/>
<path d="M445.11 483.175C445.11 483.175 443.424 481.633 440.66 481.01" stroke="black" stroke-width="4"/>
<path d="M427.704 476.639C427.704 476.639 430.807 477.048 432.617 478.037" stroke="black" stroke-width="4"/>
<path d="M424.494 481.079C424.494 481.079 428.767 480.945 430.64 481.657" stroke="black" stroke-width="4"/>
<path d="M443.623 487.196C443.623 487.196 440.956 484.853 437.149 483.705" stroke="black" stroke-width="4"/>
<path fill-rule="evenodd" clip-rule="evenodd" d="M510.7 197.44C510.7 197.44 507.424 205.21 500.59 202.255L510.7 197.44Z" fill="#EC9788"/>
<path d="M494.487 170.278L493.408 170.624L493.513 170.962C493.598 171.238 493.693 171.553 493.794 171.903C494.086 172.904 494.377 173.978 494.649 175.084C494.951 176.313 495.21 177.505 495.413 178.631L495.472 178.964C495.964 181.827 496.033 184.013 495.594 185.188L495.568 185.255C493.052 191.478 496.468 194.633 503.637 192.424L503.856 192.355L503.51 191.276C497.052 193.342 494.462 191.014 496.618 185.68C497.212 184.211 497.121 181.72 496.528 178.43C496.321 177.279 496.057 176.064 495.75 174.813C495.504 173.816 495.244 172.844 494.981 171.927L494.883 171.586C494.823 171.383 494.767 171.191 494.713 171.012L494.574 170.557L494.487 170.278Z" fill="#EC9788"/>
<path d="M522.467 213.632L521.912 212.644L521.71 212.754L521.524 212.853C521.243 213.001 520.923 213.164 520.568 213.339L520.413 213.414C519.217 213.997 517.895 214.58 516.484 215.124C513.24 216.374 510.035 217.228 507.054 217.505C505.702 217.63 504.422 217.633 503.222 217.505L502.984 217.477L502.845 218.602C504.198 218.769 505.64 218.774 507.158 218.633C510.257 218.345 513.559 217.466 516.892 216.181C518.334 215.625 519.686 215.029 520.909 214.433L521.372 214.205C521.569 214.106 521.754 214.012 521.926 213.922L522.246 213.752L522.467 213.632Z" fill="#EC9788"/>
<path fill-rule="evenodd" clip-rule="evenodd" d="M507.322 175.235C507.528 175.235 507.733 175.161 507.897 175.011C507.907 175.001 509.309 173.757 511.332 173.832C513.426 173.909 514.815 174.934 514.829 174.944C515.204 175.224 515.736 175.151 516.018 174.778C516.301 174.405 516.23 173.875 515.858 173.591C515.786 173.535 514.051 172.232 511.395 172.133C508.661 172.035 506.824 173.688 506.747 173.758C506.401 174.076 506.378 174.614 506.696 174.959C506.863 175.142 507.092 175.235 507.322 175.235Z" fill="black"/>
<path fill-rule="evenodd" clip-rule="evenodd" d="M483.489 177.825C483.695 177.825 483.901 177.751 484.064 177.601C484.074 177.592 485.476 176.346 487.5 176.423C489.587 176.5 490.98 177.522 490.993 177.532C491.366 177.817 491.9 177.746 492.185 177.373C492.47 177 492.399 176.467 492.026 176.182C491.953 176.126 490.218 174.822 487.562 174.724C484.83 174.626 482.991 176.279 482.915 176.349C482.569 176.666 482.545 177.204 482.863 177.55C483.03 177.733 483.26 177.825 483.489 177.825Z" fill="black"/>
<path fill-rule="evenodd" clip-rule="evenodd" d="M590.876 75.8643C573.593 89.4641 556.876 116.947 527.41 112.697C497.944 108.447 459.345 125.85 476.803 173.956C476.803 173.956 476.128 147.83 490.861 138.763C505.594 129.697 510.41 177.579 538.46 165.396C538.46 165.396 542.993 162.846 544.126 166.813C545.26 170.779 544.483 181.348 541.472 183.43C541.472 183.43 540.727 184.096 539.31 183.529C539.31 183.529 538.463 196.981 530.528 205.272C530.528 205.272 532.511 211.863 533.219 212.854L533.727 212.97C533.727 212.97 560.843 233.962 590.309 210.162C619.775 186.362 639.325 204.496 663.125 182.396C686.924 160.296 629.761 93.6389 644.425 77.8476C626.858 58.8646 599.34 69.2041 590.876 75.8643Z" fill="#FF7961"/>
<path fill-rule="evenodd" clip-rule="evenodd" d="M536.544 183.448C536.544 185.091 537.876 186.423 539.519 186.423C541.162 186.423 542.494 185.091 542.494 183.448C542.494 181.805 541.162 180.473 539.519 180.473C537.876 180.473 536.544 181.805 536.544 183.448Z" fill="white"/>
</svg>
