<svg width="447" height="68" viewBox="0 0 447 68" fill="none" xmlns="http://www.w3.org/2000/svg">
<path d="M0 33.1279C0 17.3957 12.3835 4.45084 28.1003 3.75387L112.75 0L192.205 6.69464C214.362 8.56158 236.638 8.56364 258.796 6.70081L338.5 0L416.821 3.62599C433.43 4.3949 446.5 18.0841 446.5 34.7103C446.5 53.0861 430.661 67.4601 412.371 65.6819L347.078 59.334C341.372 58.7792 335.627 58.767 329.919 59.2974L262.272 65.5831C237.81 67.8561 213.19 67.8536 188.729 65.5756L119.861 59.1623C115.126 58.7213 110.366 58.6163 105.616 58.848L30.8355 62.4958C14.0541 63.3144 0 49.9292 0 33.1279Z" fill="#B6DDFA"/>
</svg>
