<svg width="286" height="54" viewBox="0 0 286 54" fill="none" xmlns="http://www.w3.org/2000/svg">
<g style="mix-blend-mode:multiply">
<path d="M0 26.5899C0 13.9465 9.87292 3.50323 22.4965 2.79393L66.4938 0.32178C70.3054 0.107614 74.128 0.203632 77.924 0.608886L103.642 3.35453C130.765 6.25006 158.118 6.25326 185.241 3.36406L211.276 0.590758C214.967 0.197588 218.684 0.109236 222.39 0.326599L262.42 2.67477C275.66 3.45145 286 14.4153 286 27.6785C286 42.7261 272.826 54.3771 257.891 52.5374L223.482 48.2987C219.058 47.7537 214.584 47.7417 210.158 48.2629L180.238 51.7855C156.456 54.5855 132.427 54.5824 108.646 51.7763L77.8166 48.1386C74.0934 47.6992 70.3384 47.5946 66.5965 47.8259L25.3038 50.3781C11.5888 51.2258 0 40.3311 0 26.5899Z" fill="#FF7961"/>
</g>
</svg>
