<svg width="29" height="28" viewBox="0 0 29 28" fill="none" xmlns="http://www.w3.org/2000/svg">
<path d="M17.4631 4.23165L17.7333 3.82716L17.9985 3.42809L18.5956 2.53268C18.6687 2.42254 18.6391 2.27437 18.5299 2.20078C18.4188 2.12719 18.2706 2.15683 18.197 2.26746L17.5574 3.22758L17.2883 3.63108L17.0152 4.04002C16.1499 3.70467 15.1853 3.5165 14.1664 3.5165C13.1485 3.5165 12.1839 3.70467 11.3187 4.04002L11.047 3.63108L10.7778 3.22758L10.1373 2.26696C10.0642 2.15683 9.91552 2.12719 9.80489 2.20029C9.69524 2.27338 9.66561 2.42204 9.7387 2.53218L10.3353 3.4276L10.6015 3.82666L10.8717 4.23116C8.83933 5.17745 7.46484 6.97026 7.46484 9.02237H20.87C20.87 6.97075 19.4955 5.17794 17.4631 4.23165ZM11.2949 7.10756C10.8974 7.10756 10.5763 6.78604 10.5763 6.38945C10.5763 5.99286 10.8974 5.67183 11.2949 5.67183C11.6915 5.67183 12.0126 5.99286 12.0126 6.38945C12.0126 6.78604 11.6915 7.10756 11.2949 7.10756ZM17.0394 7.10756C16.6428 7.10756 16.3217 6.78604 16.3217 6.38945C16.3217 5.99286 16.6428 5.67183 17.0394 5.67183C17.4369 5.67183 17.758 5.99286 17.758 6.38945C17.758 6.78604 17.4369 7.10756 17.0394 7.10756Z" fill="black"/>
<path d="M7.56807 9.98053H7.46484V11.1748V12.1492V20.5137C7.46484 21.3498 8.14443 22.0299 8.98059 22.0299H10.075C10.0385 22.1564 10.0178 22.2902 10.0178 22.4285V22.5085V22.9871V25.4615C10.0178 26.2541 10.6613 26.8977 11.4545 26.8977C12.2477 26.8977 12.8907 26.2541 12.8907 25.4615V22.9871V22.5085V22.4285C12.8907 22.2907 12.8695 22.1564 12.8339 22.0299H15.5009C15.4643 22.1564 15.4441 22.2902 15.4441 22.4285V22.5085V22.9871V25.4615C15.4441 26.2541 16.0876 26.8977 16.8803 26.8977C17.673 26.8977 18.3166 26.2541 18.3166 25.4615V22.9871V22.5085V22.4285C18.3166 22.2907 18.2963 22.1564 18.2598 22.0299H19.3537C20.1899 22.0299 20.87 21.3498 20.87 20.5137V12.1492V11.1748V9.98053H20.7667H7.56807Z" fill="black"/>
<path d="M5.0705 9.98053C4.27732 9.98053 3.63428 10.6231 3.63428 11.4173V17.5607C3.63428 18.3534 4.27732 18.997 5.0705 18.997C5.86319 18.997 6.50673 18.3534 6.50673 17.5607V11.4168C6.50673 10.6231 5.86369 9.98053 5.0705 9.98053Z" fill="black"/>
<path d="M23.2644 9.98053C22.4707 9.98053 21.8281 10.6231 21.8281 11.4173V17.5607C21.8281 18.3534 22.4707 18.997 23.2644 18.997C24.057 18.997 24.6996 18.3534 24.6996 17.5607V11.4168C24.6996 10.6231 24.057 9.98053 23.2644 9.98053Z" fill="black"/>
</svg>
