<svg xmlns="http://www.w3.org/2000/svg" width="214" height="214" fill="none" xmlns:v="https://vecta.io/nano"><path d="M138.123 202.988c15.5-1.986 24.796-7.891 29.43-18.694 2.47-5.76 3.014-16.846 1.193-24.33-3.336-13.704-11.535-22.247-25.18-26.235-5.836-1.706-19.8-2.075-26.697-.705-13 2.582-21.814 9.76-25.224 20.544-1.608 5.086-1.602 17.018.013 23.324 2.544 9.937 9.563 18.29 18.763 22.328 7.699 3.379 18.871 4.899 27.702 3.768z" fill="#ffbf2b"/><path d="M47.859 180.387c18.301 9.617 39.893 6.448 67.431-9.899 39.21-23.275 72.356-68.934 72.687-100.129.147-13.758-2.61-20.303-12.857-30.527-7.555-7.539-9.9-9.029-19.227-12.224-23.541-8.064-46.244.667-77.786 29.914-25.689 23.82-41.318 45.216-48.68 66.645-8.303 24.169-1.173 45.917 18.431 56.22z" fill="#b6ddfa"/></svg>