<svg width="214" height="214" viewBox="0 0 214 214" fill="none" xmlns="http://www.w3.org/2000/svg">
<path d="M138.124 202.988C153.623 201.002 162.92 195.097 167.553 184.294C170.024 178.534 170.568 167.448 168.746 159.964C165.411 146.26 157.212 137.717 143.567 133.729C137.73 132.023 123.766 131.654 116.87 133.024C103.869 135.606 95.056 142.784 91.6455 153.568C90.0371 158.654 90.0438 170.586 91.6581 176.892C94.2026 186.829 101.222 195.182 110.421 199.22C118.12 202.599 129.292 204.119 138.124 202.988Z" fill="#FFBF2B"/>
<path d="M47.8588 180.387C66.1601 190.004 87.7518 186.835 115.29 170.488C154.5 147.213 187.646 101.554 187.977 70.3593C188.124 56.6013 185.367 50.056 175.12 39.8325C167.565 32.2934 165.22 30.8037 155.893 27.6087C132.352 19.5448 109.649 28.2756 78.1071 57.5223C52.4179 81.3421 36.7894 102.738 29.4274 124.167C21.124 148.336 28.254 170.084 47.8588 180.387Z" fill="#FF7961"/>
</svg>
