<svg width="28" height="28" viewBox="0 0 28 28" fill="none" xmlns="http://www.w3.org/2000/svg">
<path d="M20.6333 15.0719C20.6027 11.994 23.1432 10.5178 23.2568 10.4432C21.829 8.35555 19.6045 8.0691 18.8128 8.0365C16.9212 7.84438 15.12 9.15071 14.1604 9.15071C13.2027 9.15071 11.7201 8.06465 10.1515 8.09231C8.08802 8.12293 6.18606 9.29246 5.1242 11.1396C2.98122 14.8571 4.57598 20.3664 6.66414 23.3836C7.68501 24.8583 8.90244 26.5178 10.4997 26.457C12.0391 26.3963 12.6199 25.4614 14.4809 25.4614C16.3419 25.4614 16.8644 26.457 18.4928 26.4259C20.1483 26.3958 21.1978 24.923 22.2103 23.4424C23.3823 21.7291 23.8648 20.0701 23.8934 19.9861C23.8574 19.9693 20.6664 18.747 20.6333 15.0719Z" fill="black"/>
<path d="M17.5735 6.03971C18.4206 5.01143 18.9945 3.58261 18.8384 2.16022C17.616 2.20961 16.1363 2.97266 15.2587 3.99995C14.4724 4.91167 13.7849 6.3632 13.9691 7.75992C15.3328 7.86561 16.7236 7.06601 17.5735 6.03971Z" fill="black"/>
</svg>
