<svg width="151" height="149" viewBox="0 0 151 149" fill="none" xmlns="http://www.w3.org/2000/svg">
<path d="M110.081 109.314C128.301 95.5736 135.917 81.5957 134.191 65.0648C133.271 56.2498 126.171 42.3629 118.608 34.5873C104.76 20.3483 88.3816 15.9435 68.3116 21.0602C59.7263 23.2489 41.7957 33.003 34.0303 39.7088C19.3922 52.3497 13.2818 67.5236 16.5419 83.1378C18.0793 90.5013 26.4708 105.016 32.9442 111.51C43.1453 121.743 57.8959 126.778 72.3751 124.971C84.4931 123.458 99.6989 117.144 110.081 109.314Z" fill="#B6DDFA"/>
<path d="M97.696 148.216C102.38 147.013 108.584 143.862 111.737 141.084C119.837 133.949 121.988 124.666 118.162 113.351C116.123 107.319 111.473 101.899 105.826 98.9711C100.935 96.435 96.0813 95.3382 88.6423 95.088C82.8457 94.893 81.5474 94.9799 78.2937 95.7808C65.9243 98.8255 57.671 106.771 56.2145 117.037C55.6418 121.073 56.2576 127.896 57.5671 132.021C60.1085 140.027 66.2211 145.44 75.424 147.835C80.6794 149.202 93.0311 149.413 97.696 148.216Z" fill="#28508B"/>
</svg>
