<svg xmlns="http://www.w3.org/2000/svg" width="573" height="573" fill="none" xmlns:v="https://vecta.io/nano"><path d="M202.39 231.979l-7.679-45.416a2.55 2.55 0 0 1 .044-1.04 2.54 2.54 0 0 1 .457-.935c.216-.276.486-.505.794-.672a2.54 2.54 0 0 1 .997-.298l22.651-2.092a2.54 2.54 0 0 1 2.728 2.08l7.907 44.952a2.53 2.53 0 0 1-.04 1.025c-.083.335-.234.65-.444.925a2.52 2.52 0 0 1-.773.673c-.302.169-.634.275-.978.311l-22.92 2.556a2.54 2.54 0 0 1-1.777-.498 2.53 2.53 0 0 1-.967-1.571z" fill="#000"/><path d="M215.419 195.634l-1.054-6.257c-.034-.201-.026-.407.023-.605s.139-.383.263-.544.281-.296.46-.394a1.47 1.47 0 0 1 .578-.176l2.108-.195a1.47 1.47 0 0 1 1.593 1.22l1.1 6.217a1.47 1.47 0 0 1-.022.598c-.048.195-.135.379-.256.54s-.274.295-.448.395a1.49 1.49 0 0 1-.569.186l-2.148.241a1.49 1.49 0 0 1-1.056-.292c-.303-.227-.507-.561-.572-.934z" fill="#f6cbc3"/><g fill="#000"><path d="M368.342 479.601c1.753 9.89.899 19.958-.946 29.796-1.891 10.091-4.653 20.021-7.168 29.968l-4.355 17.19a.65.65 0 0 1-.458.458 75.56 75.56 0 0 1-32.042 1.089.65.65 0 0 1-.363-.274c-.085-.131-.12-.289-.099-.444a.65.65 0 0 1 .634-.571c2.544.218 4.79-1.077 6.377-2.997 1.857-2.246 2.521-5.077 2.498-7.942-.028-3.306-.882-6.526-1.616-9.741l-2.062-9.683c-2.562-13.056-4.284-26.262-5.157-39.537a305.06 305.06 0 0 1-.642-22.433c.015-.164.091-.316.212-.426a.66.66 0 0 1 .888 0c.121.11.197.262.212.426a309.12 309.12 0 0 0 2.435 41.17 296.65 296.65 0 0 0 3.301 20.473 287.36 287.36 0 0 0 2.154 10.09c.757 3.261 1.587 6.567 1.57 9.936.082 3.113-.932 6.155-2.865 8.595-1.793 2.155-4.452 3.627-7.305 3.381l.171-1.289a73.99 73.99 0 0 0 31.349-1.072l-.458.459 7.581-29.974c2.452-9.701 4.876-19.482 5.604-29.504.457-5.6.218-11.236-.711-16.777-.149-.825 1.117-1.181 1.261-.35v-.017zm-77.012 0c1.748 9.89.894 19.958-.945 29.796-1.891 10.091-4.659 20.021-7.174 29.968l-4.355 17.19a.65.65 0 0 1-.166.289c-.079.08-.178.139-.287.169a75.59 75.59 0 0 1-32.048 1.089.66.66 0 0 1-.363-.275c-.084-.132-.119-.29-.098-.445a.66.66 0 0 1 .215-.402.65.65 0 0 1 .424-.167c2.538.218 4.785-1.077 6.372-2.997 1.856-2.246 2.527-5.077 2.504-7.942-.035-3.306-.883-6.526-1.616-9.741l-2.063-9.683a310.54 310.54 0 0 1-5.157-39.537 314.18 314.18 0 0 1-.642-22.433.66.66 0 0 1 .213-.426c.121-.111.279-.172.443-.172s.323.061.444.172a.66.66 0 0 1 .213.426 309.79 309.79 0 0 0 2.435 41.17c.871 6.876 1.973 13.7 3.306 20.473a287.36 287.36 0 0 0 2.154 10.09c.751 3.261 1.582 6.567 1.565 9.936a13.25 13.25 0 0 1-2.865 8.595c-1.788 2.155-4.447 3.627-7.3 3.381l.172-1.289c10.406 1.887 21.096 1.522 31.348-1.072l-.458.459 7.581-29.974c2.447-9.701 4.876-19.482 5.604-29.504.455-5.6.215-11.236-.716-16.777-.144-.825 1.117-1.181 1.266-.35l-.006-.017zm4.733-337.457c-3.226-.086-8.526 1.88-11.488 3.169-4.229 1.845-8.888 2.372-13.472 2.865s-9.242 1.025-13.477 2.865-8.05 5.197-9.265 9.643a12.78 12.78 0 0 0 1.341 9.581 15.59 15.59 0 0 0 7.351 6.423c1.897.825 4.046 1.381 5.369 2.974s1.542 4.011 2.974 5.575a6.96 6.96 0 0 0 4.091 1.886 14.74 14.74 0 0 0 6.005-.304c1.146-.298 2.384-.739 3.502-.327a6.45 6.45 0 0 1 1.638 1.118c3.175 2.515 7.707 2.974 11.535 1.644s6.967-4.257 9.065-7.724 3.237-7.449 3.896-11.46a54.01 54.01 0 0 0 .527-13.076"/><path d="M296.063 142.797a19.48 19.48 0 0 0-6.091 1.181c-1.988.63-3.89 1.438-5.827 2.217-4.922 1.989-10.314 2.292-15.511 2.934-5.025.607-10.217 1.57-14.4 4.584-3.781 2.739-6.217 7.071-5.495 11.821.739 4.876 4.309 8.75 8.761 10.635 1.96.831 4.143 1.444 5.518 3.192s1.49 4.245 3.169 5.73c1.88 1.661 5.06 1.719 7.409 1.432 1.301-.166 2.527-.665 3.828-.819a4.08 4.08 0 0 1 1.686.17c.544.175 1.045.463 1.471.844a11.21 11.21 0 0 0 6.234 2.561c2.29.179 4.585-.26 6.647-1.272 9.586-4.687 11.752-17.19 11.718-26.811a47.42 47.42 0 0 0-.184-4.182c-.063-.843 1.25-.837 1.313 0a51.84 51.84 0 0 1-1.473 17.476c-1.318 4.905-3.753 9.632-7.81 12.807-3.707 2.905-8.641 4.211-13.213 2.733-1.137-.358-2.21-.891-3.181-1.582-.452-.326-.853-.71-1.312-1.02a2.72 2.72 0 0 0-1.045-.406c-.373-.061-.755-.044-1.121.051-1.352.252-2.63.693-4.011.825a15.16 15.16 0 0 1-4.074-.177c-2.469-.436-4.377-1.719-5.403-4.011-.401-1.103-.887-2.172-1.456-3.198a6.18 6.18 0 0 0-2.704-2.091c-1.054-.487-2.16-.848-3.215-1.335-1.116-.528-2.172-1.174-3.151-1.926-1.962-1.476-3.535-3.407-4.584-5.626-1.032-2.202-1.431-4.648-1.151-7.064s1.225-4.706 2.732-6.614c3.095-3.954 7.85-6.051 12.646-7.099 5.501-1.198 11.185-1.204 16.675-2.476 4.698-1.088 8.927-3.564 13.689-4.486a14.72 14.72 0 0 1 2.916-.304c.164.015.316.091.426.212a.66.66 0 0 1 0 .888c-.11.121-.262.197-.426.212v-.006z"/></g><path d="M310.733 177.114c-1.37 6.143 2.865 12.36 8.297 15.574 7.449 4.447 16.284 4.751 24.134 8.126 10.887 4.681 12.314 16.044 9.008 26.403-3.816 11.913-15.723 23.339-10.79 36.741 1.954 5.312 12.188 11.976 10.721 17.883-.573 2.407-3.071 3.805-5.386 4.688-12.91 4.904-26.931 6.429-40.683 6.016-7.506-.229-51.816.075-46.144-15.242 1.851-5.008 5.833-8.761 8.234-13.465 2.527-4.945 2.292-10.509.986-15.786-2.739-10.996-11.277-25.602-.877-35.183 7.18-6.618 21.872-10.245 23.178-21.55.327-2.836-2-6.04-4.825-5.638" fill="#f6cbc3"/><path d="M291.29 192.224l.138-.905c.326-2.836-2-6.039-4.825-5.638l9.397-3.335 8.234 1.547c-3.461 3.839-8.331 5.902-12.944 8.331z" fill="#000"/><path d="M346.143 279.819c32.867 49.65 62.457 114.6 88.5 168.13 2.526 5.191 5.088 10.887 4.011 16.531-.952 4.968-4.556 8.996-8.395 12.285-13.884 11.901-32.088 17.396-50.069 20.823-58.967 11.23-121.476 2.905-175.458-23.367-3.358-1.633-6.876-3.524-8.647-6.825-2.458-4.612-.641-10.251 1.221-15.138 21.006-55.169 43.8-122.783 68.284-176.536" fill="#f7a705"/><path d="M348.309 235.027c10.051-16.68 15.225-36.099 16.01-55.552s-2.727-38.964-9.116-57.363c-5.444-15.677-13.139-30.879-24.76-42.729-1.295-1.329-2.721-2.653-4.509-3.157-3.828-1.077-7.787 2.263-8.779 6.114s.207 7.902 1.616 11.62c5.971 15.734 13.179 31.159 16.68 47.708 1.74 8.055 2.242 16.329 1.49 24.535-.808 8.022-3.363 16.772-8.99 22.817-1.341 1.438-2.745 2.785-4.636 3.467-2.137.773-4.796.453-6.303-1.261m-43.524 17.827c-6.876 3.731-14.131 9.438-18.909 15.643-2.47 3.198-4.584 6.659-7.094 9.827-2.055 2.605-4.358 5.003-6.876 7.163-3.043 2.601-6.458 4.87-10.314 6.005s-8.154 1.043-11.672-.871c-5.157-2.825-7.615-8.784-10.887-13.718a39.25 39.25 0 0 0-7.902-8.79 3.49 3.49 0 0 0-1.45-.831c-.632-.095-1.278.02-1.839.327-2.911 1.352-4.584 4.584-4.979 7.753s.366 6.389 1.18 9.494c2.109 8.022 4.848 16.142 10.136 22.548 4.402 5.305 10.31 9.15 16.944 11.024 11.156 3.129 23.144.339 33.91-3.948 3.578-1.365 7.029-3.041 10.314-5.008 8.417-5.244 14.847-13.143 18.273-22.45" fill="#000"/><g fill="#f6cbc3"><path d="M298.132 64.611c.452-.894 1.283-.888 2.028-.785a10.77 10.77 0 0 1 5.495 2.458c.184.194.421.33.682.39.372.04.687-.246.991-.464.37-.235.784-.392 1.216-.462a3.22 3.22 0 0 1 2.471.624c.348.267.637.601.851.984.314-.49.767-.876 1.3-1.107a2.93 2.93 0 0 1 1.697-.194c1.142.231 2.208.745 3.1 1.495.539-.268 1.141-.385 1.741-.338s1.177.254 1.668.602c.974.708 1.804 1.595 2.447 2.613 1.971 2.716 3.893 5.466 5.765 8.251a9.7 9.7 0 0 1-1.897 12.892c-1.556 1.283-3.474 2.049-5.485 2.192a9.7 9.7 0 0 1-5.74-1.396l-11.46-6.968c-.996-.516-1.87-1.236-2.567-2.114-.656-1.139-.978-2.44-.929-3.753-.051-1.656.104-3.438 1.181-4.699.34-.373.763-.66 1.235-.839a3.22 3.22 0 0 1 1.481-.192l-5.919-5.799c-.705-.699-1.438-1.438-1.547-2.475a1.71 1.71 0 0 1 .195-.917zm8.423 12.434c.643.034 1.287-.045 1.902-.235l-1.232-1.209c.03.279-.016.561-.134.815s-.304.472-.536.629z"/><path d="M297.565 64.285c.79-1.364 2.229-1.238 3.581-.945a11.4 11.4 0 0 1 4.475 2.08c.298.229.608.659 1.003.493s.573-.413.911-.573a3.64 3.64 0 0 1 1.793-.287 3.84 3.84 0 0 1 3.1 1.977h-1.146a3.53 3.53 0 0 1 3.077-1.656c1.467 0 2.779.779 3.92 1.616h-.659c2.412-1.295 4.738.453 6.177 2.332l5.157 7.3c1.392 2.034 2.601 3.937 2.865 6.446a10.36 10.36 0 0 1-1.267 6.074 10.47 10.47 0 0 1-11.534 5.003 11.85 11.85 0 0 1-3.381-1.501l-4.011-2.447-7.689-4.699a6.17 6.17 0 0 1-2.579-2.945 10.52 10.52 0 0 1-.476-4.154c.121-2.613 1.49-5.495 4.544-5.243l-.464 1.146-5.157-5.025c-1.255-1.238-3.151-2.836-2.332-4.825.315-.768 1.582-.435 1.261.35-.367.9.154 1.673.762 2.292l2.028 2.005 4.344 4.252a.67.67 0 0 1 .157.731.66.66 0 0 1-.247.303c-.111.074-.241.113-.375.112-2.63-.224-3.254 2.538-3.249 4.618a8.39 8.39 0 0 0 .459 3.146 5.16 5.16 0 0 0 2.246 2.292l6.555 4.011 3.438 2.08c1.01.687 2.071 1.294 3.175 1.817a9.05 9.05 0 0 0 5.615.457c1.873-.449 3.554-1.483 4.799-2.953s1.988-3.298 2.123-5.219a9.05 9.05 0 0 0-1.375-5.464l-4.871-7.042c-1.215-1.719-3.381-5.529-6.022-4.114a.65.65 0 0 1-.659 0c-1.358-.997-4.011-2.464-5.209-.435a.65.65 0 0 1-.573.34.66.66 0 0 1-.333-.091.65.65 0 0 1-.24-.248 2.58 2.58 0 0 0-1.087-1.062c-.461-.237-.982-.33-1.497-.267-1.106.132-1.908 1.438-3.071.722-.573-.332-1.003-.808-1.547-1.146a10.42 10.42 0 0 0-1.84-.917c-.888-.332-2.933-1.146-3.558-.086a.66.66 0 0 1-1.109-.205c-.054-.142-.057-.299-.008-.443zm8.99 12.107a5.65 5.65 0 0 0 1.032-.046h-.172a5.67 5.67 0 0 0 .859-.138l-.292 1.094-1.232-1.209 1.117-.464a2.21 2.21 0 0 1-.222 1.14 2.22 2.22 0 0 1-.769.871.67.67 0 0 1-.506.042c-.167-.053-.307-.172-.388-.328a.67.67 0 0 1-.061-.494c.044-.166.15-.31.296-.4l.12-.08-.137.103c.088-.068.167-.147.235-.235l-.103.132c.079-.102.144-.213.194-.332l-.068.16a1.68 1.68 0 0 0 .114-.435v.178a1.93 1.93 0 0 0 0-.373.64.64 0 0 1 .115-.346c.071-.102.171-.181.286-.227s.251-.064.378-.041a.67.67 0 0 1 .339.173l1.232 1.209a.65.65 0 0 1 .167.628.67.67 0 0 1-.165.293.66.66 0 0 1-.289.173 6.23 6.23 0 0 1-2.08.264.66.66 0 0 1-.597-.656.66.66 0 0 1 .597-.656zm-116.777 139.95c1.066-2.728 3.541-4.584 5.902-6.343.992-.81 2.103-1.462 3.295-1.931a4.2 4.2 0 0 1 1.881-.259c.639.059 1.255.263 1.803.597a3.21 3.21 0 0 1 .768 4.28c.51-.23 1.084-.282 1.627-.147s1.026.45 1.369.893.527.988.522 1.549-.199 1.102-.55 1.538c.511-.033 1.02.089 1.46.351a2.53 2.53 0 0 1 .522 3.941c1.301.321 1.679 2.017 1.462 3.335-.298 1.759-1.198 3.364-1.651 5.094-.236.881-.29 1.802-.16 2.705a4.11 4.11 0 0 1-.268 2.356c-.319.742-.85 1.373-1.526 1.815l-.234.149c-1.263.804-2.696 1.302-4.185 1.452a9.59 9.59 0 0 1-4.39-.585 9.57 9.57 0 0 1-5.802-6.374l-1.278-4.583c-.899-3.215-1.788-6.716-.567-9.833z"/><path d="M189.141 216.17c.832-1.888 2.112-3.545 3.731-4.825 1.575-1.323 3.323-2.785 5.214-3.627 1.719-.768 4.011-.899 5.449.573a3.91 3.91 0 0 1 1.024 2.281c.083.852-.116 1.707-.565 2.435l-.745-.963a3.14 3.14 0 0 1 3.695.974 3.15 3.15 0 0 1 .658 1.908 3.14 3.14 0 0 1-.64 1.914l-.573-.985c.633-.017 1.258.153 1.795.49a3.23 3.23 0 0 1 1.225 1.402 3.22 3.22 0 0 1-.574 3.517l-.286-1.095c1.478.447 2.051 2 1.994 3.438-.092 2.04-1.232 3.857-1.719 5.805-.196.971-.227 1.969-.092 2.951.054.883-.132 1.764-.538 2.55-.705 1.375-2.143 2.2-3.524 2.762-1.341.535-2.779.782-4.221.725a10.28 10.28 0 0 1-4.151-1.058c-2.865-1.398-4.618-3.953-5.46-6.956l-1.943-7.323c-.453-2.292-.573-4.676.246-6.876.293-.785 1.565-.447 1.267.35-1.358 3.644.028 7.546 1.02 11.104.441 1.576.75 3.261 1.518 4.716a8.93 8.93 0 0 0 5.74 4.512 8.92 8.92 0 0 0 3.73.128 8.91 8.91 0 0 0 3.457-1.408c.63-.409 1.109-1.013 1.364-1.719.195-.782.223-1.596.08-2.389-.149-2.052.785-3.88 1.427-5.771.378-1.1 1.146-3.736-.539-4.246-.109-.031-.209-.091-.288-.173a.65.65 0 0 1-.166-.292c-.028-.111-.028-.227.001-.337s.087-.211.167-.292c.263-.279.436-.631.496-1.01s.003-.767-.162-1.113a1.9 1.9 0 0 0-.762-.828c-.332-.193-.714-.28-1.097-.252a.66.66 0 0 1-.329-.088c-.1-.057-.183-.14-.241-.24s-.089-.213-.089-.328a.66.66 0 0 1 .086-.33 1.86 1.86 0 0 0 .419-1.155 1.87 1.87 0 0 0-.392-1.165c-.259-.332-.623-.567-1.033-.666a1.87 1.87 0 0 0-1.223.121c-.532.218-1.031-.51-.739-.962a2.54 2.54 0 0 0 .36-1.899c-.135-.656-.524-1.232-1.082-1.602-1.575-.946-3.484-.086-4.853.813-2.607 1.719-5.655 3.862-6.876 6.876-.309.745-1.576.407-1.261-.372z"/></g><path d="M259.907 277.332c1.851-5.008 5.827-8.761 8.234-13.465 2.527-4.945 2.292-10.509.986-15.787-2.739-10.995-11.277-25.601-.877-35.182 6.217-5.73 18.061-9.219 21.974-17.396.906.069 1.811.114 2.716.126.521.001 1.027.169 1.446.478s.727.744.881 1.241a25.71 25.71 0 0 0 2.928 6.549c1.937-6.497-.917-6.589 3.157-8.938 2.802-1.616 8.842-3.788 13.403-5.73a19.52 19.52 0 0 0 4.274 3.438c7.449 4.446 16.285 4.75 24.135 8.125a16.99 16.99 0 0 1 7.449 5.896l1.198 2.023c2.658 5.351 2.418 12.113.383 18.485-3.816 11.912-15.723 23.338-10.789 36.74 1.954 5.312 12.188 11.976 10.721 17.884-.573 2.406-3.072 3.804-5.387 4.687-12.909 4.905-26.931 6.429-40.683 6.016-7.523-.206-51.822.098-46.149-15.19z" fill="#000"/><path d="M280.232 181.641c3.89 4.338 10.102 6.148 15.923 5.684 6.401-.51 13.036-3.547 16.617-9.03 4.109-6.235 5.633-15.087 3.014-21.918a20.41 20.41 0 0 0-8.022-9.998 19.84 19.84 0 0 0-9.092-2.935c-3.224-.224-6.454.343-9.41 1.651-6.114 2.716-10.044 8.67-11.838 14.938-1.719 5.948-2.292 12.996.722 18.691.572 1.055 1.272 2.035 2.086 2.917z" fill="#f6cbc3"/><g fill="#000"><path d="M308.423 167.717c.642 4.143 1.18 10.022 2.464 13.798 2.074-3.524 4.165-7.077 5.564-10.921s2.08-8.022 1.254-12.033c-.262-1.293-.683-2.548-1.254-3.736-.626-1.293-1.414-2.5-2.344-3.593-.51-.607-1.054-1.18-1.604-1.719l-1.255-1.312a27.81 27.81 0 0 0-4.086-3.748c-4.355-3.031-10.176-3.329-15.293-1.925s-9.672 4.326-14.016 7.363c7.902 1.415 10.314 4.051 26.507 2.097-.24 3.599-1.06 9.655 2.212 11.598 1.581.934.481 3.34.057 5.128"/><path d="M309.053 167.54c.705 4.584.986 9.368 2.464 13.803l-1.197-.16c2.504-4.252 5.059-8.595 6.303-13.386s1.06-9.93-1.61-14.21c-1.29-2.069-3.083-3.77-4.768-5.518-1.53-1.732-3.363-3.171-5.409-4.246-3.919-1.874-8.595-1.851-12.698-.745-5.157 1.381-9.66 4.315-13.975 7.329l-.155-1.198c2.659.482 5.238 1.267 7.868 1.862 3.13.684 6.332.984 9.534.894 2.994-.078 5.981-.31 8.951-.693.172.002.338.071.46.193a.66.66 0 0 1 .193.46c-.201 2.934-.768 6.303.355 9.111.234.621.616 1.175 1.112 1.616.573.47 1.117.728 1.392 1.461.573 1.507-.252 3.249-.607 4.716-.201.813-1.467.47-1.267-.35.275-1.146 1.456-3.507.247-4.395a5.84 5.84 0 0 1-2.292-3.163c-.9-2.865-.441-6.045-.247-8.996l.659.659c-4.584.545-9.254.946-13.872.527-2.763-.306-5.496-.84-8.171-1.598-1.536-.396-3.077-.768-4.641-1.049-.602-.109-.573-.911-.155-1.197 7.575-5.295 17.093-10.698 26.576-7.186 2.191.841 4.182 2.131 5.844 3.788 1.849 1.713 3.573 3.557 5.157 5.518 3.186 4.114 4.126 9.231 3.318 14.325-.94 5.867-4.011 11.087-6.962 16.135-.068.108-.165.194-.28.248s-.244.073-.37.056a.66.66 0 0 1-.547-.464c-1.479-4.429-1.765-9.208-2.464-13.798-.126-.825 1.146-1.18 1.26-.349h-.006zm-24.92-4.057h-.538l.573-.327c-.121.151-.224.314-.31.487l.069-.155a.88.88 0 0 0-.069.235v-.177c-.008.066-.008.134 0 .2v-.172a.59.59 0 0 0 .04.166l-.063-.154c.019.047.044.091.075.132l-.103-.132c.025.029.054.056.086.08l-.132-.103c.03.022.063.041.097.057l-.16-.063c.052.019.105.032.16.04h-.172.172-.178a.57.57 0 0 0 .195-.051l-.154.068a1.77 1.77 0 0 0 .189-.108l-.132.097c.051-.04.098-.086.137-.138l-.103.132c.04-.054.075-.111.103-.172l-.068.155c.023-.055.038-.113.046-.172v.172a1.27 1.27 0 0 0 0-.195v.178c-.013-.071-.032-.14-.058-.206l.063.154a1.04 1.04 0 0 0-.097-.172l.103.132a.78.78 0 0 0-.138-.137l.132.103-.08-.052c-.146-.09-.254-.231-.304-.395-.043-.171-.019-.352.069-.504s.233-.255.4-.299a.66.66 0 0 1 .494.064 1.37 1.37 0 0 1 .315.252 1.46 1.46 0 0 1 .361.699c.02.092.032.186.035.281a1.62 1.62 0 0 1-.035.286 1.11 1.11 0 0 1-.137.378c-.067.117-.148.225-.241.321a1.45 1.45 0 0 1-.321.241 1.36 1.36 0 0 1-.384.149c-.189.036-.384.036-.573 0-.167-.034-.324-.106-.458-.212-.25-.202-.411-.495-.447-.814a1.61 1.61 0 0 1 .166-.894 2.51 2.51 0 0 1 .16-.269l.086-.115.098-.126c.062-.077.14-.141.229-.185a.71.71 0 0 1 .286-.073h.539a.65.65 0 0 1 .25.05.66.66 0 0 1 .212.142c.061.06.109.132.142.212a.65.65 0 0 1 .049.25.67.67 0 0 1-.049.25.66.66 0 0 1-.142.212.67.67 0 0 1-.212.141.65.65 0 0 1-.25.05l-.023.006zm12.859 0h-.539l.573-.327a2.69 2.69 0 0 0-.309.487l.068-.155c-.034.075-.057.154-.068.235v-.177c-.006.066-.006.133 0 .2v-.172a.72.72 0 0 0 .04.166l-.063-.154a.61.61 0 0 0 .074.132l-.103-.132a.65.65 0 0 0 .086.08l-.132-.103c.031.022.063.041.098.057l-.161-.063a.88.88 0 0 0 .161.04h-.172.172-.178a.58.58 0 0 0 .195-.051l-.155.068c.067-.029.13-.065.189-.108l-.132.097a.75.75 0 0 0 .138-.138l-.103.132c.039-.054.074-.111.103-.172l-.069.155c.023-.055.039-.113.046-.172v.172a1.06 1.06 0 0 0 0-.195v.178c-.01-.071-.029-.141-.057-.206l.063.154a.77.77 0 0 0-.098-.172l.103.132c-.04-.051-.086-.097-.137-.137l.132.103-.081-.052a.7.7 0 0 1-.303-.395c-.044-.171-.019-.352.068-.504s.233-.255.4-.299a.66.66 0 0 1 .494.064c.117.068.224.153.316.252.181.196.306.437.361.699.019.092.031.186.034.281a1.72 1.72 0 0 1-.034.286 1.13 1.13 0 0 1-.138.378 1.43 1.43 0 0 1-.562.562c-.119.069-.249.119-.383.149-.19.036-.384.036-.573 0-.166-.033-.322-.105-.453-.212-.126-.099-.23-.222-.308-.362a1.2 1.2 0 0 1-.145-.452c-.031-.308.027-.618.166-.894.048-.093.102-.183.161-.269l.086-.115.097-.126a.69.69 0 0 1 .516-.258h.538a.65.65 0 0 1 .25.05c.08.033.152.081.212.142s.109.132.142.212a.65.65 0 0 1 .05.25c0 .085-.017.17-.05.25a.66.66 0 0 1-.142.212.65.65 0 0 1-.462.191l-.022.006zm-7.421-2.619a19.8 19.8 0 0 1-.779 7.982c-.246.802-1.513.458-1.261-.35a18.9 18.9 0 0 0 .745-7.632c.016-.163.091-.315.213-.426a.66.66 0 0 1 .887 0c.121.111.197.263.213.426h-.018z"/></g><path d="M305.695 168.714c.426.424.941.748 1.508.946s1.172.267 1.77.2c.675-.034 1.334-.218 1.929-.539s1.11-.771 1.509-1.317a5.26 5.26 0 0 0 .823-2.188 5.25 5.25 0 0 0-.204-2.328 4.2 4.2 0 0 0-1.651-2.057 4.08 4.08 0 0 0-3.81-.269 4.68 4.68 0 0 0-2.435 3.077c-.44 1.256-.386 2.632.149 3.851a2.81 2.81 0 0 0 .412.624z" fill="#f6cbc3"/><g fill="#000"><path d="M298.103 157.862a5.64 5.64 0 0 0-.756-.465c-.069-.039-.139-.073-.212-.103l-.109-.051c.063.028.063.028 0 0l-.424-.149c-.138-.046-.281-.081-.43-.115l-.229-.046-.149-.028h-.149c-.078-.006-.157-.006-.235 0a4.2 4.2 0 0 0-.476 0c-.172-.002-.338-.071-.46-.193s-.191-.288-.193-.461a.67.67 0 0 1 .194-.46c.122-.123.287-.194.459-.199 1.369-.049 2.717.354 3.834 1.146a.67.67 0 0 1 .298.4c.044.167.021.344-.063.494a.67.67 0 0 1-.169.191c-.069.052-.147.09-.23.112a.64.64 0 0 1-.254.015.63.63 0 0 1-.241-.083l-.006-.005zm-13.579-.39c-.192 0-.383.011-.573.034h.177c-.316.041-.625.12-.922.235h-.058l.086-.034-.114.046-.212.109a4.57 4.57 0 0 0-.413.257.63.63 0 0 1-.245.086c-.086.012-.175.006-.259-.017-.166-.045-.308-.154-.395-.304s-.105-.327-.061-.493a.66.66 0 0 1 .296-.4c.786-.552 1.726-.843 2.687-.831a.65.65 0 0 1 .27.031c.087.029.167.076.235.138s.122.137.159.221a.66.66 0 0 1 0 .532c-.037.084-.091.159-.159.221s-.148.109-.235.138a.67.67 0 0 1-.27.031h.006zm7.224 16.657l5.111-2.865c.378-.212.848-.418 1.215-.183a1.14 1.14 0 0 1 .395.756 5.6 5.6 0 0 1-.075 2.4c-.197.785-.563 1.519-1.071 2.15-.469.573-1.186 1.077-1.902.899a2.29 2.29 0 0 1-1.266-1.203 19.69 19.69 0 0 1-1.146-2.361"/><path d="M291.416 173.562l4.2-2.384c.642-.355 1.393-.923 2.166-.877a1.54 1.54 0 0 1 .931.48c.245.264.39.605.41.964.235 1.386.006 2.81-.653 4.051-.613 1.146-1.868 2.544-3.329 2.075a3.2 3.2 0 0 1-1.628-1.588 20.34 20.34 0 0 1-1.174-2.412.64.64 0 0 1-.018-.254c.011-.085.038-.167.081-.242a.64.64 0 0 1 .167-.192c.068-.053.145-.092.228-.114a.66.66 0 0 1 .494.067c.149.085.26.226.308.391.241.573.51 1.146.802 1.656.206.466.491.893.843 1.261.768.67 1.644-.522 1.988-1.117.521-.902.751-1.943.659-2.98-.022-.219-.064-.436-.126-.648-.009-.024-.021-.047-.034-.068-.058-.092.034 0 0 0-.083-.003-.165.013-.241.046a11.75 11.75 0 0 0-1.604.876l-3.799 2.16c-.076.044-.159.072-.245.084a.66.66 0 0 1-.258-.016.67.67 0 0 1-.232-.114c-.069-.053-.127-.119-.171-.194a.67.67 0 0 1-.083-.245.66.66 0 0 1 .016-.258c.022-.084.061-.163.114-.232s.119-.127.194-.171l-.006-.005zm16.967-100.567a5.9 5.9 0 0 1 3.65-.183 3.32 3.32 0 0 1 1.339.846 3.31 3.31 0 0 1 .792 1.371c.124.48.106.985-.051 1.455a2.56 2.56 0 0 1-.837 1.192c-.785.642-1.782.905-2.658 1.387l-.327-1.221c3.593.264 5.856 3.169 8.245 5.507.573.573-.326 1.513-.928.922-2.08-2.034-4.166-4.888-7.317-5.123a.66.66 0 0 1-.624-.486.66.66 0 0 1 .292-.735c.939-.516 3.208-.974 2.974-2.441-.327-1.965-2.865-1.656-4.201-1.226-.808.258-1.146-1.008-.349-1.266z"/></g></svg>