<svg width="511" height="458" viewBox="0 0 511 458" fill="none" xmlns="http://www.w3.org/2000/svg">
<path d="M245.667 366.086C325.525 355.82 373.423 325.286 397.296 269.427C410.027 239.641 412.828 182.319 403.444 143.623C386.259 72.7626 344.014 28.5892 273.711 7.96693C243.637 -0.854641 171.69 -2.76095 136.157 4.32212C69.1747 17.6742 23.7662 54.7899 6.19409 110.55C-2.09277 136.847 -2.05823 198.545 6.25928 231.153C19.3691 282.534 55.533 325.723 102.932 346.603C142.601 364.079 200.163 371.936 245.667 366.086Z" fill="#B6DDFA"/>
<g clip-path="url(#clip0)">
<path d="M327.33 138.062C332.011 141.091 335.918 145.18 338.736 150C341.555 154.82 343.206 160.236 343.557 165.812C344.694 178.225 340.44 192.285 347.89 202.251C357.129 214.612 377.689 211.483 388.727 222.262C394.65 228.042 396.656 237.032 395.486 245.239C393.962 253.421 390.624 261.155 385.718 267.868C380.746 275.278 374.667 283.115 375.549 292.004C376.502 301.638 385.366 308.679 387.921 318.012C391.36 330.591 381.445 344.155 368.915 347.651C356.384 351.146 342.728 346.4 332.432 338.435C317.797 327.123 306.661 308.821 288.359 306.224C268.823 303.452 250.177 320.502 230.824 316.665C226.069 315.516 221.5 313.697 217.255 311.262C210.604 307.798 203.833 303.929 199.51 297.792C191.18 285.965 195.863 267.161 208.758 260.651C210.856 259.899 212.742 258.65 214.256 257.01C215.279 255.316 215.709 253.328 215.48 251.361C215.191 245.877 213.046 240.656 209.398 236.561C206.019 232.794 201.532 230.191 197.987 226.581C189.619 218.068 188.397 203.9 193.794 193.486C200.618 180.316 216.795 180.195 225.148 168.472C234.153 155.83 233.131 141.951 248.992 134.495C256.221 131.433 263.891 129.545 271.712 128.903C289.361 126.762 312.154 127.931 327.33 138.062Z" fill="#0A3F64"/>
<path d="M263.008 267.496C263.008 267.496 315.043 270.554 327.999 287.372C340.955 304.189 363.091 334.764 371.475 352.345C379.859 369.925 409.963 404.069 380.239 431.588C350.515 459.107 315.812 400.369 315.812 400.369L307 436H165L147.407 418.845C147.407 418.845 104.727 449.42 83.395 418.845C62.0632 388.27 69.6782 350.815 95.5884 334.762C121.499 318.71 153.511 275.903 175.603 270.561C197.695 265.218 240.118 262.602 263.008 267.496Z" fill="#18898E"/>
<path d="M147.405 419.377C147.297 419.377 147.192 419.343 147.103 419.282C147.015 419.22 146.948 419.133 146.91 419.032C146.872 418.93 146.866 418.82 146.892 418.715C146.919 418.611 146.976 418.516 147.058 418.445C147.407 418.139 182.195 387.76 191.949 375.714C201.01 364.526 186.059 339.613 184.342 336.838C179.735 336.959 123.475 338.944 98.2132 361.917C98.1617 361.963 98.1016 362 98.0362 362.023C97.9708 362.047 97.9015 362.057 97.8321 362.054C97.7627 362.05 97.6946 362.033 97.6318 362.003C97.569 361.974 97.5127 361.932 97.466 361.88C97.4194 361.829 97.3833 361.768 97.3599 361.703C97.3364 361.637 97.3262 361.567 97.3295 361.498C97.3329 361.428 97.3499 361.36 97.3795 361.297C97.4092 361.234 97.451 361.177 97.5024 361.131C124.017 337.018 184.02 335.777 184.623 335.769C184.712 335.771 184.8 335.794 184.879 335.836C184.958 335.879 185.025 335.939 185.076 336.013C185.806 337.151 202.806 363.997 192.766 376.385C182.944 388.51 148.082 418.95 147.735 419.256C147.642 419.334 147.525 419.377 147.405 419.377Z" fill="#0A3F64"/>
<path d="M205.899 261.231L199.899 264.566L234.681 327.494L243.159 335.738L240.679 324.159L205.899 261.231Z" fill="#0A3F64"/>
<path d="M234.681 327.49L240.629 333.274L242.419 332.28L240.679 324.15L234.681 327.485V327.49Z" fill="#B2DAC8"/>
<path d="M208.895 254.569C207.97 252.894 206.57 251.532 204.872 250.655C203.175 249.778 201.256 249.426 199.359 249.643C197.462 249.86 195.672 250.636 194.215 251.873C192.758 253.111 191.699 254.753 191.173 256.594C190.646 258.435 190.676 260.391 191.258 262.214C191.84 264.038 192.948 265.648 194.442 266.84C195.936 268.032 197.749 268.753 199.652 268.912C201.555 269.071 203.462 268.66 205.132 267.732C206.241 267.116 207.218 266.286 208.007 265.291C208.796 264.296 209.383 263.155 209.732 261.932C210.082 260.71 210.188 259.43 210.044 258.167C209.901 256.903 209.51 255.681 208.895 254.569Z" fill="#BDD1F9"/>
<path d="M202.883 243.661C203.269 243.877 203.578 244.211 203.764 244.613C204.608 246.135 204.938 247.89 204.706 249.616C204.799 249.429 204.932 249.266 205.097 249.137C205.261 249.009 205.452 248.919 205.655 248.874C205.859 248.829 206.069 248.83 206.272 248.878C206.475 248.925 206.665 249.018 206.828 249.148C206.99 249.279 207.122 249.444 207.212 249.632C207.303 249.82 207.351 250.027 207.352 250.235C207.353 250.444 207.307 250.651 207.218 250.84C207.129 251.029 206.999 251.195 206.838 251.327C208.021 250.92 209.285 250.802 210.523 250.984C211.14 251.083 211.718 251.349 212.196 251.753C212.675 252.157 213.034 252.683 213.237 253.276C213.319 253.574 213.339 253.885 213.295 254.191C213.252 254.497 213.147 254.79 212.986 255.054C212.825 255.317 212.612 255.544 212.36 255.721C212.108 255.899 211.822 256.022 211.52 256.084C211.862 256.053 212.206 256.098 212.528 256.216C212.85 256.333 213.143 256.521 213.384 256.764C213.626 257.008 213.811 257.302 213.926 257.626C214.042 257.95 214.085 258.295 214.052 258.638C213.981 258.976 213.843 259.296 213.645 259.579C213.448 259.862 213.195 260.102 212.902 260.284C212.609 260.466 212.282 260.587 211.941 260.638C211.601 260.69 211.253 260.672 210.92 260.584C211.318 260.642 211.701 260.779 212.046 260.987C212.391 261.195 212.691 261.469 212.929 261.795C213.167 262.121 213.337 262.491 213.43 262.884C213.524 263.277 213.538 263.684 213.472 264.082C213.37 264.472 213.19 264.838 212.944 265.157C212.698 265.476 212.389 265.742 212.038 265.939C211.687 266.135 211.3 266.259 210.9 266.301C210.499 266.344 210.095 266.305 209.71 266.187C209.992 266.371 210.234 266.608 210.423 266.887C210.612 267.165 210.744 267.478 210.811 267.808C210.878 268.138 210.878 268.478 210.813 268.808C210.747 269.138 210.617 269.452 210.429 269.731C210.016 270.272 209.453 270.677 208.809 270.895C208.166 271.113 207.473 271.135 206.817 270.957C205.507 270.566 204.393 269.691 203.7 268.51C202.453 269.683 203.392 271.909 202.577 273.423C201.763 274.936 199.605 275.036 197.862 274.903C197.133 273.951 196.584 272.875 196.239 271.726C195.047 272.388 193.66 272.606 192.323 272.339C191.041 271.909 190.268 270.017 191.319 269.166C191.621 268.922 192.013 268.808 192.292 268.541C192.57 268.274 192.643 267.72 192.292 267.549C191.993 267.824 191.637 268.029 191.249 268.147C190.86 268.265 190.451 268.294 190.05 268.232C189.649 268.17 189.267 268.018 188.932 267.788C188.598 267.557 188.32 267.254 188.118 266.901C187.916 266.548 187.797 266.154 187.768 265.748C187.739 265.342 187.801 264.935 187.951 264.557C188.1 264.178 188.333 263.838 188.631 263.563C188.929 263.287 189.285 263.082 189.673 262.963C188.42 263.109 187.15 262.99 185.945 262.615C185.345 262.418 184.809 262.062 184.394 261.585C183.978 261.108 183.699 260.528 183.586 259.905C183.567 259.231 183.738 258.566 184.079 257.985C184.421 257.405 184.918 256.932 185.515 256.622C186.717 256.021 188.023 255.656 189.361 255.548C188.935 255.104 188.3 254.89 187.907 254.408C187.075 253.366 188.006 251.682 189.285 251.294C190.608 251.054 191.974 251.249 193.177 251.851L191.968 247.782C191.857 247.518 191.838 247.224 191.914 246.948C192.025 246.73 192.204 246.554 192.423 246.446C195.185 244.793 196.405 247.696 198.568 247.14C200.106 246.742 200.532 242.587 202.883 243.661Z" fill="#FDD44E"/>
<path d="M380.239 383.299C380.103 383.3 379.971 383.247 379.873 383.151C379.649 382.943 356.894 361.6 324.846 378.044C324.784 378.076 324.716 378.095 324.647 378.101C324.578 378.107 324.508 378.099 324.442 378.077C324.375 378.056 324.314 378.021 324.261 377.976C324.208 377.931 324.164 377.876 324.132 377.814C324.1 377.752 324.081 377.684 324.075 377.614C324.07 377.545 324.078 377.475 324.099 377.408C324.121 377.342 324.155 377.28 324.2 377.227C324.245 377.173 324.3 377.13 324.362 377.098C357.093 360.303 380.374 382.161 380.607 382.386C380.684 382.459 380.736 382.554 380.759 382.657C380.781 382.761 380.772 382.868 380.733 382.967C380.693 383.065 380.626 383.15 380.538 383.209C380.45 383.268 380.347 383.299 380.241 383.299H380.239Z" fill="#0A3F64"/>
<path d="M186.83 340.028C186.83 340.028 197.201 312.344 203.806 309.803C210.411 307.262 241.911 301.65 242.421 307.255C242.93 312.861 226.162 313.371 226.162 313.371C226.162 313.371 233.783 316.938 232.26 320.761C230.736 324.584 229.464 324.584 229.464 324.584C229.464 324.584 234.29 323.564 234.29 326.622C234.116 328.729 233.218 330.71 231.75 332.227C231.75 332.227 236.576 334.012 234.037 337.578C231.497 341.145 221.334 342.673 218.795 345.476C216.255 348.28 210.666 356.432 207.617 356.941C204.32 357.21 201.007 357.21 197.71 356.941L186.83 340.028Z" fill="#F6CBC3"/>
<path d="M320.432 216.586C320.432 216.586 326.014 212.773 327.874 216.019C332.617 224.292 322.159 228.407 316.89 228.056L320.432 216.586Z" fill="#EFAFAF"/>
<path d="M302.486 135.189C295.47 132.85 287.995 132.245 280.697 133.426C273.398 134.607 266.492 137.538 260.565 141.971C254.639 146.404 249.868 152.207 246.658 158.886C243.447 165.565 241.893 172.923 242.128 180.335C241.94 197.577 241.92 211.52 244.389 222.693C246.997 233.98 245.244 245.839 239.484 255.882L233.58 265.994C253.251 288.525 268.287 282.617 268.287 282.617L279.227 255.763C307.272 263.526 323.876 212.571 329.836 197.94H329.793C330.036 197.4 330.281 196.86 330.507 196.306C332.887 190.467 334.045 184.201 333.91 177.895C333.774 171.589 332.349 165.378 329.721 159.648C327.094 153.917 323.321 148.79 318.636 144.582C313.951 140.375 308.454 137.178 302.486 135.189Z" fill="#F6CBC3"/>
<path d="M281.574 176.92C270.494 182.715 259.01 188.143 249.304 195.985C248.234 196.844 240.448 203.428 241.319 204.91C236.566 196.829 235.346 187.178 234.822 177.812C233.914 161.576 242.448 146.016 255.458 136.667C268.32 127.425 284.037 126.322 298.911 131.039C314.862 136.106 329.589 148.207 333.762 164.999C337.678 180.762 331.831 196.266 326.985 211.066C332.426 194.449 315.681 173.527 305.032 162.498C305.341 162.819 289.694 172.503 288.885 172.951C286.485 174.323 284.039 175.626 281.574 176.92Z" fill="#0A3F64"/>
<path d="M250.225 197.582C250.085 195.922 249.346 194.371 248.146 193.219C245.696 190.828 241.049 187.413 236.038 189.523C228.685 192.618 233.532 210.799 246.721 208.156C246.714 208.166 250.888 206.407 250.225 197.582Z" fill="#F8B8B7"/>
<path d="M265.536 345.616L339.143 325.605C340.037 325.362 340.978 325.347 341.88 325.56C342.782 325.772 343.617 326.207 344.31 326.824C345.002 327.442 345.531 328.222 345.848 329.096C346.164 329.969 346.259 330.908 346.124 331.827L332.472 424.377C332.336 425.299 331.973 426.172 331.416 426.917C330.859 427.662 330.125 428.256 329.281 428.644L269.574 456.182C266.504 457.598 263.126 458.21 259.757 457.958C256.388 457.707 253.137 456.602 250.31 454.746L186.988 413.19C186.226 412.69 185.598 412.011 185.158 411.212C184.718 410.412 184.479 409.517 184.463 408.604L182.981 316.828C182.966 315.859 183.201 314.904 183.664 314.054C184.127 313.204 184.801 312.489 185.622 311.979C186.442 311.469 187.381 311.181 188.346 311.143C189.31 311.106 190.268 311.32 191.126 311.764L254.032 344.399C257.58 346.234 261.684 346.668 265.536 345.616Z" fill="#F7A705"/>
<path d="M269.856 344.357L265.536 345.531C261.684 346.579 257.579 346.14 254.034 344.301L250.549 342.494V454.792C253.36 456.584 256.573 457.642 259.896 457.87C263.22 458.097 266.546 457.486 269.574 456.093L269.856 455.962V344.357Z" fill="#FDD44E"/>
<path d="M341.186 391.468C341.186 391.468 330.36 374.792 325.116 369.648C319.873 364.503 318.607 355.599 314.779 357.464C310.951 359.33 316.311 372.435 316.311 372.435C316.311 372.435 302.054 367.974 297.88 365.933C293.707 363.893 285.321 362.152 283.594 365.1C281.867 368.047 302.6 376.435 302.6 376.435C302.6 376.435 284.454 371.092 282.283 373.471C280.111 375.849 302.205 386.051 302.205 386.051C302.205 386.051 283.126 379.403 281.177 380.191C279.228 380.979 280.157 383.514 286.342 387.512C290.606 390.152 295.142 392.326 299.869 393.995C299.869 393.995 286.113 390.33 284.311 390.468C282.509 390.605 280.125 392.116 289.91 397.067C299.694 402.018 322.593 409.259 335.5 408.219L341.186 391.468Z" fill="#F6CBC3"/>
<path d="M337.179 415.027C337.179 415.027 347.822 406.601 346.186 389.038C346.186 389.038 343.619 375.937 339.635 375.799C335.651 375.662 334.772 377.78 336.545 384.554C338.318 391.329 335.462 387.316 332.596 391.52C329.73 395.725 339.837 398.591 336.979 400.692C334.122 402.793 331.644 396.488 329.549 402.793C327.455 409.099 332.789 406.424 331.073 410.82C329.356 415.216 326.69 417.318 328.024 419.229C329.358 421.141 335.655 418.656 337.179 415.027Z" fill="white"/>
<path d="M492.782 390.209H405.971V392.71H450.509C452.664 392.71 454.731 393.569 456.255 395.098C457.779 396.626 458.635 398.699 458.635 400.861C458.635 403.022 457.779 405.095 456.255 406.624C454.731 408.152 452.664 409.011 450.509 409.011H405.971V411.362H492.782C495.579 411.362 498.261 410.248 500.239 408.264C502.217 406.28 503.329 403.589 503.329 400.784C503.328 397.979 502.216 395.289 500.238 393.306C498.26 391.323 495.578 390.209 492.782 390.209Z" fill="#0A3F64"/>
<path d="M462.594 400.79C462.594 399.4 462.322 398.025 461.792 396.741C461.262 395.457 460.485 394.291 459.505 393.308C458.526 392.326 457.363 391.546 456.084 391.014C454.804 390.483 453.432 390.209 452.047 390.209H405.973V392.71H450.511C452.666 392.71 454.733 393.569 456.257 395.098C457.781 396.626 458.637 398.699 458.637 400.861C458.637 403.022 457.781 405.095 456.257 406.624C454.733 408.152 452.666 409.011 450.511 409.011H405.973V411.362H452.047C454.843 411.362 457.525 410.249 459.502 408.266C461.48 406.283 462.592 403.594 462.594 400.79Z" fill="#066363"/>
<path d="M450.509 392.723H405.971V392.779C407.95 393.01 409.776 393.962 411.101 395.454C412.427 396.946 413.159 398.875 413.16 400.873C413.159 402.872 412.427 404.8 411.101 406.292C409.776 407.785 407.95 408.737 405.971 408.967V409.023H450.509C452.664 409.023 454.731 408.165 456.255 406.636C457.779 405.108 458.635 403.035 458.635 400.873C458.635 398.712 457.779 396.639 456.255 395.11C454.731 393.582 452.664 392.723 450.509 392.723Z" fill="white"/>
<path d="M458.635 400.788C458.635 398.626 457.779 396.553 456.255 395.025C454.731 393.496 452.664 392.638 450.509 392.638H405.971V392.694C408.008 392.93 409.88 393.932 411.21 395.497C420.118 394.789 446.687 393.965 449.486 408.938H450.509C452.664 408.938 454.731 408.079 456.255 406.551C457.779 405.022 458.635 402.949 458.635 400.788Z" fill="#62C1C6"/>
<path d="M420.034 411.368H511V414.247H464.33C461.964 414.358 459.739 415.406 458.142 417.159C456.545 418.912 455.706 421.229 455.808 423.602C455.706 425.975 456.545 428.292 458.142 430.045C459.739 431.799 461.964 432.846 464.33 432.957H511V435.657H420.034C416.965 435.51 414.079 434.15 412.007 431.874C409.935 429.598 408.847 426.592 408.98 423.513C408.847 420.434 409.935 417.427 412.007 415.151C414.079 412.875 416.965 411.515 420.034 411.368Z" fill="#18898E"/>
<path d="M451.666 423.513C451.532 420.434 452.62 417.427 454.692 415.151C456.763 412.875 459.65 411.515 462.719 411.368H511.006V414.247H464.336C461.97 414.358 459.745 415.406 458.148 417.159C456.551 418.912 455.712 421.229 455.815 423.602C455.712 425.975 456.551 428.292 458.148 430.045C459.745 431.799 461.97 432.846 464.336 432.957H511.006V435.657H462.725C459.655 435.511 456.767 434.152 454.695 431.875C452.622 429.599 451.533 426.592 451.666 423.513Z" fill="#158282"/>
<path d="M464.327 414.258H510.998V414.322C508.833 414.694 506.877 415.841 505.491 417.55C504.106 419.259 503.387 421.414 503.466 423.615C503.387 425.816 504.106 427.97 505.491 429.679C506.877 431.388 508.833 432.534 510.998 432.905V432.97H464.327C461.962 432.858 459.737 431.811 458.14 430.058C456.543 428.304 455.703 425.988 455.806 423.615C455.703 421.242 456.542 418.924 458.139 417.17C459.736 415.416 461.961 414.369 464.327 414.258Z" fill="white"/>
<path d="M455.812 423.51C455.71 421.138 456.549 418.821 458.146 417.067C459.743 415.314 461.968 414.267 464.333 414.155H511.004V414.218C508.82 414.518 506.845 415.676 505.513 417.436C496.179 416.623 468.338 415.677 465.402 432.861H464.329C461.965 432.749 459.742 431.702 458.146 429.949C456.55 428.197 455.711 425.882 455.812 423.51Z" fill="#62C1C6"/>
<path d="M501.488 276.887C498.397 272.124 491.951 269.2 491.454 263.546C491.271 261.445 491.965 259.136 490.876 257.332C489.679 255.352 486.948 255.04 484.641 255.271C483.368 255.3 482.115 255.583 480.953 256.106C479.792 256.628 478.746 257.378 477.878 258.312C475.918 260.849 476.355 264.422 475.736 267.572C474.245 275.161 466.799 279.828 459.988 283.474C456.455 285.366 452.749 287.378 450.603 290.769C446.968 296.508 448.973 303.964 448.669 310.755C448.417 316.175 446.619 321.409 443.488 325.834C441.653 328.419 439.388 330.687 437.682 333.359C436.75 334.646 436.089 336.109 435.74 337.66C435.391 339.211 435.36 340.818 435.651 342.381C436.179 344.407 438.199 347 440.494 347.083C443.499 347.194 443.341 344.882 444.112 342.706C444.898 340.539 446.293 338.647 448.128 337.259C449.963 335.871 452.161 335.046 454.454 334.883C458.563 334.283 462.767 334.773 466.882 334.181C470.997 333.589 475.299 331.546 476.857 327.681C478.312 324.042 476.96 319.885 477.552 316.008C478.383 310.632 482.735 306.605 486.831 303.039L497.375 293.867C499.074 292.532 500.562 290.946 501.789 289.165C502.875 287.29 503.422 285.15 503.369 282.983C503.316 280.816 502.664 278.706 501.488 276.887Z" fill="white"/>
<path d="M461.825 342.973H422.836V390.209H461.825V342.973Z" fill="#F6CBC3"/>
<path d="M474.01 378.765H458.901C458.183 378.765 457.494 378.479 456.986 377.97C456.478 377.461 456.193 376.77 456.193 376.049C456.193 375.329 456.478 374.638 456.986 374.129C457.494 373.619 458.183 373.333 458.901 373.333H471.302V355.465H460.362C459.644 355.465 458.955 355.179 458.447 354.67C457.939 354.16 457.654 353.47 457.654 352.749C457.654 352.029 457.939 351.338 458.447 350.829C458.955 350.319 459.644 350.033 460.362 350.033H474.008C474.363 350.033 474.715 350.103 475.042 350.239C475.37 350.375 475.668 350.575 475.919 350.827C476.17 351.078 476.368 351.377 476.504 351.706C476.64 352.035 476.71 352.387 476.71 352.743V376.043C476.712 376.4 476.643 376.753 476.508 377.083C476.373 377.413 476.175 377.714 475.924 377.967C475.673 378.22 475.375 378.42 475.046 378.557C474.718 378.694 474.366 378.765 474.01 378.765Z" fill="#F6CBC3"/>
<path fill-rule="evenodd" clip-rule="evenodd" d="M296.373 237.39C296.522 237.934 296.201 238.495 295.655 238.642C290.438 240.06 286.48 239.609 283.538 238.418C278.049 236.197 276.092 231.398 276.062 231.324C275.858 230.8 276.117 230.211 276.638 230.004C277.164 229.799 277.754 230.057 277.962 230.577C278.121 230.974 281.977 240.24 295.122 236.674C295.665 236.524 296.227 236.847 296.373 237.39ZM298.19 209.042C298.59 210.335 301.984 221.78 297.815 225.611C296.171 227.122 293.712 227.23 290.503 225.931C287.295 224.633 285.602 222.845 285.471 220.618C285.14 214.966 295.539 209.1 296.726 208.45C297.261 208.156 298.008 208.458 298.19 209.042ZM296.593 210.883C293.235 212.912 287.315 217.199 287.509 220.499C287.589 221.871 288.854 223.063 291.268 224.04C293.683 225.017 295.421 225.041 296.433 224.11C298.869 221.875 297.595 214.677 296.593 210.883ZM285.523 200.766C286.767 201.27 287.177 203.159 286.439 204.983C285.701 206.808 284.092 207.88 282.848 207.376C281.604 206.873 281.195 204.985 281.933 203.16C282.672 201.335 284.279 200.263 285.523 200.766ZM311.751 211.381C312.997 211.885 313.405 213.773 312.667 215.598C311.929 217.422 310.322 218.495 309.076 217.991C307.834 217.488 307.423 215.599 308.161 213.774C308.9 211.95 310.509 210.878 311.751 211.381ZM290.713 194.425C291.235 194.636 291.487 195.231 291.276 195.753C291.064 196.275 290.469 196.527 289.948 196.316C285.177 194.385 281.287 195.955 281.248 195.972C280.989 196.079 280.712 196.072 280.472 195.975C280.228 195.876 280.023 195.686 279.915 195.426C279.696 194.906 279.937 194.311 280.455 194.091C280.643 194.013 285.127 192.164 290.713 194.425ZM312.434 203.215C318.019 205.475 319.956 209.923 320.036 210.109C320.256 210.627 320.015 211.223 319.496 211.444C319.238 211.555 318.956 211.549 318.714 211.451C318.474 211.354 318.271 211.166 318.159 210.91C318.144 210.871 316.439 207.036 311.669 205.106C311.147 204.895 310.895 204.3 311.106 203.778C311.317 203.256 311.912 203.004 312.434 203.215Z" fill="black"/>
<path fill-rule="evenodd" clip-rule="evenodd" d="M277.038 208.695C280.693 210.174 282.971 213.066 282.126 215.155C281.281 217.243 277.633 217.737 273.978 216.258C270.322 214.779 268.046 211.887 268.891 209.799C269.736 207.71 273.383 207.216 277.038 208.695ZM311.073 222.468C314.727 223.947 317.005 226.839 316.16 228.928C315.315 231.016 311.666 231.51 308.012 230.031C304.357 228.552 302.079 225.66 302.925 223.572C303.77 221.483 307.418 220.989 311.073 222.468Z" fill="#E2A2B5"/>
</g>
<defs>
<clipPath id="clip0">
<rect width="440" height="330" fill="white" transform="translate(71 128)"/>
</clipPath>
</defs>
</svg>
