<svg width="221" height="63" viewBox="0 0 221 63" fill="none" xmlns="http://www.w3.org/2000/svg">
<path d="M40.885 45.3703C42.6306 43.5804 43.978 41.4433 44.8394 39.0984C45.7008 36.7535 46.0567 34.2538 45.8838 31.7623C46.0462 29.2544 45.6859 26.7401 44.8255 24.3781C43.9651 22.016 42.6234 19.8576 40.885 18.0388C37.5595 14.8328 32.4555 13.2298 25.5729 13.2298H18.0168V50.0323H26.6147C31.8019 50.3791 36.9215 48.7041 40.8956 45.3598L40.885 45.3703ZM50.83 9.37635C53.7837 12.2108 56.0887 15.6485 57.5873 19.4543C59.0858 23.26 59.7424 27.3439 59.5122 31.4263C59.7244 35.5302 59.0822 39.6334 57.6259 43.4772C56.1697 47.3211 53.931 50.8222 51.051 53.7598C45.4033 59.2478 36.7948 61.9918 25.2256 61.9918H4.47266V1.45935H25.9202C36.7387 1.45935 45.0419 4.10185 50.83 9.38685" fill="#001536"/>
<path d="M100.923 40.0048L116.351 1.46985H131.032L106.638 62.0128H95.1876L70.7935 1.45935H85.4531L100.923 40.0048Z" fill="#001536"/>
<path d="M168.013 8.11634V35.7313H160.362V8.12684H150.648V1.51184H177.737V8.12684L168.013 8.11634Z" fill="#001536"/>
<path d="M200.9 23.2995L209.634 1.50146H217.938L204.151 35.7315H197.658L183.872 1.50146H192.175L200.9 23.2995Z" fill="#001536"/>
</svg>
