<svg xmlns="http://www.w3.org/2000/svg" width="255.26" height="82.29" fill="#f08113" xmlns:v="https://vecta.io/nano"><path d="M125.2 8.3h-2.9v3.8h2.83c1.56 0 2.18-.7 2.18-1.94 0-1.09-.6-1.86-2.11-1.86zm-20.88 0h-2.61v3.9h2.53c1.56 0 2.18-.67 2.18-1.99.01-1.14-.56-1.91-2.1-1.91zM58.52 0a44.88 44.88 0 0 1 24.65 25.94h124.4c.74-1.94 1.48-3.63 2.18-4.86 1.4-2.28 4.03-3.24 6.04-2.01 2.01 1.31 2.28 4.03.61 6.39-.11.16-.24.32-.37.48h33.55L255.26 0H58.52zm45.6 16.12h-2.41v5.63h-4.74V4.38h7.47c4.07 0 6.78 1.56 6.78 5.76 0 4.42-2.93 5.98-7.1 5.98zm22.94 5.63l-2.83-5.86h-1.94v5.86h-4.74V4.38h7.77c4.07 0 6.78 1.54 6.78 5.66 0 2.61-1.22 4.22-3.13 5.09l3.48 6.63h-5.39zm25.48 0h-13.48V4.38h13.31v4.05h-8.54v2.31h5.14v4h-5.14v2.98h8.71v4.03zm24.23 0h-4.52V17.6l.1-4.62-2.01 4.54-2.28 4.82-2.28-4.82-2.01-4.54.1 4.62v4.15h-4.52V4.38h4.42l2.14 4.64 2.18 5.24c.3-.99 1.09-2.88 2.18-5.24l2.13-4.64h4.37v17.37zm12.29 0h-4.92V4.38h4.92v17.37zm22.52-7.42c0 5.51-3.3 7.7-7.67 7.7s-7.57-2.18-7.57-7.7V4.38h4.91v9.95c0 2.13.84 3.45 2.73 3.45s2.68-1.32 2.68-3.45V4.38h4.91v9.95zm24.58 7.42h-4.52V17.6c0-1.71.02-3.28.1-4.62-.52 1.29-1.41 3.3-2.01 4.54l-2.28 4.82-2.28-4.82c-.6-1.24-1.49-3.25-2.01-4.54.07 1.34.1 2.9.1 4.62v4.15h-4.52V4.38h4.42l2.13 4.64c1.04 2.23 1.91 4.27 2.18 5.24.3-.99 1.09-2.88 2.18-5.24l2.14-4.64h4.37v17.37zM70.12 63.05c-6.63 8.8-17.16 14.49-29.02 14.49-20.05 0-36.31-16.26-36.31-36.31S21.05 4.92 41.1 4.92c16.83 0 30.98 11.45 35.09 26.99.61-.08 1.22-.12 1.85-.12a14.34 14.34 0 0 1 3.09.33C76.99 13.84 60.64.18 41.1.18 18.43.18.05 18.56.05 41.23S18.42 82.29 41.1 82.29c13.84 0 26.08-6.85 33.52-17.35-1.61-.38-3.12-1.02-4.5-1.89zM46.5 40.81v.34c4.91 1.01 7.46 4.03 8.87 7.66 1.81 4.3 3.29 7.46 5.04 9.27 1.61 1.48 2.76 2.22 4.91 2.69v1.14h-7.93c-5.24 0-6.52-1.95-8.8-7.32l-3.23-7.32c-1.88-4.1-3.9-4.97-7.59-4.97h-1.68v17.07l6.25 1.41v1.14h-20.9v-1.14l6.25-1.41v-37.7l-6.25-1.41v-1.14h22.44c9.88 0 15.05 4.77 15.05 10.68 0 5.1-4.1 9.54-12.43 11.01zm-5.98-19.55c-.94 0-3.76 0-4.44.13v18.82l4.44-.07c5.17-.07 9.48-3.29 9.48-9.41-.01-6.18-4.31-9.4-9.48-9.47zm31.1 25.34c0 7.48 2.12 12.37 8.77 12.37 2.94 0 5.36-.59 8.89-1.88l.35.71c-3.59 3.12-7.6 5.06-11.37 5.06-8.07 0-13.37-5.54-13.37-13.72 0-8.42 6.36-14.72 13.54-14.72 7.77 0 11.54 5.24 11.48 12.19H71.62zm11.72-2c-.24-5.54-1.83-8.54-5.3-8.54-3.42 0-6.07 3.59-6.36 9.07l11.66-.53zm22.19 18.26c-1.53 0-2.94-.18-4.42-.47v9.6l4.3 1.41v.77h-14.3v-.77l3.71-1.41V39.83l-3.65-2.59v-.59l9.36-2.36.24.18-.06 4.36.24.12c2.53-2.59 5.71-4.53 9.19-4.53 5.83 0 10.48 5.3 10.48 13.43-.01 7.82-5.66 15.01-15.09 15.01zm.47-24.32c-1.59 0-3.42.59-4.89 1.3V58.1c1.77 2 3.53 3.06 6.12 3.06 3.36 0 6.65-3.42 6.65-11.78.02-7.02-2.81-10.84-7.88-10.84zm30.97 24.32c-8.95 0-13.37-6.42-13.37-14.25 0-7.24 5.06-14.19 14.13-14.19 8.95 0 13.25 6.36 13.25 14.13 0 7.3-4.94 14.31-14.01 14.31zm.23-26.8c-4.12 0-6.65 4.59-6.65 12.66 0 7.95 2.71 12.48 6.89 12.48 4.3 0 6.65-4.59 6.65-12.66 0-7.94-2.53-12.48-6.89-12.48zm33.9 6.07c-1.88 0-3.42-1.35-3.83-3.59-2 .18-3.65 1.35-4.59 3v18.31l4.06 1.24v.82h-14.07v-.82l3.71-1.24V39.83l-3.65-2.65v-.59l9.36-2.3.24.18-.18 5.59.24.18c2.3-3.83 5.48-5.83 8.07-5.83 2.65 0 4.18 1.65 4.18 3.89 0 2.18-1.42 3.83-3.54 3.83zm15.79 20.49c-4.65 0-6.12-2.3-6.12-6.54v-17.6h-4.36v-.82l5.42-4.3 4.3-5.59h.87v7.66h8.95v3.06H187v15.25c0 2.36.35 3.77 1.53 4.59 1 .71 2.36.94 4.3.94l3.24-.12.06.82c-2.29 1.41-6.06 2.65-9.24 2.65zm16.3-16.02c0 7.48 2.12 12.37 8.77 12.37 2.94 0 5.36-.59 8.89-1.88l.35.71c-3.59 3.12-7.6 5.06-11.37 5.06-8.07 0-13.37-5.54-13.37-13.72 0-8.42 6.36-14.72 13.54-14.72 7.77 0 11.54 5.24 11.48 12.19h-18.29zm11.71-2c-.24-5.54-1.83-8.54-5.3-8.54-3.42 0-6.07 3.59-6.36 9.07l11.66-.53zm.59-20.08c-1.35 1.88-4.59 4.65-7.48 7.36l-.71-.47c1.24-3.83 2.53-7.77 3.71-9.83.94-1.53 2.71-2.18 4.06-1.35 1.37.88 1.54 2.7.42 4.29zm25.86 17.61c-1.88 0-3.42-1.35-3.83-3.59-2 .18-3.65 1.35-4.59 3v18.31l4.06 1.24v.82h-14.07v-.82l3.71-1.24V39.83l-3.65-2.65v-.59l9.36-2.3.24.18-.18 5.59.24.18c2.3-3.83 5.48-5.83 8.07-5.83 2.65 0 4.18 1.65 4.18 3.89-.01 2.18-1.42 3.83-3.54 3.83z"/></svg>