<svg width="223" height="33" fill="none" xmlns="http://www.w3.org/2000/svg"><path d="M12.053.416C15.242.168 18.694.044 21.492 0v4.143a57.924 57.924 0 00-4.196.284c-4.887.53-5.808 1.593-6.401 6.286a46.446 46.446 0 000 10.89c.593 4.692 1.505 5.754 6.4 6.276 1.39.151 2.87.24 4.197.284v4.143c-3.15-.041-6.297-.18-9.438-.416C3.29 31.182 1.652 29.765.58 23.47a46.436 46.436 0 010-14.625C1.642 2.54 3.29 1.125 12.054.416z" fill="#001641"/><path d="M47.777 16.158c0 1.894-.132 4.692-.575 7.313-1.063 6.285-2.7 7.72-11.474 8.42-3.187.247-6.64.38-9.438.424v-4.152a57.558 57.558 0 004.197-.284c4.896-.522 5.807-1.584 6.4-6.285a46.372 46.372 0 000-10.89c-.593-4.693-1.505-5.755-6.4-6.268a60.75 60.75 0 00-4.197-.293V0c2.807.044 6.25.168 9.438.425 8.774.708 10.411 2.125 11.474 8.42.443 2.62.575 5.41.575 7.313z" fill="#FF0019"/><path d="M216.905 11.005c-4.409 0-6.764 2.94-6.764 6.64 0 4.648 3.231 6.64 7.047 6.64 1.709 0 3.586-.354 5.144-.92l-.31-2.78c-1.514.354-2.886.592-4.126.592-1.947 0-3.32-.637-3.789-2.177h8.677c.885-3.825-.921-7.995-5.879-7.995zm2.16 5.17h-4.914c.408-1.328 1.355-2.328 2.727-2.328 1.284 0 2.187.708 2.187 2.328zm-21.514 7.756h11.297v-2.85h-6.312v-.09l6.073-6.79v-2.842H197.79v2.842h5.861v.097l-6.1 6.809v2.824zm-2.293-15.653c0-1.284-.54-1.948-2.302-1.948-1.744 0-2.302.664-2.302 1.948 0 1.257.558 1.921 2.302 1.921 1.762 0 2.302-.664 2.302-1.921zm-10.447 15.653l4.772-12.572h-4.072l-2.993 8.632h-.097l-2.993-8.632h-4.17l4.79 12.572h4.763zM174.488 19c.868-3.825-.93-7.995-5.888-7.995-4.409 0-6.764 2.94-6.764 6.64 0 4.648 3.232 6.64 7.048 6.64 1.708 0 3.585-.354 5.144-.92l-.301-2.78c-1.514.354-2.896.592-4.126.592-1.948 0-3.329-.637-3.798-2.177h8.685zm-3.718-2.834h-4.914c.398-1.328 1.346-2.32 2.718-2.32 1.284 0 2.187.71 2.187 2.33l.009-.01zm-15.264 7.765h3.887V6.897h-3.896l.009 17.034zM152.939 19c.885-3.825-.921-7.995-5.879-7.995-4.409 0-6.755 2.94-6.755 6.64 0 4.648 3.222 6.64 7.038 6.64 1.709 0 3.586-.354 5.153-.92l-.31-2.78c-1.523.354-2.895.592-4.126.592-1.947 0-3.32-.637-3.798-2.177h8.677zm-3.719-2.834h-4.913c.407-1.328 1.354-2.32 2.735-2.32 1.275 0 2.178.71 2.178 2.33v-.01zm-13.103 3.728V14.21h2.833v-2.842h-2.833V8.322h-3.453l-.442 3.037-1.904.24V14.2h1.904v6.1c0 4.197 3.647 4.48 6.967 3.418l-.31-2.745c-1.992.319-2.771.035-2.771-1.08h.009zm-16.175 4.037h3.656v-8.535c0-3.258-2.682-4.391-5.648-4.391-1.948 0-4.011.47-5.481 1.257l.337 2.745a13.081 13.081 0 014.533-.85c1.443 0 2.373.478 2.373 1.638v.469c-4.277-.92-8.066.38-8.066 4.134 0 2.32 1.824 3.887 4.099 3.887 1.594 0 2.895-.47 3.967-1.443l.23 1.089zm-.23-3.586a3.396 3.396 0 01-2.355 1.116c-.948 0-1.709-.443-1.709-1.328 0-1.275 1.328-1.992 4.064-1.355v1.567zm-.735-10.057l3.222-3.807h-4.364l-1.992 3.807h3.134zm-12.661 6.879v-.089l4.48-5.719h-4.409l-4.462 5.976 4.675 6.596h4.665l-4.949-6.764zm-8.588 6.764h3.896V6.897h-3.895V23.93zm-9.49-9.057c0-.646.38-1 1.823-1 1 0 2.515.194 4.436.734l.336-2.656a13.43 13.43 0 00-4.957-.947c-2.922 0-5.507.991-5.507 3.984 0 5.17 7.189 3.692 7.189 5.454 0 .681-.523.974-1.877.974-1.373 0-2.922-.169-4.887-.735l-.31 2.656c1.523.637 3.541.947 5.41.947 2.965 0 5.524-1.16 5.524-3.957 0-5.197-7.18-3.701-7.18-5.454zM82.448 19c.885-3.825-.921-7.995-5.88-7.995-4.408 0-6.754 2.94-6.754 6.64 0 4.648 3.222 6.64 7.038 6.64 1.709 0 3.586-.354 5.144-.92l-.31-2.78c-1.514.354-2.886.592-4.117.592-1.948 0-3.329-.637-3.798-2.177h8.676zm-3.719-2.834h-4.914c.408-1.328 1.355-2.32 2.727-2.32 1.284 0 2.178.71 2.178 2.33l.009-.01zm-18.858-.08c0-2.974 1.709-4.869 4.772-4.869 1.514 0 2.656.328 3.816.55l.328-3.09a13.828 13.828 0 00-4.666-.806c-5.551 0-8.446 3.674-8.446 8.234 0 4.745 2.895 8.18 8.446 8.18 1.638 0 3.222-.283 4.666-.832l-.328-3.055c-1.16.213-2.275.514-3.816.514-3.037 0-4.772-1.656-4.772-4.834v.009zm6.197-8.968l2.533-3.541H64.9l-1.09 1.78-1.088-1.771h-3.718l2.532 3.532h4.532zm128.836 4.241h-3.895v12.572h3.895V11.359z" fill="#001641"/></svg>