<svg xmlns="http://www.w3.org/2000/svg" width="80.205" height="25.651"><path d="M.85 25.142L14.197 1.151l8.908 16.084h-5.481l-3.433-6.341-7.888 14.257zm73.984.009V12.43l-8.171 7.6-.454.423-.107-.1-.08-.074-.063-.058-.532-.49c-2.777-2.574-5.742-5.36-8.606-8.294-.8-.817-1.6-1.619-2.376-2.393h0l-.006-.006h0l-.042-.042c-.541-.54-1.1-1.1-1.645-1.65V1.151c1.792 1.675 3.835 3.584 6.624 6.186l.014.012.007.006.416.389.01.009c1.862 1.739 4.18 3.9 6.4 5.978l6.924-6.449 6.559-6.116v23.985zm-39.473 0v-24h4.9v24z" fill="#050d0f" stroke="rgba(0,0,0,0)" stroke-miterlimit="10"/><path d="M52.742 25.151h4.94v-6.2l-4.945-4.954z" fill="#fac102"/></svg>