<?xml version="1.0" encoding="utf-8"?>
<!-- Generator: Adobe Illustrator 15.1.0, SVG Export Plug-In . SVG Version: 6.00 Build 0)  -->
<svg version="1.2" baseProfile="tiny" id="Vrstva_1"
	 xmlns="http://www.w3.org/2000/svg" xmlns:xlink="http://www.w3.org/1999/xlink" x="0px" y="0px" width="300px" height="74px"
	 viewBox="0 0 300 74" xml:space="preserve">
<g>
	<path fill="#BE1E2D" d="M100.199,32.596l0.059,1.494c3.281-0.126,6.61-0.126,9.892,0l0.06-1.494
		C106.888,32.467,103.521,32.467,100.199,32.596z"/>
	<path fill="#BE1E2D" d="M100.258,41.865l-0.06,1.492c1.661,0.064,3.333,0.096,5.005,0.096c1.673,0,3.343-0.031,5.004-0.096
		l-0.058-1.492C106.868,41.99,103.539,41.99,100.258,41.865z"/>
	<path fill="#BE1E2D" d="M105.253,20.826c-1.722,0-3.443,0.209-5.115,0.621l0.372,1.511c1.55-0.382,3.146-0.575,4.743-0.575
		c1.565-0.038,3.19,0.193,4.741,0.575l0.372-1.511C108.695,21.036,106.922,20.851,105.253,20.826z"/>
	<path fill="#BE1E2D" d="M105.271,53.62h-0.008c-1.597,0-3.193-0.195-4.743-0.576l-0.371,1.51c1.672,0.414,3.392,0.622,5.114,0.622
		h0.008c1.718,0,3.436-0.209,5.106-0.622l-0.372-1.51C108.457,53.425,106.863,53.619,105.271,53.62z"/>
</g>
<rect x="99.88" y="37.254" fill="#BE1E2D" width="10.783" height="1.494"/>
<g>
	<path fill="none" d="M105.273,50.19c-0.001,0.001-0.001,0.001-0.002,0.002h-0.001c-0.052-0.049-0.094-0.085-0.142-0.13
		c-0.436-0.38-0.73-0.604-0.742-0.613c-0.278-0.203-6.834-5.107-6.834-11.448c0-4.578,3.408-8.395,5.414-10.248
		c-1.703-1.573-4.402-4.562-5.185-8.231c-5.458,2.198-9.769,6.753-11.571,12.685c-1.547,5.093-1.019,10.483,1.488,15.178
		c2.224,4.165,5.773,7.333,10.099,9.077c0.636-2.955,2.504-5.475,4.104-7.16c0.789,0.729,1.399,1.189,1.592,1.338
		c0.195,0.149,0.434,0.346,0.703,0.584c0.001,0,0.002,0.001,0.003,0.003c-1.411,1.455-3.133,3.671-3.557,6.145
		c1.525,0.367,3.081,0.561,4.641,0.561c1.586,0,3.133-0.19,4.621-0.54C109.366,54.217,106.694,51.457,105.273,50.19z"/>
	<path fill="none" d="M105.272,25.812c1.418-1.264,4.083-4.015,4.626-7.183c-1.523-0.365-3.076-0.558-4.633-0.558
		c-1.586,0-3.132,0.19-4.621,0.54C101.181,21.786,103.852,24.545,105.272,25.812z"/>
	<path fill="none" d="M124.337,43.793c3.019-9.929-2.135-20.422-11.576-24.245c-0.79,3.658-3.481,6.637-5.18,8.207
		c0.003,0.003,0.005,0.005,0.009,0.008l-0.004,0.003c-0.777,0.717-1.344,1.136-1.419,1.195c-0.014,0-0.373,0.268-0.88,0.746
		c-0.004-0.004-0.008-0.007-0.013-0.011c-1.583,1.411-4.733,4.676-4.733,8.305c0,3.628,3.149,6.893,4.733,8.306
		c1.584-1.413,4.733-4.677,4.733-8.306c0-2.923-2.042-5.603-3.664-7.275c0.001,0,0.002-0.001,0.003-0.002
		c0.269-0.225,0.508-0.418,0.702-0.568c0.194-0.135,0.808-0.612,1.598-1.33c0.003-0.003,0.007-0.006,0.009-0.008
		c1.955,2.063,4.34,5.357,4.34,9.184c0,4.577-3.409,8.395-5.414,10.247c1.702,1.572,4.402,4.562,5.185,8.232
		C118.224,54.282,122.534,49.726,124.337,43.793z"/>
	<path fill="#BE1E2D" d="M105.273,29.696c0.005,0.004,0.008,0.007,0.013,0.011c0.508-0.478,0.866-0.746,0.88-0.746
		c0.075-0.06,0.643-0.478,1.419-1.195l0.004-0.003c-0.003-0.003-0.006-0.005-0.009-0.008c-0.773,0.714-1.344,1.145-1.422,1.202
		C106.146,28.967,105.793,29.231,105.273,29.696z"/>
	<path fill="#BE1E2D" d="M102.964,27.753c0.772-0.714,1.344-1.146,1.421-1.203c0.014-0.01,0.366-0.275,0.887-0.739
		c-1.42-1.267-4.091-4.025-4.628-7.2c-0.984,0.231-1.94,0.539-2.865,0.911C98.563,23.192,101.262,26.181,102.964,27.753z"/>
	<path fill="#BE1E2D" d="M104.194,51.224c-0.269-0.238-0.507-0.435-0.703-0.584c-0.193-0.148-0.803-0.609-1.592-1.338
		c-1.6,1.686-3.467,4.205-4.104,7.16c0.55,0.222,1.109,0.428,1.684,0.603c0.384,0.117,0.772,0.214,1.161,0.307
		c0.424-2.474,2.146-4.689,3.557-6.145C104.196,51.225,104.195,51.224,104.194,51.224z"/>
	<path fill="#BE1E2D" d="M107.581,48.248c2.005-1.853,5.414-5.67,5.414-10.247c0-3.826-2.385-7.121-4.34-9.184
		c-0.001,0.002-0.005,0.005-0.009,0.008c-0.791,0.717-1.404,1.195-1.598,1.33c-0.194,0.149-0.434,0.343-0.702,0.568
		c-0.001,0.001-0.002,0.002-0.003,0.002c1.623,1.673,3.664,4.353,3.664,7.275c0,3.629-3.149,6.893-4.733,8.306
		c0.521,0.465,0.875,0.73,0.888,0.74C106.238,47.104,106.809,47.534,107.581,48.248z"/>
	<path fill="#BE1E2D" d="M105.271,50.192c0.001-0.001,0.001-0.001,0.002-0.002c-0.053-0.048-0.097-0.084-0.146-0.128
		c0.048,0.045,0.09,0.081,0.142,0.13H105.271z"/>
	<path d="M127.197,44.663c1.778-5.856,1.172-12.053-1.711-17.454c-2.882-5.398-7.694-9.352-13.551-11.13
		c-2.172-0.662-4.417-0.997-6.669-0.997c-10.154,0-18.962,6.534-21.916,16.258c-1.78,5.855-1.173,12.054,1.71,17.452
		c2.882,5.4,7.694,9.354,13.551,11.133c2.174,0.66,4.417,0.994,6.67,0.994h0.001C115.433,60.919,124.241,54.387,127.197,44.663z
		 M112.995,58.495h-2.988c0-0.373-0.043-0.74-0.104-1.104c-1.488,0.35-3.035,0.54-4.621,0.54c-1.561,0-3.116-0.193-4.641-0.561
		c-0.389-0.093-0.776-0.189-1.161-0.307c-0.575-0.175-1.133-0.381-1.684-0.603c-4.326-1.744-7.875-4.912-10.099-9.077
		c-2.507-4.694-3.035-10.085-1.488-15.178c1.803-5.931,6.114-10.487,11.571-12.685c0.925-0.372,1.88-0.68,2.865-0.911
		c1.488-0.35,3.034-0.54,4.621-0.54c1.557,0,3.11,0.192,4.633,0.558c0.063-0.37,0.108-0.743,0.108-1.122h2.988
		c0,0.7-0.091,1.379-0.234,2.041c9.441,3.823,14.595,14.316,11.576,24.245c-1.803,5.933-6.113,10.489-11.571,12.688
		C112.905,57.133,112.995,57.804,112.995,58.495z"/>
	<path d="M107.581,48.248c-0.772-0.714-1.343-1.145-1.42-1.201c-0.014-0.01-0.367-0.275-0.888-0.74
		c-1.584-1.413-4.733-4.678-4.733-8.306c0-3.629,3.15-6.894,4.733-8.305c0.521-0.464,0.873-0.729,0.886-0.739
		c0.078-0.057,0.649-0.488,1.422-1.202c1.699-1.569,4.391-4.548,5.18-8.207c0.143-0.661,0.234-1.34,0.234-2.041h-2.988
		c0,0.379-0.044,0.752-0.108,1.122c-0.543,3.167-3.208,5.918-4.626,7.183c-0.521,0.464-0.873,0.729-0.887,0.739
		c-0.078,0.057-0.649,0.489-1.421,1.203c-2.005,1.853-5.414,5.669-5.414,10.248c0,6.341,6.556,11.245,6.834,11.448
		c0.012,0.01,0.306,0.233,0.742,0.613c0.049,0.044,0.093,0.08,0.146,0.128c1.421,1.267,4.093,4.026,4.629,7.201
		c0.062,0.363,0.104,0.73,0.104,1.104h2.988c0-0.691-0.09-1.362-0.229-2.015C111.983,52.81,109.283,49.82,107.581,48.248z"/>
	<path d="M12.467,49.267l7.183-21.328h-5.126l-2.721,9.113c-0.728,2.437-1.393,4.969-1.93,7.532H9.777
		c-0.506-2.659-1.171-5.063-1.898-7.627l-2.594-9.018H0l6.834,21.328H12.467z"/>
</g>
<path d="M26.612,26.799l-3.196-3.891h3.386l1.581,1.962h0.064l1.582-1.962h3.353l-3.164,3.891H26.612z M34.617,40.249h-7.847v5.062
	h8.764v3.956H21.96V27.939h13.131v3.956h-8.321v4.429h7.847V40.249z"/>
<g>
	<path fill="none" d="M69.364,35.659c-0.348-1.266-0.728-2.878-1.044-4.112h-0.096c-0.285,1.266-0.632,2.878-0.949,4.112
		l-1.297,4.525h4.715L69.364,35.659z"/>
	<path fill="none" d="M45.82,31.484c-1.044,0-1.772,0.095-2.183,0.189v13.955c0.411,0.094,1.107,0.094,1.677,0.094
		c4.397,0.033,7.277-2.372,7.277-7.466C52.591,33.824,49.998,31.484,45.82,31.484z"/>
	<path d="M57.686,38.098c0-3.798-1.392-6.393-3.608-8.038c-2.024-1.519-4.682-2.279-8.764-2.279c-2.405,0-4.715,0.158-6.487,0.476
		v20.916c1.17,0.157,2.975,0.315,5.476,0.315c4.175,0,7.625-0.886,9.871-2.752C56.199,44.994,57.686,42.18,57.686,38.098z
		 M45.314,45.722c-0.57,0-1.266,0-1.677-0.094V31.673c0.411-0.095,1.139-0.189,2.183-0.189c4.178,0,6.771,2.34,6.771,6.772
		C52.591,43.35,49.711,45.755,45.314,45.722z"/>
	<path d="M71.42,43.793l1.646,5.474h5.19L71.61,27.94h-6.296l-6.519,21.327h5l1.487-5.474H71.42z M67.275,35.659
		c0.317-1.233,0.665-2.846,0.949-4.112h0.096c0.316,1.234,0.696,2.846,1.044,4.112l1.33,4.525h-4.715L67.275,35.659z"/>
	<path d="M150.322,27.939h-5.126l-2.721,9.113c-0.729,2.437-1.393,4.969-1.93,7.532h-0.096c-0.506-2.659-1.171-5.063-1.898-7.627
		l-2.594-9.018h-5.284l6.834,21.328h5.632L150.322,27.939z"/>
	<polygon points="165.7,22.972 160.638,22.972 157.979,26.863 161.84,26.863 	"/>
	<path d="M161.81,33.065c-0.635,1.52-1.141,2.753-1.614,4.082h-0.064c-0.505-1.393-0.98-2.53-1.645-4.082l-2.152-5.126h-5.537
		l6.739,12.595v8.732h4.811v-8.893l7.025-12.435h-5.412L161.81,33.065z"/>
</g>
<polygon points="170.354,46.671 180.509,32.022 180.509,31.926 171.271,31.926 171.271,27.939 186.743,27.939 186.743,30.723 
	176.81,45.152 176.81,45.279 186.902,45.279 186.902,49.267 170.354,49.267 "/>
<g>
	<path d="M189.941,27.939v21.327h4.777v-6.961l1.804-2.248l5.253,9.209h5.601l-7.405-12.246l7.058-9.081h-5.949l-4.81,7.087
		c-0.506,0.761-1.013,1.519-1.486,2.342h-0.064v-9.429H189.941z"/>
	<path d="M209.371,27.939v11.896c0,6.773,3.133,9.778,8.512,9.778c5.568,0,8.891-3.131,8.891-9.715v-11.96h-4.809v12.245
		c0,3.797-1.393,5.568-3.924,5.568c-2.438,0-3.86-1.865-3.86-5.568V27.939H209.371z"/>
	<path d="M235.699,32.337h0.063c0.538,2.817,1.234,5.822,1.931,8.322l2.277,8.26h3.767l2.594-8.322
		c0.823-2.5,1.709-5.537,2.405-8.259h0.063c0,3.133,0.095,6.203,0.189,8.765l0.349,8.164h4.683l-1.139-21.327h-6.329l-2.246,7.088
		c-0.729,2.372-1.455,5.188-2.025,7.657h-0.126c-0.477-2.5-1.108-5.158-1.804-7.625l-2.089-7.12h-6.423l-1.361,21.327h4.461
		l0.412-8.101C235.477,38.508,235.604,35.216,235.699,32.337z"/>
	<path d="M260.033,49.614c1.71,0,2.848-1.233,2.848-2.911c-0.031-1.771-1.169-2.942-2.816-2.942c-1.677,0-2.848,1.202-2.848,2.942
		c0,1.678,1.171,2.911,2.784,2.911H260.033z"/>
	<path d="M276.805,31.579c1.74,0,3.101,0.379,4.049,0.791l1.014-3.829c-0.855-0.412-2.753-0.918-5.253-0.918
		c-6.454,0-11.645,4.019-11.645,11.265c0,6.075,3.798,10.695,11.17,10.695c2.563,0,4.588-0.506,5.442-0.918l-0.696-3.796
		c-0.98,0.41-2.563,0.694-4.051,0.694c-4.271,0-6.802-2.689-6.802-6.928C270.033,33.888,273.007,31.579,276.805,31.579z"/>
</g>
<polygon points="284.366,27.939 284.366,31.925 293.607,31.925 293.607,32.022 283.449,46.672 283.449,49.265 299.999,49.265 
	299.999,45.279 289.905,45.279 289.905,45.152 299.841,30.723 299.841,27.939 "/>
</svg>
