<svg width="134" height="27" fill="none" xmlns="http://www.w3.org/2000/svg"><path fill-rule="evenodd" clip-rule="evenodd" d="M78.78.868c-4.79.723-7.551 3.64-7.551 7.975 0 2.89.946 4.274 4.502 6.584 2.753 1.788 3.44 2.561 3.46 3.9.029 1.974-1.088 3.036-3.327 3.162-1.498.085-2.471-.125-4.78-1.032-1.31-.515-1.167-.617-2.46 1.759l-.91 1.672.646.544C70.112 26.906 76 27.51 78.78 26.5c2.654-.964 4.609-2.847 5.486-5.285.196-.547.363-1.718.373-2.63.017-1.329-.087-1.882-.54-2.87-.64-1.399-1.404-2.082-4.518-4.034-2.532-1.588-3.186-2.404-3.034-3.786.282-2.58 3.342-3.387 6.835-1.803.828.376 1.617.64 1.754.588.394-.151 2.12-3.631 1.982-3.993-.07-.18-.551-.515-1.072-.745C83.835.963 80.962.538 78.78.868zm-64.414.595c-.415.282-1.036 2.872-.943 3.93.014.156.32.275.705.275.594 0 .666.062.565.492-1.048 4.485-4.112 19.72-4.016 19.971.112.29.757.34 4.504.34 6.403 0 7.946-.458 10.656-3.158 3.015-3.004 4.747-7.953 4.757-13.594.005-2.43-.066-3.029-.48-4.083-.621-1.585-2.114-3.01-3.874-3.698-1.204-.47-1.688-.515-6.445-.589-2.83-.044-5.272.007-5.429.114zm20.125.115c-.305.367-.957 3.426-.811 3.805.06.157.419.285.798.285.598 0 .675.064.586.492L32.918 16.36c-1.724 8.186-1.994 9.737-1.729 9.905.173.11 1.222.201 2.331.203l2.016.003.224-.83c.269-1 1.258-5.625 2.246-10.5.397-1.956.795-3.557.885-3.558.09-.001.165.121.166.272.002.15 1.017 3.476 2.256 7.39l2.254 7.117 1.76.063c1.236.044 1.826-.02 1.985-.219.124-.155.493-1.563.82-3.129.326-1.565 1.476-6.983 2.555-12.038 1.838-8.607 1.938-9.208 1.58-9.47-.414-.303-3.724-.392-4.164-.112-.14.09-.507 1.344-.816 2.789l-1.447 6.788c-.487 2.288-.92 4.259-.964 4.379-.102.282.02.633-2.411-6.98-1.149-3.598-2.201-6.677-2.338-6.843-.35-.422-5.287-.432-5.636-.01zm21.45-.096c-.303.192-.887 2.515-.9 3.583-.007.525.076.603.648.603.361 0 .657.113.657.252 0 .249-.958 4.86-3.081 14.827-.839 3.937-1.032 5.186-.838 5.42.204.246 1.465.303 6.674.303 7.37 0 6.65.235 7.188-2.337.22-1.047.244-1.57.082-1.765-.17-.205-1.258-.277-4.157-.277-3.637 0-3.92-.029-3.818-.383.06-.211.38-1.69.71-3.285l.6-2.901h3.236c2.862 0 3.26-.045 3.435-.384.304-.59.758-3.293.615-3.665-.105-.274-.66-.331-3.198-.331-2.593 0-3.07-.051-3.07-.33 0-.326.78-4.013 1.007-4.761.104-.345.482-.383 3.802-.383h3.686L70 4.244c.97-1.764 1.173-2.499.765-2.757-.39-.248-14.434-.253-14.825-.005zm52.861 1.2c-.899.15-1.564.379-1.668.577-.096.18-.341 1.117-.545 2.08-.204.964-.419 1.92-.477 2.125-.084.296-.413.387-1.572.438l-1.466.065-.37 1.526c-.454 1.879-.328 2.087 1.272 2.087.671 0 1.177.098 1.177.228 0 .126-.456 2.367-1.013 4.982-.558 2.614-1.019 5.352-1.026 6.084-.026 2.817 1.424 4.07 4.691 4.055 2.802-.013 6.328-1.09 6.039-1.843-.055-.142-.226-.826-.381-1.52-.155-.694-.391-1.351-.523-1.462-.151-.124-.694-.044-1.443.215-2.104.727-3.279.51-3.279-.604 0-.433.924-5.163 1.754-8.979l.249-1.143 2.535-.061 2.535-.062.516-1.53c.283-.842.468-1.655.409-1.807-.076-.2-.801-.276-2.629-.276-1.388 0-2.524-.03-2.524-.066 0-.036.195-.947.433-2.025.238-1.078.435-2.28.437-2.671.005-.682-.029-.711-.815-.686-.452.014-1.494.137-2.316.274zM23.658 6.148c1.267.622 1.502 1.273 1.471 4.081-.03 2.793-.427 5.026-1.287 7.252-1.234 3.192-3.036 4.61-5.856 4.61-1.354 0-1.491-.039-1.378-.397.07-.219.815-3.693 1.656-7.719.84-4.027 1.584-7.557 1.651-7.844.118-.506.174-.52 1.64-.397.836.07 1.782.257 2.103.414zm95.722 1.31c-.783.112-1.514.294-1.625.405-.222.223 1.726 17.286 2.069 18.116.189.458.337.492 2.151.492 1.295 0 2.021-.091 2.166-.273.66-.825 9.913-17.795 9.859-18.08-.086-.444-.941-.656-2.978-.74l-1.665-.067-2.676 5.365c-1.471 2.95-2.788 5.685-2.926 6.076-.331.94-.539.9-.57-.11-.104-3.402-.622-10.746-.78-11.057-.218-.428-.756-.45-3.025-.127zM.787 8.267c-.162.104-.434.856-.604 1.67-.395 1.884-.255 2.08 1.472 2.08.708 0 1.287.095 1.287.21 0 .115-.639 3.235-1.42 6.934C.46 24.195.165 25.959.347 26.178c.172.208.867.292 2.395.292h2.154l.211-.82c.116-.452.972-4.409 1.902-8.792 1.227-5.786 1.63-8.067 1.47-8.322-.186-.294-.796-.359-3.809-.405-1.973-.03-3.72.031-3.882.136z" fill="#E40520"/><path d="M89.138 18.63c-.269-2.295-.04-5.801.465-7.13.166-.438.37-.577.847-.577 1.264 0 8.995 4.332 9.349 5.239.09.232-.172.61-.8 1.154-1.635 1.416-7.568 4.556-8.608 4.556-.606 0-.989-.99-1.253-3.242zM4.693 1.168c.3-.326.843-.724 1.204-.885.928-.413 1.746-.376 2.722.122 2.35 1.2 2.359 4.488.017 5.733-1.321.702-2.85.397-3.943-.788-.473-.513-.547-.798-.547-2.091 0-1.294.074-1.579.547-2.09z" fill="#1C3B6A"/><ellipse cx="7.223" cy="3.285" rx="3.283" ry="3.285" fill="#1C3B6A"/></svg>