<?xml version="1.0" standalone="no"?>
<!DOCTYPE svg PUBLIC "-//W3C//DTD SVG 20010904//EN"
 "http://www.w3.org/TR/2001/REC-SVG-20010904/DTD/svg10.dtd">
<svg version="1.0" xmlns="http://www.w3.org/2000/svg"
 width="700.000000pt" height="700.000000pt" viewBox="0 0 700.000000 700.000000"
 preserveAspectRatio="xMidYMid meet">
<metadata>
Created by potrace 1.14, written by Peter Selinger 2001-2017
</metadata>
<g transform="translate(0.000000,700.000000) scale(0.100000,-0.100000)"
fill="#000000" stroke="none">
<path d="M5650 6984 c-76 -16 -148 -43 -245 -92 -340 -172 -534 -472 -616
-952 -7 -41 -13 -77 -14 -80 -1 -3 -5 -36 -9 -75 -5 -38 -10 -77 -11 -86 -10
-52 -19 -296 -20 -509 0 -266 9 -438 28 -565 4 -22 9 -60 12 -85 39 -300 166
-658 307 -864 253 -371 672 -507 1073 -347 216 87 396 254 534 495 83 146 181
403 216 566 2 8 10 42 18 75 8 33 18 76 21 95 3 19 8 44 10 55 3 18 12 79 21
145 31 231 26 633 -10 895 -13 94 -47 264 -69 340 -1 6 -8 30 -15 55 -89 324
-252 605 -447 770 -114 97 -207 142 -344 167 -67 12 -378 10 -440 -3z"/>
<path d="M1907 6984 c-1 -1 -41 -5 -89 -8 -222 -15 -578 -124 -840 -258 -476
-242 -793 -603 -921 -1049 -24 -82 -29 -108 -47 -234 -8 -60 -5 -451 4 -492 2
-12 8 -53 11 -90 4 -37 9 -70 10 -73 2 -3 6 -26 10 -50 51 -350 210 -668 455
-909 224 -221 640 -423 980 -476 25 -4 53 -9 64 -11 10 -2 42 -6 70 -9 28 -3
65 -7 81 -9 201 -28 869 -28 1049 -1 11 2 44 6 71 10 73 10 265 67 381 113
204 82 407 188 575 303 108 73 310 269 387 374 29 39 56 75 61 81 4 6 23 37
41 70 18 32 36 64 40 69 38 49 129 322 145 432 3 23 8 57 11 75 9 63 11 273 2
358 -19 192 -73 410 -146 595 -124 313 -355 602 -637 797 -112 77 -202 127
-341 186 -148 63 -315 113 -489 146 -40 8 -172 26 -225 31 -30 3 -73 8 -95 10
-94 10 -611 25 -618 19z"/>
<path d="M1369 3026 c-2 -2 -40 -6 -84 -10 -105 -7 -222 -30 -346 -67 -100
-30 -141 -45 -254 -100 -251 -121 -438 -304 -560 -548 -36 -72 -81 -192 -90
-241 -3 -14 -7 -36 -10 -50 -20 -101 -28 -496 -13 -645 47 -453 263 -828 620
-1072 280 -191 688 -294 1143 -288 506 7 941 161 1205 425 180 180 288 396
326 650 3 19 8 46 11 60 12 58 11 467 -3 555 -53 350 -195 658 -402 872 -60
61 -203 183 -216 183 -3 0 -25 14 -50 30 -65 44 -237 124 -341 158 -121 40
-186 54 -320 68 -33 3 -71 8 -85 10 -29 6 -526 15 -531 10z"/>
<path d="M5018 3026 c-1 -2 -43 -7 -93 -10 -230 -17 -501 -103 -699 -220 -201
-119 -363 -291 -465 -493 -93 -185 -124 -347 -124 -648 -1 -220 12 -358 47
-521 26 -122 122 -337 205 -459 158 -232 390 -418 648 -521 80 -31 233 -79
283 -88 14 -2 36 -7 50 -10 47 -11 155 -29 255 -42 22 -3 126 -7 230 -9 170
-2 254 2 365 20 19 4 51 8 70 11 152 20 408 102 554 177 330 169 548 453 621
807 1 8 6 35 9 60 3 25 9 56 12 70 9 39 12 446 3 493 -4 23 -10 67 -14 97 -4
30 -9 58 -11 61 -2 3 -6 21 -9 40 -6 36 -10 49 -51 174 -105 322 -311 589
-589 762 -54 34 -217 115 -256 128 -13 4 -26 8 -29 10 -30 13 -125 44 -155 51
-81 19 -179 36 -230 40 -33 3 -71 7 -85 10 -26 6 -536 15 -542 10z"/>
</g>
</svg>
