<svg
  width="32"
  height="32"
  viewBox="0 0 32 32"
  fill="none"
  xmlns="http://www.w3.org/2000/svg">
<path
    d="M8.48346 5.24132V13.4803L24.0744 4.20027C24.2786 4.0721 24.5143 4.0028 24.7554 4C25.4357 4 25.9934 4.56273 25.9934 5.24959H25.9984V26.7492H25.9926C25.9934 27.436 25.4357 27.9988 24.7554 27.9988C24.4989 27.9988 24.2871 27.9119 24.0553 27.7861L8.48346 18.5184V26.7583C8.48346 27.0876 8.35263 27.4034 8.11976 27.6363C7.88689 27.8692 7.57106 28 7.24173 28C6.9124 28 6.59656 27.8692 6.36369 27.6363C6.13083 27.4034 6 27.0876 6 26.7583V5.24214C6 4.91292 6.13078 4.59719 6.36357 4.3644C6.59637 4.13161 6.9121 4.00083 7.24132 4.00083C7.57053 4.00083 7.88627 4.13161 8.11906 4.3644C8.35185 4.59719 8.48263 4.91292 8.48263 5.24214L8.48346 5.24132Z"
    fill="black"
  />
</svg>
