<svg
  width="32"
  height="32"
  viewBox="0 0 32 32"
  fill="none"
  xmlns="http://www.w3.org/2000/svg">
<path
    d="M13.0004 25.0036C12.2497 25.0036 11.499 24.7034 10.9006 24.1028L4.89921 18.1014C4.61504 17.8304 4.38883 17.5046 4.23426 17.1437C4.0797 16.7828 4 16.3942 4 16.0016C4 15.6089 4.0797 15.2204 4.23426 14.8594C4.38883 14.4985 4.61504 14.1727 4.89921 13.9018C6.10037 12.7006 8.05005 12.7006 9.10106 13.9018L12.9982 17.8011L22.8989 7.90037C23.1699 7.61586 23.4959 7.38935 23.857 7.23458C24.2181 7.07981 24.607 7 24.9999 7C25.3928 7 25.7816 7.07981 26.1427 7.23458C26.5039 7.38935 26.8298 7.61586 27.1008 7.90037C27.385 8.17132 27.6112 8.49713 27.7657 8.85806C27.9203 9.219 28 9.60755 28 10.0002C28 10.3928 27.9203 10.7814 27.7657 11.1423C27.6112 11.5033 27.385 11.8291 27.1008 12.1L15.1002 24.105C14.8276 24.3865 14.5018 24.6111 14.1417 24.7657C13.7817 24.9203 13.3945 25.002 13.0026 25.0058L13.0004 25.0036Z"
    fill="black"
  />
</svg>
