<svg
  width="32"
  height="32"
  viewBox="0 0 32 32"
  fill="none"
  xmlns="http://www.w3.org/2000/svg">
<path
    d="M15.51 3C13.0358 3 10.6171 3.7337 8.55981 5.10831C6.50256 6.48293 4.89912 8.43673 3.95226 10.7226C3.00541 13.0085 2.75767 15.5239 3.24037 17.9506C3.72308 20.3773 4.91454 22.6064 6.66409 24.3559C8.41365 26.1055 10.6427 27.2969 13.0694 27.7796C15.4961 28.2623 18.0115 28.0146 20.2974 27.0677C22.5833 26.1209 24.5371 24.5174 25.9117 22.4602C27.2863 20.4029 28.02 17.9842 28.02 15.51C28.02 12.1921 26.702 9.01017 24.3559 6.66409C22.0098 4.31801 18.8279 3 15.51 3ZM21.4 12.645L15.148 18.9C15.0317 19.0172 14.8934 19.1102 14.741 19.1737C14.5886 19.2372 14.4251 19.2698 14.26 19.2698C14.0949 19.2698 13.9314 19.2372 13.779 19.1737C13.6266 19.1102 13.4883 19.0172 13.372 18.9L10.872 16.4C10.643 16.1632 10.5162 15.8458 10.519 15.5164C10.5218 15.1869 10.6539 14.8718 10.8868 14.6388C11.1198 14.4059 11.4349 14.2738 11.7644 14.271C12.0938 14.2682 12.4112 14.395 12.648 14.624L14.262 16.25L19.629 10.871C19.7427 10.7429 19.8815 10.6394 20.0368 10.5669C20.192 10.4944 20.3604 10.4544 20.5317 10.4494C20.703 10.4444 20.8734 10.4745 21.0326 10.5378C21.1918 10.6012 21.3364 10.6964 21.4574 10.8177C21.5784 10.939 21.6733 11.0838 21.7363 11.2431C21.7993 11.4025 21.829 11.573 21.8237 11.7443C21.8183 11.9155 21.7779 12.0839 21.7051 12.2389C21.6322 12.394 21.5284 12.5315 21.4 12.645Z"
    fill="black"
  />
</svg>
