<svg
  width="32"
  height="32"
  viewBox="0 0 32 32"
  fill="none"
  xmlns="http://www.w3.org/2000/svg">
<path
    d="M13 15.9993C13 17.5266 14.2434 18.7686 15.7693 18.7686C17.2952 18.7686 18.5386 17.5266 18.5386 15.9993C18.5386 14.472 17.2965 13.23 15.7693 13.23C14.242 13.23 13 14.4734 13 15.9993ZM13 25.2307C13 26.758 14.2434 28 15.7693 28C17.2952 28 18.5386 26.758 18.5386 25.2307C18.5386 23.7035 17.2965 22.4614 15.7693 22.4614C14.242 22.4614 13 23.7035 13 25.2307ZM13 6.76928C13 8.29516 14.2434 9.53857 15.7693 9.53857C17.2952 9.53857 18.5386 8.29516 18.5386 6.76928C18.5386 5.24341 17.2965 4 15.7693 4C14.242 4 13 5.24202 13 6.76928Z"
    fill="black"
  />
</svg>
