<svg
  width="32"
  height="32"
  viewBox="0 0 32 32"
  fill="none"
  xmlns="http://www.w3.org/2000/svg">
<path
    fill-rule="evenodd"
    clip-rule="evenodd"
    d="M16 6C10.4773 6 6 10.4773 6 16C6 18.7044 7.07363 21.1581 8.8179 22.9582C8.52012 22.1339 8.36363 21.2568 8.36363 20.3636C8.36363 18.3383 9.16818 16.396 10.6003 14.9639C12.0324 13.5318 13.9747 12.7273 16 12.7273C18.0253 12.7273 19.9676 13.5318 21.3997 14.9639C22.8318 16.396 23.6364 18.3383 23.6364 20.3636C23.6364 21.2568 23.4799 22.1339 23.1821 22.9582C24.9264 21.1581 26 18.7044 26 16C26 10.4773 21.5227 6 16 6ZM16 28C9.37273 28 4 22.6273 4 16C4 9.37273 9.37273 4 16 4C22.6273 4 28 9.37273 28 16C28 22.6273 22.6273 28 16 28ZM16 26C17.4949 26 18.9285 25.4062 19.9855 24.3491C21.0425 23.2921 21.6364 21.8585 21.6364 20.3636C21.6364 18.8688 21.0425 17.4352 19.9855 16.3781C18.9285 15.3211 17.4949 14.7273 16 14.7273C14.5051 14.7273 13.0715 15.3211 12.0145 16.3781C10.9575 17.4352 10.3636 18.8688 10.3636 20.3636C10.3636 21.8585 10.9575 23.2921 12.0145 24.3491C13.0715 25.4062 14.5051 26 16 26Z"
    fill="black"
  />
</svg>
