<svg
  width="32"
  height="32"
  viewBox="0 0 32 32"
  fill="none"
  xmlns="http://www.w3.org/2000/svg">
<path
    d="M27.9985 26.1536C27.9985 26.6531 27.8155 27.0851 27.451 27.451C27.2834 27.6262 27.0817 27.7651 26.8583 27.8593C26.6349 27.9534 26.3945 28.0008 26.1521 27.9985C25.6332 27.9985 25.2012 27.8155 24.8547 27.451L19.908 22.5179C18.2227 23.6988 16.2107 24.3239 14.1529 24.3057C12.7973 24.31 11.4551 24.038 10.2081 23.5063C8.99711 23.0018 7.89536 22.2673 6.96385 21.3434C6.03987 20.4115 5.30536 19.3092 4.80099 18.0976C4.26878 16.8508 3.99625 15.5086 4.00004 14.1529C4.00004 12.779 4.26702 11.4636 4.80099 10.2081C5.30553 8.99711 6.04003 7.89536 6.96385 6.96385C7.89536 6.04003 8.99711 5.30553 10.2081 4.80099C11.4555 4.26858 12.7982 3.99605 14.1544 4.00004C15.5298 4.00004 16.8437 4.26703 18.0991 4.80099C19.3102 5.30553 20.4119 6.04003 21.3434 6.96385C22.2678 7.89523 23.0028 8.99699 23.5078 10.2081C24.0418 11.4636 24.3072 12.779 24.3072 14.1529C24.3072 16.2678 23.7118 18.1876 22.5194 19.908L27.466 24.8547C27.8215 25.2102 28 25.6422 28 26.1521L27.9985 26.1536ZM20.6145 14.1544C20.6145 12.374 19.9815 10.8531 18.7171 9.58869C17.4542 8.32427 15.9318 7.69281 14.1529 7.69281C12.374 7.69281 10.8531 8.32427 9.58868 9.58869C8.32426 10.8531 7.6928 12.374 7.6928 14.1529C7.6928 15.9318 8.32426 17.4527 9.58868 18.7186C10.8531 19.9815 12.374 20.6145 14.1529 20.6145C15.9318 20.6145 17.4527 19.9815 18.7186 18.7171C19.9815 17.4542 20.6145 15.9333 20.6145 14.1544Z"
    fill="black"
  />
</svg>
