<svg
  xmlns="http://www.w3.org/2000/svg"
  width="20"
  height="20"
  viewBox="0 0 20 20"><path
    fill="#facc20"
    d="M0 10a10 10 0 1 1 20 0 10 10 0 1 1-20 0z"
  /><path
    fill="#fdef34"
    d="M15.333 5.792l-.75.25L14 7.75l-.583-1.708-1.709-.584 1.709-.583.208-.625a6.882 6.882 0 0 0-3.667-1.083 6.793 6.793 0 0 0-6.791 6.791c0 3.75 3.083 6.834 6.833 6.834A6.793 6.793 0 0 0 16.792 10c0-1.583-.584-3.042-1.459-4.208z"
  /><path
    fill="#fff"
    d="M.875 10.875c0-5.542 4.458-10 10-10 2.542 0 4.875.958 6.625 2.5A9.922 9.922 0 0 0 10 0C4.458 0 0 4.458 0 10c0 3 1.292 5.667 3.375 7.5a9.897 9.897 0 0 1-2.5-6.625z"
    opacity=".2"
  /><path
    d="M15.792 1.875L1.875 15.792l-.417-.625 13.75-13.75.584.458zm2.75 2.958l-13.75 13.75a11.967 11.967 0 0 1-1.834-1.416L17.083 3.042a6.718 6.718 0 0 1 1.459 1.791z"
    opacity=".09"
    fill="#fff"
  /></svg>
