<svg xmlns="http://www.w3.org/2000/svg" width="22" height="22" viewBox="0 0 22 22"><defs><clipPath id="A"><path fill="currentColor" d="M4 22a4 4 0 0 1-4-4V4a4 4 0 0 1 4-4h14a4 4 0 0 1 4 4v14a4 4 0 0 1-4 4z"/></clipPath><clipPath id="B"><path fill="currentColor" d="M6 11a1 1 0 0 1-1-1V6a1 1 0 0 1 1-1h10a1 1 0 0 1 1 1v4a1 1 0 0 1-1 1z"/></clipPath></defs><g fill="none" stroke="currentColor" stroke-miterlimit="20" stroke-width="4"><path d="M4 22a4 4 0 0 1-4-4V4a4 4 0 0 1 4-4h14a4 4 0 0 1 4 4v14a4 4 0 0 1-4 4z" clip-path="url(#A)"/><path d="M6 11a1 1 0 0 1-1-1V6a1 1 0 0 1 1-1h10a1 1 0 0 1 1 1v4a1 1 0 0 1-1 1z" clip-path="url(#B)"/></g></svg>