<svg xmlns="http://www.w3.org/2000/svg" width="236" height="327">
    <path fill="#1e2a2c"
          d="M200.317 326.5H10.41c9.85-20.34 29.588-57.845 51.1-80.518l2.594-2.81c5.596-6.12 16.012-17.51 20.407-18.715 1.165-.319 2.453-.48 3.83-.48 5.408 0 11.655 2.434 17.696 4.787 4.85 1.89 9.43 3.675 13.45 4.2 1.32.173 2.71.261 4.129.261 7.044 0 14.104-2.049 21.94-4.524l1.062-.336c6.8-2.153 13.224-4.187 18.906-4.187 4.135 0 7.49 1.093 10.258 3.343 3.153 2.564 5.562 6.61 7.362 12.373 3.063 9.8 5.796 20.954 8.357 34.1 2.287 11.737 4.236 23.987 6.121 35.834l.001.008 2.692 16.663z"/>
    <path fill="none" stroke="#000" stroke-miterlimit="20"
          d="M200.317 326.5h0H10.41c9.85-20.34 29.588-57.845 51.1-80.518l2.594-2.81c5.596-6.12 16.012-17.51 20.407-18.715 1.165-.319 2.453-.48 3.83-.48 5.408 0 11.655 2.434 17.696 4.787 4.85 1.89 9.43 3.675 13.45 4.2 1.32.173 2.71.261 4.129.261 7.044 0 14.104-2.049 21.94-4.524l1.062-.336c6.8-2.153 13.224-4.187 18.906-4.187 4.135 0 7.49 1.093 10.258 3.343 3.153 2.564 5.562 6.61 7.362 12.373 3.063 9.8 5.796 20.954 8.357 34.1 2.287 11.737 4.236 23.987 6.121 35.834l.001.008 2.692 16.663h0 0 0 0 0 0z"/>
    <path d="M56.804 306.6c-.828-.59-2.252-.473-2.801.473-.954 1.646-1.31 3.544-2.256 5.174-.549.947-.48 2.123.472 2.8.829.593 2.253.476 2.801-.47.955-1.648 1.31-3.543 2.256-5.175.55-.947.48-2.124-.472-2.802zm22.108-33.886c-.138 1.234-.734 2.897-2 3.458-2.368 1.049-.661 4.686 1.709 3.635 2.576-1.14 3.993-4.052 4.29-6.734.287-2.576-3.714-2.93-4-.36z"
          fill="#eae7e7"/>
    <path fill="#c86047"
          d="M193.953 78.47c-6.105-1.621-10.844-6.905-14.073-12.152-3.848-6.257-3.927-12.9-6.766-19.317 2.162 4.883-21.823 20.592-25.293 23.03-6.094 4.284-13.109 8.605-20.27 10.844-4.977 1.556-9.718.56-14.783 1.837-9.815 2.476-11.204 11.1-10.068 19.835.87 6.698 3.127 13.245 5.538 19.53 5.502 14.346 18.23 28.68 35.107 25.427 14.892-2.87 17.908-12.016 20.297-22.46 1.76-7.686 3.178-16.072 8.744-23.187 6.68-8.543 13.462-16.116 21.567-23.388z"/>
    <path fill="#c0543f"
          d="M163.244 78.461c-4.51-6.793-5.144-15.919-7.134-24.147l-.476.515c-5.122 5.375-5.847 13.008-12.665 17.43-3.116 2.019-6.465 3.684-9.871 5.154-1.585.683-7.765 1.872-8.43 3.706-1.703 4.7 9.225 5.89 11.822 5.295 5.367-1.229 11.629-7.788 17.268-5.218 3.623 1.652 6.406 6.194 10.055 8.361 1.679.997 7.473 3.343 8.188.428.45-1.831-7.376-9.443-8.757-11.524z"/>
    <path fill="#20312e"
          d="M214.58 30.984c-2.422-7.955-7.6-15.02-15.951-20.175-10.454-6.454-12.248 1.012-14.715 9.663-1.749 6.135-3.573 13.926-9.308 17.62-3.376 2.177-7.488 1.68-10.956 3.381-13.51 6.629.817 21.54 4.985 29.151 3.32 6.061 4.872 10.5 12.086 12.148 6.445 1.473 14.065.217 19.573-3.52 5.76-3.908 8.984-10.921 11.593-17.016 4.498-10.509 5.647-21.543 2.692-31.251z"/>
    <path fill="#eb8864"
          d="M208.29 37.657c-1.52-2.06-3.532-3.965-6.121-5.654-25.714-16.728-54.752 10.96-43.928 38.12 1.526 3.824 3.221 7.876 5.015 11.594 3.455 7.15 9.92 13.467 18.401 9.742 7.31-3.212 15.78-6.943 19.152-14.702 1.039-2.391 1.278-5.529 3-7.823 1.901-2.532 4.412-4.027 5.677-7.235 3.064-7.765 4.029-16.948-1.197-24.042z"/>
    <path d="M183.446 47.079c-2.064-.293-6.27-1.42-7.308 1.46.03-.092.522.013 1.267.233l7.323 2.522c3.036.81 4.203-1.655 4.754-4.427-2.102.156-3.934.509-6.036.212zM205.034 57.9c-.256-.34-3.306-4.113-3.017-4.384-1.412 1.32-2.358 2.44-1.898 3.751.152.44.466.902.976 1.4.295.29 4.635 3.41 4.29 3.702 2.086-1.744.952-2.712-.351-4.47z"
          fill="#4a373b"/>
    <path fill="#c46a5a"
          d="M191.042 66.165c-.174-.758-.311-1.537-.178-2.266.415-2.21 1.702-4.247 1.98-6.45-3.211-2.135-7.298 7.241-7.141 9.448.208 2.922 4.722 6.524 5.717 1.98.166-.739-.143-1.704-.378-2.712z"/>
    <path fill="#f2d8cd" d="M180.19 58.195l.118.096a3.098 3.098 0 0 1-.245-.238z"/>
    <path fill="#ed6956"
          d="M169.403 65.572c.434-3.266-6.792-7.85-7.85-2.427-.846 4.321 7.47 7.585 7.844 2.532-.074.381-.025.073.006-.105z"/>
    <path fill="#775c61" d="M159.968 30.429l-.127.041"/>
    <path fill="#dc7a60"
          d="M208.727 37.19c-5.34-6.236-14.366-8.387-22.243-7.402-6.062.756-12.172 2.826-17.262 6.24-3.172 2.126-6.074 4.708-6.15 8.84 2.437-.686 4.24-3.424 6.242-4.895 2.669-1.963 6.444-4.747 9.668-5.566 5.418-1.377 11.11 1.98 16.526 2.458 2.911.258 6.06-1.41 8.726.426 2.016 1.388 3.365 4.84 4.516 6.983 1.993 3.711 3.07 8.775 1.972 12.937l.209-.809c1.62-6.447 2.457-13.77-2.204-19.213z"/>
    <path fill="#243936"
          d="M204.307 17.284c-6.518-14.422-31.871-22.78-44.78-12.326-4.181 3.386-7.204 9.844-12.363 11.943-5.589 2.273-11.666-1.526-17.454-1.22-14.778.78-17.949 10.716-24.062 21.653-4.632 8.286-8.42 9.48-17.297 11.186-13.873 2.664-25.447 7.036-27.353 22.365-3.634 29.222 23.206 29.475 43.56 19.964 4.45-2.078 8.48-5.878 12.877-7.712 5.073-2.116 11.425-1.664 16.875-3.15 15.936-4.349 18.284-18.32 26.269-30.619 5.44-8.379 11.062-15.91 21.551-18.02 6.178-1.243 22.64 7.5 24.17-3.447.462-3.286-.362-7.008-1.993-10.617z"/>
    <path fill="#eb8864"
          d="M160.305 41.705c-5.452-2.813-10.21 5.789-7.495 10.142.128.206.63.583 1.293 1.037 1.857 1.275 4.987 3.172 4.8 3.67 1.377-3.658 6.879-12.027 1.402-14.85z"/>
    <path fill="#bf6755" d="M156.486 45.922c-1.086 1.297-2.489 3.597.216 4.055.612-1.209 1.117-2.502 1.653-3.755z"/>
    <path fill="#20312e"
          d="M148.565 57.92a3.373 3.373 0 0 0-.18-.126c-1.53-1.004-4.733 1.874-5.894 2.61-6.301 3.993-11.524 6.037-19.128 6.47-6.74.382-12.483-4.889-18.69-2.906-5.497 1.755-9.618 7.1-15.395 8.023-4.907.784-5.879-1.838-9.57-4.09-10.632-6.487-19.43 6.349-9.688 13.676 7.688 5.781 18.636 2.433 26.786-.455 8.934-3.165 16.738-4.258 25.902-4.236 6.386.014 12.377-1.74 17.471-5.57 2.503-1.88 12.976-9.948 8.386-13.395z"/>
    <path fill="#cc3037"
          d="M231.885 131.66c-1.55-7.874-4.789-14.844-13.61-16.201-6.276-.966-16.346-2.092-21.157 2.98-8.556 9.022-5.302 24.67-11.7 35.184-2.336 3.842-4.875 7.576-8.364 10.472-2.808 2.332-6.604 3.666-9.108 6.338-15.633 16.677-13.017 57.117 13.181 61.647 15.774 2.727 31.477-1.14 40.444-14.887 10.51-16.114 14.872-37.814 14.022-56.915-.158-3.564-.53-7.002-1.261-10.51-1.05-5.035-1.217-11.856-2.447-18.107z"/>
    <path fill="#df4040"
          d="M188.282 115.035a45.367 45.367 0 0 0-.02-.38c-1.227-22.58-25.226-4.212-39.874-9.036-7.672-2.527-13.082-8.639-17.147-15.335-1.325-2.182-2.855-8.668-4.984-9.895-2.468-1.425-9.606 1.553-12.677 1.953-4.046.527-8.09 1.68-12.043 2.667-6.153 1.537-12.613 2.917-18.546 5.207-4.219 1.63-9.643 4.028-11.276 8.554-1.702 4.717.89 11.673 1.561 16.446 2.665 18.944 1.605 37.844 4.128 56.68 1.54 11.49.765 27.542 7.313 37.73 11.07 17.221 32.48 17.205 51.07 15.6 6.961-.602 13.974-.085 20.95-.105 5.71-.017 12.249.716 17.703-1.354 7.762-2.946 6.382-9.336 6.511-15.742.203-10.15 3.46-20.691 4.758-30.797 2.604-20.26 3.655-41.746 2.573-62.193z"/>
    <path fill="#1e2a2c"
          d="M181.133 219.649a394.706 394.706 0 0 1-26.491 2.255c-9.887.501-19.761 1.448-29.673 1.302-3.185-.05-27.88-1.232-28.347-5.17 1.381 11.624 6.53 19.334 18.815 21.382 15.23 2.544 31.003-.253 46.287-.906 6.821-.294 13.828-.8 20.823-1.587a25.317 25.317 0 0 1-1.456-8.03c-.05-3.087-.064-6.171.042-9.246z"/>
    <path fill="#4c7595" d="M191.045 185.046v-.004l-.002.004z"/>
    <path fill="#76c094"
          d="M110.272 195.671c-.908-.484-2.05-.234-2.583.679-.505.862-.23 2.097.676 2.583.085.042.168.088.247.14h.002l.046.047.19.197.008.008.03.046c.27.39.477.822.688 1.244.461.92 1.74 1.173 2.583.677.93-.544 1.137-1.663.678-2.583-.605-1.209-1.334-2.38-2.565-3.038z"/>
    <path fill="#cc282f"
          d="M175.458 98.563c-1.684-.535-4.276 1.851-5.744 2.48-1.4.601-2.827 1.152-4.287 1.559-5.747 1.598-11.218.468-16.59-1.624-9.013-3.51-15.944-10.647-17.873-21.466-.207-1.17-4.323.354-4.695.828-1.33 1.7-2.745 21.553 19.871 30.07 19.18 7.224 30.237-4.897 31.2-8.643-.482-1.708-1.435-2.609-1.882-3.204z"/>
    <path d="M135.245 93.343c-1.437.769-2.62 1.806-3.75 2.966-1.28 1.317.629 3.443 1.914 2.123.962-.986 1.926-1.896 3.149-2.55 1.626-.87.314-3.41-1.313-2.54zm11.361 10.272c-.497-.55-1.476-.662-2.019-.104-.724.743-1.48 1.656-2.377 2.153-1.612.89-.304 3.431 1.312 2.538 1.155-.64 2.068-1.633 2.98-2.569.542-.558.65-1.412.104-2.018zm25.044-9.798c-.845-.06-1.552.75-1.552 1.55 0 .713.457 1.235 1.07 1.448a2.849 2.849 0 0 1 .19.33l.01.037c.029.078.049.16.068.241.058.817.698 1.49 1.543 1.49.825 0 1.58-.706 1.551-1.551-.054-1.607-1.16-3.424-2.88-3.545z"
          fill="#ebe7e6"/>
    <path d="M172.564 77.173c-.324.26.505 2.103.575 2.064a.508.508 0 0 0 .164-.152c.293-.419-.206-2.34-.739-1.912zm14.109 6.677a.406.406 0 0 0-.17-.078c-.421-.086-1.735.933-1.229 1.2.308.167 1.454-1.084 1.4-1.123z"
          fill="#b15b57"/>
    <path fill="#ed5850"
          d="M183.445 76.717c-.316-.046-.625.004-.867.21-1.178-1.75-2.543-2.217-4.593-1.358-1.027.43-2.304 1.576-2.636 2.666.782.044 1.443-.35 2.195-.463 1.004-.151 2.156-.025 3.152.158 1.192.219 2.48.907 3.104 1.992.496.87.596 2.237.76 3.218-.042-.256.601-.968.703-1.263.166-.484.202-1.027.205-1.536.004-.932-.12-2.098-.72-2.866a2.208 2.208 0 0 0-1.303-.758z"/>
    <path fill="#d6403e"
          d="M182.095 77.985a7.737 7.737 0 0 0-2.96-.755c-.93-.044-3.594.075-3.892 1.215.03-.112 3.032 1.12 3.241 1.172 1.676.412 3.17 1.196 4.6 2.184.56.383 1.022 1.005 1.603 1.285.732-1.995-.895-4.264-2.592-5.1z"/>
    <path fill="#df4040"
          d="M90.907 89.232c-9.601-2.74-21.113 0-28.66 6.945-15.399 14.168-20.908 35.067-22.337 55.29-1.4 19.8.01 35.934 7.842 54.458 9.536 22.556 35.094 42.397 60.262 42.384 14.858-.006 29.214-5.199 41.603-13.233 12.374-8.024 19.864-18.903 28.277-30.733a104.025 104.025 0 0 0 12.327-23.052c4.337-11.335 5.423-21.577 5.78-33.32.24-7.796 4.088-19.215-.89-26.231-4.718-6.655-17.583-10.285-25.231-11.626-12.597-2.21-16.03 13.622-21.004 22.16-4.857 8.336-9.72 16.918-16.068 24.232-6.372 7.342-20.529 14.28-24.468 1.055-2.517-8.452-.447-18.658.976-27.05 1.513-8.924-.02-19.961-3.546-28.244-2.978-6.997-8.501-11.219-14.863-13.035z"/>
    <path fill="#c6583f"
          d="M216.845 89.983c-1.8-8.198-4.038-17.765-10.396-23.734-2.402-2.254-6.414-4.913-9.8-5.036a12.86 12.86 0 0 0-1.095.003c-2.107.09-5.039.666-5.514 2.644-.39 1.633 1.398 4.337 1.973 5.774 2.018 5.039 3.517 9.765 2.893 15.242-.738 6.486-.62 14.05.252 20.51.26 1.927.352 3.787.367 5.709 5.247.347 10.181 1.48 15.474 1.999 3.013.296 5.855.72 8.6 1.438.038.01-1.142-9.537-1.174-10.524-.152-4.726-.564-9.397-1.58-14.025z"/>
    <path d="M193.981 61.879c-.696.107-.96.042-1.652.014l-.162.142c3.281 3.78 5.134 9.178 5.666 16.498l1.937-.083c-.522-7.176-2.71-12.533-5.789-16.571zm5.692.265c-1.383-.664-1.383-.664-2.65-.986 3.369 3.808 5.342 10.026 5.754 17.837l2.106-.044c-.4-7.546-2.134-12.684-5.21-16.807zm8.563 8.226a18.855 18.855 0 0 0-1.85-3.53c-.931-1.36-2.497-3.036-4.154-3.67.734.483 2.95 4.37 4.516 8.555.245.643 1.647 7.877 1.294 7.913l1.97-.196c.54-.053-1.476-8.318-1.776-9.072z"
          fill="#ae4335"/>
    <path fill="#c6583f"
          d="M210.433 85.82c1.581-5.226 9.482-12.425 14.916-8.588-1.636 2.076-3.412 3.968-4.78 6.285-1.134 1.927-2.194 3.903-3.116 5.947a35.683 35.683 0 0 0-2.11 6.01l-4.38-.539c-.908-3.065-1.428-6.146-.53-9.115z"/>
    <path fill="#d4694b"
          d="M172.382 76.315c-1.544 6.954-3.269 13.915-5.633 20.652l25.42 10.483c1.338-5.204 2.188-10.473 2.438-15.756.456-9.61.832-20.863-4.628-29.287-2.062-3.18-5.845-7.268-9.692-8.361a15.91 15.91 0 0 0-1.257-.305c-2.446-.497-5.986-.685-7.14 1.376-.994 1.783 2.464 12.328.492 21.198z"/>
    <path d="M174.572 53.903c-.834.074-1.142-.02-1.959-.1l-.202.149c3.546 4.558 5.256 10.862 5.229 19.27l2.302.044c.026-8.241-2.085-14.524-5.37-19.363zm6.331 1.13c-1.579-.858-1.579-.858-3.049-1.317 3.647 4.597 5.426 11.847 5.213 20.807l2.498.101c.206-8.656-1.389-14.655-4.662-19.59zm9.99 12.6a20.72 20.72 0 0 0-1.397-4.344c-.793-1.715-2.258-3.911-4.055-4.947.752.688 2.498 5.506 3.422 10.534.148.774.219 9.215-.202 9.187l2.343.16c.644.044.077-9.68-.11-10.59z"
          fill="#b94a38"/>
    <path fill="#d4694b"
          d="M174.196 77.308c-2.048-4.675-10.375-10.444-15.22-6.24 1.783 1.741 3.683 3.292 5.233 5.286 1.286 1.661 2.504 3.373 3.598 5.166a32.117 32.117 0 0 1 2.635 5.343l4.163-1.016c.564-2.957.755-5.882-.41-8.539z"/>
    <path fill="#cc282f"
          d="M196.94 109.63c-.288 1.1-2.194 13.611-1.425 13.763 2.954.588 37.053 7.814 36.518 9.92 5.556-21.917-18.24-25.227-34.551-23.735l-.543.053z"/>
    <path d="M202.067 116.074c.65 1.4 1.123 2.862.804 4.35-.363 1.695 2.347 2.609 2.713.898.477-2.228-.063-4.303-1.045-6.415-.765-1.65-3.231-.469-2.472 1.167zm10.382 3.368c-.08.986-.124 2.036-.631 2.894-.881 1.486 1.53 3.044 2.413 1.552.764-1.29.914-2.756 1.034-4.245.144-1.75-2.673-1.945-2.816-.2zm9.591 1.954c.45.758.407 1.43.026 2.057-.9 1.477 1.511 3.033 2.413 1.553.878-1.44.954-3.227.035-4.777-.932-1.57-3.404-.403-2.473 1.167z"
          fill="#ebe7e6"/>
    <path fill="#cc282f"
          d="M164.74 95.825c-.687 5.058-1.566 9.614-3.605 14.66 1.24.153 4.776 1.407 9.225 3.237 11.618 4.784 29.466 13.499 28.932 16.801 1.476-9.113 5.04-18.546-2.635-24.247-2.493-1.852-31.675-12.233-31.917-10.451z"/>
    <path d="M170.112 102.007c-.618 2.424-1.254 4.812-2.375 7.053-.876 1.749 1.611 3.218 2.487 1.467 1.243-2.482 1.99-5.125 2.674-7.812.484-1.902-2.302-2.61-2.786-.708zm9.346 5.739l-.483 1.897c-.203.804.26 1.636 1.02 1.83s1.563-.318 1.769-1.122l.48-1.897c.205-.804-.258-1.635-1.018-1.828s-1.564.317-1.768 1.12zm7.435.963c-.03 2.309.018 4.579-.521 6.85-.454 1.908 2.33 2.62 2.785.709.603-2.539.588-5.08.624-7.662.025-1.954-2.86-1.856-2.888.103zm6.074 7.618l.115.23a5.92 5.92 0 0 1 .27 1.051l.01.107a3.39 3.39 0 0 1 .01.315c-.16.806.242 1.613 1.022 1.81a1.49 1.49 0 0 0 1.766-1.12c.28-1.327-.088-2.83-.693-3.978-.377-.716-1.302-.926-1.97-.5-.694.438-.908 1.37-.53 2.085z"
          fill="#ebe7e6"/>
    <path d="M70.235 83.398c-1.06-1.496-1.407-3.163-1.43-4.973-.02-1.54-2.41-1.542-2.39 0 .028 2.198.468 4.36 1.756 6.179.884 1.247 2.957.055 2.064-1.206zm1.552-21.538c-1.59.828-2.64 2.152-3.616 3.615-.858 1.286 1.213 2.481 2.064 1.205.755-1.131 1.527-2.116 2.757-2.757 1.368-.712.16-2.775-1.205-2.064zm29.076-11.153c-3.472 2.25-7.215 3.77-11.346 4.218-1.516.165-1.532 2.556 0 2.39 4.567-.496 8.702-2.049 12.551-4.544 1.289-.835.092-2.905-1.205-2.064zm12.715-14.308c-.806 1.734-.958 3.492-.96 5.383-.001 1.54 2.39 1.54 2.39 0 0-1.432.018-2.854.633-4.177.646-1.388-1.414-2.603-2.063-1.206zm15.85-12.897c-2.11.39-4.264.406-6.373.796-1.515.28-.871 2.583.635 2.305 2.108-.39 4.263-.406 6.373-.797 1.514-.28.87-2.583-.635-2.304zm21.621.518c-1.974.94-4.068 1.386-6.25 1.075-1.505-.215-2.155 2.088-.634 2.305 2.87.41 5.478-.071 8.09-1.315 1.39-.663.177-2.724-1.206-2.064zm20.874-11.234c-.162-.589-.859-1.06-1.47-.834-1.696.622-2.816 2.12-2.87 3.94-.043 1.542 2.346 1.537 2.39 0 .02-.67.433-1.386 1.114-1.636.613-.224 1.02-.802.836-1.47zm17.885-4.021c-2.2-.867-4.441-1.576-6.77-1.992-1.508-.269-2.151 2.034-.636 2.305 2.33.415 4.571 1.125 6.771 1.991 1.436.566 2.052-1.746.635-2.304zm13.46 10.507c-.252-.52-.48-1.34-.796-1.992-.286-.586-1.106-.738-1.635-.429-.594.348-.714 1.05-.43 1.635.253.519.481 1.339.798 1.992.284.585 1.105.738 1.634.428.594-.347.714-1.049.429-1.634z"
          fill="#384c48"/>
    <path d="M118.544 44.92c-1.395 1.42-2.578 3.033-3.772 4.623-.925 1.234 1.152 2.423 2.065 1.206l3.397-4.14c1.08-1.1-.609-2.79-1.69-1.69zm13.151-11.422c-.164-.596-.855-1.05-1.47-.835-1.418.495-2.812 1.511-2.87 3.144-.023.651.562 1.195 1.195 1.195.665 0 1.166-.539 1.194-1.185l.023-.07.05-.085c.02-.02.104-.133.126-.155.01-.011.13-.114.152-.139a4.16 4.16 0 0 1 .235-.154c.264-.161.278-.159.53-.246.614-.215 1.016-.81.835-1.47zm19.639-1.632c-2.578.71-5.102 1.07-7.73.399-1.493-.382-2.126 1.923-.635 2.304 3.037.776 6.012.424 9-.398 1.484-.409.853-2.714-.635-2.305zm16.6-7.659c-1.221 1.222-2.486 2.462-3.096 4.113-.535 1.448 1.775 2.068 2.305.635.448-1.21 1.593-2.17 2.48-3.058 1.091-1.09-.598-2.78-1.69-1.69zm19.485-6.282c-2.988-.821-5.963-1.174-9-.398-1.493.381-.86 2.686.635 2.305 2.627-.672 5.15-.311 7.729.399 1.488.409 2.119-1.897.636-2.306zm11.233 3.543c-1.116 0-2.193-.022-3.267-.356-1.477-.458-2.103 1.85-.636 2.304 1.27.394 2.584.44 3.903.441 1.54.002 1.54-2.388 0-2.39z"
          fill="#20312e"/>
    <path d="M84.942 80.58c-.521-.305-1.362-.163-1.635.428-.554 1.198-.73 2.575-.918 3.87-.092.645.15 1.282.835 1.47.568.156 1.377-.188 1.47-.834l.22-1.336.23-1.123.15-.584c.015-.054.198-.52.077-.257.272-.59.172-1.282-.43-1.634zm15.328-12.51c-2.06.027-3.98.487-5.893 1.237-.538.21-.781.673-.8 1.137-.193-.23-.484-.384-.874-.384-1.541 0-1.541 2.39 0 2.39.738 0 1.118-.547 1.15-1.119.249.316.651.48 1.16.28 1.716-.672 3.405-1.127 5.258-1.152 1.54-.02 1.542-2.41 0-2.39zm20.917-10.194c-.616-.36-1.238-.085-1.635.429-1.086 1.408-2.542 2.496-3.952 3.554-1.217.913-.028 2.99 1.206 2.064 1.765-1.325 3.453-2.654 4.81-4.412.399-.517.08-1.337-.43-1.635zm13.817-14.061c-2.86.538-5.04 2.497-6.013 5.216-.52 1.455 1.789 2.076 2.304.636.704-1.965 2.33-3.169 4.344-3.547 1.514-.284.87-2.588-.635-2.305zm11.119-2.879c-.454-.455-1.14-.436-1.621-.051l-.019.012-.01.006c-.069.022-.138.04-.209.054-.004-.003-.185.02-.237.022a7.002 7.002 0 0 1-.341.006c-.652 0-1.195.543-1.195 1.194a1.21 1.21 0 0 0 1.195 1.196c.886 0 1.76-.13 2.437-.75.482-.438.445-1.244 0-1.689zm26.289-9.559a1.207 1.207 0 0 0-1.69 0l-.797.796a1.21 1.21 0 0 0 0 1.69 1.21 1.21 0 0 0 1.69 0l.797-.796a1.21 1.21 0 0 0 0-1.69z"
          fill="#384c48"/>
    <path fill="#20312e"
          d="M141.133 52.33c-.299-.508-1.118-.826-1.634-.428-1.592 1.224-2.825 2.748-4.226 4.17-1.082 1.098.607 2.788 1.69 1.69 1.243-1.262 2.33-2.71 3.74-3.796.516-.397.79-1.02.43-1.635z"/>
    <path d="M139.938 68.263c-.31-.529-1.099-.801-1.634-.43-1.368.95-2.305 2.248-3.218 3.616-.858 1.286 1.214 2.481 2.064 1.206.67-1.004 1.35-2.058 2.36-2.758.533-.37.777-1.04.428-1.634zm7.779-9.403a1.21 1.21 0 0 0-1.69 0l-1.593 1.593a1.205 1.205 0 0 0 0 1.69 1.21 1.21 0 0 0 1.69 0l1.593-1.593a1.21 1.21 0 0 0 0-1.69z"
          fill="#384c48"/>
    <path d="M156.155 114.364c-1.086 7.554-4.4 15.05-7.575 21.914-4.017 8.676-8.922 17.583-15.982 24.169-5.808 5.416-14.527 7.533-18.848-.784-2.277-4.383-2.668-9.753-2.88-14.593-.226-5.198.056-10.412.386-15.6.21-3.312.512-6.632.529-9.953.006-1.395-2.156-1.394-2.163 0-.048 9.384-1.42 18.666-.773 28.071.516 7.492 2.358 17.654 10.913 19.724 7.377 1.785 13.991-4.38 18.306-9.525 6.225-7.426 10.745-16.324 14.496-25.205 2.366-5.602 4.805-11.582 5.675-17.644.197-1.363-1.886-1.95-2.084-.574zm39.968 12.722c-.034 20.286-1.865 41.098-8.461 60.405-5.397 15.793-16.303 27.902-28.525 38.848-1.042.932.493 2.455 1.529 1.528 12.154-10.883 22.705-22.768 28.52-38.236 7.389-19.656 9.065-41.728 9.1-62.545.001-1.395-2.16-1.394-2.163 0zm-32.4-30.924c-1.446 3.513-2.17 7.309-4.215 10.555-.746 1.183 1.126 2.268 1.867 1.09 2.147-3.407 2.916-7.383 4.434-11.07.532-1.29-1.562-1.846-2.086-.575zm33.875 13.078c-.594-1.262-2.457-.163-1.868 1.092 1.584 3.37 1.981 7.122 2.015 10.807.013 1.394 2.176 1.395 2.162 0-.036-4.089-.557-8.168-2.31-11.9z"
          fill="#ebe7e6"/>
    <path d="M53.003 128.703c-1.644 3.357-2.786 6.83-3.353 10.53-.209 1.364 1.875 1.95 2.086.575a34.376 34.376 0 0 1 3.134-10.014c.61-1.247-1.254-2.344-1.867-1.091zm7.274 60.551c-1.56-3.644-3.092-7.29-4.217-11.096-.394-1.333-2.481-.765-2.085.576 1.178 3.983 2.8 7.797 4.434 11.611.548 1.279 2.41.176 1.868-1.091zm34.207 35.686c-2.12-.04-4.153-.531-6.2-1.042-1.354-.338-1.927 1.747-.575 2.085 2.232.557 4.465 1.076 6.775 1.12 1.396.026 1.392-2.137 0-2.163zm47.571-10.124c-.984.45-2.183.392-3.239.392-1.394.002-1.394 2.164 0 2.164 1.484-.001 2.962-.062 4.33-.689 1.267-.58.167-2.444-1.09-1.867zm-58.159-27.403c-3.07-2.626-5.244-5.83-6.86-9.513-.559-1.274-2.422-.173-1.868 1.092 1.685 3.836 4.004 7.216 7.198 9.95 1.053.901 2.59-.621 1.53-1.53zm33.548 12.697c-3.594.988-7.118 1.476-10.779.54-1.352-.345-1.925 1.74-.574 2.086 4.028 1.03 7.965.549 11.928-.541 1.343-.37.772-2.456-.575-2.085zm-28.945-60.302c.321-1.357-1.764-1.932-2.086-.575a13.692 13.692 0 0 0 0 6.522c.322 1.356 2.407.781 2.086-.576a11.186 11.186 0 0 1 0-5.371zm18.424 37.163c-1.155-.608-2.087-1.553-3.243-2.162-1.233-.65-2.326 1.218-1.091 1.868 1.155.608 2.088 1.553 3.243 2.162 1.233.65 2.326-1.217 1.091-1.868zm37.839-1.228c.033-.59-.515-1.082-1.08-1.082-.613 0-1.05.493-1.081 1.082.017-.328-.097.24.007-.006-.065.154-.146.301-.219.45-.188.388-.306.748-.33 1.177-.03.59.516 1.082 1.082 1.082.614 0 1.05-.493 1.081-1.082-.017.328.096-.24-.007.005l.218-.45c.188-.386.307-.746.33-1.176zm-26.638-75.693c-.693-1.21-2.562-.122-1.867 1.09 1.359 2.37 1.978 4.841 2.015 7.565.019 1.393 2.181 1.395 2.162 0-.042-3.094-.767-5.966-2.31-8.656zm14.969 39.247c-1.612-1.669-2.895-3.766-3.506-6.011-.367-1.344-2.453-.773-2.086.575.709 2.6 2.196 5.032 4.063 6.964.97 1.005 2.498-.526 1.529-1.528zm71.827 59.688c-1.103 1.737-1.636 3.727-2.27 5.664-.435 1.33 1.652 1.895 2.084.575.58-1.765 1.048-3.564 2.053-5.148.75-1.18-1.12-2.265-1.867-1.091zm3.676-32.72c-.496 2.14-.586 4.347-1.08 6.487-.316 1.357 1.769 1.933 2.085.575.496-2.141.584-4.347 1.08-6.488.315-1.357-1.77-1.933-2.085-.574zM219.95 196l-1.622 5.406c-.435 1.33 1.654 1.894 2.085.574l1.622-5.406c.435-1.33-1.654-1.894-2.086-.575zm2.124-38.64v7.03c0 1.394 2.162 1.394 2.162 0v-7.03c0-1.393-2.162-1.393-2.162 0zm-31.318 47.83l-2.163 5.407c-.457 1.321 1.633 1.884 2.086.574l2.162-5.406c.457-1.322-1.633-1.885-2.085-.575zm14.558-66.75c-.038 1.099-.503 2.134-.54 3.243-.049 1.395 2.115 1.39 2.162 0 .037-1.1.503-2.135.54-3.244.047-1.395-2.115-1.391-2.162 0z"
          fill="#e2dcdc"/>
    <path d="M161.851 181.504c-1.854 2.93-3.914 5.721-5.767 8.65-.748 1.183 1.123 2.267 1.867 1.092 1.853-2.93 3.913-5.721 5.767-8.65.748-1.183-1.124-2.267-1.867-1.092zm1.081-34.96c-1.14 2.28-2.222 4.569-2.632 7.105-.22 1.364 1.863 1.95 2.085.575.382-2.36 1.354-4.467 2.413-6.59.623-1.243-1.244-2.338-1.866-1.09zm14.989 3.428c-.376 3.858-1.063 7.676-1.441 11.534-.135 1.388 2.029 1.375 2.162 0 .377-3.858 1.065-7.676 1.442-11.534.136-1.387-2.028-1.374-2.163 0z"
          fill="#ebe7e6"/>
</svg>
