<svg xmlns="http://www.w3.org/2000/svg" xmlns:xlink="http://www.w3.org/1999/xlink" width="301.739" height="239.254" viewBox="0 0 301.739 239.254"><defs><clipPath id="a"><path d="M173.246-437.994s-5.754,11.484-13.485,16.29-3.552,21.1,4.388,22.566,7.982,1.657,8.925-.667c3.114-7.674-.358-14.377,2.567-17.929S173.246-437.994,173.246-437.994Z" transform="translate(-155.658 437.994)" fill="none" clip-rule="evenodd"/></clipPath><linearGradient id="b" x1="0.302" y1="0.628" x2="0.352" y2="0.628" gradientUnits="objectBoundingBox"><stop offset="0" stop-color="#ffa28e"/><stop offset="0.1" stop-color="#fc9d87"/><stop offset="0.2" stop-color="#fa9881"/><stop offset="0.3" stop-color="#f8927b"/><stop offset="0.4" stop-color="#f58d75"/><stop offset="0.5" stop-color="#f3886f"/><stop offset="0.6" stop-color="#f18268"/><stop offset="0.7" stop-color="#ee7d62"/><stop offset="0.8" stop-color="#ec775c"/><stop offset="0.9" stop-color="#ea7256"/><stop offset="1" stop-color="#e76d4f"/></linearGradient><clipPath id="c"><path d="M280.728-423.94s-3.8,8.587-4.064,9.505-.141,1,.133,1.32c1.62,1.86,2.079,4.857-2.031,3.709-1.554-.429-3.971-2.1-3.31-3.338s6.145-12.708,6.145-12.708C278.237-426.768,280.971-426.027,280.728-423.94Z" transform="translate(-271.344 426.109)" fill="none" clip-rule="evenodd"/></clipPath><linearGradient id="d" x1="0.535" y1="0.628" x2="0.557" y2="0.628" gradientUnits="objectBoundingBox"><stop offset="0" stop-color="#e76d4f"/><stop offset="0.1" stop-color="#ea7256"/><stop offset="0.2" stop-color="#ec775c"/><stop offset="0.3" stop-color="#ee7d62"/><stop offset="0.4" stop-color="#f18268"/><stop offset="0.5" stop-color="#f3886f"/><stop offset="0.6" stop-color="#f58d75"/><stop offset="0.7" stop-color="#f8927b"/><stop offset="0.8" stop-color="#fa9881"/><stop offset="0.9" stop-color="#fc9d87"/><stop offset="1" stop-color="#ffa28e"/></linearGradient><clipPath id="e"><path d="M208.654-446.772s-1.447-5.432-4.161-5.055-6.612,6.06-2.37,11.2C203.809-439.341,208.691-443.776,208.654-446.772Z" transform="translate(-200.246 451.845)" fill="none" clip-rule="evenodd"/></clipPath><linearGradient id="f" x1="0.607" y1="0.682" x2="0.629" y2="0.682" xlink:href="#b"/></defs><g transform="translate(0 692.305)"><path d="M300.924-579.81a57.078,57.078,0,0,1-3.37,11.563q-.747,1.835-1.635,3.681-1.115,2.312-2.457,4.645a91.929,91.929,0,0,1-12.3,16.426c-60.392,65.306-103.19,27.488-159.95,46.613S-38.193-534.337,14.686-623.734c13.8-23.324,51.05-37.887,81-30.215s67.861-55.792,113.191-33.636c16.46,8.042,38.461,20.632,56.915,36.532,3.114,2.682,6.127,5.46,9,8.325,2.378,2.374,4.655,4.807,6.8,7.3a106.913,106.913,0,0,1,8.325,10.91C298.961-610.857,303.765-595.8,300.924-579.81Z" transform="translate(0)" fill="#e76d4f" opacity="0.2"/><path d="M463.187-459.527c13.205-9.358,52.534-4.644,59.33,5.226s3.043,17.55-1.435,20.365-45.515,11.052-58.627-.679S457.47-455.476,463.187-459.527Z" transform="translate(-298.019 -149.02)" fill="#3c6178"/><path d="M500.234-435.614a12.235,12.235,0,0,1-13.14,11.256,12.234,12.234,0,0,1-11.257-13.14,12.235,12.235,0,0,1,13.14-11.256A12.235,12.235,0,0,1,500.234-435.614Z" transform="translate(-311.369 -159.358)" fill="#ff896e"/><path d="M517.01-427.749c2.252-.581,3.448,1.693,2.238,2.849s-1.959.934-2.975,2.191-1.064,2.533-.681,4.429-2.47,4.68-4.711,2.375-1.207-5.682.345-7.6A13.965,13.965,0,0,1,517.01-427.749Z" transform="translate(-333.477 -173.067)" fill="#444157"/><path d="M502.761-430.82c.052-2.107,1.589-2.845,2.545-2.667" transform="translate(-329.012 -169.356)" fill="none" stroke="#312f40" stroke-miterlimit="2" stroke-width="3"/><path d="M497.765-407.164c-1.188,1.742-.37,3.238.511,3.651" transform="translate(-325.353 -186.599)" fill="none" stroke="#312f40" stroke-miterlimit="2" stroke-width="3"/><path d="M592.224-366.788a57.075,57.075,0,0,1-3.369,11.563q-.747,1.835-1.635,3.681h-137.2a4.886,4.886,0,0,1-4.635-3.328,4.87,4.87,0,0,1-.256-1.562V-361.9a4.89,4.89,0,0,1,4.89-4.89Z" transform="translate(-291.3 -213.022)" fill="#292836"/><path d="M422.118-467.466h8.323V-596.59h-8.323Z" transform="translate(-276.238 -62.637)" fill="#fff"/><path d="M589.339-333.328q-.747,1.835-1.635,3.681-1.114,2.312-2.457,4.645H445.874v-8.325Z" transform="translate(-291.784 -234.918)" fill="#fff"/><path d="M566.568-564.613H445.874v-8.325h111.7C560.686-570.256,563.7-567.478,566.568-564.613Z" transform="translate(-291.784 -78.115)" fill="#fff"/><path d="M552.352-489.3h8.323v-83.4h-8.323Z" transform="translate(-361.465 -78.27)" fill="#fff"/><path d="M683.715-489.3h8.323v-83.4h-8.323Z" transform="translate(-447.43 -78.27)" fill="#fff"/><path d="M823.129-516.818v56.946H814.8v-67.857A106.915,106.915,0,0,1,823.129-516.818Z" transform="translate(-533.216 -107.701)" fill="#fff"/><path d="M361.224-58.349c.766,1.747-.4,7.686,2.408,9.041s26.038,7.4,31.561,4.931,6.418-4.558,4.73-7.161-16.333-5.432-18.979-6.766-7.528-4.306-8.175-5.79C371.031-68.083,356.488-69.16,361.224-58.349Z" transform="translate(-235.771 -409.262)" fill="#d4c3b0"/><path d="M178.2-526.732c5.163-7.837-25.009-24.3-36.217-6.719-4.2,4.535-4.6,5.245-9,6.037-23.5,5.873-36.365,37.587-12.177,46.9,26.888,10.354,26.372,16.93,39.01,15.993,27.733-2.057,20.833-34.522,24.672-42.069C188.9-515.275,189.1-524.012,178.2-526.732Z" transform="translate(-70.565 -98.838)" fill="#292836"/><g transform="translate(53.794 -604.418)" clip-path="url(#a)"><g transform="translate(46.702 -230.099) rotate(35.248)"><path d="M0,174.137,246.42,0,384.5,195.391,138.076,369.528Z" fill="url(#b)"/></g></g><path d="M150.8-223.377a25.268,25.268,0,0,1-18.16,5.137c-4.313-9.9-17.282-34.307-24.211-53,0,0-9.888,49.535-28.717,59.39-11.406,5.97-45.666,9.519-54.664-7.5-5.123-9.692-5.724-24.717,3.019-35.484,15.477,5.906,30.2,9.874,39.006,5.419,3.91-9.619,20.946-49.091,28.074-54.324s25.3-9.928,31.284,4.477S150.8-223.377,150.8-223.377Z" transform="translate(-13.95 -250.923)" fill="#312f40"/><path d="M30.042-308.271s5.316-34.087,15.947-51.88,13.514-29.124,34.585-37.7c-9.382,12.425,10.158,25.744,11.588,17.323,1.981,4.853,9.571,23.337,3.9,33.048C95-345.672,75.366-306.93,70.375-303.529,65.352-300.1,54.343-295.686,30.042-308.271Z" transform="translate(-19.66 -192.694)" fill="#444157"/><path d="M177.218-313.936s8.733-3.523,3.96,8.845c-7.811,7.16-46.192,20.94-55.956,18.336s-17.324-7.512-20.579-14.672-9.226-29.344-6.189-40.021,16.057-23.045,27.123-6.771.306,25.17,16.535,38.188C148.143-305.691,177.218-313.936,177.218-313.936Z" transform="translate(-63.882 -220.028)" fill="#312f40"/><path d="M339.428-243.667c5.089.307,9.073-5.272,5.726-11.966s-12.72-8.8-14.823-3.825S339.428-243.667,339.428-243.667Z" transform="translate(-216 -281.464)" fill="#ffa38f"/><path d="M184.043-322.28s12.585-.651,7.811,11.717c-7.811,7.16-52.292,19.311-62.056,16.708s-13.67-5.208-16.924-12.368-10.632-32.891-7.594-43.568,16.056-23.045,27.122-6.772.305,25.17,16.535,38.188C154.968-314.035,184.043-322.28,184.043-322.28Z" transform="translate(-68.426 -214.568)" fill="#444157"/><path d="M210.145-494.242s-19.012,32.54,1.275,40.006c16.943,6.235,26.607-24.315,26.607-24.315C246.458-495.7,218.355-511.494,210.145-494.242Z" transform="translate(-132.23 -124.731)" fill="#ffa38f"/><g transform="translate(93.774 -600.31)" clip-path="url(#c)"><g transform="translate(308.782 -36.763) rotate(118.716)"><path d="M144.977,379.583,0,114.954,209.829,0,354.805,264.629Z" fill="url(#d)"/></g></g><path d="M244.333-489.048c-3.945-1.408-10.543-4.781-8.34-13.18-7.1,18.472-24.239,4.089-29.2,16.576.563-6.616,4.642-41.4,28.776-32.48C248.2-513.466,244.333-489.048,244.333-489.048Z" transform="translate(-135.33 -113.029)" fill="#292836"/><g transform="translate(69.203 -609.205)" clip-path="url(#e)"><g transform="translate(348.687 65.157) rotate(141.923)"><path d="M237.526,374.425,0,188.338,147.551,0,385.077,186.087Z" transform="translate(0 0)" fill="url(#f)"/></g></g><path d="M278.065-432.632c-.682-2.756-5.684-5.5-9.866-4.293-2.584.744-1.861,2.789.374,2.7s6.157.945,7.061,2.038S278.6-430.459,278.065-432.632Z" transform="translate(-174.437 -166.932)" fill="#312f40"/><path d="M276.536-419.88c-2.606,5.142-8.2,1.509-5.917-3" transform="translate(-176.745 -176.315)" fill="none" stroke="#312f40" stroke-miterlimit="2" stroke-width="2"/><path d="M243.534-374.631c2.276-1.686,6.446-1.678,7.9.6" transform="translate(-159.371 -207.107)" fill="none" stroke="#312f40" stroke-miterlimit="2" stroke-width="2"/></g></svg>
