<svg width="220" height="64" viewBox="0 0 220 64" fill="none" xmlns="http://www.w3.org/2000/svg">
<rect width="220" height="64" rx="4" fill="#15141D"/>
<path d="M46.5646 31.6402C46.5152 26.2812 51.0651 23.674 51.2732 23.5526C48.6964 19.8896 44.7024 19.3891 43.2988 19.3492C39.9443 19.005 36.6905 21.3062 34.9817 21.3062C33.2388 21.3062 30.6074 19.3824 27.7713 19.439C24.1218 19.4938 20.7077 21.554 18.8352 24.7531C14.9708 31.276 17.8529 40.8618 21.5552 46.1343C23.4073 48.7166 25.5714 51.5998 28.404 51.4983C31.1753 51.3869 32.2104 49.7757 35.5547 49.7757C38.8682 49.7757 39.8403 51.4983 42.7292 51.4335C45.7034 51.3869 47.5759 48.8396 49.3632 46.2341C51.5034 43.2744 52.3629 40.3596 52.397 40.21C52.3271 40.1867 46.6209 38.0634 46.5646 31.6402Z" fill="white"/>
<path d="M41.1074 15.8807C42.5979 14.0633 43.6177 11.5908 43.3346 9.08173C41.1773 9.17484 38.4794 10.5366 36.9258 12.3141C35.5513 13.8804 34.3234 16.4477 34.6406 18.862C37.064 19.0382 39.5521 17.6698 41.1074 15.8807Z" fill="white"/>
<path d="M86.6699 51.1276H82.797L80.6755 44.6279H73.3015L71.2806 51.1276H67.51L74.8159 28.9998H79.3283L86.6699 51.1276ZM80.036 41.901L78.1175 36.123C77.9145 35.5327 77.5342 34.1426 76.9732 31.9545H76.9049C76.6815 32.8956 76.3217 34.2856 75.8271 36.123L73.9427 41.901H80.036Z" fill="white"/>
<path d="M105.458 42.9539C105.458 45.6675 104.706 47.8125 103.202 49.3871C101.855 50.7888 100.182 51.4888 98.1847 51.4888C96.0291 51.4888 94.4806 50.7339 93.5375 49.2241H93.4693V57.6293H89.8335V40.4249C89.8335 38.7189 89.7874 36.9681 89.6987 35.1723H92.8963L93.0993 37.7013H93.1675C94.38 35.7958 96.2201 34.8447 98.6895 34.8447C100.62 34.8447 102.232 35.588 103.521 37.0761C104.814 38.5659 105.458 40.5247 105.458 42.9539ZM101.754 43.0836C101.754 41.5306 101.396 40.2503 100.676 39.2427C99.8901 38.1918 98.8344 37.6664 97.5111 37.6664C96.614 37.6664 95.7989 37.959 95.0707 38.536C94.3408 39.118 93.8633 39.8779 93.6399 40.819C93.5273 41.2579 93.471 41.6171 93.471 41.8998V44.5601C93.471 45.7207 93.836 46.7001 94.5659 47.4999C95.2958 48.2997 96.244 48.6987 97.4105 48.6987C98.7799 48.6987 99.8457 48.1833 100.608 47.1557C101.372 46.1265 101.754 44.7697 101.754 43.0836Z" fill="white"/>
<path d="M124.28 42.9539C124.28 45.6675 123.528 47.8125 122.022 49.3871C120.677 50.7888 119.004 51.4888 117.007 51.4888C114.851 51.4888 113.303 50.7339 112.362 49.2241H112.293V57.6293H108.657V40.4249C108.657 38.7189 108.611 36.9681 108.523 35.1723H111.72L111.923 37.7013H111.991C113.202 35.7958 115.042 34.8447 117.513 34.8447C119.442 34.8447 121.054 35.588 122.347 37.0761C123.634 38.5659 124.28 40.5247 124.28 42.9539ZM120.576 43.0836C120.576 41.5306 120.216 40.2503 119.497 39.2427C118.711 38.1918 117.658 37.6664 116.333 37.6664C115.435 37.6664 114.621 37.959 113.891 38.536C113.161 39.118 112.686 39.8779 112.462 40.819C112.351 41.2579 112.293 41.6171 112.293 41.8998V44.5601C112.293 45.7207 112.658 46.7001 113.385 47.4999C114.115 48.298 115.063 48.6987 116.233 48.6987C117.602 48.6987 118.668 48.1833 119.43 47.1557C120.194 46.1265 120.576 44.7697 120.576 43.0836Z" fill="white"/>
<path d="M145.325 44.9225C145.325 46.8048 144.655 48.3361 143.309 49.5184C141.83 50.8103 139.772 51.4555 137.127 51.4555C134.685 51.4555 132.727 50.9965 131.245 50.077L132.088 47.1223C133.684 48.0635 135.435 48.5357 137.344 48.5357C138.713 48.5357 139.779 48.2331 140.545 47.6311C141.307 47.0292 141.687 46.2211 141.687 45.2135C141.687 44.3156 141.373 43.5591 140.744 42.9455C140.118 42.332 139.073 41.7617 137.613 41.2346C133.639 39.7896 131.654 37.673 131.654 34.8895C131.654 33.0705 132.35 31.579 133.744 30.4184C135.132 29.2561 136.984 28.6758 139.3 28.6758C141.365 28.6758 143.08 29.0267 144.45 29.7267L143.541 32.6165C142.262 31.9381 140.816 31.599 139.197 31.599C137.918 31.599 136.919 31.9066 136.203 32.5184C135.597 33.0655 135.294 33.7323 135.294 34.5221C135.294 35.3967 135.64 36.12 136.336 36.6886C136.941 37.214 138.041 37.7827 139.637 38.3963C141.59 39.1628 143.024 40.059 143.947 41.0866C144.866 42.1108 145.325 43.3928 145.325 44.9225Z" fill="white"/>
<path d="M157.346 37.8323H153.338V45.579C153.338 47.5494 154.045 48.5337 155.46 48.5337C156.11 48.5337 156.649 48.4789 157.075 48.3691L157.176 51.0611C156.459 51.3222 155.516 51.4535 154.348 51.4535C152.912 51.4535 151.79 51.0262 150.98 50.1732C150.173 49.3185 149.767 47.8853 149.767 45.8717V37.829H147.38V35.1686H149.767V32.2471L153.338 31.1963V35.1686H157.346V37.8323Z" fill="white"/>
<path d="M175.428 43.0183C175.428 45.4709 174.709 47.4844 173.273 49.0591C171.767 50.6802 169.768 51.4883 167.277 51.4883C164.875 51.4883 162.964 50.7118 161.538 49.1588C160.112 47.6058 159.399 45.6454 159.399 43.2827C159.399 40.8102 160.133 38.785 161.604 37.2103C163.073 35.6341 165.054 34.8459 167.546 34.8459C169.947 34.8459 171.879 35.6224 173.337 37.1771C174.732 38.6852 175.428 40.6323 175.428 43.0183ZM171.656 43.133C171.656 41.6615 171.334 40.3995 170.68 39.347C169.918 38.0733 168.828 37.4381 167.416 37.4381C165.955 37.4381 164.845 38.075 164.082 39.347C163.429 40.4011 163.107 41.6831 163.107 43.1995C163.107 44.6711 163.429 45.9331 164.082 46.984C164.869 48.2576 165.967 48.8928 167.384 48.8928C168.772 48.8928 169.862 48.2443 170.648 46.9507C171.318 45.8782 171.656 44.6029 171.656 43.133Z" fill="white"/>
<path d="M187.246 38.2899C186.887 38.2251 186.503 38.1918 186.1 38.1918C184.821 38.1918 183.832 38.6624 183.136 39.6052C182.531 40.4365 182.227 41.4874 182.227 42.7561V51.128H178.593L178.627 40.1971C178.627 38.3581 178.581 36.6837 178.491 35.174H181.658L181.791 38.2268H181.892C182.275 37.1776 182.881 36.3329 183.709 35.6994C184.52 35.1291 185.394 34.8447 186.337 34.8447C186.673 34.8447 186.977 34.868 187.246 34.9096V38.2899Z" fill="white"/>
<path d="M203.507 42.3951C203.507 43.0303 203.465 43.5657 203.374 44.003H192.467C192.509 45.5793 193.036 46.7848 194.049 47.6161C194.969 48.3594 196.157 48.7318 197.617 48.7318C199.232 48.7318 200.705 48.4808 202.03 47.977L202.6 50.4378C201.052 51.0963 199.223 51.4238 197.114 51.4238C194.576 51.4238 192.584 50.6955 191.135 49.2406C189.689 47.7857 188.964 45.832 188.964 43.3811C188.964 40.9751 189.637 38.9715 190.986 37.3736C192.399 35.6677 194.307 34.8147 196.708 34.8147C199.067 34.8147 200.852 35.6677 202.065 37.3736C203.025 38.7288 203.507 40.4048 203.507 42.3951ZM200.04 41.4756C200.064 40.4248 199.827 39.5169 199.334 38.7504C198.705 37.7644 197.738 37.2722 196.437 37.2722C195.248 37.2722 194.281 37.7527 193.543 38.7171C192.937 39.4837 192.578 40.4032 192.467 41.474H200.04V41.4756Z" fill="white"/>
<path d="M78.8337 15.3861C78.8337 17.3431 78.2317 18.8163 77.0294 19.8056C75.9158 20.7185 74.3332 21.1757 72.2833 21.1757C71.2669 21.1757 70.3971 21.1325 69.6689 21.0461V10.3529C70.6188 10.2033 71.6421 10.1268 72.7472 10.1268C74.6998 10.1268 76.1716 10.5408 77.1641 11.3689C78.276 12.305 78.8337 13.6435 78.8337 15.3861ZM76.9492 15.4343C76.9492 14.1656 76.6047 13.1929 75.9158 12.5145C75.2268 11.8378 74.2206 11.4986 72.8955 11.4986C72.3328 11.4986 71.8535 11.5351 71.4562 11.6116V19.7408C71.6762 19.774 72.0786 19.789 72.6636 19.789C74.0313 19.789 75.0869 19.4182 75.8305 18.6766C76.574 17.9351 76.9492 16.8543 76.9492 15.4343Z" fill="white"/>
<path d="M88.8254 17.0962C88.8254 18.3017 88.4724 19.2894 87.7664 20.0642C87.0262 20.8607 86.0456 21.2581 84.8212 21.2581C83.641 21.2581 82.7014 20.8773 82.0005 20.1124C81.3013 19.3492 80.9517 18.3865 80.9517 17.2259C80.9517 16.0121 81.3115 15.0161 82.0346 14.2429C82.7577 13.4698 83.7297 13.0823 84.9542 13.0823C86.1343 13.0823 87.0825 13.4631 87.8005 14.2263C88.4826 14.9679 88.8254 15.9256 88.8254 17.0962ZM86.9717 17.1527C86.9717 16.4294 86.8114 15.8092 86.4924 15.2921C86.1173 14.6669 85.5835 14.3543 84.8894 14.3543C84.1714 14.3543 83.6257 14.6669 83.2505 15.2921C82.9299 15.8092 82.7713 16.4394 82.7713 17.1843C82.7713 17.9076 82.9316 18.5278 83.2505 19.0449C83.6376 19.6701 84.1765 19.9827 84.8723 19.9827C85.5545 19.9827 86.09 19.6651 86.4754 19.0283C86.8062 18.5012 86.9717 17.876 86.9717 17.1527Z" fill="white"/>
<path d="M102.223 13.2416L99.7075 21.0798H98.0703L97.0283 17.6761C96.764 16.8265 96.5491 15.9818 96.382 15.1438H96.3496C96.1944 16.0051 95.9795 16.8481 95.7033 17.6761L94.5965 21.0798H92.9406L90.5752 13.2416H92.4119L93.3208 16.9678C93.5408 17.849 93.7216 18.6887 93.8666 19.4835H93.899C94.032 18.8284 94.252 17.9937 94.5624 16.9844L95.7033 13.2432H97.1597L98.2528 16.9046C98.5171 17.7975 98.732 18.6571 98.8974 19.4852H98.9469C99.068 18.6788 99.2505 17.8191 99.4926 16.9046L100.468 13.2432H102.223V13.2416Z" fill="white"/>
<path d="M111.488 21.0803H109.701V16.5909C109.701 15.2075 109.162 14.5158 108.081 14.5158C107.551 14.5158 107.122 14.7053 106.79 15.0861C106.461 15.4669 106.294 15.9158 106.294 16.4296V21.0786H104.506V15.4818C104.506 14.7935 104.484 14.0469 104.442 13.2388H106.012L106.096 14.4642H106.145C106.353 14.0835 106.664 13.7692 107.071 13.5181C107.556 13.2255 108.098 13.0775 108.691 13.0775C109.442 13.0775 110.066 13.3136 110.562 13.7875C111.18 14.3678 111.488 15.2341 111.488 16.3847V21.0803Z" fill="white"/>
<path d="M116.417 21.0795H114.631V9.64484H116.417V21.0795Z" fill="white"/>
<path d="M126.939 17.0962C126.939 18.3017 126.586 19.2894 125.88 20.0642C125.14 20.8607 124.157 21.2581 122.935 21.2581C121.753 21.2581 120.813 20.8773 120.114 20.1124C119.415 19.3492 119.065 18.3865 119.065 17.2259C119.065 16.0121 119.425 15.0161 120.148 14.2429C120.871 13.4698 121.843 13.0823 123.066 13.0823C124.248 13.0823 125.194 13.4631 125.914 14.2263C126.596 14.9679 126.939 15.9256 126.939 17.0962ZM125.083 17.1527C125.083 16.4294 124.923 15.8092 124.604 15.2921C124.231 14.6669 123.695 14.3543 123.003 14.3543C122.283 14.3543 121.738 14.6669 121.364 15.2921C121.043 15.8092 120.885 16.4394 120.885 17.1843C120.885 17.9076 121.045 18.5278 121.364 19.0449C121.751 19.6701 122.29 19.9827 122.986 19.9827C123.668 19.9827 124.202 19.6651 124.587 19.0283C124.92 18.5012 125.083 17.876 125.083 17.1527Z" fill="white"/>
<path d="M135.589 21.0801H133.984L133.851 20.1773H133.801C133.252 20.8972 132.469 21.2581 131.453 21.2581C130.694 21.2581 130.08 21.0203 129.618 20.5481C129.199 20.1191 128.989 19.5853 128.989 18.9518C128.989 17.9941 129.398 17.2641 130.222 16.7587C131.044 16.2532 132.2 16.0054 133.689 16.0171V15.8708C133.689 14.8382 133.133 14.3227 132.019 14.3227C131.226 14.3227 130.527 14.5173 129.923 14.903L129.56 13.7591C130.307 13.3085 131.23 13.0823 132.318 13.0823C134.419 13.0823 135.473 14.1631 135.473 16.3247V19.2112C135.473 19.9944 135.512 20.6179 135.589 21.0801ZM133.733 18.3865V17.1777C131.762 17.1444 130.776 17.6715 130.776 18.7573C130.776 19.1663 130.889 19.4723 131.119 19.6768C131.349 19.8813 131.642 19.9827 131.992 19.9827C132.384 19.9827 132.751 19.8613 133.085 19.6202C133.421 19.3775 133.627 19.0699 133.704 18.6924C133.723 18.6076 133.733 18.5045 133.733 18.3865Z" fill="white"/>
<path d="M145.744 21.0795H144.158L144.075 19.8208H144.025C143.519 20.7786 142.656 21.2574 141.443 21.2574C140.475 21.2574 139.668 20.8867 139.028 20.1451C138.389 19.4035 138.07 18.4408 138.07 17.2585C138.07 15.9899 138.416 14.9623 139.112 14.1775C139.786 13.4459 140.611 13.0801 141.593 13.0801C142.673 13.0801 143.428 13.4342 143.858 14.1442H143.892V9.64484H145.681V18.9678C145.681 19.731 145.702 20.4344 145.744 21.0795ZM143.892 17.774V16.4671C143.892 16.2409 143.875 16.058 143.843 15.9184C143.742 15.4994 143.526 15.1469 143.196 14.8625C142.864 14.5782 142.463 14.4352 142.001 14.4352C141.334 14.4352 140.812 14.6929 140.429 15.21C140.048 15.7272 139.856 16.3873 139.856 17.1937C139.856 17.9685 140.038 18.5971 140.405 19.0809C140.792 19.5964 141.314 19.8541 141.967 19.8541C142.553 19.8541 143.022 19.6396 143.379 19.2089C143.723 18.8115 143.892 18.3327 143.892 17.774Z" fill="white"/>
<path d="M161.029 17.0962C161.029 18.3017 160.676 19.2894 159.97 20.0642C159.23 20.8607 158.251 21.2581 157.025 21.2581C155.847 21.2581 154.907 20.8773 154.205 20.1124C153.505 19.3492 153.156 18.3865 153.156 17.2259C153.156 16.0121 153.516 15.0161 154.239 14.2429C154.962 13.4698 155.934 13.0823 157.16 13.0823C158.338 13.0823 159.288 13.4631 160.005 14.2263C160.687 14.9679 161.029 15.9256 161.029 17.0962ZM159.177 17.1527C159.177 16.4294 159.017 15.8092 158.698 15.2921C158.321 14.6669 157.789 14.3543 157.093 14.3543C156.377 14.3543 155.831 14.6669 155.455 15.2921C155.134 15.8092 154.975 16.4394 154.975 17.1843C154.975 17.9076 155.136 18.5278 155.455 19.0449C155.842 19.6701 156.381 19.9827 157.076 19.9827C157.759 19.9827 158.296 19.6651 158.681 19.0283C159.01 18.5012 159.177 17.876 159.177 17.1527Z" fill="white"/>
<path d="M170.639 21.0803H168.854V16.5909C168.854 15.2075 168.315 14.5158 167.232 14.5158C166.701 14.5158 166.273 14.7053 165.943 15.0861C165.612 15.4669 165.446 15.9158 165.446 16.4296V21.0786H163.657V15.4818C163.657 14.7935 163.637 14.0469 163.594 13.2388H165.163L165.247 14.4642H165.296C165.506 14.0835 165.816 13.7692 166.222 13.5181C166.708 13.2255 167.249 13.0775 167.844 13.0775C168.593 13.0775 169.217 13.3136 169.713 13.7875C170.332 14.3678 170.639 15.2341 170.639 16.3847V21.0803Z" fill="white"/>
<path d="M182.668 14.547H180.7V18.3547C180.7 19.3224 181.049 19.8063 181.742 19.8063C182.062 19.8063 182.328 19.7796 182.538 19.7248L182.584 21.0467C182.231 21.1764 181.767 21.2412 181.196 21.2412C180.49 21.2412 179.941 21.0317 179.543 20.6127C179.144 20.1937 178.946 19.4887 178.946 18.4993V14.547H177.771V13.2417H178.946V11.8051L180.698 11.2897V13.2401H182.666V14.547H182.668Z" fill="white"/>
<path d="M192.129 21.0795H190.34V16.6234C190.34 15.2184 189.801 14.515 188.722 14.515C187.893 14.515 187.327 14.9224 187.016 15.7371C186.963 15.9084 186.933 16.1179 186.933 16.364V21.0779H185.147V9.64484H186.933V14.3687H186.967C187.53 13.5091 188.336 13.0801 189.382 13.0801C190.122 13.0801 190.734 13.3162 191.22 13.7901C191.826 14.3803 192.129 15.2583 192.129 16.4189V21.0795Z" fill="white"/>
<path d="M201.889 16.7902C201.889 17.1028 201.865 17.3655 201.822 17.58H196.462C196.486 18.3549 196.742 18.9451 197.238 19.3542C197.692 19.72 198.277 19.9029 198.993 19.9029C199.786 19.9029 200.509 19.7798 201.16 19.5321L201.44 20.7426C200.678 21.0651 199.781 21.2264 198.742 21.2264C197.497 21.2264 196.517 20.8689 195.807 20.1539C195.094 19.439 194.741 18.4796 194.741 17.2757C194.741 16.0935 195.071 15.1092 195.734 14.3244C196.426 13.4863 197.363 13.0673 198.544 13.0673C199.701 13.0673 200.579 13.4863 201.172 14.3244C201.652 14.9895 201.889 15.8125 201.889 16.7902ZM200.183 16.3396C200.197 15.8225 200.079 15.3769 199.837 15.0011C199.527 14.5172 199.054 14.2745 198.415 14.2745C197.832 14.2745 197.356 14.5106 196.993 14.9845C196.696 15.3619 196.52 15.8125 196.462 16.3396H200.183Z" fill="white"/>
</svg>
