<svg width="393" height="385" viewBox="0 0 393 385" fill="none" xmlns="http://www.w3.org/2000/svg">
<path d="M275.694 0C279.065 0.203494 282.341 1.19157 285.262 2.88546C340.039 33.4288 374.465 79.2171 388.081 140.51C392.796 161.52 393.864 183.183 391.239 204.555C385.368 252.351 365.589 293.479 331.156 327.234C302.222 355.596 267.63 373.62 227.891 381.286C182.527 390.057 135.526 383.056 94.6877 361.443C53.8489 339.831 21.626 304.907 3.36415 262.464C1.83499 258.92 0.106376 255.403 0 251.494C1.05047 250.337 1.90813 251.254 2.69265 251.573C4.13514 252.156 5.54257 252.822 6.90782 253.568C28.0622 265.028 51.1894 272.393 75.0751 275.275C78.1778 275.648 81.2804 275.969 84.3831 276.239C85.4051 276.243 86.4257 276.163 87.4347 276C86.6768 270.462 87.0159 265.502 92.6139 262.53C89.4692 255.35 89.7617 248.349 92.5009 241.149C91.8361 239.712 91.0183 238.163 90.3867 236.541C85.9255 225.079 87.6275 214.681 96.0778 205.652C102.361 198.944 110.219 194.662 118.929 191.976C130.299 188.422 142.031 186.152 153.907 185.208C166.951 184.217 180.002 183.32 193.1 183.878C196.77 184.031 200.413 184.29 204.289 184.51C204.289 182.396 204.01 180.468 204.369 178.666C204.702 176.948 205.435 175.333 206.51 173.952C207.747 172.457 209.282 171.237 211.017 170.368C212.595 169.617 214.332 169.264 216.077 169.338C217.978 169.411 219.853 170.149 222.014 170.668C222.972 169.644 224.009 168.507 225.072 167.416C227.665 164.757 230.145 161.991 232.911 159.538C242.917 150.656 254.479 148.235 267.257 151.892C270.781 152.896 274.145 154.472 277.576 155.788C279.424 155.183 279.537 153.401 280.062 152.038C284.085 141.458 287.176 130.546 289.297 119.427C292.84 100.991 293.665 82.1353 291.744 63.4602C289.789 44.4048 285.024 25.7439 277.602 8.0846C276.685 5.93048 275.914 3.70988 275.249 1.48927C275.083 1.09036 275.521 0.511936 275.694 0ZM11.6682 263.547C10.877 265.429 11.9939 266.493 12.5524 267.63C27.7447 298.974 51.0035 325.712 79.9418 345.099C108.88 364.485 142.456 375.823 177.223 377.949C198.886 379.323 220.625 377.035 241.528 371.18C335.863 345.058 398.373 252.644 383.075 151.826C379.025 125.107 369.375 99.5463 354.759 76.817C339.125 52.1511 318.14 31.3206 293.359 15.87C291.677 14.8196 290.102 13.3835 287.469 13.0909C287.881 14.527 288.1 15.4512 288.413 16.3354C294.549 34.0522 298.253 52.5196 299.423 71.2323C300.27 85.8658 299.521 100.548 297.189 115.019C294.912 129.285 291.077 143.257 285.754 156.686C285.34 158.012 285.007 159.362 284.756 160.728C286.196 161.024 287.649 161.246 289.111 161.393C290.441 161.459 291.857 161.094 293.187 161.28C294.109 161.446 294.935 161.954 295.5 162.703C296.125 163.607 295.534 164.558 294.656 165.169C293.778 165.781 293.047 166.173 292.136 166.738C293.818 167.649 296.185 167.516 296.345 170.235L294.177 172.895C294.383 173.613 294.569 174.351 294.842 175.076C298.166 185.048 297.721 194.649 292.309 203.81C290.228 207.334 288.014 210.785 285.92 214.295C285.328 215.273 284.317 216.529 284.544 217.373C285.601 221.256 283.387 223.809 281.159 226.223C276.924 230.803 272.589 235.318 268.049 239.599C263.96 243.545 259.278 246.825 254.173 249.32C251.904 250.427 249.913 252.031 248.349 254.013C242.485 261.074 236.455 267.975 229.188 273.693C225.086 277.014 220.53 279.729 215.658 281.758C208.026 284.836 200.746 284.258 194.383 278.52C192.668 276.971 191.098 275.269 189.21 273.381C188.479 274.544 187.954 275.568 187.262 276.452C185.354 278.912 183.592 281.538 181.385 283.693C172.25 292.595 161.107 295.706 148.614 294.53C141.028 293.852 133.568 292.145 126.442 289.457C123.164 288.207 119.793 287.263 116.522 285.94C113.119 284.431 109.296 284.156 105.712 285.162C102.111 286.219 98.2468 285.909 94.8611 284.291C93.0576 283.594 91.1431 283.23 89.2099 283.214C80.4421 282.737 71.7131 281.709 63.0745 280.136C46.5728 277.099 30.519 271.997 15.2916 264.95C14.1015 264.412 12.8782 264.013 11.6682 263.547ZM210.014 192.142C208.627 191.9 207.229 191.729 205.825 191.63C200.367 191.537 194.901 191.517 189.436 191.477C174.996 191.378 160.555 191.597 146.161 192.86C134.683 193.949 123.467 196.942 112.972 201.716C106.649 204.522 102.081 209.089 98.5444 214.92C96.0379 219.049 94.6417 223.384 95.0672 228.25C95.8185 236.894 98.5378 244.26 107.54 247.584C107.899 247.724 108.238 247.923 108.59 248.09C114.082 250.696 119.394 253.575 123.516 258.182C124.647 259.445 126.049 259.791 127.625 260.097C135.69 261.686 143.581 263.833 150.742 268.075C153.401 269.651 155.748 271.738 158.175 273.673C158.68 274.072 159.452 274.65 158.84 275.521C158.441 275.521 158.009 275.654 157.736 275.521C148.774 270.449 138.941 268.068 128.928 266.273C127.858 266.087 126.329 265.981 125.644 266.573C123.357 268.534 120.89 267.849 118.231 267.417C116.349 270.741 113.577 271.34 110.219 270.036C109.862 269.875 109.484 269.768 109.096 269.717C108.237 269.712 107.4 269.991 106.716 270.51C106.032 271.03 105.538 271.761 105.313 272.589C105.047 273.64 105.731 274.916 104.335 275.914C103.449 275.586 102.666 275.029 102.066 274.299C101.467 273.568 101.073 272.692 100.925 271.758C100.366 269.139 98.458 268.035 96.3504 267.251C93.0926 269.086 93.0926 271.699 93.7974 274.564C94.5021 277.43 96.4568 278.832 99.1162 279.331C100.27 279.475 101.44 279.389 102.56 279.078C106.908 278.088 111.05 278.713 115.192 280.302C119.733 282.057 124.341 283.666 128.948 285.242C136.864 288.073 145.228 289.447 153.634 289.297C163.534 289.018 171.731 285.115 178.52 277.995C180.39 275.988 181.645 273.487 182.136 270.788C183.12 266.134 182.063 261.832 180.195 257.703C177.536 251.806 174.158 246.334 169.557 241.747C162.208 234.467 154.21 227.873 145.662 222.047C144.213 221.065 142.831 219.985 141.527 218.816C141.102 218.424 141.088 217.566 140.676 216.237C144.878 216.822 147.757 218.896 150.735 220.512C153.775 222.268 156.704 224.211 159.505 226.329C162.164 228.257 164.87 230.238 167.397 232.386C170.056 234.66 172.582 237.113 175.102 239.566C177.622 242.02 179.989 244.493 182.575 247.106C184.211 244.971 184.044 242.764 184.344 240.71C185.773 230.897 189.549 221.961 194.456 213.451C195.121 212.301 195.719 210.964 197.827 211.184C197.917 211.881 197.917 212.587 197.827 213.285C197.328 215.166 196.65 217.001 196.118 218.876C192.947 229.986 190.846 241.242 191.098 252.883C191.174 257.564 191.968 262.206 193.452 266.646C195.487 272.683 199.795 276.087 206.118 275.807C212.001 275.541 217.659 274.285 222.526 270.489C229.347 265.259 235.501 259.213 240.849 252.484C243.675 248.743 247.22 245.604 251.274 243.25C254.785 241.255 258.302 239.088 261.659 235.192C255.782 236.814 250.796 238.516 245.53 238.363C240.264 238.21 235.205 236.694 230.119 234.952C227.014 237.851 223.995 240.597 221.063 243.429C218.258 246.142 215.472 248.881 212.806 251.726C210.14 254.572 208.059 258.308 204.302 261.327C204.449 259.858 204.376 259.066 204.622 258.388C207.766 249.652 212.121 241.674 219.036 235.285C220.405 234.015 221.609 232.559 222.819 231.295C212.587 219.88 207.301 207.394 210.014 192.142ZM218.364 188.153C217.666 190.035 217.221 191.105 216.875 192.202C214.621 199.336 214.608 206.403 217.739 213.298C220.724 219.86 225.445 224.973 231.309 229.068C232.265 229.74 233.316 230.267 234.427 230.631C241.514 232.878 248.688 233.29 255.609 230.331C272.689 222.972 284.557 210.678 289.257 192.435C291.824 182.462 289.477 173.48 281.545 166.366C276.879 162.177 271.249 159.208 265.156 157.723C255.416 155.27 246.667 157.457 238.635 163.281C235.743 165.382 233.622 168.161 231.322 170.774C229.141 173.221 227.3 176.02 224.388 178.021C222.945 177.316 221.609 176.532 220.179 175.986C217.207 174.856 214.402 175.228 212.068 177.502C209.734 179.776 210.073 181.97 212.593 183.845L218.364 188.153ZM120.079 261.287C118.084 258.488 115.339 257.019 112.699 255.503C110.179 254.06 107.606 252.69 104.96 251.514C102.314 250.337 99.9539 247.957 96.4435 247.591C96.2972 250.184 96.0712 252.498 96.0712 254.805C96.0712 258.302 97.6336 261.154 100.1 263.527C101.43 264.824 102.946 265.628 104.754 264.365C106.184 263.375 107.606 263.461 109.149 264.126C110.015 264.42 110.905 264.643 111.808 264.791C115.099 261.287 115.099 261.287 120.079 261.287Z" fill="white"/>
<path d="M242.008 192.176C242.672 192.249 243.384 192.122 243.703 192.428C244.244 192.99 244.641 193.674 244.86 194.423C245.717 197.036 247.34 198.744 250.092 199.323C250.656 199.484 251.2 199.707 251.714 199.988C252.605 200.4 253.596 200.945 253.131 202.069C252.936 202.389 252.673 202.664 252.36 202.872C252.048 203.08 251.693 203.216 251.322 203.272C248.251 203.651 245.518 202.8 243.497 200.373C241.476 197.946 240.678 195.3 242.008 192.176Z" fill="white"/>
<path d="M270.211 216.562C265.198 216.509 262.006 214.016 261.009 209.635C260.998 209.368 261.053 209.103 261.169 208.863C261.285 208.623 261.459 208.415 261.674 208.258C262.203 208.128 262.761 208.189 263.25 208.431C263.596 208.602 263.884 208.87 264.081 209.202C265.856 211.769 268.19 213.192 271.394 212.959C271.776 212.888 272.171 212.944 272.518 213.118C273.076 213.537 273.954 214.136 273.914 214.594C273.81 214.942 273.629 215.263 273.386 215.532C273.142 215.801 272.841 216.012 272.504 216.15C271.763 216.393 270.991 216.532 270.211 216.562Z" fill="white"/>
</svg>
