<svg width="77" height="106" viewBox="0 0 77 106" fill="none" xmlns="http://www.w3.org/2000/svg">
<g clip-path="url(#clip0)">
<path d="M26.1333 56.3045C28.1534 51.5599 29.7835 46.8218 32.136 42.4823C34.4886 38.1428 37.5251 34.3176 40.4465 29.9973C39.2064 26.8536 37.6785 23.3627 36.4767 19.7561C35.7395 17.5532 35.2967 15.2616 35.1598 12.9414C35.0192 10.3698 36.6876 8.80761 39.0338 8.13258C41.252 7.48969 42.4858 8.97477 43.1634 10.7041C44.2502 13.5136 45.0813 16.4195 46.1616 19.7561C47.2036 18.316 48.0794 17.0045 49.0703 15.7573C50.8292 13.3593 52.7157 11.0587 54.7214 8.86548C55.4374 8.13258 57.2785 7.65684 58.0776 8.08758C59.0301 8.60832 60.1041 10.357 59.8995 11.302C59.2283 14.4779 58.0329 17.5509 56.9717 20.6368C56.5906 21.4684 56.1371 22.2644 55.6164 23.0155C58.4612 22.1155 60.916 21.0868 63.4794 20.624C64.758 20.3861 66.8612 20.6818 67.4173 21.524C68.1141 22.5719 68.2164 24.8863 67.5004 25.8571C65.3397 28.7758 62.6612 31.3024 60.2383 33.9254C61.9516 35.179 64.5087 36.7348 66.631 38.7471C67.673 39.7307 68.7918 42.058 68.3187 42.9002C67.5388 44.3017 65.3013 46.0503 64.0356 45.7996C60.6593 45.1246 57.4186 43.8883 54.4465 42.1416C50.8347 40.0007 47.6447 37.1399 43.873 34.2918C32.916 45.3367 29.8986 59.3261 27.968 74.2411C31.8036 72.216 35.0959 73.1161 38.4712 74.794C44.3653 77.732 50.189 78.0085 55.5717 73.4054C56.2501 72.9561 56.9826 72.5953 57.7516 72.3318C59.8228 76.1891 57.2721 84.0967 53.3214 86.4754C50.3709 88.1791 46.9418 88.851 43.571 88.3856C40.2003 87.9203 37.0781 86.3441 34.6931 83.9038C32.6155 81.763 30.3333 79.815 27.5908 77.2692C26.6128 86.3211 25.7497 94.2865 24.8931 102.252C24.8484 102.676 24.9762 103.203 24.7717 103.538C24.1708 104.418 23.4484 105.209 22.7708 106.039C22.1954 105.145 21.1534 104.258 21.1342 103.351C21.0468 99.8222 21.1642 96.291 21.4858 92.7757C22.2593 84.6881 23.1799 76.6134 24.1132 68.5387C24.7525 62.9905 23.9534 61.9555 18.4557 61.3769C11.6347 60.6118 5.15888 59.2682 2.04564 51.9071C-0.319658 46.2882 -0.952534 40.7079 1.86025 34.6197C3.01733 37.1913 3.95705 39.5443 5.1461 41.788C6.86573 45.0024 9.19267 47.1883 13.284 47.4647C17.7589 47.7604 21.4986 50.1391 24.2347 53.8936C24.842 54.6908 25.494 55.488 26.1333 56.3045ZM55.9936 78.3556C50.8794 83.0359 48.1945 84.3603 43.8858 82.8945C40.8685 81.8658 38.2539 79.68 35.4027 78.1371C33.9262 77.4507 32.4156 76.8412 30.8767 76.3112C36.2402 83.3123 41.5141 88.4233 50.2018 85.601C53.6219 84.4888 55.5205 82.0651 55.9936 78.3556ZM2.65934 45.1953C2.94701 53.5529 7.55614 56.8573 21.5434 59.2553C16.0137 53.5014 6.2776 54.0865 2.65934 45.1953ZM5.50409 47.1754C5.3123 46.8604 5.50409 47.5547 5.9324 47.8183C11.6283 51.0777 17.3625 54.2472 23.3397 57.616C21.2109 53.4179 17.9315 51.187 13.8146 49.9463C10.8676 49.0462 7.93331 47.9854 5.50409 47.1754ZM38.452 77.5392C43.6557 82.2709 49.4602 82.5152 52.4328 78.5099C50.2529 78.7864 47.8557 79.4421 45.5096 79.2943C43.1634 79.1464 40.9132 78.1885 38.452 77.5392ZM45.5735 26.6671L46.5068 27.2008L54.2995 14.9408L53.4109 14.3815L45.5735 26.6671ZM39.7242 12.665L38.6055 12.89L41.8018 25.1049L42.7287 24.8606C41.74 20.789 40.7385 16.7238 39.7242 12.665ZM50.3169 34.1826L49.7991 35.1212L60.8265 41.7365L61.3698 40.8236L50.3169 34.1826ZM61.5233 25.5807L61.0055 24.6228L50.0803 29.5216C50.221 29.8366 50.368 30.1645 50.515 30.4666L61.5233 25.5807Z" fill="white"/>
<path d="M39.3087 5.01455C38.8953 5.33308 38.4228 5.56539 37.9189 5.69786C37.415 5.83034 36.89 5.86031 36.3744 5.78602C35.7255 5.67541 35.1419 5.32272 34.7402 4.79836C34.3384 4.274 34.1482 3.61656 34.2073 2.9573C34.2073 1.26007 35.7096 0.34073 36.7132 0.0707156C37.4226 -0.071811 38.1593 0.0489464 38.7869 0.410632C39.4145 0.772319 39.8906 1.35044 40.1269 2.03796C40.2632 2.56264 40.2593 3.1142 40.1157 3.63687C39.972 4.15954 39.6936 4.63479 39.3087 5.01455Z" fill="white"/>
<path d="M63.6072 6.16533C63.1938 6.4802 62.7212 6.70749 62.218 6.83346C61.7147 6.95943 61.1913 6.98146 60.6794 6.89823C60.0303 6.79049 59.4458 6.43946 59.0438 5.9158C58.6417 5.39215 58.4517 4.73474 58.5123 4.07593C58.5123 2.3787 60.0145 1.45936 61.0182 1.18935C61.7276 1.04541 62.4649 1.16556 63.0929 1.52743C63.7208 1.88931 64.1967 2.46827 64.4319 3.1566C64.5728 3.68655 64.5706 4.24469 64.4257 4.77353C64.2807 5.30238 63.9982 5.7828 63.6072 6.16533Z" fill="white"/>
<path d="M74.3214 22.3855C73.9091 22.7032 73.4373 22.9341 72.9343 23.0644C72.4312 23.1948 71.9072 23.2219 71.3936 23.1441C70.7428 23.0363 70.1567 22.6846 69.7534 22.1598C69.3501 21.6349 69.1596 20.9759 69.22 20.3154C69.22 18.6181 70.7287 17.7052 71.7324 17.4352C72.4419 17.2899 73.1798 17.4094 73.8081 17.7715C74.4364 18.1335 74.912 18.7133 75.1461 19.4025C75.2828 19.9286 75.2785 20.4818 75.1336 21.0058C74.9888 21.5297 74.7086 22.0058 74.3214 22.3855Z" fill="white"/>
<path d="M76.073 45.6903C75.6596 46.0052 75.187 46.2325 74.6838 46.3584C74.1805 46.4844 73.6571 46.5064 73.1452 46.4232C72.4926 46.3198 71.9035 45.9707 71.4975 45.4466C71.0914 44.9224 70.8989 44.2626 70.9589 43.6009C70.9589 41.9037 72.4612 40.9844 73.4648 40.7143C74.1744 40.569 74.9123 40.6885 75.5405 41.0506C76.1688 41.4126 76.6445 41.9924 76.8785 42.6816C77.0218 43.2099 77.0226 43.767 76.8811 44.2957C76.7395 44.8244 76.4606 45.3058 76.073 45.6903Z" fill="white"/>
</g>
<defs>
<clipPath id="clip0">
<rect width="77" height="106" fill="white"/>
</clipPath>
</defs>
</svg>
