<svg width="220" height="64" viewBox="0 0 220 64" fill="none" xmlns="http://www.w3.org/2000/svg">
<rect width="176" height="51.2" rx="4" transform="matrix(1.25 0 0 -1.25 0 64)" fill="#15141D"/>
<path d="M76.8276 16.3904C76.8276 17.7264 76.4179 18.7964 75.6108 19.5944C74.6828 20.5404 73.4742 21.0164 71.9932 21.0164C70.5777 21.0164 69.3691 20.5324 68.3777 19.5784C67.3842 18.6104 66.8884 17.4224 66.8884 16.0004C66.8884 14.5784 67.3842 13.3904 68.3777 12.4304C69.3691 11.4684 70.5777 10.9844 71.9932 10.9844C72.6979 10.9844 73.3698 11.1264 74.0109 11.3904C74.65 11.6564 75.1704 12.0164 75.5473 12.4604L74.691 13.3044C74.0335 12.5464 73.1383 12.1724 71.9932 12.1724C70.9608 12.1724 70.0656 12.5244 69.3056 13.2344C68.5538 13.9464 68.1769 14.8684 68.1769 16.0004C68.1769 17.1324 68.5538 18.0624 69.3056 18.7744C70.0656 19.4764 70.9608 19.8364 71.9932 19.8364C73.0891 19.8364 74.0109 19.4764 74.7381 18.7664C75.2175 18.2964 75.4899 17.6484 75.5616 16.8204H71.9932V15.6644H76.7538C76.8112 15.9144 76.8276 16.1564 76.8276 16.3904Z" fill="white" stroke="white" stroke-width="0.196923" stroke-miterlimit="10"/>
<path d="M84.3801 12.3821H79.9083V15.4221H83.9397V16.5781H79.9083V19.6181H84.3801V20.7961H78.6423V11.2041H84.3801V12.3821Z" fill="white" stroke="white" stroke-width="0.196923" stroke-miterlimit="10"/>
<path d="M89.7103 20.7961H88.4443V12.3821H85.7014V11.2041H92.4552V12.3821H89.7103V20.7961Z" fill="white" stroke="white" stroke-width="0.196923" stroke-miterlimit="10"/>
<path d="M97.3428 20.7961V11.2041H98.6067V20.7961H97.3428Z" fill="white" stroke="white" stroke-width="0.196923" stroke-miterlimit="10"/>
<path d="M104.209 20.7961H102.954V12.3821H100.2V11.2041H106.962V12.3821H104.209V20.7961Z" fill="white" stroke="white" stroke-width="0.196923" stroke-miterlimit="10"/>
<path d="M119.749 19.5624C118.78 20.5324 117.579 21.0164 116.147 21.0164C114.707 21.0164 113.507 20.5324 112.538 19.5624C111.571 18.5944 111.09 17.4064 111.09 16.0004C111.09 14.5944 111.571 13.4064 112.538 12.4384C113.507 11.4684 114.707 10.9844 116.147 10.9844C117.571 10.9844 118.772 11.4684 119.741 12.4464C120.716 13.4224 121.197 14.6024 121.197 16.0004C121.197 17.4064 120.716 18.5944 119.749 19.5624ZM113.474 18.7584C114.204 19.4764 115.09 19.8364 116.147 19.8364C117.196 19.8364 118.091 19.4764 118.813 18.7584C119.54 18.0404 119.908 17.1184 119.908 16.0004C119.908 14.8824 119.54 13.9604 118.813 13.2424C118.091 12.5244 117.196 12.1644 116.147 12.1644C115.09 12.1644 114.204 12.5244 113.474 13.2424C112.747 13.9604 112.378 14.8824 112.378 16.0004C112.378 17.1184 112.747 18.0404 113.474 18.7584Z" fill="white" stroke="white" stroke-width="0.196923" stroke-miterlimit="10"/>
<path d="M122.973 20.7961V11.2041H124.509L129.287 18.6641H129.342L129.287 16.8201V11.2041H130.55V20.7961H129.231L124.229 12.9681H124.174L124.229 14.8201V20.7961H122.973Z" fill="white" stroke="white" stroke-width="0.196923" stroke-miterlimit="10"/>
<path d="M110.779 34.8039C106.93 34.8039 103.785 37.6639 103.785 41.6099C103.785 45.5239 106.93 48.4139 110.779 48.4139C114.636 48.4139 117.78 45.5239 117.78 41.6099C117.78 37.6639 114.636 34.8039 110.779 34.8039ZM110.779 45.7339C108.667 45.7339 106.85 44.0319 106.85 41.6099C106.85 39.1559 108.667 37.4839 110.779 37.4839C112.891 37.4839 114.716 39.1559 114.716 41.6099C114.716 44.0319 112.891 45.7339 110.779 45.7339ZM95.5197 34.8039C91.6624 34.8039 88.5262 37.6639 88.5262 41.6099C88.5262 45.5239 91.6624 48.4139 95.5197 48.4139C99.3749 48.4139 102.513 45.5239 102.513 41.6099C102.513 37.6639 99.3749 34.8039 95.5197 34.8039ZM95.5197 45.7339C93.4057 45.7339 91.5825 44.0319 91.5825 41.6099C91.5825 39.1559 93.4057 37.4839 95.5197 37.4839C97.6316 37.4839 99.4486 39.1559 99.4486 41.6099C99.4486 44.0319 97.6316 45.7339 95.5197 45.7339ZM77.3621 36.8899V39.7819H84.4355C84.2286 41.3979 83.6755 42.5859 82.8274 43.4139C81.795 44.4139 80.1869 45.5239 77.3621 45.5239C73.0091 45.5239 69.6005 42.0939 69.6005 37.8439C69.6005 33.5939 73.0091 30.1639 77.3621 30.1639C79.7158 30.1639 81.4283 31.0619 82.6922 32.2259L84.7796 30.1879C83.0118 28.5399 80.6601 27.2739 77.3621 27.2739C71.3929 27.2739 66.3762 32.0159 66.3762 37.8439C66.3762 43.6719 71.3929 48.4139 77.3621 48.4139C80.5884 48.4139 83.0118 47.3819 84.9168 45.4459C86.869 43.5399 87.4774 40.8599 87.4774 38.6959C87.4774 38.0239 87.4201 37.4059 87.3176 36.8899H77.3621ZM151.611 39.1319C151.035 37.6099 149.259 34.8039 145.641 34.8039C142.057 34.8039 139.072 37.5619 139.072 41.6099C139.072 45.4219 142.026 48.4139 145.986 48.4139C149.187 48.4139 151.035 46.5079 151.795 45.3979L149.419 43.8519C148.626 44.9839 147.547 45.7339 145.986 45.7339C144.435 45.7339 143.323 45.0399 142.61 43.6719L151.932 39.9059L151.611 39.1319ZM142.106 41.3979C142.026 38.7739 144.193 37.4299 145.746 37.4299C146.963 37.4299 147.995 38.0239 148.339 38.8739L142.106 41.3979ZM134.529 47.9999H137.593V27.9999H134.529V47.9999ZM129.51 36.3199H129.407C128.719 35.5239 127.406 34.8039 125.743 34.8039C122.252 34.8039 119.061 37.7959 119.061 41.6319C119.061 45.4459 122.252 48.4139 125.743 48.4139C127.406 48.4139 128.719 47.6879 129.407 46.8679H129.51V47.8439C129.51 50.4459 128.086 51.8439 125.79 51.8439C123.918 51.8439 122.756 50.5239 122.277 49.4139L119.612 50.4999C120.38 52.3039 122.414 54.5239 125.79 54.5239C129.383 54.5239 132.415 52.4599 132.415 47.4379V35.2179H129.51V36.3199ZM126.005 45.7339C123.893 45.7339 122.125 44.0079 122.125 41.6319C122.125 39.2339 123.893 37.4839 126.005 37.4839C128.086 37.4839 129.727 39.2339 129.727 41.6319C129.727 44.0079 128.086 45.7339 126.005 45.7339ZM165.958 27.9999H158.629V47.9999H161.685V40.4219H165.958C169.352 40.4219 172.681 38.0239 172.681 34.2099C172.681 30.3979 169.344 27.9999 165.958 27.9999ZM166.038 37.6399H161.685V30.7819H166.038C168.32 30.7819 169.623 32.6319 169.623 34.2099C169.623 35.7579 168.32 37.6399 166.038 37.6399ZM184.931 34.7659C182.723 34.7659 180.426 35.7179 179.482 37.8279L182.194 38.9379C182.778 37.8279 183.851 37.4679 184.986 37.4679C186.572 37.4679 188.18 38.3979 188.204 40.0399V40.2499C187.651 39.9379 186.467 39.4759 185.011 39.4759C182.09 39.4759 179.113 41.0459 179.113 43.9759C179.113 46.6559 181.506 48.3819 184.196 48.3819C186.252 48.3819 187.387 47.4759 188.1 46.4219H188.204V47.9679H191.156V40.2959C191.156 36.7499 188.444 34.7659 184.931 34.7659ZM184.562 45.7259C183.563 45.7259 182.17 45.2419 182.17 44.0319C182.17 42.4839 183.907 41.8899 185.41 41.8899C186.756 41.8899 187.387 42.1799 188.204 42.5619C187.965 44.4139 186.332 45.7259 184.562 45.7259ZM201.911 35.2039L198.398 43.8739H198.293L194.661 35.2039H191.365L196.822 47.3199L193.709 54.0619H196.902L205.311 35.2039H201.911ZM174.361 47.9999H177.425V27.9999H174.361V47.9999Z" fill="white"/>
<path d="M16.2216 12.0622C15.7403 12.5542 15.4617 13.3202 15.4617 14.3122V49.6962C15.4617 50.6882 15.7403 51.4542 16.2216 51.9462L16.3405 52.0542L36.6489 32.2342V31.7662L16.3405 11.9462L16.2216 12.0622Z" fill="url(#paint0_linear)"/>
<path d="M43.4109 38.8442L36.6489 32.2342V31.7662L43.4191 25.1562L43.5707 25.2422L51.5884 29.6962C53.8765 30.9602 53.8765 33.0402 51.5884 34.3122L43.5707 38.7582L43.4109 38.8442Z" fill="url(#paint1_linear)"/>
<path d="M43.5707 38.7584L36.6489 32.0005L16.2217 51.9464C16.9817 52.7264 18.221 52.8204 19.6303 52.0404L43.5707 38.7584Z" fill="url(#paint2_linear)"/>
<path d="M43.5707 25.242L19.6303 11.96C18.221 11.188 16.9817 11.282 16.2217 12.062L36.6489 32L43.5707 25.242Z" fill="url(#paint3_linear)"/>
<defs>
<linearGradient id="paint0_linear" x1="34.8458" y1="50.0647" x2="8.00162" y2="22.5701" gradientUnits="userSpaceOnUse">
<stop stop-color="#00A0FF"/>
<stop offset="0.0066" stop-color="#00A1FF"/>
<stop offset="0.2601" stop-color="#00BEFF"/>
<stop offset="0.5122" stop-color="#00D2FF"/>
<stop offset="0.7604" stop-color="#00DFFF"/>
<stop offset="1" stop-color="#00E3FF"/>
</linearGradient>
<linearGradient id="paint1_linear" x1="54.5679" y1="31.998" x2="14.9147" y2="31.998" gradientUnits="userSpaceOnUse">
<stop stop-color="#FFE000"/>
<stop offset="0.4087" stop-color="#FFBD00"/>
<stop offset="0.7754" stop-color="#FFA500"/>
<stop offset="1" stop-color="#FF9C00"/>
</linearGradient>
<linearGradient id="paint2_linear" x1="39.8069" y1="28.3267" x2="3.40401" y2="-8.95823" gradientUnits="userSpaceOnUse">
<stop stop-color="#FF3A44"/>
<stop offset="1" stop-color="#C31162"/>
</linearGradient>
<linearGradient id="paint3_linear" x1="11.0797" y1="63.7181" x2="27.3352" y2="47.0688" gradientUnits="userSpaceOnUse">
<stop stop-color="#32A071"/>
<stop offset="0.0685" stop-color="#2DA771"/>
<stop offset="0.4762" stop-color="#15CF74"/>
<stop offset="0.8009" stop-color="#06E775"/>
<stop offset="1" stop-color="#00F076"/>
</linearGradient>
</defs>
</svg>
