<svg width="215" height="185" viewBox="0 0 215 185" fill="none" xmlns="http://www.w3.org/2000/svg">
<path d="M108.573 56.4002C108.968 54.8768 109.363 53.5138 109.69 52.126C111.19 45.724 118.675 40.9317 125.402 45.0579C125.852 45.3354 126.371 45.5204 127.056 45.8473C128.79 43.5714 128.401 40.0682 131.067 38.4461C133.319 37.0584 135.695 35.868 138.225 34.4741C136.14 32.2476 132.943 31.2854 131.505 28.6271C131.943 27.3936 132.696 27.739 133.307 27.9733C136.516 29.2069 139.743 30.3911 142.903 31.7295C145.711 32.9137 148.093 33.0987 151.018 31.3224C156.22 28.146 161.466 29.1514 165.927 33.3269C168.435 35.5648 170.298 38.4336 171.321 41.6348C172.746 42.5969 173.586 41.4683 174.579 41.2956C176.702 40.9193 178.8 40.2779 180.929 40.1484C185.28 39.8832 188.772 41.3141 190.383 45.7918C190.494 46.1002 190.84 46.3284 191.346 46.8835C193.053 46.8888 194.759 46.7982 196.455 46.6121C199.893 46.0755 202.009 44.1882 202.071 40.4444C201.814 39.9587 201.495 39.5088 201.121 39.106C187.736 28.1584 173.302 18.913 157.208 12.4184C152.335 10.4567 147.275 8.99368 142.107 8.05169C137.829 7.2022 133.39 7.78983 129.481 9.72313C112.301 17.9878 96.1572 27.9795 80.3655 38.5941C75.262 42.0234 71.5532 46.6121 68.7886 52.0212C66.6411 56.2029 64.6663 60.4833 62.7842 64.7883C58.9396 73.5711 55.3789 82.4773 51.3862 91.1922C46.2642 102.374 40.8337 113.396 35.5451 124.498C33.3667 129.068 31.1205 133.614 29.0532 138.239C24.6717 148.034 18.7228 156.921 12.9714 165.908C10.9473 169.072 8.16412 171.773 5.5661 174.542C4.3936 175.776 3.06065 177.121 1.04889 177.127C0.431782 175.702 1.43766 174.962 2.05477 174.29C10.2623 165.353 15.5756 154.652 20.6975 143.84C29.8616 124.584 39.149 105.359 47.9551 85.9065C52.497 75.8655 56.1688 65.4359 60.0997 55.1359C65.1662 41.9247 66.8077 39.7968 78.3599 31.7911C92.54 22.0428 107.205 13.0182 122.298 4.75197C123.409 4.1352 124.55 3.58628 125.698 3.05586C130.567 0.798479 135.473 -0.188352 140.941 1.04519C163.57 6.11503 184.403 14.756 201.596 30.8167C203.715 32.7904 205.62 34.9818 207.279 37.3544C209.952 41.1969 209.711 43.6455 206.613 47.0809C205.169 48.6845 203.478 50.0599 201.639 51.7868C202.045 52.4581 202.499 53.0991 202.997 53.705C205.835 56.7837 207.885 60.5042 208.97 64.5478C210.822 71.5358 212.574 78.5546 214.123 85.6166C214.617 87.874 214.493 90.3102 214.352 92.6478C214.117 96.6383 212.587 100.006 208.946 102.121C208.264 102.572 207.607 103.058 206.977 103.577C206.977 105.662 207.07 107.826 206.977 109.973C206.699 115.209 206.323 120.458 205.977 125.676C205.853 128.788 204.593 131.748 202.435 133.996C201.798 134.63 201.302 135.392 200.983 136.232C200.664 137.073 200.528 137.971 200.584 138.868C200.621 140.676 200.584 142.489 200.436 144.296C200.251 147.035 199.166 149.637 197.35 151.697C194.104 155.466 190.463 156.342 185.625 154.584C184.946 154.337 184.292 154.029 183.286 153.609C182.936 154.573 182.681 155.569 182.527 156.582C182.311 160.375 182.213 164.175 182.083 167.974C182.009 170.12 181.953 172.291 181.892 174.203C180.405 174.962 179.683 174.327 179.553 173.383C178.886 168.726 178.195 164.07 177.788 159.388C176.825 148.213 176.023 137.018 175.134 125.836C175.036 124.633 174.777 123.443 174.561 122.006C172.092 122.857 170.58 124.436 168.846 125.663C162.86 129.913 156.368 132.972 149.037 134.027C148.235 134.081 147.429 134.06 146.63 133.965C146.316 132.54 147.247 132.479 147.865 132.325C152.141 131.153 155.708 128.729 159.324 126.286C167.16 121.045 174.389 114.951 180.88 108.116C188.513 99.9997 192.932 90.5138 192.099 79.1282C191.814 76.4378 191.277 73.7802 190.494 71.1904C189.877 68.97 188.55 67.3294 186.008 67.0704C185.207 66.9203 184.417 66.7142 183.644 66.4536C182.348 69.3524 182.725 73.0284 179.701 74.965C179.325 75.2117 178.707 75.0822 178.06 75.1315C176.967 71.8997 180.195 69.2537 179.072 66.0835C177.504 64.85 175.653 65.2941 173.919 65.5469C168.828 66.3056 166.89 71.0979 170.105 75.1809C171.197 76.5624 172.826 77.5184 174.19 78.6965C175.776 80.0595 177.893 80.8675 178.985 83.0755C176.517 85.154 173.987 83.0755 171.241 83.6245C169.698 85.4748 167.945 87.5224 166.26 89.6256C162.188 94.7078 158.09 99.7838 154.103 104.934C149.673 110.664 145.192 116.363 141.027 122.277C133.066 133.564 124.365 144.173 114.059 153.418C112.573 154.737 111.512 156.467 111.011 158.389C109.832 162.565 108.462 166.691 106.987 170.774C106.069 173.13 105.018 175.432 103.84 177.669C103.464 178.422 102.97 179.292 101.44 179.088C100.884 173.809 103.674 168.856 103.63 162.99C101.865 164.279 100.594 165.235 99.3106 166.154C92.6768 170.885 86.0737 175.653 79.3781 180.291C77.0983 181.8 74.7121 183.142 72.2382 184.306C71.4545 184.694 70.3869 184.448 68.622 184.528C69.6155 183.399 69.9858 182.782 70.5288 182.4C83.8028 172.902 95.8734 161.93 108.277 151.377C115.961 144.752 122.756 137.162 128.494 128.797C136.921 116.787 146.074 105.302 155.899 94.4056C158.553 91.4328 161.108 88.3798 163.656 85.3144C164.921 83.7971 166.057 82.1689 167.273 80.5591C166.149 78.4806 164.903 76.6981 164.187 74.7183C163.57 72.9112 163.508 70.8882 163.187 68.8343H157.016C156.843 70.2097 156.634 71.4001 156.56 72.5966C156.14 79.196 150.938 82.2861 145.452 81.7803C144.217 81.6631 142.983 81.3856 141.854 81.1636C136.454 88.2317 133.35 89.3234 125.766 85.3761C119.811 89.7798 119.762 89.786 113.134 87.3559C108.53 89.9402 103.575 92.5553 98.7985 95.4664C94.886 97.8472 90.8193 99.7838 86.3391 100.653C79.782 102.024 73.3852 104.073 67.252 106.766C65.9617 107.192 64.6444 107.532 63.3087 107.783C63.9258 106.772 64.1171 106.18 64.5429 105.933C71.1645 101.209 77.6255 96.2312 85.8701 94.4673C90.2088 93.5315 94.3736 91.9207 98.2122 89.6935C98.0271 88.6758 97.8296 87.6643 97.663 86.6528C96.8731 82.0147 96.0153 77.4013 95.3427 72.7446C94.9127 69.4893 95.4223 66.1789 96.8114 63.2032C98.6257 59.1017 101.446 56.2707 106.383 56.6346C107.118 56.6117 107.85 56.5334 108.573 56.4002ZM190.648 53.4459L187.298 62.6975C192.376 64.3011 194.666 68.1127 195.937 72.5658C196.682 74.9785 197.05 77.4915 197.029 80.0164C196.863 84.6668 196.196 89.3049 195.69 94.4364C196.349 95.2964 197.053 96.1199 197.801 96.9035C198.803 97.9761 200.12 98.702 201.563 98.9759C203.005 99.2498 204.497 99.0575 205.823 98.4269C207.182 97.8872 208.343 96.9437 209.148 95.7239C209.954 94.5041 210.366 93.0666 210.328 91.6055C210.448 89.6208 210.298 87.6291 209.884 85.6845C207.827 77.8309 205.648 70.0185 203.349 62.2472C202.718 60.365 201.743 58.6165 200.473 57.091C198.011 54.0627 194.894 52.5208 190.618 53.4459H190.648ZM152.493 69.8458C152.561 64.628 148.716 49.696 146.402 45.8905C145.562 44.5067 144.461 43.2983 143.162 42.3317C140.817 40.6109 136.88 40.8885 135.078 42.6525C132.511 45.175 131.184 50.4854 132.98 53.7111C136.162 59.6091 138.696 65.8335 140.54 72.2759C141.354 74.9958 143.218 75.9765 145.699 76.3096C148.179 76.6426 149.932 75.5201 151.03 73.4354C151.583 72.2706 152.062 71.0716 152.462 69.8458H152.493ZM112.554 58.7748C118.2 64.9425 122.1 71.4124 125.451 78.2339C126.451 80.1566 128.011 81.7309 129.925 82.7486C131.777 83.8588 133.418 83.2852 134.992 82.3046C136.565 81.3239 137.312 79.9485 136.942 78.1599C136.474 75.4988 135.823 72.8733 134.992 70.3022C133.689 66.7344 132.206 63.2348 130.549 59.8172C129.148 56.8937 127.728 53.8962 125.803 51.3181C122.366 46.7663 116.948 47.3831 114.485 52.4776C113.56 54.3896 113.171 56.5606 112.554 58.7748ZM193.018 99.8085C191.63 101.955 190.42 104.44 188.649 106.408C185.965 109.381 185.23 112.576 186.113 116.369C186.643 118.645 186.699 121.032 187.347 123.277C187.851 125.003 188.644 126.632 189.692 128.094C190.555 129.238 191.664 130.174 192.938 130.832C196.141 132.528 199.578 130.999 200.615 127.471C201.08 125.914 201.36 124.307 201.448 122.684C201.707 117.633 201.855 112.582 201.966 107.524C201.937 106.466 201.824 105.412 201.627 104.373L193.018 99.8085ZM118.305 72.7755C116.559 70.3084 115.004 67.8968 113.165 65.695C111.985 64.3245 110.606 63.1394 109.073 62.1794C108.483 61.7574 107.807 61.4708 107.093 61.3399C106.379 61.2089 105.645 61.2369 104.943 61.4219C104.241 61.6068 103.589 61.9441 103.032 62.4098C102.476 62.8755 102.029 63.458 101.724 64.116C101.093 65.4129 100.63 66.785 100.347 68.1991C98.8602 74.5333 101.31 80.1829 103.272 86.1902C105.337 85.7126 107.247 84.7219 108.826 83.3099C108.691 81.1142 106.179 79.9547 107.37 77.3827C109.339 78.9308 111.005 80.2939 112.727 81.5891C114.015 82.5773 115.356 83.4956 116.744 84.3399C117.366 84.7307 118.105 84.8939 118.834 84.8017C119.563 84.7095 120.237 84.3676 120.743 83.8342C121.909 82.7733 122.495 81.4596 121.977 79.9362C121.36 78.2771 120.817 76.5563 119.132 75.1624C118.429 75.6496 117.707 76.1307 117.003 76.6426C116.3 77.1545 115.948 78.1969 114.819 77.3766C114.769 75.1377 117.231 74.9157 118.305 72.7755ZM166.964 46.1064C167.029 45.2083 166.893 44.3071 166.565 43.4685C166.237 42.6298 165.726 41.8748 165.069 41.2586C163.643 39.6445 162.038 38.1962 160.287 36.9412C157.763 35.2389 153.9 35.3191 152.116 36.7623C150 38.4831 149.494 41.2524 150.691 44.6878C150.808 45.027 151.018 45.3046 151.123 45.6808C152.018 48.6043 152.912 51.5278 153.776 54.4636C154.48 56.8813 155.06 59.3422 155.844 61.7415C156.658 64.2517 158.51 65.0782 160.904 64.1592C161.747 63.8345 162.517 63.3464 163.171 62.723C163.824 62.0995 164.348 61.353 164.712 60.5264C165.517 58.696 165.718 56.6565 165.285 54.7041C164.81 51.8978 164.304 49.0915 163.811 46.2852C164.354 46.1989 164.687 46.1125 165.045 46.094C165.538 46.0879 166.044 46.1064 166.964 46.1064ZM168.322 51.3427C168.778 54.9632 169.192 58.2876 169.599 61.5688C172.382 61.3899 175.054 61.0754 177.732 61.0692C182.793 61.0692 183.373 60.7115 184.829 55.8328C185.33 54.2978 185.701 52.7237 185.94 51.1269C186.06 50.0816 185.923 49.0228 185.539 48.043C184.477 45.4711 182.453 44.4904 179.405 44.805C174.598 45.2861 171.413 48.4131 168.322 51.3427ZM180.83 117.652L180.022 117.713C179.932 118.226 179.891 118.747 179.899 119.268C180.571 125.929 181.244 132.59 181.99 139.245C182.133 141.049 182.491 142.83 183.058 144.549C183.67 146.028 184.503 147.407 185.527 148.638C187.834 151.611 193.759 150.815 195.036 146.208C195.777 143.525 195.943 140.885 194.567 138.227C193.604 137.906 192.599 137.536 191.574 137.216C189.911 136.737 188.375 135.897 187.075 134.755C185.776 133.613 184.745 132.197 184.058 130.61C183.14 128.462 182.416 126.237 181.892 123.961C181.38 121.895 181.17 119.755 180.83 117.652Z" fill="white"/>
<path d="M148.784 64.9672C147.001 66.8175 144.724 67.5453 141.953 69.0255C142.23 67.6686 142.169 67.058 142.434 66.836C144.224 65.3311 146.18 64.1716 148.784 64.9672Z" fill="white"/>
<path d="M127.982 76.5377C130.395 72.5903 130.45 72.578 133.949 73.3305C132.542 74.9711 130.759 75.4583 127.982 76.5377Z" fill="white"/>
<path d="M156.942 54.1675C159.411 51.0836 160.343 50.8554 162.922 52.6071C161.106 53.6563 159.04 54.1954 156.942 54.1675Z" fill="white"/>
</svg>
