<svg width="214" height="185" viewBox="0 0 214 185" fill="none" xmlns="http://www.w3.org/2000/svg">
<path d="M107.718 55.8915C108.113 54.368 108.507 53.005 108.835 51.6172C110.334 45.2152 117.82 40.4229 124.546 44.5491C124.997 44.8266 125.515 45.0116 126.2 45.3385C127.934 43.0627 127.545 39.5594 130.211 37.9373C132.464 36.5496 134.839 35.3592 137.37 33.9653C135.284 31.7388 132.087 30.7766 130.649 28.1183C131.087 26.8848 131.84 27.2302 132.451 27.4646C135.66 28.6981 138.888 29.8823 142.047 31.2207C144.855 32.4049 147.237 32.5899 150.162 30.8136C155.364 27.6372 160.61 28.6426 165.071 32.8181C167.58 35.056 169.442 37.9248 170.465 41.126C171.89 42.0882 172.73 40.9595 173.723 40.7868C175.846 40.4105 177.944 39.7691 180.073 39.6396C184.424 39.3744 187.917 40.8053 189.527 45.283C189.638 45.5914 189.984 45.8196 190.49 46.3747C192.197 46.38 193.903 46.2894 195.6 46.1033C199.037 45.5667 201.154 43.6794 201.215 39.9356C200.958 39.4499 200.639 39 200.265 38.5972C186.88 27.6496 172.446 18.4042 156.352 11.9096C151.479 9.94794 146.419 8.48489 141.251 7.5429C136.973 6.69341 132.534 7.28104 128.625 9.21434C111.445 17.4791 95.3014 27.4707 79.5097 38.0853C74.4062 41.5146 70.6974 46.1033 67.9328 51.5124C65.7852 55.6941 63.8105 59.9745 61.9283 64.2795C58.0838 73.0623 54.5231 81.9685 50.5304 90.6834C45.4084 101.865 39.9779 112.887 34.6893 123.989C32.5109 128.559 30.2646 133.105 28.1973 137.731C23.8159 147.525 17.867 156.413 12.1155 165.399C10.0914 168.563 7.30828 171.264 4.71027 174.034C3.53777 175.267 2.20482 176.612 0.193053 176.618C-0.424053 175.193 0.58183 174.453 1.19894 173.781C9.40644 164.844 14.7197 154.143 19.8417 143.331C29.0057 124.075 38.2932 104.851 47.0993 85.3977C51.6412 75.3567 55.3129 64.9271 59.2439 54.6271C64.3103 41.4159 65.9519 39.288 77.5041 31.2824C91.6841 21.534 106.349 12.5094 121.442 4.24318C122.553 3.62641 123.694 3.07749 124.842 2.54707C129.711 0.28969 134.617 -0.697141 140.085 0.536398C162.714 5.60624 183.548 14.2472 200.74 30.3079C202.859 32.2817 204.764 34.473 206.424 36.8456C209.096 40.6881 208.855 43.1367 205.757 46.5721C204.313 48.1757 202.622 49.5511 200.783 51.278C201.189 51.9493 201.643 52.5903 202.141 53.1962C204.98 56.2749 207.029 59.9954 208.115 64.039C209.966 71.027 211.718 78.0458 213.267 85.1078C213.761 87.3652 213.638 89.8015 213.496 92.139C213.261 96.1295 211.731 99.4971 208.09 101.613C207.409 102.063 206.752 102.549 206.121 103.068C206.121 105.153 206.214 107.318 206.121 109.464C205.844 114.7 205.467 119.949 205.122 125.167C204.997 128.28 203.737 131.239 201.579 133.487C200.942 134.121 200.447 134.883 200.127 135.724C199.808 136.564 199.672 137.463 199.728 138.36C199.765 140.167 199.728 141.98 199.58 143.787C199.395 146.527 198.31 149.128 196.494 151.189C193.248 154.957 189.608 155.833 184.769 154.075C184.091 153.828 183.436 153.52 182.431 153.1C182.08 154.064 181.826 155.06 181.672 156.073C181.456 159.866 181.357 163.666 181.227 167.465C181.153 169.611 181.098 171.782 181.036 173.694C179.549 174.453 178.827 173.818 178.697 172.874C178.031 168.218 177.339 163.561 176.932 158.88C175.969 147.704 175.167 136.509 174.279 125.327C174.18 124.125 173.921 122.934 173.705 121.497C171.236 122.348 169.724 123.927 167.99 125.155C162.004 129.404 155.512 132.463 148.181 133.518C147.379 133.572 146.573 133.552 145.774 133.456C145.46 132.032 146.392 131.97 147.009 131.816C151.285 130.644 154.852 128.22 158.468 125.778C166.304 120.536 173.533 114.443 180.024 107.608C187.657 99.4909 192.076 90.005 191.243 78.6194C190.958 75.929 190.421 73.2714 189.638 70.6816C189.021 68.4612 187.694 66.8206 185.152 66.5616C184.351 66.4115 183.561 66.2054 182.789 65.9448C181.493 68.8436 181.869 72.5196 178.845 74.4562C178.469 74.7029 177.852 74.5734 177.204 74.6227C176.111 71.3909 179.339 68.7449 178.216 65.5747C176.648 64.3412 174.797 64.7853 173.063 65.0381C167.972 65.7968 166.034 70.5891 169.249 74.6721C170.341 76.0536 171.971 77.0096 173.334 78.1877C174.92 79.5507 177.037 80.3587 178.129 82.5667C175.661 84.6453 173.131 82.5667 170.385 83.1157C168.842 84.966 167.089 87.0137 165.405 89.1168C161.332 94.199 157.234 99.275 153.248 104.425C148.817 110.155 144.337 115.854 140.171 121.769C132.211 133.055 123.509 143.664 113.204 152.909C111.718 154.228 110.657 155.958 110.155 157.88C108.976 162.056 107.606 166.182 106.132 170.265C105.213 172.621 104.162 174.923 102.984 177.161C102.608 177.913 102.114 178.783 100.584 178.579C100.028 173.3 102.818 168.347 102.775 162.482C101.01 163.771 99.7384 164.727 98.4548 165.646C91.8209 170.376 85.2179 175.144 78.5223 179.782C76.2425 181.291 73.8562 182.633 71.3824 183.797C70.5987 184.186 69.5311 183.939 67.7661 184.019C68.7597 182.89 69.13 182.274 69.673 181.891C82.9469 172.393 95.0175 161.421 107.421 150.868C115.105 144.243 121.9 136.653 127.638 128.288C136.066 116.279 145.218 104.794 155.043 93.8968C157.697 90.924 160.252 87.871 162.8 84.8056C164.066 83.2884 165.201 81.6601 166.417 80.0503C165.294 77.9718 164.047 76.1893 163.331 74.2095C162.714 72.4024 162.652 70.3794 162.331 68.3255H156.16C155.988 69.7009 155.778 70.8913 155.704 72.0878C155.284 78.6873 150.082 81.7773 144.596 81.2715C143.362 81.1543 142.127 80.8768 140.998 80.6548C135.598 87.7229 132.494 88.8146 124.91 84.8673C118.955 89.271 118.906 89.2772 112.278 86.8471C107.674 89.4314 102.719 92.0465 97.9426 94.9576C94.0302 97.3384 89.9634 99.275 85.4833 100.145C78.9261 101.515 72.5294 103.564 66.3962 106.257C65.1059 106.684 63.7885 107.024 62.4529 107.275C63.07 106.263 63.2613 105.671 63.6871 105.424C70.3086 100.7 76.7697 95.7224 85.0143 93.9585C89.353 93.0228 93.5177 91.4119 97.3564 89.1847C97.1712 88.167 96.9738 87.1555 96.8071 86.144C96.0173 81.5059 95.1595 76.8925 94.4868 72.2359C94.0569 68.9805 94.5664 65.6701 95.9555 62.6944C97.7698 58.5929 100.59 55.7619 105.527 56.1258C106.262 56.1029 106.994 56.0246 107.718 55.8915ZM189.793 52.9371L186.442 62.1887C191.521 63.7923 193.81 67.6039 195.081 72.057C195.826 74.4697 196.195 76.9827 196.174 79.5076C196.007 84.158 195.34 88.7961 194.834 93.9276C195.493 94.7876 196.197 95.6111 196.945 96.3947C197.947 97.4673 199.265 98.1932 200.707 98.4671C202.149 98.7411 203.642 98.5488 204.967 97.9181C206.326 97.3784 207.487 96.435 208.293 95.2151C209.098 93.9953 209.51 92.5578 209.472 91.0967C209.592 89.112 209.442 87.1203 209.028 85.1757C206.971 77.3222 204.792 69.5097 202.493 61.7384C201.863 59.8562 200.887 58.1077 199.617 56.5822C197.155 53.5539 194.038 52.012 189.762 52.9371H189.793ZM151.637 69.337C151.705 64.1192 147.86 49.1872 145.546 45.3817C144.706 43.9979 143.606 42.7895 142.306 41.8229C139.961 40.1022 136.024 40.3797 134.222 42.1437C131.655 44.6663 130.328 49.9766 132.124 53.2023C135.306 59.1003 137.84 65.3247 139.684 71.7671C140.498 74.4871 142.362 75.4677 144.843 75.8008C147.323 76.1338 149.076 75.0113 150.174 72.9266C150.728 71.7618 151.206 70.5628 151.606 69.337H151.637ZM111.698 58.266C117.344 64.4337 121.245 70.9036 124.595 77.7251C125.595 79.6478 127.155 81.2221 129.069 82.2399C130.921 83.35 132.562 82.7764 134.136 81.7958C135.71 80.8151 136.456 79.4397 136.086 77.6511C135.618 74.99 134.967 72.3645 134.136 69.7934C132.833 66.2256 131.35 62.7261 129.693 59.3084C128.292 56.3849 126.873 53.3874 124.947 50.8093C121.51 46.2575 116.092 46.8743 113.629 51.9688C112.704 53.8808 112.315 56.0518 111.698 58.266ZM192.162 99.2997C190.774 101.446 189.564 103.932 187.793 105.899C185.109 108.872 184.374 112.067 185.257 115.86C185.788 118.136 185.843 120.523 186.491 122.768C186.995 124.494 187.788 126.123 188.836 127.585C189.699 128.729 190.808 129.665 192.082 130.323C195.285 132.019 198.722 130.49 199.759 126.962C200.224 125.405 200.504 123.798 200.592 122.176C200.851 117.124 200.999 112.073 201.11 107.015C201.081 105.958 200.968 104.904 200.771 103.864L192.162 99.2997ZM117.449 72.2667C115.703 69.7996 114.148 67.388 112.309 65.1862C111.129 63.8157 109.75 62.6306 108.217 61.6706C107.627 61.2487 106.951 60.962 106.237 60.8311C105.523 60.7001 104.789 60.7281 104.087 60.9131C103.385 61.098 102.733 61.4353 102.177 61.901C101.62 62.3667 101.173 62.9492 100.868 63.6072C100.237 64.9041 99.7745 66.2763 99.4916 67.6903C98.0043 74.0245 100.454 79.6741 102.417 85.6814C104.481 85.2038 106.391 84.2131 107.971 82.8011C107.835 80.6054 105.323 79.4459 106.514 76.874C108.483 78.4221 110.149 79.7851 111.871 81.0803C113.16 82.0685 114.501 82.9868 115.888 83.8311C116.51 84.2219 117.249 84.3851 117.978 84.2929C118.707 84.2007 119.382 83.8588 119.887 83.3254C121.053 82.2645 121.639 80.9508 121.121 79.4274C120.504 77.7683 119.961 76.0475 118.276 74.6536C117.573 75.1408 116.851 75.6219 116.147 76.1338C115.444 76.6458 115.092 77.6881 113.963 76.8678C113.913 74.6289 116.376 74.4069 117.449 72.2667ZM166.108 45.5976C166.173 44.6996 166.037 43.7983 165.709 42.9597C165.381 42.121 164.87 41.366 164.214 40.7498C162.787 39.1357 161.182 37.6875 159.431 36.4324C156.907 34.7301 153.044 34.8103 151.261 36.2535C149.144 37.9743 148.638 40.7436 149.835 44.179C149.952 44.5182 150.162 44.7958 150.267 45.172C151.162 48.0955 152.057 51.019 152.921 53.9548C153.624 56.3725 154.204 58.8334 154.988 61.2327C155.802 63.7429 157.654 64.5694 160.048 63.6504C160.891 63.3258 161.662 62.8376 162.315 62.2142C162.968 61.5907 163.492 60.8442 163.856 60.0176C164.661 58.1872 164.862 56.1477 164.43 54.1953C163.954 51.389 163.448 48.5827 162.955 45.7764C163.498 45.6901 163.831 45.6037 164.189 45.5852C164.683 45.5791 165.189 45.5976 166.108 45.5976ZM167.466 50.8339C167.922 54.4544 168.336 57.7788 168.743 61.06C171.526 60.8811 174.198 60.5666 176.877 60.5604C181.937 60.5604 182.517 60.2027 183.973 55.324C184.474 53.789 184.846 52.2149 185.084 50.6181C185.205 49.5728 185.067 48.514 184.683 47.5342C183.622 44.9623 181.597 43.9816 178.549 44.2962C173.742 44.7773 170.557 47.9043 167.466 50.8339ZM179.975 117.143L179.166 117.205C179.076 117.718 179.035 118.238 179.043 118.759C179.715 125.42 180.388 132.081 181.135 138.736C181.277 140.54 181.635 142.321 182.202 144.04C182.815 145.52 183.647 146.898 184.671 148.129C186.979 151.102 192.903 150.307 194.18 145.699C194.921 143.016 195.087 140.377 193.711 137.718C192.749 137.398 191.743 137.027 190.718 136.707C189.055 136.228 187.519 135.388 186.219 134.246C184.92 133.104 183.889 131.688 183.202 130.101C182.285 127.953 181.56 125.728 181.036 123.452C180.524 121.386 180.314 119.246 179.975 117.143Z" fill="#15141D"/>
<path d="M147.928 64.4584C146.145 66.3087 143.868 67.0365 141.097 68.5167C141.375 67.1598 141.313 66.5493 141.578 66.3272C143.368 64.8223 145.324 63.6628 147.928 64.4584Z" fill="#15141D"/>
<path d="M127.126 76.0289C129.539 72.0816 129.594 72.0692 133.093 72.8217C131.686 74.4623 129.903 74.9495 127.126 76.0289Z" fill="#15141D"/>
<path d="M156.086 53.6587C158.555 50.5748 159.487 50.3466 162.066 52.0983C160.25 53.1475 158.184 53.6866 156.086 53.6587Z" fill="#15141D"/>
</svg>
