<svg width="189" height="163" viewBox="0 0 189 163" fill="none" xmlns="http://www.w3.org/2000/svg">
<path d="M94.9889 49.2869C95.3372 47.9435 95.6854 46.7415 95.9739 45.5178C97.2962 39.8722 103.897 35.6462 109.829 39.2848C110.226 39.5296 110.683 39.6927 111.287 39.981C112.816 37.9741 112.474 34.8848 114.824 33.4543C116.811 32.2306 118.906 31.1809 121.137 29.9517C119.298 27.9883 116.479 27.1398 115.211 24.7957C115.597 23.7079 116.261 24.0125 116.8 24.2191C119.63 25.3069 122.476 26.3512 125.262 27.5314C127.738 28.5757 129.838 28.7388 132.418 27.1724C137.005 24.3714 141.631 25.258 145.565 28.9401C147.777 30.9135 149.42 33.4433 150.322 36.2662C151.579 37.1147 152.319 36.1194 153.195 35.9671C155.067 35.6353 156.917 35.0697 158.794 34.9555C162.631 34.7216 165.711 35.9834 167.131 39.932C167.229 40.204 167.534 40.4052 167.98 40.8947C169.486 40.8994 170.99 40.8195 172.486 40.6554C175.517 40.1822 177.384 38.5179 177.438 35.2165C177.212 34.7882 176.93 34.3915 176.6 34.0363C164.797 24.3823 152.068 16.2294 137.876 10.5023C133.579 8.77242 129.117 7.48225 124.56 6.65157C120.787 5.90246 116.873 6.42066 113.426 8.12551C98.2757 15.4136 84.0399 24.2246 70.1142 33.5849C65.6138 36.6089 62.3433 40.6554 59.9053 45.4253C58.0116 49.1129 56.2702 52.8874 54.6104 56.6838C51.2201 64.4287 48.0802 72.2825 44.5593 79.9676C40.0426 89.8283 35.2538 99.5476 30.5901 109.338C28.6692 113.368 26.6883 117.376 24.8653 121.455C21.0016 130.092 15.7557 137.93 10.6839 145.854C8.89895 148.644 6.44468 151.027 4.15367 153.469C3.11972 154.556 1.94428 155.742 0.170241 155.747C-0.373943 154.491 0.513077 153.838 1.05726 153.246C8.29491 145.365 12.9803 135.928 17.4971 126.394C25.5782 109.414 33.7682 92.4607 41.5337 75.3065C45.5389 66.452 48.7768 57.2549 52.2432 48.1719C56.711 36.5219 58.1585 34.6455 68.3456 27.5858C80.8501 18.9894 93.7819 11.0312 107.092 3.74178C108.071 3.19789 109.078 2.71383 110.09 2.24609C114.384 0.255458 118.71 -0.614762 123.531 0.473013C143.487 4.94377 161.858 12.5636 177.019 26.7265C178.888 28.467 180.568 30.3994 182.031 32.4917C184.387 35.8801 184.175 38.0393 181.443 41.0688C180.17 42.4829 178.679 43.6957 177.057 45.2186C177.415 45.8106 177.815 46.3759 178.254 46.9101C180.758 49.625 182.565 52.9059 183.522 56.4717C185.155 62.6339 186.7 68.8234 188.066 75.0509C188.501 77.0415 188.393 79.1898 188.267 81.2512C188.061 84.7701 186.711 87.7398 183.5 89.6053C182.9 90.0025 182.32 90.4309 181.764 90.8889C181.764 92.7272 181.846 94.6362 181.764 96.529C181.52 101.147 181.188 105.775 180.883 110.376C180.773 113.121 179.662 115.731 177.759 117.713C177.197 118.272 176.76 118.945 176.479 119.686C176.197 120.427 176.077 121.219 176.127 122.01C176.159 123.604 176.127 125.203 175.996 126.796C175.833 129.212 174.877 131.506 173.275 133.323C170.413 136.646 167.202 137.418 162.936 135.868C162.337 135.651 161.76 135.379 160.873 135.009C160.564 135.859 160.34 136.737 160.204 137.631C160.013 140.975 159.926 144.326 159.812 147.676C159.747 149.569 159.698 151.483 159.643 153.169C158.332 153.838 157.695 153.278 157.581 152.446C156.993 148.34 156.384 144.233 156.025 140.105C155.176 130.25 154.468 120.378 153.685 110.518C153.598 109.457 153.369 108.407 153.178 107.14C151.002 107.891 149.668 109.283 148.139 110.365C142.861 114.113 137.136 116.811 130.671 117.741C129.963 117.788 129.253 117.77 128.549 117.686C128.271 116.43 129.093 116.375 129.637 116.239C133.408 115.206 136.554 113.069 139.743 110.915C146.652 106.293 153.027 100.919 158.751 94.8919C165.482 87.7343 169.379 79.3693 168.644 69.3292C168.393 66.9567 167.92 64.6131 167.229 62.3293C166.685 60.3713 165.515 58.9246 163.273 58.6962C162.566 58.5638 161.87 58.3821 161.189 58.1523C160.046 60.7085 160.378 63.9501 157.712 65.6579C157.38 65.8755 156.835 65.7613 156.264 65.8048C155.301 62.9548 158.147 60.6215 157.156 57.8259C155.774 56.7382 154.142 57.1298 152.613 57.3528C148.123 58.0217 146.414 62.2477 149.249 65.8483C150.213 67.0666 151.649 67.9096 152.852 68.9484C154.251 70.1504 156.117 70.8629 157.08 72.81C154.904 74.6429 152.672 72.81 150.251 73.2941C148.89 74.9258 147.345 76.7315 145.859 78.5861C142.268 83.0678 138.654 87.544 135.139 92.0854C131.232 97.1381 127.281 102.164 123.608 107.38C116.588 117.333 108.915 126.688 99.8267 134.84C98.5162 136.004 97.5806 137.529 97.1384 139.224C96.099 142.906 94.8909 146.545 93.5903 150.145C92.7803 152.223 91.8537 154.253 90.815 156.226C90.483 156.89 90.0477 157.656 88.6981 157.477C88.2083 152.821 90.6681 148.454 90.63 143.282C89.0736 144.418 87.9526 145.261 86.8207 146.072C80.9707 150.243 75.1479 154.448 69.2435 158.538C67.2331 159.868 65.1288 161.052 62.9473 162.078C62.2562 162.421 61.3148 162.203 59.7584 162.274C60.6345 161.279 60.961 160.735 61.4399 160.398C73.1453 152.022 83.7896 142.346 94.7277 133.04C101.503 127.198 107.496 120.505 112.555 113.128C119.987 102.538 128.058 92.4104 136.722 82.8013C139.062 80.1797 141.315 77.4875 143.563 74.7844C144.678 73.4464 145.68 72.0105 146.752 70.591C145.761 68.7581 144.662 67.1862 144.031 65.4404C143.487 63.8468 143.432 62.0628 143.149 60.2517H137.707C137.555 61.4646 137.37 62.5143 137.305 63.5694C136.935 69.389 132.347 72.1139 127.509 71.6679C126.421 71.5645 125.333 71.3198 124.337 71.124C119.575 77.3569 116.838 78.3196 110.15 74.8387C104.898 78.7221 104.855 78.7275 99.0104 76.5846C94.9508 78.8635 90.581 81.1696 86.369 83.7367C82.9189 85.8362 79.3327 87.544 75.3819 88.3108C69.5996 89.5195 63.9588 91.3259 58.5503 93.7008C57.4125 94.077 56.2508 94.3768 55.073 94.5982C55.6172 93.7062 55.7859 93.1841 56.1613 92.9665C62.0004 88.8003 67.698 84.4112 74.9683 82.8556C78.7944 82.0305 82.467 80.61 85.852 78.646C85.6888 77.7485 85.5146 76.8566 85.3677 75.9646C84.6711 71.8746 83.9147 67.8063 83.3216 63.6999C82.9424 60.8292 83.3918 57.91 84.6167 55.286C86.2166 51.6691 88.7036 49.1727 93.057 49.4936C93.7053 49.4734 94.3511 49.4043 94.9889 49.2869ZM167.365 46.6817L164.41 54.84C168.889 56.2541 170.908 59.6153 172.029 63.5422C172.686 65.6698 173.011 67.8859 172.992 70.1124C172.845 74.2133 172.258 78.3033 171.811 82.8284C172.392 83.5868 173.013 84.313 173.672 85.004C174.556 85.9499 175.718 86.59 176.99 86.8315C178.262 87.0731 179.578 86.9035 180.747 86.3474C181.945 85.8715 182.969 85.0395 183.679 83.9638C184.39 82.8881 184.753 81.6205 184.719 80.332C184.825 78.5819 184.693 76.8255 184.328 75.1107C182.514 68.1852 180.593 61.2959 178.565 54.443C178.009 52.7832 177.149 51.2413 176.029 49.8961C173.857 47.2256 171.109 45.8659 167.338 46.6817H167.365ZM133.718 61.1437C133.778 56.5424 130.388 43.3749 128.347 40.0191C127.606 38.7988 126.636 37.7332 125.49 36.8808C123.423 35.3634 119.951 35.6081 118.362 37.1637C116.098 39.3882 114.928 44.071 116.511 46.9156C119.317 52.1166 121.552 57.6055 123.178 63.2866C123.896 65.6851 125.539 66.5499 127.727 66.8436C129.915 67.1373 131.46 66.1474 132.429 64.3091C132.917 63.2819 133.338 62.2246 133.691 61.1437H133.718ZM98.4989 51.3809C103.478 56.8198 106.917 62.5251 109.872 68.5405C110.754 70.236 112.13 71.6243 113.818 72.5218C115.45 73.5008 116.898 72.995 118.285 72.1302C119.673 71.2654 120.332 70.0525 120.005 68.4753C119.593 66.1286 119.018 63.8134 118.285 61.5461C117.137 58.3999 115.829 55.3139 114.367 52.3C113.132 49.722 111.88 47.0787 110.182 44.8053C107.151 40.7914 102.373 41.3353 100.202 45.8278C99.3859 47.5138 99.043 49.4283 98.4989 51.3809ZM169.455 87.5657C168.231 89.4584 167.164 91.6503 165.602 93.3853C163.235 96.0068 162.587 98.8242 163.366 102.169C163.834 104.176 163.883 106.281 164.454 108.261C164.899 109.783 165.598 111.219 166.522 112.508C167.283 113.518 168.261 114.343 169.384 114.923C172.209 116.419 175.24 115.07 176.154 111.959C176.564 110.586 176.811 109.169 176.889 107.738C177.117 103.284 177.248 98.8296 177.346 94.3697C177.32 93.4368 177.22 92.5074 177.046 91.5905L169.455 87.5657ZM103.571 63.7271C102.031 61.5516 100.659 59.425 99.0376 57.4833C97.9975 56.2748 96.7812 55.2297 95.4297 54.3831C94.909 54.0111 94.3127 53.7583 93.6832 53.6428C93.0537 53.5274 92.4065 53.5521 91.7876 53.7151C91.1687 53.8782 90.5934 54.1757 90.1027 54.5863C89.6119 54.997 89.2178 55.5107 88.9484 56.0909C88.3922 57.2346 87.9844 58.4446 87.7349 59.6915C86.4234 65.2772 88.5838 70.2592 90.3143 75.5567C92.1348 75.1355 93.8193 74.2618 95.212 73.0167C95.0923 71.0805 92.8774 70.058 93.9277 67.79C95.6637 69.1551 97.133 70.3571 98.6512 71.4993C99.7878 72.3707 100.97 73.1805 102.194 73.925C102.743 74.2696 103.394 74.4135 104.037 74.3322C104.68 74.2509 105.275 73.9494 105.72 73.479C106.749 72.5435 107.266 71.3851 106.809 70.0417C106.264 68.5786 105.785 67.0611 104.3 65.832C103.679 66.2616 103.043 66.6859 102.422 67.1373C101.802 67.5887 101.492 68.5079 100.496 67.7845C100.452 65.8102 102.624 65.6144 103.571 63.7271ZM146.48 40.2094C146.537 39.4175 146.417 38.6228 146.128 37.8832C145.839 37.1437 145.388 36.4779 144.809 35.9345C143.551 34.5112 142.136 33.234 140.592 32.1273C138.366 30.6261 134.959 30.6968 133.387 31.9695C131.52 33.487 131.074 35.929 132.129 38.9585C132.233 39.2576 132.418 39.5024 132.51 39.8341C133.299 42.4122 134.089 44.9902 134.85 47.5791C135.471 49.7111 135.982 51.8813 136.673 53.997C137.392 56.2106 139.024 56.9394 141.136 56.129C141.879 55.8427 142.558 55.4123 143.135 54.8625C143.711 54.3127 144.173 53.6544 144.493 52.9255C145.204 51.3114 145.381 49.5129 144.999 47.7912C144.58 45.3165 144.134 42.8418 143.699 40.3672C144.178 40.291 144.472 40.2149 144.787 40.1986C145.223 40.1931 145.669 40.2094 146.48 40.2094ZM147.677 44.827C148.079 48.0196 148.444 50.9512 148.803 53.8447C151.258 53.687 153.614 53.4096 155.976 53.4041C160.438 53.4041 160.949 53.0887 162.234 48.7865C162.675 47.4329 163.003 46.0448 163.213 44.6367C163.319 43.7149 163.198 42.7812 162.86 41.9172C161.924 39.6492 160.139 38.7844 157.45 39.0618C153.211 39.4861 150.403 42.2436 147.677 44.827ZM158.707 103.3L157.995 103.355C157.915 103.807 157.879 104.266 157.886 104.725C158.479 110.599 159.072 116.473 159.73 122.342C159.856 123.933 160.172 125.503 160.672 127.019C161.212 128.324 161.946 129.54 162.849 130.625C164.884 133.247 170.108 132.545 171.235 128.482C171.888 126.116 172.034 123.789 170.821 121.444C169.972 121.162 169.085 120.835 168.182 120.552C166.715 120.131 165.36 119.389 164.214 118.382C163.068 117.375 162.16 116.127 161.553 114.727C160.744 112.833 160.105 110.871 159.643 108.864C159.192 107.042 159.007 105.155 158.707 103.3Z" fill="white"/>
<path d="M130.448 56.8415C128.875 58.4732 126.867 59.115 124.424 60.4203C124.669 59.2238 124.614 58.6853 124.848 58.4895C126.426 57.1624 128.151 56.1399 130.448 56.8415Z" fill="white"/>
<path d="M112.104 67.0447C114.232 63.5639 114.281 63.553 117.367 64.2165C116.126 65.6633 114.553 66.0929 112.104 67.0447Z" fill="white"/>
<path d="M137.643 47.318C139.819 44.5985 140.641 44.3973 142.916 45.9419C141.314 46.8672 139.492 47.3426 137.643 47.318Z" fill="white"/>
</svg>
