<svg width="40" height="40" viewBox="0 0 40 40" fill="none" xmlns="http://www.w3.org/2000/svg">
<path d="M20 17.5C23.4518 17.5 26.25 14.7018 26.25 11.25C26.25 7.79822 23.4518 5 20 5C16.5482 5 13.75 7.79822 13.75 11.25C13.75 14.7018 16.5482 17.5 20 17.5Z" stroke="white" stroke-width="3" stroke-linecap="round" stroke-linejoin="round"/>
<path d="M22.5 35H7.8C7.76121 35.0017 7.72247 34.9955 7.68614 34.9819C7.6498 34.9682 7.61661 34.9473 7.58858 34.9204C7.56054 34.8935 7.53824 34.8613 7.52302 34.8255C7.50779 34.7898 7.49996 34.7514 7.5 34.7125V32.5C7.50006 30.3059 8.07767 28.1504 9.1748 26.2502C10.2719 24.35 11.8499 22.772 13.7501 21.675C15.6504 20.5779 17.8059 20.0004 20.0001 20.0004C22.1943 20.0004 24.3498 20.578 26.25 21.675" stroke="white" stroke-width="3" stroke-linecap="round" stroke-linejoin="round"/>
<path d="M30.9875 26.0875C31.7137 25.3908 32.6811 25.0018 33.6875 25.0018C34.6939 25.0018 35.6613 25.3908 36.3875 26.0875C36.7391 26.4257 37.0188 26.8315 37.2099 27.2804C37.4009 27.7293 37.4994 28.2121 37.4994 28.7C37.4994 29.1879 37.4009 29.6708 37.2099 30.1197C37.0188 30.5686 36.7391 30.9743 36.3875 31.3125L35.4 32.2625L30 37.5L24.6 32.2625L23.6125 31.3125C23.2609 30.9743 22.9812 30.5686 22.7901 30.1197C22.599 29.6708 22.5005 29.1879 22.5005 28.7C22.5005 28.2121 22.599 27.7293 22.7901 27.2804C22.9812 26.8315 23.2609 26.4257 23.6125 26.0875C24.3387 25.3908 25.3061 25.0018 26.3125 25.0018C27.3189 25.0018 28.2863 25.3908 29.0125 26.0875L30 27.0375L30.9875 26.0875Z" stroke="#8540ED" stroke-width="3" stroke-linecap="round" stroke-linejoin="round"/>
</svg>
