<svg width="64" height="64" viewBox="0 0 64 64" fill="none" xmlns="http://www.w3.org/2000/svg">
<path d="M29.22 5.88035C23.5272 6.54746 18.2324 9.13683 14.2104 13.2206C10.1885 17.3043 7.68021 22.638 7.10001 28.3404C6.50923 34.3136 8.1084 40.298 11.6 45.1804L8.28001 57.6003C8.25793 57.6672 8.25486 57.7389 8.27112 57.8073C8.28739 57.8758 8.32236 57.9384 8.37214 57.9882C8.42191 58.038 8.48453 58.073 8.55302 58.0892C8.62151 58.1055 8.69317 58.1024 8.76001 58.0804L23.38 54.0804C28.946 56.2968 35.1547 56.2681 40.7 54.0004C45.4648 52.1562 49.5669 48.9253 52.4762 44.7253C55.3856 40.5253 56.9684 35.5493 57.02 30.4404C56.9744 26.9469 56.1981 23.5016 54.7413 20.3261C53.2844 17.1505 51.1791 14.315 48.5608 12.0018C45.9424 9.68867 42.869 7.94902 39.5381 6.89476C36.2071 5.8405 32.6925 5.49496 29.22 5.88035Z" fill="url(#paint0_linear)"/>
<path d="M33.5801 23.7401C34.742 22.6254 36.2899 22.0029 37.9001 22.0029C39.5103 22.0029 41.0582 22.6254 42.2201 23.7401C42.7827 24.2813 43.2302 24.9304 43.5359 25.6487C43.8416 26.367 43.9992 27.1395 43.9992 27.9201C43.9992 28.7007 43.8416 29.4733 43.5359 30.1916C43.2302 30.9098 42.7827 31.559 42.2201 32.1001L40.6401 33.6201L32.0001 42.0001L23.3601 33.6201L21.7801 32.1001C21.2175 31.559 20.77 30.9098 20.4643 30.1916C20.1586 29.4733 20.001 28.7007 20.001 27.9201C20.001 27.1395 20.1586 26.367 20.4643 25.6487C20.77 24.9304 21.2175 24.2813 21.7801 23.7401C22.942 22.6254 24.4899 22.0029 26.1001 22.0029C27.7103 22.0029 29.2582 22.6254 30.4201 23.7401L32.0001 25.2601L33.5801 23.7401Z" stroke="white" stroke-width="3" stroke-linecap="round" stroke-linejoin="round"/>
<defs>
<linearGradient id="paint0_linear" x1="7.37392" y1="63.7793" x2="43.9089" y2="28.4234" gradientUnits="userSpaceOnUse">
<stop stop-color="#AF4BA2"/>
<stop offset="1" stop-color="#8340E8"/>
</linearGradient>
</defs>
</svg>
