<svg width="48" height="48" viewBox="0 0 48 48" fill="none" xmlns="http://www.w3.org/2000/svg">
<path d="M23.9999 44.9549C35.573 44.9549 44.9549 35.573 44.9549 23.9999C44.9549 12.4268 35.573 3.04492 23.9999 3.04492C12.4268 3.04492 3.04492 12.4268 3.04492 23.9999C3.04492 35.573 12.4268 44.9549 23.9999 44.9549Z" stroke="#AF4BA2" stroke-width="3" stroke-linecap="round" stroke-linejoin="round"/>
<path d="M33.165 22.2748L21.165 15.8848C20.8666 15.7277 20.5328 15.6501 20.1957 15.6594C19.8586 15.6688 19.5296 15.7647 19.2403 15.9379C18.951 16.1112 18.7112 16.356 18.5439 16.6488C18.3766 16.9416 18.2874 17.2725 18.285 17.6098V30.3898C18.2874 30.727 18.3766 31.0579 18.5439 31.3507C18.7112 31.6435 18.951 31.8883 19.2403 32.0616C19.5296 32.2348 19.8586 32.3307 20.1957 32.3401C20.5328 32.3494 20.8666 32.2718 21.165 32.1148L33.165 25.7248C33.4791 25.5592 33.742 25.311 33.9254 25.0071C34.1088 24.7031 34.2057 24.3548 34.2057 23.9998C34.2057 23.6447 34.1088 23.2964 33.9254 22.9925C33.742 22.6885 33.4791 22.4403 33.165 22.2748V22.2748Z" stroke="#AF4BA2" stroke-width="3" stroke-linecap="round" stroke-linejoin="round"/>
</svg>
