<svg width="23" height="29" viewBox="0 0 23 29" fill="none" xmlns="http://www.w3.org/2000/svg">
<path d="M22.8439 13.1974C22.0452 14.0953 21.7711 14.6861 21.3458 14.8326C16.1473 16.652 15.6227 20.9762 15.4526 25.5273C15.4526 26.1464 15.4526 26.8742 15.1312 27.3373C14.8099 27.8005 14.0443 28.2211 13.6095 28.1124C13.254 28.0252 12.9195 27.8678 12.6257 27.6495C12.3319 27.4312 12.0847 27.1563 11.8987 26.8411C11.2796 25.4233 11.0102 23.8354 10.4809 22.3657C9.12458 18.5613 7.30038 17.29 3.28336 17.205C2.58166 17.2623 1.87532 17.2 1.1945 17.0207C0.688832 16.808 0.0413818 16.2173 0.00357448 15.7588C-0.0436846 15.187 0.386373 14.497 0.778624 13.9961C1.13272 13.6833 1.56891 13.4783 2.03572 13.4053C6.71437 12.1388 8.07543 8.67942 8.27392 4.29378C8.304 3.21687 8.58046 2.16119 9.08205 1.20776C9.4554 0.588662 10.4715 -0.077692 11.0906 0.00737443C11.7097 0.0924408 12.3666 1.04708 12.617 1.76069C12.9998 2.8571 12.9998 4.07638 13.2456 5.22951C13.9781 8.65107 15.6841 11.0896 19.4696 11.6426C20.5329 11.8222 21.5065 12.5641 22.8439 13.1974ZM8.19358 14.1189L12.7163 18.1832L15.0083 14.4356L10.8732 9.9696C9.96107 11.3732 9.08678 12.7673 8.21248 14.1189H8.19358Z" fill="#7C3CE9"/>
</svg>
