<svg width="48" height="48" viewBox="0 0 48 48" fill="none" xmlns="http://www.w3.org/2000/svg">
<path d="M37.0899 40.8319L35.8598 34.5228C36.3908 34.4292 36.8913 34.2088 37.3188 33.8801C37.7462 33.5515 38.0879 33.1244 38.3148 32.6353L38.5163 32.175L38.9743 31.9667C39.8492 31.5988 40.5983 30.9844 41.1302 30.1984C41.6622 29.4124 41.9541 28.4887 41.9704 27.5398C41.9705 26.9628 41.8614 26.391 41.6489 25.8545L41.5991 25.733C42.2531 25.0918 42.7725 24.3265 43.1267 23.482C43.481 22.6374 43.6631 21.7306 43.6624 20.8148C43.6007 19.9262 43.3178 19.0671 42.8395 18.3157C42.3612 17.5644 41.7026 16.9445 40.9237 16.5124L40.3486 16.2158L40.2347 15.5774C39.8092 13.6123 38.7081 11.8587 37.123 10.6218C35.5379 9.38484 33.5692 8.74296 31.5597 8.80787C30.3433 8.80639 29.1382 9.04197 28.012 9.50145C28.012 9.50145 25.0642 6.87143 22.1353 7.19595C21.2251 7.23195 20.3345 7.47085 19.5284 7.8952C18.7224 8.31956 18.0214 8.91864 17.4766 9.64866L16.9771 10.4305L16.0745 10.2252C15.6488 10.1287 15.2137 10.0799 14.7772 10.0796C13.5419 10.0342 12.3303 10.4265 11.3561 11.1873C10.3818 11.948 9.70757 13.0284 9.45221 14.2379L9.29975 15.1069L8.43714 15.2982C7.30387 15.5056 6.27607 16.0955 5.52543 16.9695C4.77479 17.8435 4.34677 18.9486 4.31286 20.1002C4.31214 20.8691 4.50633 21.6257 4.8773 22.2992L5.22144 22.9295L4.8773 23.5604C4.50534 24.2338 4.30984 24.9903 4.30902 25.7596C4.29457 26.7121 4.64798 27.6336 5.29572 28.3322C5.94345 29.0309 6.83562 29.4528 7.78658 29.5103C8.25817 30.3255 8.89711 31.0316 9.66131 31.582C10.4255 32.1324 11.2976 32.5147 12.2203 32.7037C13.9369 32.7822 15.6423 32.3899 17.1521 31.5694C17.6593 32.255 18.3221 32.8102 19.0861 33.1893C19.85 33.5684 20.6931 33.7605 21.5458 33.7497C22.7497 33.7591 23.923 33.3708 24.8837 32.6452L25.7554 31.9947L25.766 32.0045L27.8111 33.6342C28.7845 34.1901 29.8692 34.5226 30.9868 34.6077L33.5278 40.8319" stroke="#AF4BA2" stroke-width="3" stroke-linecap="round" stroke-linejoin="round"/>
<path d="M27.0063 22.9214C27.0063 22.9214 23.3868 27.4193 25.7822 31.9179" stroke="#AF4BA2" stroke-width="3" stroke-linecap="round" stroke-linejoin="round"/>
<path d="M19.918 21.9475C21.1616 22.1138 22.3291 22.6414 23.2756 23.465C24.2222 24.2885 24.9063 25.3718 25.243 26.5805" stroke="#AF4BA2" stroke-width="3" stroke-linecap="round" stroke-linejoin="round"/>
<path d="M26.1711 18.5742C26.1711 18.5742 21.8694 12.6119 28.0132 9.50146" stroke="#AF4BA2" stroke-width="3" stroke-linecap="round" stroke-linejoin="round"/>
<path d="M19.918 13.7586C20.1233 13.3337 20.4221 12.9608 20.792 12.6677C21.1619 12.3747 21.5933 12.1691 22.0539 12.0664C22.5146 11.9637 22.9924 11.9666 23.4518 12.0748C23.9111 12.1829 24.3401 12.3936 24.7064 12.6911" stroke="#AF4BA2" stroke-width="3" stroke-linecap="round" stroke-linejoin="round"/>
<path d="M5.26465 22.8543C5.46999 22.4294 5.7688 22.0565 6.1387 21.7634C6.50861 21.4704 6.94001 21.2648 7.40062 21.1621C7.86123 21.0594 8.3391 21.0623 8.79845 21.1705C9.2578 21.2786 9.68672 21.4893 10.0531 21.7868" stroke="#AF4BA2" stroke-width="3" stroke-linecap="round" stroke-linejoin="round"/>
<path d="M36.8311 26.8143C37.0364 26.3894 37.3352 26.0164 37.7051 25.7234C38.075 25.4303 38.5064 25.2248 38.967 25.1221C39.4276 25.0194 39.9055 25.0222 40.3649 25.1304C40.8242 25.2386 41.2531 25.4493 41.6195 25.7467" stroke="#AF4BA2" stroke-width="3" stroke-linecap="round" stroke-linejoin="round"/>
</svg>
