<svg width="48" height="48" viewBox="0 0 48 48" fill="none" xmlns="http://www.w3.org/2000/svg">
<path d="M22.5 42H10.5C10.1022 42 9.72064 41.842 9.43934 41.5607C9.15804 41.2794 9 40.8978 9 40.5V7.5C9 7.10218 9.15804 6.72064 9.43934 6.43934C9.72064 6.15804 10.1022 6 10.5 6H25.395L39 19.605V23.25" stroke="#AF4BA2" stroke-width="3" stroke-linecap="round" stroke-linejoin="round"/>
<path d="M25.5 6V18C25.5 18.3978 25.658 18.7794 25.9393 19.0607C26.2206 19.342 26.6022 19.5 27 19.5H39" stroke="#AF4BA2" stroke-width="3" stroke-linecap="round" stroke-linejoin="round"/>
<path d="M35.49 42.5551C35.6317 42.6775 35.8127 42.7449 36 42.7449C36.1873 42.7449 36.3683 42.6775 36.51 42.5551L41.91 37.5001L42.9 36.5851C43.3147 36.201 43.6478 35.7376 43.8798 35.2222C44.1117 34.7068 44.2376 34.1501 44.25 33.5851C44.2402 33.0196 44.1154 32.462 43.8833 31.9463C43.6513 31.4306 43.3167 30.9674 42.9 30.5851C42.0194 29.785 40.8723 29.3418 39.6825 29.3418C38.4927 29.3418 37.3456 29.785 36.465 30.5851L36 31.0201L35.535 30.5851C34.6544 29.785 33.5073 29.3418 32.3175 29.3418C31.1277 29.3418 29.9806 29.785 29.1 30.5851C28.6833 30.9674 28.3487 31.4306 28.1167 31.9463C27.8846 32.462 27.7598 33.0196 27.75 33.5851C27.7624 34.1501 27.8883 34.7068 28.1202 35.2222C28.3522 35.7376 28.6853 36.201 29.1 36.5851L30.09 37.5001L35.49 42.5551Z" stroke="#AF4BA2" stroke-width="3" stroke-linecap="round" stroke-linejoin="round"/>
</svg>
