<svg width="48" height="48" viewBox="0 0 48 48" fill="none" xmlns="http://www.w3.org/2000/svg">
<path d="M22.185 36.8849L36 12.9149C36.2224 12.5428 36.3683 12.1301 36.4291 11.701C36.4899 11.2718 36.4643 10.8348 36.3539 10.4156C36.2436 9.99648 36.0506 9.60358 35.7863 9.26001C35.522 8.91644 35.1918 8.6291 34.815 8.41488L30.42 5.99988C30.0465 5.7801 29.6331 5.63674 29.2037 5.57814C28.7744 5.51953 28.3377 5.54685 27.9189 5.65851C27.5002 5.77016 27.1079 5.96393 26.7647 6.22853C26.4216 6.49314 26.1344 6.82332 25.92 7.19988L12.09 31.1999L11.55 40.7849C11.526 41.0891 11.5876 41.3939 11.7279 41.6649C11.8681 41.9359 12.0814 42.1622 12.3436 42.3183C12.6059 42.4744 12.9065 42.554 13.2116 42.5481C13.5167 42.5422 13.814 42.451 14.07 42.2849L22.185 36.8849Z" stroke="#AF4BA2" stroke-width="3" stroke-linecap="round" stroke-linejoin="round"/>
<path d="M12.96 29.6851L22.98 35.4751" stroke="#AF4BA2" stroke-width="3" stroke-linecap="round" stroke-linejoin="round"/>
<path d="M29.145 10.6799L24.975 17.4299" stroke="#AF4BA2" stroke-width="3" stroke-linecap="round" stroke-linejoin="round"/>
</svg>
