<svg width="126" height="132" viewBox="0 0 126 132" fill="none" xmlns="http://www.w3.org/2000/svg">
<g opacity="0.5">
<path d="M71.1694 59.7968C75.3329 59.2775 78.7925 58.8722 82.2382 58.4055C84.3128 58.1217 86.609 57.9675 87.0295 60.6896C87.3916 63.0447 85.6771 64.1249 83.4549 64.6286C80.292 65.3472 77.2129 66.4344 73.5933 67.5116L85.1106 75.5414C86.867 76.762 88.7618 77.8306 90.3349 79.2636C91.15 80.02 91.3739 81.4556 91.8848 82.5932C90.648 82.8213 89.2001 83.6049 88.2097 83.1719C83.3537 81.0496 78.6224 78.5876 73.8367 76.2802C72.3829 75.576 70.8832 74.9848 68.8897 74.118C69.329 78.089 69.7509 81.5641 70.1776 85.0552C70.3154 86.2274 70.7142 87.4791 70.474 88.5566C70.2539 89.5328 69.5039 90.718 68.6752 91.0585C68.06 91.3176 66.5831 90.6199 66.1291 89.915C65.3657 88.5616 64.7956 87.1067 64.4374 85.5972C63.6171 82.7344 62.9344 79.8722 62.0529 76.5344C58.2894 81.5409 54.825 86.1633 51.3381 90.7659C50.595 91.7489 49.9103 92.8592 48.9442 93.5386C48.2422 94.0398 46.6432 94.3822 46.2973 93.9868C45.6825 93.2876 45.2361 91.7618 45.5568 90.971C47.1516 87.0585 48.9863 83.2531 50.8083 79.4469C51.8821 77.213 53.0996 75.0566 54.6723 72.0431C52.354 72.3906 50.8518 72.6233 49.3502 72.8297C46.4698 73.2211 43.5949 73.7156 40.6963 73.89C40.2478 73.8378 39.8149 73.6703 39.4375 73.4029C39.06 73.1356 38.75 72.7769 38.536 72.3599C38.3184 71.6934 38.8731 70.3406 39.4936 69.9582C41.332 68.8713 43.2537 67.9352 45.2419 67.1579C47.3187 66.303 49.4529 65.628 52.1521 64.6514C50.141 63.0621 48.5292 61.7663 46.8886 60.5002C43.256 57.7093 39.5974 54.9431 35.9808 52.1215C34.8096 51.2033 33.4658 49.8979 34.8044 48.5046C35.4359 47.849 37.2705 47.8109 38.2633 48.2519C44.3311 50.9501 50.333 53.8626 56.9055 57.0424C56.5116 53.8034 56.1704 50.9547 55.8115 48.1023C55.6265 46.5164 54.997 44.8502 55.2926 43.4523C55.5882 42.0544 56.8876 40.9377 57.746 39.6961C58.8583 40.6264 60.5869 41.3582 60.9646 42.5243C62.2129 46.3564 62.9729 50.3553 63.9392 54.2487L65.1422 54.287C67.6316 50.676 70.1176 47.0675 72.6001 43.4614C73.6798 41.8966 74.5848 40.1497 75.8791 38.8037C76.6307 38.0187 77.9884 37.8613 79.0794 37.4213C79.3064 38.7123 80.0964 40.2727 79.7024 41.2669C77.608 46.225 75.1906 51.0207 72.9045 55.8799C72.3587 56.9384 71.9157 58.0769 71.1694 59.7968Z" fill="white"/>
</g>
</svg>
