<svg width="22" height="26" viewBox="0 0 22 26" fill="none" xmlns="http://www.w3.org/2000/svg">
<path d="M21.9087 13.6092C21.266 14.1999 20.4201 15.5941 19.3 15.8682C16.2849 16.6243 15.0467 18.4154 14.8671 21.3502C14.7395 23.165 14.4182 25.131 11.9985 25.2822C9.79624 25.4381 8.12799 23.751 7.68375 21.1234C7.11664 17.7255 6.6346 17.2812 3.18468 16.9646C1.7102 16.8275 0.245167 16.5393 0.0419529 14.7387C-0.170713 12.8767 0.396396 10.8682 2.40491 10.6933C6.89925 10.301 7.74992 7.61673 7.75937 3.8171C7.75937 1.92673 8.70455 0.145062 10.8926 0.00801074C13.1753 -0.133767 13.8936 1.629 14.3237 3.50046C14.5073 4.10295 14.6323 4.72176 14.697 5.34829C14.7679 8.08459 15.784 9.76229 18.8511 9.83318C20.6091 9.87571 21.6914 11.0288 21.9087 13.6092Z" fill="#7D3CE9"/>
</svg>
