<svg width="48" height="48" viewBox="0 0 48 48" fill="none" xmlns="http://www.w3.org/2000/svg">
<path d="M25.92 5.475L25.71 5.25H10.5C9.90326 5.25 9.33097 5.48705 8.90901 5.90901C8.48705 6.33097 8.25 6.90326 8.25 7.5V40.5C8.25 41.0967 8.48705 41.669 8.90901 42.091C9.33097 42.5129 9.90326 42.75 10.5 42.75H37.5C38.0967 42.75 38.669 42.5129 39.091 42.091C39.5129 41.669 39.75 41.0967 39.75 40.5V19.29L39.525 19.08L25.92 5.475Z" stroke="#AF4BA2" stroke-width="3" stroke-linecap="round" stroke-linejoin="round"/>
<path d="M25.5 18V5.25L39.75 19.5H27C26.6022 19.5 26.2206 19.342 25.9393 19.0607C25.658 18.7794 25.5 18.3978 25.5 18Z" stroke="#AF4BA2" stroke-width="3" stroke-linecap="round" stroke-linejoin="round"/>
</svg>
