<svg width="80" height="80" viewBox="0 0 80 80" fill="none" xmlns="http://www.w3.org/2000/svg">
<path d="M36.5249 7.3502C29.409 8.18408 22.7904 11.4208 17.763 16.5255C12.7356 21.6302 9.6002 28.2973 8.87495 35.4252C8.13647 42.8917 10.1354 50.3723 14.4999 56.4752L10.3499 72.0002C10.3224 72.0837 10.3185 72.1733 10.3388 72.2589C10.3592 72.3445 10.4029 72.4228 10.4651 72.485C10.5273 72.5472 10.6056 72.591 10.6912 72.6113C10.7768 72.6316 10.8664 72.6278 10.9499 72.6002L29.2249 67.6002C36.1824 70.3708 43.9433 70.3349 50.875 67.5002C56.8309 65.195 61.9586 61.1564 65.5953 55.9064C69.2319 50.6564 71.2104 44.4364 71.2749 38.0502C71.2179 33.6833 70.2476 29.3768 68.4265 25.4073C66.6054 21.4379 63.9738 17.8935 60.7009 15.0021C57.428 12.1106 53.5862 9.93603 49.4225 8.61821C45.2589 7.30038 40.8655 6.86845 36.5249 7.3502Z" fill="url(#paint0_linear)"/>
<path d="M41.975 29.6749C43.4274 28.2815 45.3622 27.5034 47.375 27.5034C49.3877 27.5034 51.3226 28.2815 52.775 29.6749C53.4782 30.3514 54.0376 31.1628 54.4198 32.0606C54.8019 32.9584 54.9989 33.9242 54.9989 34.8999C54.9989 35.8757 54.8019 36.8414 54.4198 37.7392C54.0376 38.637 53.4782 39.4485 52.775 40.1249L50.8 42.0249L40 52.4999L29.2 42.0249L27.225 40.1249C26.5218 39.4485 25.9623 38.637 25.5802 37.7392C25.1981 36.8414 25.0011 35.8757 25.0011 34.8999C25.0011 33.9242 25.1981 32.9584 25.5802 32.0606C25.9623 31.1628 26.5218 30.3514 27.225 29.6749C28.6774 28.2815 30.6122 27.5034 32.625 27.5034C34.6377 27.5034 36.5726 28.2815 38.025 29.6749L40 31.5749L41.975 29.6749Z" stroke="white" stroke-width="5" stroke-linecap="round" stroke-linejoin="round"/>
<defs>
<linearGradient id="paint0_linear" x1="9.21734" y1="79.7238" x2="54.8861" y2="35.529" gradientUnits="userSpaceOnUse">
<stop stop-color="#AF4BA2"/>
<stop offset="1" stop-color="#8340E8"/>
</linearGradient>
</defs>
</svg>
