<svg width="54" height="54" viewBox="0 0 54 54" fill="none" xmlns="http://www.w3.org/2000/svg">
<path d="M38.0431 36.5438C37.0558 36.3213 35.9603 36.3093 35.0986 35.8335C33.3092 34.8109 31.5782 33.6809 29.9168 32.4505C28.341 31.3276 27.2853 31.2665 26.3201 32.9455C25.3981 34.4927 24.3001 35.9218 23.0447 37.2086C22.5423 37.7298 21.5146 37.7772 20.7374 38.0308C20.5408 37.122 20.0222 36.111 20.2118 35.3337C20.7726 33.2851 21.4566 31.2818 22.2604 29.3336C22.7233 28.1317 22.378 27.3603 21.2189 26.562C19.3706 25.3106 17.6016 23.941 15.9251 22.4633C15.4003 22.0064 15.3729 20.9915 15.1195 20.2358C15.877 20.0899 16.735 19.6395 17.3767 19.8646C19.7602 20.6894 22.0391 21.8599 24.4348 22.6491C24.8981 22.7632 25.371 22.7808 25.8221 22.7008C26.2732 22.6209 26.6922 22.4452 27.0511 22.1854C28.8398 20.6951 30.3371 18.9087 32.1273 17.425C32.6489 16.9285 33.7067 17.0132 34.5404 16.8442C34.6487 17.7674 35.136 18.8944 34.8061 19.5772C33.7885 21.4975 32.6622 23.3529 31.432 25.1358C30.7304 26.2285 30.7349 27.0833 31.9541 28.1457C33.8695 29.8495 35.6946 31.6505 37.4205 33.5397C37.9865 34.1477 38.1847 35.0631 38.5674 35.8501C38.3886 36.0931 38.2158 36.3184 38.0431 36.5438Z" fill="white"/>
</svg>
