<svg width="93" height="93" viewBox="0 0 93 93" fill="none" xmlns="http://www.w3.org/2000/svg">
<path d="M54.2443 40.5409C58.203 39.8606 61.4928 39.3195 64.7685 38.7225C66.7408 38.3604 68.9258 38.1073 69.3616 40.597C69.737 42.7513 68.1182 43.8304 66.0082 44.4023C63.0051 45.218 60.0866 46.3695 56.6531 47.5378L67.7269 54.3855C69.4155 55.4261 71.2341 56.3199 72.7511 57.5652C73.5372 58.2233 73.7691 59.5363 74.2705 60.5606C73.0954 60.8309 71.7266 61.6235 70.7777 61.2721C66.1251 59.5499 61.5868 57.5084 56.9988 55.612C55.605 55.033 54.169 54.5604 52.259 53.8574C52.729 57.4981 53.176 60.6822 53.6278 63.8809C53.7742 64.9552 54.1703 66.0902 53.9555 67.0955C53.7586 68.0062 53.0596 69.1355 52.2748 69.4896C51.6922 69.7582 50.2765 69.1863 49.8349 68.5582C49.0902 67.3471 48.5284 66.033 48.1676 64.6584C47.3491 62.0581 46.6617 59.4518 45.7789 56.4164C42.2594 61.2152 39.0198 65.6453 35.7585 70.0583C35.0635 71.0007 34.4258 72.0577 33.5145 72.7309C32.8524 73.227 31.3339 73.6201 30.9993 73.2722C30.4047 72.6572 29.9597 71.2718 30.2548 70.527C31.723 66.8419 33.421 63.2441 35.1069 59.646C36.1006 57.5342 37.2322 55.4867 38.6909 52.6317C36.4874 53.0643 35.0597 53.3515 33.6322 53.6145C30.8939 54.1148 28.1621 54.7098 25.4037 55.0108C24.9759 54.9844 24.5614 54.8509 24.1984 54.6226C23.8354 54.3943 23.5355 54.0785 23.3263 53.7043C23.1104 53.1002 23.6212 51.826 24.2071 51.4432C25.944 50.3521 27.7622 49.3959 29.6457 48.583C31.6126 47.6941 33.6365 46.9685 36.1946 45.9373C34.2586 44.569 32.7066 43.452 31.1276 42.3639C27.6315 39.9659 24.111 37.592 20.6298 35.165C19.5024 34.375 18.2055 33.2362 19.4624 31.8866C20.0553 31.2515 21.8022 31.1276 22.7535 31.4863C28.5677 33.6809 34.3219 36.0764 40.6231 38.6908C40.2059 35.723 39.8439 33.1126 39.465 30.4995C39.2683 29.0461 38.647 27.54 38.9104 26.2367C39.1738 24.9333 40.3969 23.8407 41.1984 22.6542C42.2698 23.4583 43.9257 24.0495 44.3006 25.1066C45.5392 28.5799 46.315 32.2308 47.286 35.7744L48.4322 35.7515C50.7563 32.3012 53.0772 28.8534 55.3948 25.4079C56.4028 23.9127 57.2421 22.2581 58.4573 20.9542C59.1629 20.194 60.4541 19.9831 61.4874 19.5246C61.7204 20.7041 62.4931 22.1049 62.1308 23.0408C60.2004 27.7142 57.9603 32.2535 55.846 36.845C55.3399 37.8474 54.9328 38.9188 54.2443 40.5409Z" fill="#313131"/>
</svg>
