<svg width="80" height="80" viewBox="0 0 80 80" fill="none" xmlns="http://www.w3.org/2000/svg">
<path d="M39.9997 74.9247C59.2883 74.9247 74.9247 59.2882 74.9247 39.9997C74.9247 20.7111 59.2883 5.07468 39.9997 5.07468C20.7112 5.07468 5.07471 20.7111 5.07471 39.9997C5.07471 59.2882 20.7112 74.9247 39.9997 74.9247Z" fill="url(#paint0_linear)"/>
<path d="M55.275 37.1245L35.275 26.4745C34.7776 26.2128 34.2212 26.0835 33.6594 26.099C33.0976 26.1145 32.5492 26.2744 32.0671 26.5632C31.5849 26.852 31.1852 27.26 30.9064 27.748C30.6275 28.236 30.479 28.7875 30.475 29.3495V50.6495C30.479 51.2115 30.6275 51.7631 30.9064 52.2511C31.1852 52.739 31.5849 53.1471 32.0671 53.4359C32.5492 53.7247 33.0976 53.8845 33.6594 53.9C34.2212 53.9156 34.7776 53.7862 35.275 53.5245L55.275 42.8745C55.7984 42.5986 56.2366 42.185 56.5422 41.6783C56.8479 41.1717 57.0094 40.5912 57.0094 39.9995C57.0094 39.4078 56.8479 38.8273 56.5422 38.3207C56.2366 37.814 55.7984 37.4004 55.275 37.1245V37.1245Z" stroke="white" stroke-width="5" stroke-linecap="round" stroke-linejoin="round"/>
<defs>
<linearGradient id="paint0_linear" x1="5.62494" y1="82.4999" x2="54.3749" y2="33.1249" gradientUnits="userSpaceOnUse">
<stop stop-color="#AF4BA2"/>
<stop offset="1" stop-color="#8340E8"/>
</linearGradient>
</defs>
</svg>
