<svg width="48" height="48" viewBox="0 0 48 48" fill="none" xmlns="http://www.w3.org/2000/svg">
<path fill-rule="evenodd" clip-rule="evenodd" d="M25.5018 46H4.42846C3.08687 46 2 44.9125 2 43.5714V4.42844C2 3.08703 3.08704 2 4.42846 2H43.5717C44.9128 2 46 3.08703 46 4.42844V43.5714C46 44.9126 44.9126 46 43.5717 46H32.3594V28.9608H38.0786L38.935 22.3203H32.3594V18.0808C32.3594 16.1582 32.8932 14.848 35.6502 14.848L39.1665 14.8465V8.90717C38.5584 8.82624 36.4711 8.64544 34.0426 8.64544C28.9728 8.64544 25.5018 11.7401 25.5018 17.4231V22.3203H19.7679V28.9608H25.5018V46Z" fill="#8540ED"/>
</svg>
