<svg width="27" height="27" viewBox="0 0 27 27" fill="none" xmlns="http://www.w3.org/2000/svg">
<path d="M26.7298 14.7023C25.8366 15.1135 24.9717 15.7704 24.0407 15.8885C22.0889 16.1044 20.125 16.1928 18.1617 16.1532C16.3233 16.1532 15.4632 16.7439 15.6097 18.7666C15.7192 20.6503 15.6273 22.5404 15.3356 24.4046C15.2222 25.156 14.4424 25.8224 13.9698 26.5124C13.3271 25.8555 12.3772 25.3073 12.1078 24.5275C11.4457 22.4352 10.9045 20.3066 10.4868 18.1522C10.2032 16.8431 9.51799 16.3942 8.18055 16.4178C6.05943 16.474 3.93697 16.3808 1.82893 16.139C1.17203 16.0681 0.604917 15.2174 0 14.7259C0.515124 14.1399 0.945182 13.2326 1.569 13.0341C3.87997 12.2874 6.29492 11.8998 8.59643 11.1153C9.02069 10.9307 9.40072 10.6577 9.7112 10.3146C10.0217 9.97157 10.2555 9.56626 10.397 9.12574C10.9972 6.76278 11.2099 4.32421 11.8148 1.96598C11.9566 1.22401 12.8309 0.652176 13.3932 0C13.9745 0.723064 14.9622 1.38942 15.0709 2.17392C15.3061 4.43467 15.4213 6.70629 15.4159 8.97923C15.4537 10.3403 15.9169 11.0681 17.4433 11.2335C19.8603 11.5231 22.2586 11.9507 24.6267 12.5142C25.3971 12.6891 26.0445 13.3507 26.7676 13.7902C26.7581 14.1068 26.7439 14.4046 26.7298 14.7023Z" fill="#7D3CE9"/>
</svg>
