<svg width="48" height="48" viewBox="0 0 48 48" fill="none" xmlns="http://www.w3.org/2000/svg">
<path d="M25.4651 3.83951C24.9831 3.79228 24.4948 3.76847 24 3.76807C23.5056 3.76807 23.0172 3.79191 22.5349 3.83959C12.883 4.78564 7.63964 15.735 12.2375 24.2739L22.5027 43.3379C22.6483 43.6083 22.8644 43.8342 23.128 43.9916C23.3916 44.1491 23.6929 44.2322 24 44.2322C24.307 44.2322 24.6084 44.1491 24.872 43.9916C25.1356 43.8342 25.3517 43.6083 25.4972 43.3379L35.7624 24.2739C40.3603 15.7349 35.117 4.78556 25.4651 3.83951Z" stroke="#AF4BA2" stroke-width="3" stroke-linecap="round" stroke-linejoin="round"/>
<path d="M24 12.3645H24C21.3224 12.3645 19.1519 14.5351 19.1519 17.2127V17.2127C19.1519 19.8902 21.3224 22.0608 24 22.0608H24C26.6776 22.0608 28.8482 19.8902 28.8482 17.2127V17.2127C28.8482 14.5351 26.6776 12.3645 24 12.3645Z" stroke="#AF4BA2" stroke-width="3" stroke-linecap="round" stroke-linejoin="round"/>
</svg>
