<svg width="21" height="22" viewBox="0 0 21 22" fill="none" xmlns="http://www.w3.org/2000/svg">
<path d="M0.000716484 11.1709C-0.0692835 5.37087 5.00072 -0.07913 10.4707 0.000869963C13.1708 0.0586666 15.7383 1.18289 17.6121 3.12788C19.4859 5.07286 20.5136 7.68047 20.4707 10.3809C20.4707 16.0609 15.6507 21.1709 10.2307 21.3009C7.5324 21.3089 4.94085 20.2474 3.0235 18.3487C1.10614 16.4501 0.0192226 13.8691 0.000716484 11.1709ZM10.2807 6.17087C8.82072 8.58087 7.57072 9.92087 7.28072 11.4309C7.17072 12.0609 9.61072 13.9609 10.0807 13.7209C11.4266 13.0203 12.4456 11.8218 12.9207 10.3809C13.1407 9.47087 11.6707 8.21087 10.2807 6.12087V6.17087Z" fill="#15141D"/>
</svg>
