<svg width="48" height="48" viewBox="0 0 48 48" fill="none" xmlns="http://www.w3.org/2000/svg">
<path d="M21.9149 4.41002C17.6453 4.91035 13.6742 6.85238 10.6578 9.91519C7.64133 12.978 5.7601 16.9783 5.32494 21.255C4.88186 25.7349 6.08124 30.2233 8.69994 33.885L6.20994 43.2C6.19339 43.2501 6.19108 43.3039 6.20328 43.3553C6.21548 43.4066 6.24171 43.4536 6.27904 43.4909C6.31637 43.5283 6.36334 43.5545 6.4147 43.5667C6.46607 43.5789 6.51981 43.5766 6.56994 43.56L17.5349 40.56C21.7094 42.2224 26.366 42.2009 30.5249 40.5C34.0985 39.1169 37.1751 36.6937 39.3571 33.5437C41.5391 30.3938 42.7262 26.6617 42.7649 22.83C42.7307 20.2099 42.1485 17.626 41.0559 15.2443C39.9632 12.8627 38.3843 10.736 36.4205 9.00114C34.4568 7.26626 32.1517 5.96152 29.6535 5.17083C27.1553 4.38013 24.5193 4.12097 21.9149 4.41002V4.41002Z" stroke="#AF4BA2" stroke-width="3" stroke-linecap="round" stroke-linejoin="round"/>
<path d="M25.1849 17.8049C26.0564 16.9688 27.2173 16.502 28.4249 16.502C29.6326 16.502 30.7935 16.9688 31.6649 17.8049C32.0869 18.2107 32.4225 18.6976 32.6518 19.2363C32.8811 19.775 32.9993 20.3544 32.9993 20.9399C32.9993 21.5253 32.8811 22.1047 32.6518 22.6434C32.4225 23.1821 32.0869 23.669 31.6649 24.0749L30.4799 25.2149L23.9999 31.4999L17.5199 25.2149L16.3349 24.0749C15.913 23.669 15.5773 23.1821 15.3481 22.6434C15.1188 22.1047 15.0006 21.5253 15.0006 20.9399C15.0006 20.3544 15.1188 19.775 15.3481 19.2363C15.5773 18.6976 15.913 18.2107 16.3349 17.8049C17.2064 16.9688 18.3673 16.502 19.5749 16.502C20.7826 16.502 21.9435 16.9688 22.8149 17.8049L23.9999 18.9449L25.1849 17.8049Z" stroke="#AF4BA2" stroke-width="3" stroke-linecap="round" stroke-linejoin="round"/>
</svg>
