<svg width="48" height="48" viewBox="0 0 48 48" fill="none" xmlns="http://www.w3.org/2000/svg">
<path d="M41.4404 19.0206H29.6142C29.5308 19.0206 29.4483 19.0041 29.3713 18.9723C29.2943 18.9404 29.2244 18.8936 29.1654 18.8347C29.1065 18.7758 29.0598 18.7058 29.0279 18.6288C28.996 18.5518 28.9795 18.4693 28.9795 18.3859V6.55962C28.9795 6.39132 28.9127 6.22991 28.7937 6.11091C28.6746 5.9919 28.5132 5.92505 28.3449 5.92505H19.655C19.5717 5.92505 19.4891 5.94146 19.4121 5.97336C19.3351 6.00525 19.2652 6.052 19.2062 6.11093C19.1473 6.16986 19.1006 6.23982 19.0687 6.31682C19.0368 6.39382 19.0204 6.47634 19.0204 6.55968V18.386C19.0204 18.4693 19.004 18.5519 18.9721 18.6289C18.9402 18.7059 18.8934 18.7758 18.8345 18.8347C18.7756 18.8937 18.7056 18.9404 18.6286 18.9723C18.5516 19.0042 18.4691 19.0206 18.3858 19.0206H6.55944C6.4761 19.0206 6.39357 19.037 6.31658 19.0689C6.23958 19.1008 6.16962 19.1476 6.11069 19.2065C6.05175 19.2654 6.00501 19.3354 5.97311 19.4124C5.94122 19.4894 5.9248 19.5719 5.9248 19.6552V28.345C5.9248 28.4283 5.94122 28.5108 5.97311 28.5878C6.00501 28.6648 6.05175 28.7348 6.11069 28.7937C6.16962 28.8527 6.23958 28.8994 6.31658 28.9313C6.39357 28.9632 6.4761 28.9796 6.55944 28.9796H18.3858C18.5541 28.9796 18.7155 29.0465 18.8345 29.1655C18.9535 29.2845 19.0204 29.4459 19.0204 29.6142V41.4405C19.0204 41.5239 19.0368 41.6064 19.0687 41.6834C19.1006 41.7604 19.1473 41.8304 19.2062 41.8893C19.2652 41.9482 19.3351 41.995 19.4121 42.0269C19.4891 42.0588 19.5717 42.0752 19.655 42.0752H28.3449C28.4283 42.0752 28.5108 42.0588 28.5878 42.0269C28.6648 41.995 28.7348 41.9482 28.7937 41.8893C28.8526 41.8304 28.8994 41.7604 28.9312 41.6834C28.9631 41.6064 28.9796 41.5239 28.9795 41.4405V29.6142C28.9795 29.4458 29.0464 29.2844 29.1654 29.1654C29.2844 29.0464 29.4459 28.9795 29.6142 28.9795H41.4404C41.5237 28.9795 41.6062 28.9631 41.6832 28.9312C41.7602 28.8993 41.8302 28.8526 41.8891 28.7937C41.948 28.7347 41.9948 28.6648 42.0267 28.5878C42.0586 28.5108 42.075 28.4283 42.075 28.3449V19.6552C42.075 19.5718 42.0586 19.4893 42.0267 19.4123C41.9948 19.3353 41.948 19.2654 41.8891 19.2064C41.8302 19.1475 41.7602 19.1008 41.6832 19.0689C41.6062 19.037 41.5237 19.0206 41.4404 19.0206V19.0206Z" stroke="#AF4BA2" stroke-width="3" stroke-linecap="round" stroke-linejoin="round"/>
</svg>
