<svg width="134" height="27" viewBox="0 0 134 27" fill="none" xmlns="http://www.w3.org/2000/svg">
<path fill-rule="evenodd" clip-rule="evenodd" d="M78.7798 0.867739C73.9909 1.59059 71.2288 4.50803 71.2288 8.84335C71.2288 11.7332 72.1752 13.1167 75.7309 15.4267C78.4843 17.2151 79.1704 17.9885 79.1904 19.3263C79.2197 21.3008 78.103 22.3628 75.864 22.4894C74.3661 22.5741 73.3928 22.3637 71.0846 21.4567C69.7744 20.9419 69.9174 20.8396 68.6245 23.2157L67.7145 24.8881L68.3601 25.4316C70.1119 26.9064 75.9993 27.5103 78.7798 26.5002C81.4344 25.536 83.3887 23.653 84.2655 21.2149C84.462 20.6679 84.6286 19.4975 84.6395 18.5844C84.6555 17.2563 84.5515 16.7033 84.0991 15.7147C83.459 14.316 82.6945 13.6335 79.5811 11.6809C77.049 10.0928 76.3954 9.27737 76.5467 7.8954C76.8294 5.31518 79.8894 4.50781 83.3815 6.09211C84.2097 6.46766 84.9994 6.73219 85.1364 6.67964C85.5299 6.52854 87.2563 3.04854 87.1175 2.68657C87.0488 2.50723 86.5667 2.17197 86.046 1.9416C83.8347 0.962993 80.9619 0.538396 78.7798 0.867739ZM14.366 1.46292C13.9508 1.74519 13.3297 4.33504 13.4233 5.39379C13.4371 5.54883 13.7425 5.66752 14.1279 5.66752C14.7217 5.66752 14.7937 5.73014 14.6932 6.16022C13.6451 10.6449 10.5813 25.8809 10.6774 26.1312C10.7888 26.4218 11.4343 26.4704 15.1809 26.4704C21.5841 26.4704 23.1273 26.0132 25.8375 23.3128C28.8522 20.3086 30.5839 15.3597 30.5942 9.71861C30.5986 7.28992 30.5283 6.69036 30.1147 5.6362C29.4929 4.05124 27.9995 2.62569 26.2403 1.93788C25.0361 1.46708 24.5519 1.42285 19.7948 1.34905C16.9659 1.30504 14.5229 1.35628 14.366 1.46292ZM34.4909 1.57811C34.1863 1.94511 33.5343 5.00423 33.6798 5.3835C33.7396 5.53963 34.0987 5.66752 34.4776 5.66752C35.0764 5.66752 35.1532 5.7319 35.0644 6.16022C35.0083 6.43131 34.0425 11.0207 32.9184 16.3589C31.1943 24.5447 30.9236 26.0962 31.1893 26.2644C31.3624 26.3741 32.4115 26.4652 33.5203 26.4671L35.5365 26.4704L35.7602 25.6394C36.0289 24.6409 37.0184 20.0149 38.0062 15.1403C38.4025 13.1842 38.8007 11.5828 38.8911 11.5819C38.9815 11.5808 39.0563 11.7032 39.0574 11.8536C39.0587 12.0043 40.0738 15.3299 41.3133 19.2441L43.567 26.3609L45.3264 26.424C46.5635 26.4682 47.1529 26.4032 47.3118 26.205C47.4359 26.05 47.8047 24.642 48.1315 23.0763C48.4582 21.5106 49.6084 16.0935 50.6874 11.0384C52.5248 2.43146 52.625 1.82971 52.2672 1.5676C51.8529 1.26453 48.5431 1.17628 48.103 1.45636C47.9631 1.54548 47.5963 2.80022 47.2875 4.24504C46.9787 5.68985 46.3275 8.74416 45.8403 11.0325C45.3531 13.3208 44.9191 15.2916 44.8758 15.412C44.7742 15.6936 44.8955 16.0447 42.465 8.43211C41.3163 4.83387 40.264 1.7546 40.1268 1.58905C39.7768 1.16708 34.8398 1.15745 34.4909 1.57811ZM55.9415 1.48154C55.6382 1.67402 55.0538 3.99672 55.0402 5.06533C55.0337 5.59022 55.1168 5.66752 55.6892 5.66752C56.0503 5.66752 56.3458 5.78095 56.3458 5.91956C56.3458 6.16854 55.3876 10.7793 53.2646 20.747C52.4261 24.684 52.2328 25.933 52.4267 26.1667C52.6309 26.413 53.8925 26.4704 59.1007 26.4704C66.4702 26.4704 65.7501 26.7045 66.289 24.133C66.5085 23.0855 66.5328 22.5628 66.371 22.3679C66.2014 22.1633 65.1132 22.0909 62.2136 22.0909C58.5772 22.0909 58.2944 22.0624 58.3964 21.7076C58.4568 21.497 58.7761 20.0189 59.1057 18.423L59.7052 15.5215H62.9423C65.8042 15.5215 66.2023 15.4771 66.3769 15.1383C66.681 14.5482 67.1347 11.8447 66.9922 11.4728C66.8871 11.1993 66.3319 11.142 63.7941 11.142C61.2007 11.142 60.7232 11.0905 60.7232 10.8111C60.7232 10.4857 61.5034 6.79854 61.7306 6.05073C61.8354 5.70562 62.2128 5.66752 65.533 5.66752H69.2187L70.0007 4.24416C70.9701 2.47986 71.1739 1.74518 70.7659 1.48679C70.3752 1.23912 56.3316 1.23431 55.9415 1.48154ZM108.802 2.68263C107.903 2.83153 107.238 3.06102 107.134 3.25876C107.038 3.43942 106.793 4.37555 106.589 5.33905C106.385 6.30255 106.17 7.25883 106.112 7.46445C106.028 7.75963 105.699 7.85138 104.54 7.9024L103.074 7.96678L102.704 9.49328C102.25 11.3719 102.376 11.5799 103.976 11.5799C104.647 11.5799 105.153 11.678 105.153 11.8081C105.153 11.9338 104.697 14.1755 104.14 16.7898C103.582 19.4044 103.121 22.1423 103.114 22.8744C103.088 25.6911 104.538 26.9441 107.805 26.9287C110.607 26.9156 114.133 25.8393 113.844 25.0856C113.789 24.9439 113.618 24.2603 113.463 23.5663C113.308 22.8724 113.072 22.2146 112.94 22.1044C112.789 21.9796 112.246 22.0604 111.497 22.3188C109.393 23.0456 108.218 22.8295 108.218 21.7155C108.218 21.282 109.142 16.552 109.972 12.7363L110.221 11.5935L112.756 11.532L115.291 11.4704L115.807 9.93978C116.09 9.09803 116.275 8.28518 116.216 8.13321C116.14 7.93328 115.415 7.8573 113.587 7.8573C112.199 7.8573 111.063 7.82773 111.063 7.79138C111.063 7.75525 111.258 6.84365 111.496 5.76584C111.734 4.68803 111.931 3.48606 111.933 3.09453C111.938 2.41263 111.904 2.38394 111.118 2.4089C110.666 2.42314 109.624 2.5462 108.802 2.68263ZM23.6581 6.1473C24.9253 6.7692 25.1599 7.41956 25.1293 10.2282C25.0989 13.0215 24.7025 15.2537 23.8419 17.4801C22.6079 20.6723 20.8064 22.0909 17.9861 22.0909C16.6322 22.0909 16.4949 22.0512 16.6085 21.693C16.6779 21.474 17.4227 18.0004 18.2636 13.974C19.1045 9.94744 19.8476 6.41729 19.915 6.12956C20.0334 5.6235 20.0885 5.61036 21.5556 5.73343C22.3906 5.80328 23.3368 5.98964 23.6581 6.1473ZM119.38 7.45744C118.597 7.56912 117.866 7.75131 117.755 7.86211C117.533 8.0846 119.481 25.1484 119.824 25.9777C120.013 26.4365 120.161 26.4704 121.975 26.4704C123.27 26.4704 123.996 26.3787 124.141 26.1967C124.801 25.3725 134.054 8.40211 134 8.11788C133.914 7.67314 133.059 7.46073 131.022 7.37773L129.357 7.30985L126.681 12.6748C125.21 15.6255 123.893 18.3599 123.755 18.7514C123.424 19.6906 123.216 19.6501 123.185 18.6406C123.081 15.239 122.563 7.89452 122.405 7.58357C122.187 7.15591 121.649 7.13358 119.38 7.45744ZM0.787435 8.26656C0.625472 8.3708 0.353419 9.12277 0.182702 9.93759C-0.211698 11.8206 -0.0720596 12.0179 1.65547 12.0179C2.36307 12.0179 2.94197 12.112 2.94197 12.227C2.94197 12.342 2.30332 15.4622 1.52261 19.1609C0.46001 24.1952 0.164096 25.9595 0.345537 26.1783C0.517568 26.3857 1.21314 26.4704 2.74149 26.4704H4.89493L5.10614 25.6493C5.22236 25.1977 6.07813 21.2412 7.00788 16.8575C8.23508 11.0719 8.63801 8.7908 8.4778 8.53635C8.29242 8.24204 7.68156 8.17701 4.66928 8.13146C2.69618 8.10168 0.949178 8.16233 0.787435 8.26656Z" fill="#E40520"/>
<path d="M89.1384 18.6297C88.8694 16.335 89.0976 12.8285 89.6026 11.4998C89.7691 11.0616 89.9727 10.923 90.45 10.923C91.7144 10.923 99.4451 15.255 99.7985 16.1618C99.8892 16.3937 99.6272 16.7719 98.9992 17.3156C97.3639 18.7317 91.4314 21.8719 90.3914 21.8719C89.7853 21.8719 89.4025 20.8812 89.1384 18.6297Z" fill="#1C3B6A"/>
<path d="M4.69292 1.16819C4.99387 0.842129 5.53556 0.443808 5.8967 0.283297C6.82514 -0.129695 7.64304 -0.0929086 8.6192 0.405266C10.9681 1.60417 10.9777 4.893 8.63605 6.13789C7.31474 6.84037 5.78595 6.5349 4.69292 5.34957C4.22039 4.83738 4.14575 4.55205 4.14575 3.25877C4.14575 1.96548 4.22039 1.68038 4.69292 1.16819Z" fill="#1C3B6A"/>
<ellipse cx="7.22272" cy="3.28467" rx="3.28302" ry="3.28467" fill="#1C3B6A"/>
</svg>
