<svg id="Layer_1" data-name="Layer 1" xmlns="http://www.w3.org/2000/svg" viewBox="0 0 556.2 84" preserveAspectRatio="xMinYMid">
  <title>Wave</title>
  <path id="Wave" d="M524.3,88.8c0.8,5.6,3.9,9.8,9.8,9.8,4,0,6.6-1.4,8.5-4.8l13,0.9c-3.3,9.8-11.9,14.5-21.9,14.5-14.4,0-23-10.1-23-24.1s9.1-24.1,23-24.1,22.4,11.6,22.4,25.7v2.2H524.3Zm9.8-17.7c-5.5,0-8.3,2.6-9.8,7.8h18.2a8.3,8.3,0,0,0-8.4-7.8h0Zm-51.8,36.6L466.7,62.2h13.8l8.3,28.2,7.6-28.2h13.7l-15.3,45.5H482.4Zm-30.8,0v-4.1c-5,3.5-7.8,5.4-14.3,5.4-8.8,0-15.8-5.4-15.8-14.7,0-12.9,12.6-14.1,22.4-15.5,2.3-.4,7-0.5,7-3.8s-4.2-4.2-6.9-4.2-8.2,1.2-8,5.7H423.9c0.6-11.3,9.1-15.7,19.4-15.7,7.6,0,16.1,1.2,19.4,9.1,1.4,3.4,1.2,8.7,1.2,12.4v25.3H451.6Zm-0.4-21.8L448,87c-3.6,1-13.5,1.1-13.5,6.9,0,3.8,3.4,4.9,6.1,4.9,1,0,7.3-.1,10.6-5.9v-7h0Zm-57.7,21.8-8.8-42-9,42H362.8l-17.4-62h14.1l9.8,41.6,8.6-41.6h13.4l8.8,41.6,10.1-41.6h13.7l-17.5,62h-13ZM293.6,109c-14.2,0-23.1-9.8-23.1-23.8s9.6-24.3,24.3-24.3,22.8,10.3,22.8,23.9S307.7,109,293.6,109Zm0.6-37.8c-7.8,0-10.5,6.7-10.5,13.4s2.5,13.8,10.3,13.8,10.3-7.5,10.3-14.2S301.8,71.3,294.2,71.3ZM251,62.2h12.8v45.5H251V62.2Zm0-16.5h12.8V57.4H251V45.7h0Zm-21.6,57.6c-2.6,4.1-7.4,5.5-12,5.5C204.5,108.9,198,97,198,85.4s6.2-24.3,20-24.3a16.6,16.6,0,0,1,10.9,4.1V45.7H242v62H229.4v-4.4h0Zm-9.1-31.6c-6.9,0-9.1,7.4-9.1,13.1s1.8,13.4,9.3,13.4,8.9-6.9,8.9-12.9-1.5-13.5-9.1-13.5h0Zm-42.1,36v-4.1c-5,3.5-7.8,5.4-14.3,5.4-8.8,0-15.8-5.4-15.8-14.7,0-12.9,12.6-14.1,22.4-15.5,2.3-.4,7-0.5,7-3.8s-4.2-4.2-6.9-4.2-8.2,1.2-8,5.7H150.5c0.6-11.3,9.1-15.7,19.4-15.7,7.6,0,16.1,1.2,19.4,9.1,1.4,3.4,1.2,8.7,1.2,12.4v25.3H178.2Zm-0.4-21.8L174.6,87c-3.6,1-13.5,1.1-13.5,6.9,0,3.8,3.4,4.9,6.1,4.9,1,0,7.3-.1,10.6-5.9v-7Zm-47.6,21.8L117.2,86.3h-9.3v21.4h-14v-62h23.9c9.4,0,17.7,1.3,22.2,10.6a23.6,23.6,0,0,1,1.9,9.5c0,4.5-1.1,9.2-3.9,12.8a17.7,17.7,0,0,1-6.5,5.4l14.2,23.6H130.1ZM126,60.4c-2.8-3.5-7.4-3.3-11.4-3.3h-6.8V74.8h7.5c2.3,0,5.5,0,7.6-1a8.4,8.4,0,0,0,4.9-8A8.9,8.9,0,0,0,126,60.4ZM0,93.2H58.1L67,107.8H0V93.2Zm0-31V47.8H60.7c0,0.6,0,1.1,0,1.7,0,5.4-1.3,9.5-3.8,12.7H0ZM0,25H29.2c14.2,0,25.4,4.6,29.7,14.5H0V25H0ZM53,84.9H0V70.5H44.1Z" transform="translate(0 -25)" fill="#000000"/>
</svg>
