<svg xmlns="http://www.w3.org/2000/svg" viewBox="0 0 337.33 71" fill="#bf2134"><path d="M17.37 18.56V53.1H23c11.8 0 15.35-6.45 15.35-16.53 0-13.89-5.65-18-18-18zm5.19-6.07c20.27 0 26.57 11.22 26.57 23.09 0 13.25-7.33 23.67-26.72 23.67H2V53.1h5.33V18.56H0v-6.07zm34.28 40.69h5.08V18.56h-7.26v-6.07h40.62v14.85h-8.24l-.5-8.78H72v13.97h19.54v6.3H72v14.35h17.1l.49-8.97h8.25V59.4h-41v-6.22zm96.24-34.62l-.65 40.77-8.7.23-25.43-33.9h-.72l.42 27.6h11.14v6.14h-23.47v-6.22h5.49l.5-34.62h-7.75v-6.07h16.22l25.58 33.4h.73l-.23-27.37h-10.58v-6.07h23v6.11c-.08.07-5.5.07-5.5 0m11.25-6.07v6.07h7.33v34.62h-5.35v6.15h23.56v-6.15h-8.17V18.56h6v-6.07zM186 0l-16 5.73 1.45 4.5 16.64-3zm9.79 18.56v-6.07h22.61v6.07h-5.08v14.05h3.89l11.99-14.05h-5.08v-6.07h20.27v6.07h-6.22l-14.28 15.19 17.1 19.47h4.35v6.15h-21.37v-6.15h4.5L216.6 38.67h-3.4v14.55h5.65v6.15h-20.99v-6.15h5.42V18.56h-7.49zM278.52 12h15.67l15.88 16.2v9.19l-18.55-18.95H285V52.7h9.23v6.43h-15.71zm31.64 0h15.68v47.13h-15.68L294.28 43v-9.24l18.56 19h6.56V18.43h-9.24zm-43 58.61h70.17V.43h-70.17z"/></svg>
