<?xml version="1.0" encoding="UTF-8"?>
<svg width="118px" height="76px" viewBox="0 0 118 76" version="1.1" xmlns="http://www.w3.org/2000/svg" xmlns:xlink="http://www.w3.org/1999/xlink">
    <title>logo</title>
    <g id="Symbols" stroke="none" stroke-width="1" fill="none" fill-rule="evenodd">
        <g id="HEAD-/-full+livekoncert" transform="translate(-40.000000, -34.000000)" fill="#0061AE">
            <g id="logo" transform="translate(40.000000, 34.000000)">
                <path d="M38.7262369,52.8942253 C39.5644897,52.8942253 40.2716755,53.5094308 40.3760971,54.3294961 L40.3760971,54.3294961 L40.3760971,64.7605701 L45.9189987,60.07996 C46.2660162,59.7766479 46.725665,59.6298787 47.1871368,59.6750341 L47.1871368,59.6750341 L47.2922086,59.6787648 C48.0166511,59.755388 48.7815506,60.6148869 48.7573928,61.4270344 C48.7276808,61.7683172 48.5660595,62.0852824 48.3059624,62.3123614 C48.3059624,62.3123614 45.0903576,65.022581 44.602254,65.4312376 C44.936026,66.0631311 45.7140571,67.5400346 46.5020875,69.0362971 L46.750765,69.5084816 C47.7427529,71.3920894 48.6777594,73.167914 48.6805536,73.1718934 C48.8014374,73.395048 48.863208,73.6446885 48.8602453,73.8976606 C48.8602453,74.6564303 48.5548167,75.5622477 47.0960358,75.5622477 C46.5536044,75.5133311 46.0715001,75.2012402 45.8104342,74.7298967 L45.8104342,74.7298967 L42.031924,67.6303495 C41.5179162,68.0636862 40.5990473,68.8356568 40.3760971,69.0227664 L40.3760971,69.0227664 L40.3760971,74.1249472 C40.2727506,74.9458817 39.5652313,75.5622477 38.7262369,75.5622477 C37.8872426,75.5622477 37.1797233,74.9458817 37.0763767,74.1249472 L37.0763767,74.1249472 L37.0763767,54.3294961 C37.1807984,53.5094308 37.8879842,52.8942253 38.7262369,52.8942253 Z M85.3174333,59.6460494 L85.9062429,59.6934007 C87.664522,59.9737782 89.5741512,61.3119563 89.6611774,64.241714 L89.6611774,64.241714 L89.6611774,74.1237993 C89.5901527,74.968697 88.8512247,75.6051319 87.992544,75.5609848 C87.1449014,75.5941224 86.4235361,74.9580581 86.3626212,74.1237993 L86.3626212,74.1237993 L86.3626212,64.3952472 C86.3626212,63.7168314 85.9612528,62.993073 85.219929,62.993073 L85.219929,62.993073 L82.513093,62.993073 C81.7726424,62.993073 81.3747666,63.7168314 81.3747666,64.3952472 L81.3747666,64.3952472 L81.3747666,74.1237993 C81.3138517,74.9580581 80.5924865,75.5941224 79.7448438,75.5609848 C78.8861596,75.6054463 78.1470893,74.9690158 78.0762104,74.1240862 L78.0762104,74.1240862 L78.0762104,64.229661 C78.1812822,60.6473154 80.8802596,59.871614 81.7030796,59.7218115 L81.7030796,59.7218115 L82.4193724,59.6460494 L85.3174333,59.6460494 Z M11.0843479,52.8946064 C11.0843479,52.8946064 11.1338277,52.8983371 11.1498359,52.9026418 C11.1498359,52.9026418 11.6289167,52.9832826 11.6682095,52.9887352 C11.6932405,52.9976315 11.7235832,53.007891 11.7490144,53.0163568 L11.8003497,53.0332168 C12.1411782,53.1758448 12.7049568,53.5598213 12.7040846,54.5602264 C12.7040846,55.5767022 12.1071244,56.1848085 11.1032666,56.1848085 L11.1032666,56.1848085 L10.0388689,56.1928439 L4.44124844,56.1928439 C3.72932147,56.1928439 3.30292203,56.9254985 3.29855617,57.6372038 L3.29855617,57.6372038 L3.29855617,61.6038128 L8.12167223,61.6038128 L8.18948866,61.6109873 C8.182763,61.6114511 8.17761864,61.6170845 8.17785398,61.623728 C8.17808931,61.6303715 8.18361975,61.6356373 8.19036183,61.6356373 C8.19710391,61.6356373 8.20263435,61.6303715 8.20286968,61.623728 C8.20310501,61.6170845 8.19796065,61.6114511 8.191235,61.6109873 C8.191235,61.6109873 8.66769635,61.692776 8.70960865,61.6970807 C8.75763316,61.7140124 8.82981545,61.7384055 8.84058458,61.7427102 C9.17908461,61.8861991 9.74286325,62.2696017 9.74286325,63.2679979 C9.74286325,64.2844737 9.14590404,64.8951628 8.14408366,64.8951628 L8.14408366,64.8951628 L7.07881272,64.9014763 L3.29855617,64.9014763 L3.29855617,73.8970867 C3.29855617,75.0016648 2.74787513,75.5616207 1.66659601,75.5616207 C1.45376564,75.5630761 1.24167264,75.536731 1.03587412,75.4832137 C0.349269161,75.2958172 -1.26121336e-13,74.7663429 -1.26121336e-13,73.8979476 L-1.26121336e-13,73.8979476 L-1.26121336e-13,57.478792 C0.0998327686,54.1177064 2.64804236,52.8946064 4.3405425,52.8946064 L4.3405425,52.8946064 Z M59.9552531,59.6457624 C60.9224377,59.6457624 61.6532834,60.300933 61.6532834,61.1736329 L61.6532834,61.1736329 L61.5837206,61.6480074 L61.5773173,61.6712527 L57.7507826,74.1260951 C57.460016,75.0794358 56.8496682,75.5609848 55.939531,75.5609848 C55.2997863,75.5609848 54.4621224,75.311314 54.0980093,74.1309737 C54.0980093,74.1309737 50.2813706,61.7048291 50.2749673,61.6821578 L50.2749673,61.6821578 L50.2598323,61.6322237 L50.1955085,61.1747808 C50.1955085,60.300933 50.92519,59.6457624 51.8952851,59.6457624 C52.6198205,59.6346717 53.2639948,60.0985864 53.4736907,60.782482 C53.4736907,60.782482 54.2150698,63.1805621 54.9174673,65.4521378 L55.0671,65.9360477 C55.4135237,67.0563592 55.7362669,68.0999628 55.9377846,68.7512853 C56.2109488,67.8567947 56.5811611,66.6457574 56.9505745,65.4376392 L57.0980654,64.9553049 C57.7594951,62.7923163 58.376067,60.7767946 58.3771386,60.7718638 C58.5901365,60.0918693 59.2335702,59.6327317 59.9552531,59.6457624 Z M12.628834,59.6528337 C13.139782,59.6561295 16.4689,59.6868715 16.9592991,59.6914077 L17.0195952,59.6919658 C18.3767969,59.8024523 20.0684239,60.9061695 20.5923276,62.9388342 C20.7007898,63.3652663 20.761114,63.8022127 20.7722012,64.241714 L20.7722012,64.241714 L20.7722012,65.17841 C20.7008801,66.0223622 19.9624623,66.6577851 19.1047321,66.6132997 C18.2580962,66.64691 17.5373245,66.0117037 17.4765557,65.17841 L17.4765557,65.17841 L17.4765557,64.3929514 C17.4765557,63.7145356 17.0769335,62.9468696 16.3353187,62.9468696 L16.3353187,62.9468696 L14.8666418,62.9388342 L14.8666418,74.1226513 C14.8057269,74.9569102 14.0843617,75.5929745 13.2367191,75.5598369 C12.379148,75.6028185 11.6419911,74.966466 11.5718602,74.1226513 L11.5718602,74.1226513 L11.5718602,60.717051 C11.5695641,60.1613858 12.0014916,59.6976266 12.5632117,59.6525971 L12.5632117,59.6525971 Z M69.2539624,59.546755 C72.6765092,59.546755 75.1595218,62.2635751 75.1595218,66.0094981 L75.1595218,66.0094981 L75.1595218,66.9625518 C75.1784256,67.4395803 74.9962222,67.9030457 74.6561796,68.2428888 C74.3161369,68.5827319 73.8485908,68.7686347 73.3645694,68.7564509 L73.3645694,68.7564509 L66.6478324,68.7564509 L66.6478324,70.0277632 C66.6727342,70.5676758 66.9004613,71.0791454 67.2867039,71.4626529 L67.2867039,71.4626529 L67.3635431,71.539276 C67.3635431,71.539276 67.696222,71.8130529 67.6997147,71.8104701 C68.1917962,72.1290162 68.7702081,72.2931038 69.3587432,72.2811139 C70.1755131,72.3141397 70.9632799,71.9795684 71.5000542,71.3716809 C71.5103752,71.3561135 71.5217524,71.3412524 71.5341079,71.3271993 C71.5341079,71.3271993 71.7998436,70.8172395 71.7998436,70.8172395 C71.7998436,70.8172395 72.0388019,70.511608 72.0425856,70.5044335 C72.5515129,70.043168 73.3055166,69.9617785 73.9036082,70.303549 C74.68568,70.7084748 75.0247622,71.5607993 74.6894638,72.2242923 C74.2971621,73.1514395 73.6328987,73.9418995 72.781872,74.4942878 C71.7806823,75.1757181 70.5852987,75.5248333 69.3692213,75.4909621 C66.0366114,75.4909621 63.5093579,73.0246738 63.3638291,69.6254201 L63.3638291,69.6254201 L63.3591722,69.5370309 L63.35306,69.3097444 L63.35306,66.010646 C63.35306,62.3878366 65.9484209,59.546755 69.2530893,59.546755 Z M28.2890557,59.546755 C31.7107293,59.546755 34.194324,62.2635751 34.1946151,66.0094981 L34.1946151,66.0094981 L34.1946151,66.9642737 C34.2117823,67.4406748 34.0291354,67.903007 33.6896685,68.2424398 C33.3502016,68.5818727 32.8839027,68.7684211 32.4005358,68.7581728 L32.4005358,68.7581728 L25.6829256,68.7581728 L25.6829256,70.029485 C25.709789,70.5792498 25.9459265,71.0988079 26.3442086,71.4844632 L26.3442086,71.4844632 L26.377152,71.5174975 L26.377152,71.5174975 L26.4003827,71.5395629 L26.4003827,71.5395629 L26.4665097,71.5944318 C26.5637551,71.6749697 26.7339348,71.8152667 26.7339348,71.8107571 C27.2247601,72.1296736 27.8023701,72.2938217 28.3900527,72.2814009 C29.2018875,72.3128231 29.985399,71.9844614 30.5258336,71.3863167 L30.5258336,71.3863167 L30.5438792,71.3596278 C30.5438792,71.3596278 30.5724028,71.3203118 30.5677459,71.3274863 C30.5677459,71.3274863 30.6047876,71.256096 30.651458,71.1663891 L30.7495148,70.9782784 C30.7968401,70.8877374 30.8355189,70.8142621 30.8381385,70.810926 C30.8381385,70.810926 31.0657455,70.5176345 31.0791342,70.5044335 C31.5902675,70.0464688 32.3424516,69.9653518 32.941903,70.303549 C33.7190269,70.7093358 34.0563627,71.5616602 33.7207733,72.2242923 C33.3290176,73.149895 32.6673216,73.9399519 31.8195848,74.4942878 C30.8163912,75.1756436 29.6193838,75.5246972 28.401695,75.4909621 C25.0719957,75.4909621 22.5461975,73.0246738 22.4006687,69.6331685 L22.4006687,69.6331685 L22.3989224,69.5869651 L22.3881532,69.3097444 L22.3881532,66.010646 C22.3881532,62.3878366 24.9782751,59.546755 28.2881825,59.546755 L28.2881825,59.546755 Z M111.973656,59.5456071 C115.394456,59.5456071 117.877469,62.2624272 117.877469,66.0094981 L117.877469,66.0094981 L117.877469,66.9628388 C117.8945,67.4397019 117.711406,67.9023976 117.371335,68.2418841 C117.031263,68.5813707 116.564295,68.7676195 116.080479,68.7567379 L116.080479,68.7567379 L109.362287,68.7567379 L109.362287,70.0280502 C109.387349,70.5686138 109.616468,71.0804111 110.004651,71.4629398 L110.004651,71.4629398 L110.041651,71.4996371 C110.060534,71.5182548 110.08018,71.5374106 110.083236,71.5395629 C110.083236,71.5395629 110.415915,71.8133399 110.415915,71.8107571 C110.909048,72.1296029 111.48857,72.2936888 112.078145,72.2814009 C112.888002,72.3116927 113.669176,71.983371 114.207814,71.3863167 C114.21771,71.3685241 114.249726,71.3257644 114.249726,71.3257644 C114.249726,71.3257644 114.515753,70.8198223 114.522738,70.8092041 C114.522738,70.8092041 114.754711,70.5124689 114.758495,70.5044335 C115.270585,70.0455365 116.024306,69.9644058 116.624757,70.303549 C117.400134,70.705892 117.739216,71.5607993 117.403918,72.2242923 C117.013253,73.1501189 116.351929,73.9403367 115.504185,74.4942878 C114.501518,75.1747005 113.305655,75.5236879 112.088914,75.4909621 C108.757469,75.4909621 106.227305,73.0269696 106.081776,69.6119321 L106.081776,69.6119321 L106.070134,69.3097444 L106.070134,66.0094981 C106.070134,62.3866887 108.663748,59.5456071 111.973656,59.5456071 Z M98.6926958,59.546755 C99.9096369,59.5175599 101.10506,59.8665417 102.109712,60.5442903 C102.949768,61.0953708 103.607522,61.8772033 104.001587,62.7930494 C104.344162,63.4786397 104.006826,64.3338339 103.234359,64.7356031 C102.63722,65.0818179 101.880599,65.0017379 101.37159,64.5384492 C101.37159,64.5384492 101.109347,64.1955106 101.12099,64.2201907 L101.12099,64.2201907 L100.85409,63.7156835 C100.85409,63.7156835 100.818581,63.6674712 100.811304,63.6551311 C100.270618,63.0594491 99.4882437,62.733161 98.6781429,62.7654995 C98.0833295,62.7510769 97.4984861,62.9179374 97.0033973,63.2433178 C97.0033973,63.2433178 96.6803233,63.5053286 96.6768306,63.5107812 C96.6768306,63.5107812 96.608141,63.5764992 96.6046483,63.579369 C96.2196029,63.9626653 95.9922984,64.4730663 95.96665,65.0119628 L95.96665,65.0119628 L95.96665,70.0269022 C95.9919705,70.5670044 96.2202239,71.0784909 96.6069768,71.4617919 L96.6069768,71.4617919 L96.6826518,71.5375541 C96.6826518,71.5375541 97.0199876,71.812192 97.0199876,71.8096092 C97.5112924,72.1281948 98.0890721,72.2923046 98.6769787,72.280253 C99.4886661,72.3110509 100.271571,71.9812767 100.81014,71.3817251 C100.817417,71.3745506 100.852926,71.3263383 100.852926,71.3263383 C100.852926,71.3263383 101.119243,70.8181004 101.114877,70.8269967 L101.114877,70.8269967 L101.359948,70.5070163 C101.869105,70.0428767 102.62558,69.9600279 103.225627,70.302688 L103.225627,70.302688 C104.004498,70.7073269 104.341833,71.5596514 104.010319,72.2245793 C103.618715,73.1508666 102.956131,73.9411368 102.107093,74.4945748 C101.104355,75.1741623 99.909045,75.5230774 98.6926958,75.4912491 C95.3583395,75.4912491 92.8299219,73.0249607 92.6881768,69.6317336 L92.6881768,69.6317336 L92.6835199,69.574338 L92.673915,69.3097444 L92.673915,65.7305556 L92.6835199,65.4685447 C92.6835199,65.4685447 92.6881768,65.4097142 92.6881768,65.4168887 C92.8299219,62.0147652 95.3583395,59.546755 98.6926958,59.546755 Z M28.289,62.841 L28.0752481,62.8472827 C26.3371057,62.9467371 25.6829256,64.255798 25.6829256,65.0957604 L25.6829256,65.0957604 L25.6829256,65.4688317 L30.89635,65.4688317 L30.89635,65.0957604 C30.89635,64.2221995 30.1879157,62.8412617 28.2881825,62.8412617 L28.289,62.841 Z M69.2539624,62.8412617 C67.3562667,62.8412617 66.6472503,64.2221995 66.6472503,65.0957604 L66.6472503,65.0957604 L66.6472503,65.4688317 L71.8647494,65.4688317 L71.8647494,65.0957604 C71.8647494,64.2221995 71.1545688,62.8412617 69.2530893,62.8412617 Z M111.974,62.841 L111.760605,62.8472827 C110.021375,62.9467371 109.363126,64.255798 109.362287,65.0957604 L109.362287,65.0957604 L109.362287,65.4688317 L114.578039,65.4688317 L114.578039,65.0957604 C114.578039,64.2221995 113.871642,62.8412617 111.973656,62.8412617 L111.974,62.841 Z M52.21573,9.99415746 C67.1604033,1.26301927 100.364302,-4.84462005 111.228879,5.20505223 C122.09026,15.2486616 106.502599,37.6467074 91.5599589,46.3749585 C76.6103484,55.1049418 59.6673017,51.713477 48.8056297,41.6640934 C37.9410534,31.6187518 37.2690238,18.7226973 52.21573,9.99271391 L52.21573,9.99271391 Z M103.268493,6.73549875 C95.2296939,-2.13364235 70.0477494,3.84234566 58.6040776,11.9062773 C47.1604058,19.9702089 47.4508249,31.54311 55.4858484,40.4064769 C63.5263899,49.275618 76.265621,52.0732084 87.7040653,44.0063897 C99.1480275,35.9447677 111.302936,15.5988657 103.268493,6.73549875 Z M70.1562901,15.3862441 C71.8436979,14.6073991 74.1847911,15.548301 75.0005269,17.4855529 L75.0005269,17.4855529 L75.2563526,18.0354604 C75.5626306,18.7634303 75.510259,19.9061174 75.563179,20.2345185 L75.563179,20.2345185 L75.563179,41.0924162 C75.563179,43.1437081 73.9733853,45.3379074 71.9520057,45.3379074 C69.9306261,45.3379074 68.2802349,43.2345972 68.2802349,41.1078502 L68.2802349,41.1078502 L68.2928479,38.4189057 L68.2928479,24.5780441 L66.7400708,25.2734312 C65.1680999,26.000258 63.0990101,25.1330962 62.2838227,23.1949869 C61.4686353,21.2568776 62.2777903,19.0046579 63.8497612,18.2789745 L63.8497612,18.2789745 Z" id="F1"></path>
            </g>
        </g>
    </g>
</svg>