<?xml version="1.0" encoding="utf-8"?>
<!-- Generator: Adobe Illustrator 19.2.0, SVG Export Plug-In . SVG Version: 6.00 Build 0)  -->
<svg version="1.1" id="Layer_1" xmlns="http://www.w3.org/2000/svg" xmlns:xlink="http://www.w3.org/1999/xlink" x="0px" y="0px"
	 viewBox="0 0 288 74" style="enable-background:new 0 0 288 74;" xml:space="preserve">
<style type="text/css">
	.st0{fill:#2E2A25;}
</style>
<g>
	<polygon class="st0" points="281.8,26.4 282.6,26.4 282.6,28.5 283.4,28.5 283.4,26.4 284.2,26.4 284.2,25.8 281.8,25.8 	"/>
	<polygon class="st0" points="287,25.8 286.4,27.4 285.8,25.8 284.7,25.8 284.7,28.5 285.4,28.5 285.4,26.7 285.5,26.7 286.1,28.5 
		286.7,28.5 287.3,26.7 287.3,26.7 287.3,28.5 288,28.5 288,25.8 	"/>
	<path class="st0" d="M100.2,25.7c-0.9-0.2-1.7-0.4-2.6-0.4c-3.2,0-5.1,1.5-6.5,4.3H91v-3.9h-8.4V49h8.8v-9.1c0-5,1.8-7,5.3-7
		c1.8,0,2.6,0.3,3.5,0.6V25.7z"/>
	<path class="st0" d="M112.1,25.4c-7.3,0-12.2,5.5-12.2,12.2c0,7.7,5.5,12,12.9,12c5.2,0,10.1-2.3,11.8-7.3h-8.2
		c-0.7,1.1-2.3,1.6-3.7,1.6c-2.8,0-4.3-1.8-4.5-4.5h16.9C125.2,30.4,121.3,25.4,112.1,25.4z M108.4,34.9c0.4-2.5,1.9-3.9,4.5-3.9
		c2.3,0,3.9,1.7,3.9,3.9H108.4z"/>
	<path class="st0" d="M159.4,25.7c-0.9-0.2-1.7-0.4-2.6-0.4c-3.2,0-5.1,1.5-6.5,4.3h-0.1v-3.9h-13.8c-0.1-2.1,0.6-2.6,2.7-2.6
		c0.7,0,1.4,0.2,2.1,0.3v-6c-1.4,0-2.6-0.2-4-0.2c-3.5,0-5.8,0.3-7.7,2.2c-1.7,1.7-2,4-1.8,6.3h-3.6v5.6h3.6V49h8.8V31.4h5.2V49h8.8
		v-9.1c0-5,1.8-7,5.3-7c1.8,0,2.6,0.3,3.5,0.6V25.7z"/>
	<path class="st0" d="M171.3,25.4c-7.3,0-12.2,5.5-12.2,12.2c0,7.7,5.5,12,12.9,12c5.2,0,10.1-2.3,11.8-7.3h-8.2
		c-0.7,1.1-2.3,1.6-3.7,1.6c-2.8,0-4.3-1.8-4.5-4.5h16.9C184.4,30.4,180.4,25.4,171.3,25.4z M167.6,34.9c0.4-2.5,1.9-3.9,4.5-3.9
		c2.3,0,3.9,1.7,3.9,3.9H167.6z"/>
	<path class="st0" d="M202.7,35c-2.9-0.9-6.3-1.2-7.7-1.8c-0.5-0.2-1-0.5-1-1.2c0-1.5,1.4-1.8,2.7-1.8c0.8,0,1.4,0.2,2,0.7
		c0.6,0.4,1,1,1,1.7h8c-0.2-5.9-6.2-7.3-11.2-7.3c-4.6,0-10.9,1.5-10.9,7.3c0,4,2.7,6.1,9.4,7.2c4.1,0.7,4.8,1.1,4.8,2.4
		c0,1.3-1.8,1.8-3,1.8c-1.1,0-1.9-0.2-2.4-0.7c-0.7-0.6-1-1.3-1.1-2H185c0.1,5.9,6.1,8.1,11.5,8.1c5.6,0,11.7-1.7,11.7-8.1
		C208.2,37.7,205.7,35.9,202.7,35z"/>
	<path class="st0" d="M225.3,25.4c-3.7,0-5.7,1.3-7.2,3.1H218V17.3h-8.8V49h8.8V36.8c0-3.7,2-4.4,3.5-4.4c2.6,0,2.9,1.9,2.9,4.5V49
		h8.8V33.2C233.2,27.9,229.4,25.4,225.3,25.4z"/>
	<path class="st0" d="M246.4,25.4c-7.3,0-12.2,5.5-12.2,12.2c0,7.7,5.5,12,12.9,12c5.2,0,10.1-2.3,11.8-7.3h-8.2
		c-0.7,1.1-2.3,1.6-3.7,1.6c-2.8,0-4.3-1.8-4.5-4.5h16.9C259.5,30.4,255.6,25.4,246.4,25.4z M242.7,34.9c0.4-2.5,1.9-3.9,4.5-3.9
		c2.3,0,3.9,1.7,3.9,3.9H242.7z"/>
	<path class="st0" d="M269.5,29.6L269.5,29.6l-0.1-3.9h-8.4V49h8.8v-9.1c0-5,1.8-7,5.3-7c1.8,0,2.6,0.3,3.5,0.6v-7.8
		c-0.9-0.2-1.7-0.4-2.6-0.4C272.8,25.4,270.9,26.8,269.5,29.6z"/>
	<path class="st0" d="M0,65.3h19.6V74h15l5.9-8.7h24.6V0.1H0V65.3z M8.7,8.9h47.6v47.6H35.9L30,65.3h-1.6v-8.7H8.7V8.9z"/>
	<path class="st0" d="M28.3,42.4H30l5.9,8.7l12.6,0l-7.7-11.2c0.6-0.2,1.1-0.5,1.6-0.8c3.4-2,5.8-5.4,6.4-9.4c0.1-0.6,0.1-1.3,0.1-2
		c0-0.5,0-1-0.1-1.5c-0.5-4.7-3.5-8.6-7.6-10.5c-1.1-0.5-2.3-0.9-3.5-1.1c-1.5-0.3-3.2-0.4-5.1-0.4H17.5v36.8h10.9L28.3,42.4z
		 M28.3,23.7h5.4c2.6,0,4.7,2.1,4.7,4.7c0,2.6-2.1,4.7-4.7,4.7h-5.4V23.7z"/>
</g>
</svg>
