<svg width="168" height="40" viewBox="0 0 168 40" fill="none" xmlns="http://www.w3.org/2000/svg">
<g clip-path="url(#clip0)">
<path fill-rule="evenodd" clip-rule="evenodd" d="M0.00012207 0V7.90872H25.3164L3.73123 26.1L35.0073 7.90872V0H0.00012207Z" fill="#9F223C"/>
<path fill-rule="evenodd" clip-rule="evenodd" d="M0.00012207 0V7.90872H25.3164L35.0073 0H0.00012207Z" fill="#203C62"/>
<path fill-rule="evenodd" clip-rule="evenodd" d="M35.0073 40.1995V32.2908H9.691L31.2762 14.0995L0.00012207 32.2908V40.1995H35.0073Z" fill="#203C62"/>
<path fill-rule="evenodd" clip-rule="evenodd" d="M9.69088 32.2906L31.2761 14.0994L0 32.2906H9.69088Z" fill="#9F223C"/>
<path d="M57.92 18.92C57.92 18 57.6 17.14 56.68 16.44C56.2 16.08 55.42 15.68 53.66 15.68C52.64 15.68 51.8 15.78 50.94 15.78C50.68 15.78 50.22 15.78 49.2 15.78C48.78 15.78 48.4 15.86 48.4 16.18C48.4 16.34 48.64 16.54 48.98 16.6C49.74 16.74 50.02 16.98 50.06 17.38C50.1 17.8 50.14 18.6 50.14 20.98C50.14 24.58 50.14 25.2 50.12 25.92C50.08 26.92 49.84 27.02 49.04 27.28C48.68 27.4 48.46 27.54 48.46 27.72C48.46 27.92 48.72 28.08 49.2 28.08C49.94 28.08 50.38 28 51 28C51.7 28 52.78 28.08 53.28 28.08C53.6 28.08 53.96 27.94 53.96 27.7C53.96 27.48 53.78 27.36 53.4 27.24C52.5 26.98 52.24 26.76 52.18 26.04C52.12 25.34 52.1 24.38 52.1 22.78C52.1 22.68 52.22 22.48 52.38 22.48C53 22.48 53.46 22.52 53.92 23.16C54.32 23.74 55.4 25.36 56.12 26.3C57.58 28.22 58.82 28.32 59.78 28.32C60.08 28.32 60.94 28.22 60.94 27.82C60.94 27.7 60.84 27.56 60.64 27.5C59.86 27.3 59.3 27 58.34 25.94C57.44 24.9 56.06 22.76 55.76 22.16C55.7 22.06 55.72 21.84 55.78 21.82C56 21.72 56.8 21.2 56.98 21.04C57.56 20.5 57.92 19.66 57.92 18.92ZM55.86 19.18C55.86 20 55.5 20.7 55.2 20.98C54.82 21.32 53.74 21.68 53.44 21.68C53.04 21.68 52.7 21.64 52.26 21.5C52.18 21.48 52.1 21.38 52.1 21.26C52.08 20.22 52.04 18.1 52.06 17.08C52.06 16.9 52.18 16.72 52.28 16.68C52.46 16.6 52.9 16.52 53.12 16.52C55.08 16.52 55.86 17.78 55.86 19.18ZM79.5277 15.46C79.4477 15.46 79.2277 15.56 79.1077 15.68C78.9077 15.86 78.5077 16.14 78.2677 16.3C78.2277 16.32 78.1277 16.46 78.1277 16.52C78.1077 16.7 78.0477 16.92 78.0077 17.06C76.9877 19.74 74.9877 24.78 74.3677 26.06C74.1077 26.64 73.7677 27 72.8077 27.26C72.3677 27.38 72.2077 27.58 72.2077 27.78C72.2077 28 72.5077 28.1 72.8877 28.1C73.6677 28.1 74.0877 28 74.7677 28C75.3677 28 76.1677 28.06 76.3877 28.06C76.8677 28.06 77.0877 27.8 77.0877 27.62C77.0877 27.44 76.8877 27.34 76.6277 27.26C75.7277 26.98 75.6277 26.7 75.6277 26.42C75.6277 26.02 76.1277 24.6 76.3877 23.84C76.4277 23.74 76.6077 23.56 76.7077 23.56C77.3077 23.5 79.7277 23.52 80.1077 23.52C80.3677 23.54 80.5877 23.7 80.6277 23.82C80.8677 24.42 81.3277 25.58 81.4677 26.14C81.6477 26.8 81.5877 26.98 80.6877 27.26C80.3077 27.38 80.2077 27.6 80.2077 27.76C80.2077 27.9 80.3877 28.06 80.7877 28.06C81.4477 28.06 81.5077 28 82.3877 28C83.3877 28 84.2677 28.1 85.2477 28.1C85.5477 28.1 85.7677 28 85.7677 27.86C85.7677 27.66 85.6077 27.42 85.1677 27.26C84.1077 26.9 83.9477 26.8 83.5277 25.76C83.0477 24.54 81.3677 20.26 80.3277 17.36C79.8477 16.02 79.7477 15.46 79.5277 15.46ZM80.0277 22.46C79.6677 22.5 77.4877 22.48 77.1477 22.46C77.0077 22.44 76.9677 22.32 76.9877 22.24C77.3877 21.08 78.0077 19.36 78.4077 18.32C78.4677 18.24 78.6077 18.2 78.6677 18.32C78.8277 18.64 79.8677 21.24 80.1277 22.24C80.1677 22.32 80.0877 22.46 80.0277 22.46ZM98.0828 15.82C97.5628 15.82 97.2628 15.96 97.2628 16.2C97.2628 16.38 97.5028 16.6 97.9828 16.66C99.0428 16.82 99.1428 17.16 99.1828 17.38C99.2828 17.8 99.3028 18.72 99.3028 21.44C99.3028 24.08 99.2628 25.1 99.1628 26C99.0628 26.9 98.4228 27.04 97.8628 27.2C97.3628 27.34 97.1028 27.62 97.1028 27.84C97.1028 27.98 97.2828 28.1 97.4228 28.1C97.9228 28.08 99.0628 28 99.7028 28C100.343 28 102.203 28.16 103.023 28.16C104.503 28.16 106.203 27.88 107.623 27.12C108.703 26.52 110.603 24.88 110.603 21.82C110.603 20.58 110.243 18.72 108.563 17.32C107.083 16.06 105.203 15.66 103.283 15.66C101.883 15.66 100.383 15.82 99.6828 15.82H98.0828ZM101.323 20.64C101.323 19.14 101.383 17.68 101.403 17.14C101.423 17.02 101.623 16.74 101.723 16.72C101.983 16.62 102.883 16.54 103.083 16.54C104.423 16.54 105.903 17.04 106.843 17.96C107.863 18.96 108.323 20.38 108.323 21.88C108.323 23.56 107.803 24.98 106.883 25.9C105.963 26.78 104.283 27.28 103.843 27.28C103.263 27.28 102.343 26.96 102.083 26.8C101.923 26.68 101.563 26.34 101.443 25.54C101.383 24.92 101.323 24.56 101.323 22V20.64ZM125.027 21.72C125.027 23.36 124.967 25.96 124.907 26.38C124.827 26.8 124.687 26.98 123.687 27.32C123.407 27.42 123.167 27.62 123.167 27.8C123.167 27.98 123.467 28.12 123.727 28.12C124.087 28.12 125.307 28 126.007 28C126.687 28 128.207 28.08 128.407 28.08C128.647 28.08 129.067 27.96 129.067 27.7C129.067 27.54 128.907 27.38 128.527 27.28C127.347 27 127.127 26.78 127.087 25.82C127.087 25.56 127.067 24.5 127.067 22.32C127.067 20.96 127.047 18.84 127.087 18.02C127.147 16.98 127.207 16.76 128.347 16.48C128.507 16.44 128.787 16.3 128.787 16.1C128.787 15.9 128.527 15.74 128.287 15.74C127.707 15.74 127.107 15.82 125.907 15.82C125.027 15.82 124.207 15.76 123.827 15.76C123.547 15.76 123.187 15.92 123.187 16.08C123.187 16.26 123.347 16.44 123.687 16.52C124.927 16.84 125.027 17.02 125.027 18.74V21.72ZM148.274 15.46C146.474 15.46 144.614 16.3 143.394 17.54C142.194 18.74 141.594 20.4 141.594 21.96C141.594 25.46 144.454 28.36 148.274 28.36C149.554 28.36 150.774 28 151.634 27.52C153.794 26.3 154.954 24.04 154.954 21.86C154.954 18.14 152.034 15.46 148.274 15.46ZM147.914 16.32C150.814 16.32 152.574 19.22 152.574 21.96C152.574 24.42 151.854 25.86 151.074 26.6C150.494 27.14 149.614 27.48 148.734 27.48C145.714 27.48 143.954 24.48 143.954 21.7C143.954 19.72 144.534 18.34 145.394 17.44C145.914 16.92 146.934 16.32 147.914 16.32Z" fill="#203C62"/>
</g>
<defs>
<clipPath id="clip0">
<rect width="168" height="40" fill="white"/>
</clipPath>
</defs>
</svg>
