<svg width="200" height="36" viewBox="0 0 200 36" fill="none" xmlns="http://www.w3.org/2000/svg">
<g clip-path="url(#clip0)">
<path d="M0 0.143068V9.50541H6.20312V34.1923H16.6875V0.143068H0ZM34.3906 13.0828H29.4844V9.48929H31.9531V0.143068H19.0156V34.1923H29.4844V21.3171H34.3906V34.1923H44.8906V0.143068H34.3906V13.0828ZM47.1875 34.1923H66.6094V24.8139H57.2031V20.8498H63.1875V13.0828H57.2031V9.50541H66.6094V0.143068H47.1875V34.1923ZM149.188 11.6647C149.188 4.31664 143.922 0.143068 136.453 0.143068H124.781V34.1762H135.266V25.4584L141.266 34.1762H153.094L144.594 21.1237C147.656 19.3995 149.188 16.2572 149.188 11.6647ZM135.234 15.4354V9.10255C136.688 9.10255 138.469 9.55375 139 11.1974C139.047 11.3424 139.078 11.5036 139.125 11.6647C139.125 11.6808 139.125 11.713 139.141 11.7292C139.156 11.8903 139.188 12.0837 139.188 12.277C139.188 14.807 136.953 15.4354 135.234 15.4354ZM87.375 20.882H87.2812L86.5312 18.0781L84.1875 9.52152H88.3125L91.0312 0.143068H70.0938L82.0938 34.1762H92.8438L94.1406 30.5344C94.1406 30.5344 99.8906 14.4525 103.031 5.68634V34.1762H122.453V24.7978H113.047V20.8337H119.016V13.0828H113.047V9.50541H122.453V0.126953H93.4375L87.375 20.882ZM200 9.52152V0.159183H180.578V34.1923H200V24.8139H190.578V20.8498H196.562V13.115H190.578V9.52152" fill="#AF4BA2"/>
<path d="M178.562 27.054V13.1797H163.75V20.9145H169.266V23.67C168.844 24.0568 167.938 24.2663 167 24.2663C163.156 24.2663 160.312 21.1401 160.312 17.3211C160.312 13.502 163.078 10.118 166.922 10.118C169.25 10.118 174.766 10.1341 174.766 10.1341V0.0466558H172.25C167.562 0.0466558 162.891 -0.340087 158.594 1.94813C155.203 3.75292 152.516 6.81461 151.094 10.4564C150.266 12.5996 149.844 14.92 149.844 17.2244C149.844 26.8768 157.188 35.0144 166.703 35.0144C171.422 35.0144 176.031 33.1935 178.547 30.9214C178.562 28.5688 178.562 28.2142 178.562 27.054Z" fill="#AF4BA2"/>
</g>
<defs>
<clipPath id="clip0">
<rect width="200" height="35" fill="white" transform="translate(0 0.0302734)"/>
</clipPath>
</defs>
</svg>
