<svg width="32" height="32" viewBox="0 0 32 32" fill="none" xmlns="http://www.w3.org/2000/svg">
<path d="M13.3042 16.7149C14.7989 16.3387 16.7783 15.3534 17.7845 14.4847C20.369 12.2534 21.0552 9.35034 19.8346 5.81188C19.1838 3.92555 17.7001 2.23041 15.8984 1.3148C14.3377 0.521728 12.789 0.17873 10.4154 0.100477C8.56588 0.0395024 8.1516 0.0666812 7.11345 0.317137C3.16666 1.2693 0.53323 3.75406 0.0684891 6.96436C-0.114248 8.22667 0.0822582 10.3605 0.500084 11.6505C1.31096 14.1542 3.26135 15.847 6.19778 16.5958C7.87467 17.0235 11.8158 17.0895 13.3042 16.7149Z" fill="white"/>
<path opacity="0.5" d="M27.7532 16.9215C29.5925 16.3729 30.8061 14.8084 31.5434 12.0355C32.5932 8.08748 31.7688 3.10835 29.7356 1.11642C28.8388 0.237897 28.226 -0.0014748 26.8774 6.8242e-06C25.883 0.00102164 25.6304 0.0550493 24.8055 0.442505C22.7234 1.42038 21.8029 3.40647 21.6517 7.24732C21.5286 10.3755 21.9085 12.7148 22.8352 14.534C23.8805 16.5857 25.7829 17.5093 27.7532 16.9215Z" fill="white"/>
<path opacity="0.25" d="M9.14858 31.928C12.1224 31.5417 13.9061 30.3929 14.7951 28.2912C15.2692 27.1704 15.3735 25.0137 15.024 23.5577C14.3841 20.8916 12.811 19.2295 10.1929 18.4536C9.073 18.1217 6.39378 18.05 5.07055 18.3165C2.57619 18.8189 0.885225 20.2153 0.230855 22.3134C-0.0777397 23.3028 -0.0764551 25.6242 0.233281 26.8511C0.721479 28.7843 2.06819 30.4093 3.83328 31.1949C5.31052 31.8525 7.45406 32.1481 9.14858 31.928Z" fill="white"/>
<path d="M25.8564 31.928C28.8603 31.5417 30.662 30.3929 31.56 28.2912C32.0389 27.1704 32.1442 25.0137 31.7912 23.5577C31.1448 20.8916 29.5558 19.2295 26.9113 18.4536C25.7801 18.1217 23.0738 18.05 21.7372 18.3165C19.2177 18.8189 17.5096 20.2153 16.8486 22.3134C16.5369 23.3028 16.5382 25.6242 16.8511 26.8511C17.3442 28.7843 18.7045 30.4093 20.4874 31.1949C21.9796 31.8525 24.1448 32.1481 25.8564 31.928Z" fill="white"/>
</svg>
