<svg width="144" height="50" viewBox="0 0 144 50" fill="none" xmlns="http://www.w3.org/2000/svg">
<g clip-path="url(#clip0)">
<!--<rect width="50" height="50" transform="translate(0 0.00012207)" fill="white"/>-->
<path d="M27.8538 24.1001H21.8225L23.7975 17.8876C23.927 17.5218 24.0409 17.1506 24.1388 16.7751C24.2463 16.3701 24.3587 15.9751 24.4788 15.5914C24.5988 15.1601 24.7188 14.7176 24.8375 14.2626H24.91C25.005 14.7176 25.1138 15.1601 25.2325 15.5914C25.3288 15.9751 25.4362 16.3701 25.5562 16.7751C25.675 17.1826 25.795 17.5551 25.915 17.8876L27.8525 24.1001H27.8538ZM25 50.0001C11.1938 50.0001 0 38.8064 0 25.0001C0 11.1926 11.1938 0.00012207 25 0.00012207C38.8063 0.00012207 50 11.1926 50 25.0001C50 38.8064 38.8063 50.0001 25 50.0001ZM12.4888 33.2889H18.8787L20.3512 28.6589H29.3263L30.8325 33.2889H37.51L28.2475 7.62262H21.715L12.49 33.2876L12.4888 33.2889ZM12.1825 39.5676H37.8175V35.0839H12.1825V39.5676Z" fill="#15141D"/>
</g>
<path fill-rule="evenodd" clip-rule="evenodd" d="M100.906 22.2303C100.906 22.2303 99.2753 24.8514 92.193 30.0536C92.193 30.0536 94.8571 24.2718 100.906 22.2303ZM143.947 25.8412C139.526 22.748 135.203 33.3824 135.203 33.3824C136.17 29.0322 139.128 23.3678 139.655 22.3802C139.697 22.3017 139.642 22.2051 139.549 22.1977C138.38 22.1035 136.732 23.8945 136.732 23.8945C130.302 29.8192 124.664 35.9345 124.664 35.9345C124.566 34.7114 125.771 31.116 129.783 27.0069C133.279 23.4253 137.033 21.7421 137.939 21.3688C138.031 21.3311 138.045 21.2127 137.966 21.1563C131.736 16.7571 124.228 27.554 124.228 27.554C122.267 28.9085 117.35 33.9741 117.35 33.9741C118.483 24.4799 122.144 20.5645 122.842 19.8954C122.901 19.8388 122.892 19.7448 122.821 19.701C121.628 18.9596 120.09 18.7233 119.012 19.4008C117.894 20.1043 114.685 23.2013 113.413 24.6311C112.141 26.0609 107.711 32.1616 107.711 32.1616C110.175 25.9854 112.487 22.7711 112.974 22.1294C113.022 22.0656 112.995 21.9759 112.92 21.9431C108.452 20.0087 107.265 23.9783 107.265 23.9783C94.4574 30.0985 92.0171 36.3231 92.0171 36.3231C90.4353 33.6424 91.7215 31.1629 91.7215 31.1629C92.9901 31.3777 95.5347 29.6299 97.1378 28.7774C98.7408 27.9248 102.087 25.4101 102.296 24.2425C102.504 23.0748 101.434 21.1586 98.8811 20.8279C96.3281 20.4974 93.9777 22.6454 92.7812 23.7282C91.5845 24.8112 89.0877 27.9833 89.0022 32.2051C88.9167 36.427 91.3927 37.3814 92.0749 36.8777C93.6845 35.689 92.3229 36.7564 95.313 34.3254C98.9638 31.3569 105.734 27.5326 105.734 27.5326C104.165 33.1831 105.867 34.692 106.426 35.0215C106.516 35.0746 106.633 35.0564 106.703 34.9814C113.517 27.6715 117.952 23.8396 117.952 23.8396C116.999 24.8424 115.479 28.821 115.479 28.821L114.895 30.5906C114.311 32.36 113.642 34.5098 115.173 35.711C116.3 36.5951 116.484 36.3879 116.683 36.313C116.683 36.313 116.88 36.173 116.926 36.1288L117.07 35.99C119.667 33.6291 122.277 31.8476 122.277 31.8476C121.614 34.5557 123.258 36.5983 125.076 36.4343C126.895 36.2703 127.334 35.4054 128.423 34.3079C129.512 33.2105 133.376 28.9437 133.376 28.9437C130.499 35.4798 134.641 35.8578 135.248 35.8784C135.293 35.88 135.335 35.8584 135.36 35.8229C140.307 28.7585 143.272 26.5024 143.945 26.0433C144.017 25.9943 144.019 25.8911 143.947 25.8412Z" fill="#15141D"/>
<path fill-rule="evenodd" clip-rule="evenodd" d="M76.4555 7.811C77.8822 8.05311 76.4555 7.811 79.3128 8.34572C82.1701 8.88059 86.1003 9.98351 87.229 10.7229C88.164 11.3355 88.0322 10.8432 87.9251 10.1161C87.8179 9.38892 87.2062 8.65531 86.2529 7.81764C85.2995 6.97997 83.0227 5.95133 80.7745 5.26935C78.4813 4.57361 76.8541 5.44607 76.8541 5.44607C74.008 7.64237 74.9026 7.54753 76.4555 7.811Z" fill="#15141D"/>
<path fill-rule="evenodd" clip-rule="evenodd" d="M66.9796 35.3718C60.4225 36.1148 56.2397 37.5926 55.2624 38.0098C54.3536 38.3977 50.9941 40.7495 54.7131 39.5439C58.4322 38.3382 62.4692 38.0925 62.4692 38.0925L57.6282 40.5963C57.4794 40.6724 57.47 40.7702 57.5334 40.8294C59.1405 42.3301 67.5147 37.9261 67.5147 37.9261C82.2798 38.2379 89.5036 41.6146 91.3465 42.4789C92.9483 43.2302 92.9682 44.2972 93.5137 43.9228C94.1971 43.454 93.9603 41.2212 93.9603 41.2212C93.8434 40.3488 93.9248 38.7714 87.7795 36.7964C81.6341 34.8214 73.2129 34.9832 73.2129 34.9832C84.7389 28.8436 89.0167 23.704 91.4363 21.1575C91.8053 20.7693 91.6838 19.7388 91.3444 16.9185C91.0423 14.4101 86.8294 12.8738 81.2596 11.7366C76.0214 10.6671 72.6493 10.9993 70.3047 11.2747C67.9602 11.5502 67.5306 12.0399 65.9705 14.4397C64.3711 16.8999 68.0394 15.6952 68.0394 15.6952C81.5473 12.328 90.5265 16.5127 90.5265 16.5127C79.0661 27.4139 66.9796 35.3718 66.9796 35.3718Z" fill="#15141D"/>
<defs>
<clipPath id="clip0">
<rect width="50" height="50" fill="white" transform="translate(0 0.00012207)"/>
</clipPath>
</defs>
</svg>
