<svg width="223" height="33" viewBox="0 0 223 33" fill="none" xmlns="http://www.w3.org/2000/svg">
<path d="M12.0535 0.416113C15.2408 0.168216 18.6936 0.0442673 21.4913 0V4.14342C20.1633 4.18769 18.6848 4.27622 17.2948 4.42673C12.4077 4.95794 11.4869 6.02035 10.8937 10.7127C10.4667 14.33 10.4667 17.9851 10.8937 21.6024C11.4869 26.2948 12.3988 27.3572 17.2948 27.8795C18.6848 28.03 20.1633 28.1186 21.4913 28.1629V32.3063C18.3419 32.265 15.1944 32.1263 12.0535 31.8902C3.28861 31.1819 1.65072 29.7653 0.57945 23.4705C-0.19315 18.6258 -0.19315 13.6893 0.57945 8.8446C1.64186 2.54094 3.28861 1.12439 12.0535 0.416113Z" fill="#001641"/>
<path d="M47.7774 16.1576C47.7774 18.0522 47.6446 20.8499 47.2019 23.4705C46.1395 29.7565 44.5016 31.1907 35.7278 31.8902C32.5406 32.1381 29.0877 32.2709 26.29 32.3151V28.1629C27.6181 28.1186 29.1054 28.0301 30.4866 27.8795C35.3825 27.3572 36.2944 26.2948 36.8876 21.5936C37.3153 17.9763 37.3153 14.3212 36.8876 10.7038C36.2944 6.0115 35.3825 4.94908 30.4866 4.43558C29.0915 4.28977 27.6918 4.19233 26.29 4.14342V0C29.0966 0.0442673 32.5406 0.168216 35.7278 0.424966C44.5016 1.13324 46.1395 2.5498 47.2019 8.84461C47.6446 11.4652 47.7774 14.2541 47.7774 16.1576Z" fill="#FF0019"/>
<path d="M216.905 11.0049C212.496 11.0049 210.141 13.9442 210.141 17.645C210.141 22.2931 213.372 24.2851 217.188 24.2851C218.897 24.2851 220.774 23.9309 222.332 23.3643L222.022 20.5843C220.508 20.9385 219.136 21.1775 217.896 21.1775C215.949 21.1775 214.576 20.5401 214.107 18.9996H222.784C223.669 15.1749 221.863 11.0049 216.905 11.0049ZM219.065 16.1753H214.151C214.559 14.8473 215.506 13.8469 216.878 13.8469C218.162 13.8469 219.065 14.5551 219.065 16.1753ZM197.551 23.9309H208.848V21.0801H202.536V20.9916L208.609 14.201V11.359H197.79V14.201H203.651V14.2984L197.551 21.1067V23.9309ZM195.258 8.27803C195.258 6.99428 194.718 6.33027 192.956 6.33027C191.212 6.33027 190.654 6.99428 190.654 8.27803C190.654 9.53522 191.212 10.1992 192.956 10.1992C194.718 10.1992 195.258 9.53522 195.258 8.27803ZM184.811 23.9309L189.583 11.359H185.511L182.518 19.9912H182.421L179.428 11.359H175.258L180.048 23.9309H184.811ZM174.488 18.9996C175.356 15.1749 173.558 11.0049 168.6 11.0049C164.191 11.0049 161.836 13.9442 161.836 17.645C161.836 22.2931 165.068 24.2851 168.884 24.2851C170.592 24.2851 172.469 23.9309 174.028 23.3643L173.727 20.5843C172.213 20.9385 170.831 21.1775 169.601 21.1775C167.653 21.1775 166.272 20.5401 165.803 18.9996H174.488ZM170.77 16.1665H165.856C166.254 14.8384 167.202 13.8469 168.574 13.8469C169.858 13.8469 170.761 14.5551 170.761 16.1753L170.77 16.1665ZM155.506 23.9309H159.393V6.89689H155.497L155.506 23.9309ZM152.939 18.9996C153.824 15.1749 152.018 11.0049 147.06 11.0049C142.651 11.0049 140.305 13.9442 140.305 17.645C140.305 22.2931 143.527 24.2851 147.343 24.2851C149.052 24.2851 150.929 23.9309 152.496 23.3643L152.186 20.5843C150.663 20.9385 149.291 21.1775 148.06 21.1775C146.113 21.1775 144.74 20.5401 144.262 18.9996H152.939ZM149.22 16.1665H144.307C144.714 14.8384 145.661 13.8469 147.042 13.8469C148.317 13.8469 149.22 14.5551 149.22 16.1753V16.1665ZM136.117 19.8938V14.2098H138.95V11.3679H136.117V8.3223H132.664L132.222 11.359L130.318 11.5981V14.201H132.222V20.301C132.222 24.4976 135.869 24.7809 139.189 23.7185L138.879 20.9739C136.887 21.2926 136.108 21.0093 136.108 19.8938H136.117ZM119.942 23.9309H123.598V15.3962C123.598 12.1381 120.916 11.0049 117.95 11.0049C116.002 11.0049 113.939 11.4741 112.469 12.2621L112.806 15.0067C114.462 14.3692 116.144 14.1567 117.339 14.1567C118.782 14.1567 119.712 14.6348 119.712 15.7946V16.2638C115.435 15.3431 111.646 16.6445 111.646 20.3984C111.646 22.718 113.47 24.2851 115.745 24.2851C117.339 24.2851 118.64 23.8158 119.712 22.842L119.942 23.9309ZM119.712 20.3453C119.412 20.6774 119.05 20.9469 118.646 21.1383C118.241 21.3298 117.803 21.4394 117.357 21.4608C116.409 21.4608 115.648 21.0182 115.648 20.1328C115.648 18.8579 116.976 18.1408 119.712 18.7782V20.3453ZM118.977 10.2878L122.199 6.48078H117.835L115.843 10.2878H118.977ZM106.316 17.1669V17.0784L110.796 11.359H106.387L101.925 17.3351L106.6 23.9309H111.265L106.316 17.1669ZM97.7285 23.9309H101.624V6.89689H97.7285V23.9309ZM88.2376 14.8739C88.2376 14.2276 88.6183 13.8734 90.0614 13.8734C91.0618 13.8734 92.5758 14.0682 94.497 14.6083L94.8334 11.9522C93.2555 11.3259 91.5731 11.0045 89.8755 11.0049C86.9538 11.0049 84.3686 11.9965 84.3686 14.989C84.3686 20.1594 91.5576 18.6808 91.5576 20.4427C91.5576 21.1244 91.0353 21.4166 89.6807 21.4166C88.3084 21.4166 86.7591 21.2483 84.7936 20.6817L84.4837 23.3378C86.0065 23.9752 88.0251 24.2851 89.8932 24.2851C92.8591 24.2851 95.4177 23.1253 95.4177 20.3276C95.4177 15.1306 88.2376 16.6268 88.2376 14.8739ZM82.4474 18.9996C83.3328 15.1749 81.5267 11.0049 76.5687 11.0049C72.1597 11.0049 69.8135 13.9442 69.8135 17.645C69.8135 22.2931 73.0362 24.2851 76.852 24.2851C78.5608 24.2851 80.4377 23.9309 81.9959 23.3643L81.686 20.5843C80.1721 20.9385 78.7998 21.1775 77.5692 21.1775C75.6214 21.1775 74.2403 20.5401 73.771 18.9996H82.4474ZM78.729 16.1665H73.8153C74.2226 14.8384 75.1699 13.8469 76.5422 13.8469C77.8259 13.8469 78.7201 14.5551 78.7201 16.1753L78.729 16.1665ZM59.8711 16.0868C59.8711 13.112 61.5798 11.2174 64.6431 11.2174C66.1571 11.2174 67.2992 11.545 68.459 11.7663L68.7865 8.67644C67.2892 8.14165 65.7108 7.8691 64.1208 7.87077C58.5696 7.87077 55.6746 11.545 55.6746 16.1045C55.6746 20.8499 58.5696 24.2851 64.1208 24.2851C65.7587 24.2851 67.3434 24.0018 68.7865 23.4529L68.459 20.3984C67.2992 20.6109 66.1836 20.9119 64.6431 20.9119C61.6064 20.9119 59.8711 19.2563 59.8711 16.0779V16.0868ZM66.0685 7.11823L68.6006 3.57684H64.8999L63.8109 5.35639L62.7219 3.5857H59.0035L61.5355 7.11823H66.0685ZM194.904 11.359H191.009V23.9309H194.904V11.359Z" fill="#001641"/>
</svg>
