<svg width="189" height="48" viewBox="0 0 189 48" fill="none" xmlns="http://www.w3.org/2000/svg">
<path d="M114.814 13.3826C111.781 13.3826 109.4 14.0308 107.017 15.3248C107.017 8.41724 107.017 2.15792 107.234 0L92.7192 2.58925V3.8845L94.2354 4.10016C96.1832 4.5315 96.8362 5.60983 97.2653 8.20158C97.7019 13.3826 97.4829 41.0141 97.2653 45.5481C101.165 46.412 105.281 47.0603 109.398 47.0603C120.88 47.0603 127.811 39.9358 127.811 28.7099C127.811 19.8601 122.18 13.3826 114.814 13.3826ZM109.831 44.6842C108.964 44.6842 107.88 44.6842 107.232 44.4698C107.014 41.4479 106.799 28.7099 107.014 17.4852C108.314 17.0526 109.179 16.837 110.264 16.837C115.033 16.837 117.632 22.4493 117.632 29.3556C117.631 37.9935 114.381 44.6842 109.831 44.6842ZM38.127 0.862668H0V2.80492L2.16668 3.02058C4.98135 3.45192 6.06594 5.1785 6.49753 9.27991C7.14928 17.0514 6.93161 31.0847 6.49753 37.7741C6.06469 41.8768 4.98261 43.8203 2.16668 44.0334L0 44.4673V46.1939H24.4789V44.4673L21.8794 44.0334C19.0635 43.819 17.9802 41.8768 17.5473 37.7741C17.3297 34.9667 17.1132 30.4327 17.1132 24.8216L22.3123 25.0373C25.5623 25.0373 27.0772 27.6278 27.7277 31.2966H29.678V15.9743H27.7277C27.076 19.6444 25.5623 22.2336 22.3123 22.2336L17.1145 22.4505C17.1145 15.1104 17.3309 8.20282 17.5486 4.10141H25.1294C30.9802 4.10141 34.0126 7.77024 36.178 14.2477L38.3447 13.5995L38.127 0.862668Z" fill="#7639E6"/>
<path d="M50.6086 12.9471C61.4541 12.9471 66.8763 20.2879 66.8763 30.0026C66.8763 39.2859 60.8028 47.0606 49.9573 47.0606C39.113 47.0606 33.6909 39.7185 33.6909 30.0026C33.6909 20.7193 39.7631 12.9471 50.6086 12.9471ZM49.9573 15.1064C45.1852 15.1064 43.8839 21.5833 43.8839 30.0026C43.8839 38.2062 46.0532 44.8987 50.3919 44.8987C55.3769 44.8987 56.6808 38.4219 56.6808 30.0026C56.6808 21.799 54.514 15.1064 49.9573 15.1064ZM130.858 30.2195C130.858 21.3676 136.497 12.9471 147.559 12.9471C156.666 12.9471 161.006 19.6409 161.006 28.4915H140.835C140.617 36.4795 144.521 42.3092 152.33 42.3092C155.801 42.3092 157.536 41.4477 159.706 39.9354L160.572 41.0139C158.402 44.036 153.632 47.0606 147.559 47.0606C137.799 47.0594 130.858 40.1511 130.858 30.2195ZM140.835 26.1177L151.029 25.9008C151.029 21.5833 150.378 15.1064 146.691 15.1064C143.005 15.1064 141.05 21.1507 140.835 26.1177ZM186.821 14.6751C184.218 13.5941 180.749 12.9471 176.844 12.9471C168.821 12.9471 163.83 17.6959 163.83 23.31C163.83 28.9242 167.513 31.298 172.725 33.026C178.146 34.9671 179.665 36.4795 179.665 39.0702C179.665 41.6609 177.712 44.0347 174.242 44.0347C170.122 44.0347 167.084 41.6609 164.699 35.1828L163.18 35.6167L163.397 45.1157C166 46.1941 170.771 47.0594 174.893 47.0594C183.352 47.0594 188.776 42.7394 188.776 36.0481C188.776 31.5137 186.389 28.9242 180.75 26.7635C174.675 24.3897 172.508 22.8787 172.508 20.071C172.508 17.2646 174.463 15.3209 177.066 15.3209C180.968 15.3209 183.57 17.6959 185.526 23.5257L187.042 23.0944L186.821 14.6751ZM95.0716 13.8111C91.3854 11.6542 84.8774 12.7314 81.4079 20.5049L81.6234 12.9483L67.0929 15.7547V17.0501L68.611 17.2658C70.5649 17.4827 71.4304 18.5612 71.6483 21.3689C72.0817 26.5503 71.865 35.6192 71.6483 40.1524C71.4304 42.7406 70.5649 44.036 68.611 44.2529L67.0929 44.4699V46.1966H87.2634V44.4699L84.6607 44.2529C82.4926 44.036 81.8413 42.7406 81.6234 40.1524C81.19 36.0493 81.19 27.8457 81.4079 22.6642C82.4914 21.1519 87.2634 19.8578 91.6009 22.6642L95.0716 13.8111Z" fill="#7639E6"/>
</svg>
