<svg width="155" height="46" viewBox="0 0 155 46" fill="none" xmlns="http://www.w3.org/2000/svg">
<path d="M28.6751 32.4378C29.8993 31.1592 30.8444 29.6327 31.4485 27.9578C32.0526 26.2829 32.3022 24.4973 32.181 22.7178C32.2949 20.9264 32.0422 19.1304 31.4387 17.4433C30.8353 15.7561 29.8943 14.2143 28.6751 12.9153C26.3427 10.6253 22.7629 9.48025 17.9358 9.48025H12.6362V35.7677H18.6665C22.3045 36.0155 25.8952 34.819 28.6824 32.4303L28.6751 32.4378ZM35.6501 6.72775C37.7217 8.75235 39.3383 11.2079 40.3893 13.9263C41.4403 16.6447 41.9008 19.5617 41.7393 22.4778C41.8882 25.4091 41.4378 28.3399 40.4164 31.0855C39.3951 33.8311 37.8249 36.3319 35.8051 38.4303C31.8439 42.3503 25.8063 44.3102 17.6922 44.3102H3.13696V1.07275H18.1793C25.767 1.07275 31.5905 2.96025 35.6501 6.73525" fill="#AF4BA2"/>
<path d="M70.7833 28.6053L81.6037 1.08025H91.9002L74.7911 44.3253H66.7607L49.6516 1.07275H59.9333L70.7833 28.6053Z" fill="#AF4BA2"/>
<path d="M117.837 5.82785V25.5529H112.471V5.83535H105.658V1.11035H124.657V5.83535L117.837 5.82785Z" fill="#AF4BA2"/>
<path d="M140.902 16.673L147.029 1.10303H152.852L143.183 25.553H138.629L128.96 1.10303H134.784L140.902 16.673Z" fill="#AF4BA2"/>
</svg>
