<svg width="154" height="33" viewBox="0 0 154 33" fill="none" xmlns="http://www.w3.org/2000/svg">
<path d="M46.4027 7.01174V26.9271C46.4027 31.4026 44.412 32.4844 41.2302 32.4844H39.4458V27.8594H39.5937L39.8521 27.8584C41.0049 27.8454 42.062 27.684 42.062 25.8085V7.01174H46.4036H46.4027ZM75.9481 6.45189C80.6751 6.45189 83.6498 10.8159 83.6498 16.5964C83.6455 22.4613 80.428 26.7408 75.7741 26.8859L75.5287 26.8903L75.2799 26.8859C70.6112 26.743 67.7121 22.6085 67.7121 16.7826C67.7121 10.517 70.9531 6.45189 75.9481 6.45189ZM130.813 6.44972C133.37 6.44972 136.255 6.97275 137.385 10.3297C137.762 12.0404 137.903 13.8186 137.801 15.5882L137.808 26.3304H133.612L133.582 24.5783C131.886 26.0694 130.936 26.8903 128.735 26.8903C125.76 26.8903 123.381 24.5783 123.381 20.6604C123.381 15.1778 127.634 14.6926 130.965 14.096C131.739 13.9465 133.345 13.8729 133.345 12.4922C133.345 11 131.916 10.7022 130.996 10.7022C129.778 10.7022 128.231 11.2242 128.29 13.1257H124.241C124.449 8.31553 127.333 6.44972 130.813 6.44972ZM146.805 6.45189C150.198 6.45189 153.375 8.2798 153.553 13.0163L149.45 13.2773C149.363 11.2198 148.023 10.4802 146.745 10.4802C145.911 10.4802 144.604 10.6665 144.604 12.1208C144.604 15.0673 154 12.7543 154 20.4005C154 25.398 150.401 26.8903 147.04 26.8903C143.768 26.8903 139.905 25.0623 139.905 19.9533V19.7291L144.067 19.5429C144.335 22.0411 145.377 22.7504 147.339 22.7504C148.291 22.7504 149.54 22.4883 149.54 20.9604C149.54 17.4951 140.381 20.289 140.381 12.568C140.381 8.01991 143.681 6.45189 146.804 6.45189H146.805ZM38.9568 7.00632V26.325H34.7936V24.2047C34.2867 25.0444 33.6249 25.72 32.8641 26.1744C32.1033 26.6288 31.2658 26.8487 30.4224 26.8155C25.6902 26.8155 25.2917 22.0996 25.2795 18.4687V7.01282H29.6498V18.0842C29.6498 20.2099 29.9769 22.2609 32.0581 22.2609C34.2585 22.2609 34.7031 19.9869 34.7031 17.0772V7.00632H38.9568ZM104.598 6.10352e-05V8.988C105.282 7.45897 107.482 6.56343 108.79 6.56343C112.982 6.56343 113.934 10.5539 113.934 13.9108V26.3304H109.563V15.5145C109.563 13.7245 109.504 11.2252 107.274 11.2252C104.75 11.2252 104.603 14.2043 104.598 16.1502V26.3304H100.257V6.10352e-05H104.598ZM121.249 6.10352e-05V26.3304H116.878V6.10352e-05H121.249ZM8.59355 6.55801C9.47172 6.50013 10.342 6.79034 11.0793 7.38692C11.8166 7.9835 12.3829 8.85571 12.6967 9.87813C13.1601 8.8687 13.8321 8.032 14.643 7.45485C15.4538 6.8777 16.374 6.58113 17.308 6.59591C18.5472 6.57838 19.7573 7.06257 20.7561 7.97551C22.3309 9.59225 22.4179 11.5534 22.4214 13.8621V26.325H18.0502L18.0485 26.3282V16.1859C18.0485 14.0971 17.9005 11.5609 15.8185 11.5609C13.5929 11.5609 13.4467 13.887 13.4406 16.0051V26.3304H9.03989V15.403C9.03989 13.7624 8.71275 11.5609 6.77774 11.5609C4.54779 11.5609 4.34158 14.2097 4.34158 16.0376V26.325H0V7.00632H4.34158V9.57926C4.72482 8.60271 5.33532 7.79231 6.09365 7.25347C6.85198 6.71464 7.72305 6.47231 8.59355 6.55801ZM97.5307 7.01066V11.4505L97.5333 11.4494L90.1579 21.7801H98.038V26.3282H84.4738V22.2263L92.0859 11.5588H85.336V7.01066H97.5299H97.5307ZM65.2568 4.51136C65.6943 5.78337 65.9164 7.15393 65.9094 8.53752C65.9633 10.4804 65.505 12.3918 64.6043 13.9801C64.0296 14.9626 63.271 15.7558 62.3944 16.291L67.211 26.3217H61.9515L57.5838 17.2255H54.422V26.3217H49.6733V6.10352e-05H57.7474C60.9231 6.10352e-05 63.7421 0.558829 65.2577 4.51136H65.2568ZM133.463 17.0815C133.114 17.2585 132.756 17.4079 132.391 17.5287C131.173 17.9391 127.813 17.9759 127.813 20.4752C127.813 22.079 128.973 22.5641 129.865 22.5641C130.587 22.5738 131.3 22.3483 131.931 21.9099C132.562 21.4716 133.09 20.8355 133.463 20.0648V17.0815ZM75.7384 10.8516C73.0935 10.8527 72.2025 13.6877 72.2025 16.5595C72.2025 19.3566 73.0343 22.4147 75.6827 22.4147C78.3869 22.4147 79.163 19.244 79.163 16.3722C79.1543 13.6866 78.366 10.9978 75.9368 10.8581L75.7384 10.8516ZM56.7077 4.80915H54.422V12.3449C55.2538 12.3449 56.1143 12.3818 56.9452 12.3818C57.8191 12.4526 58.6958 12.3137 59.5275 11.9724C60.0438 11.6759 60.4776 11.1948 60.7735 10.5904C61.0695 9.98605 61.2142 9.28575 61.1893 8.57867C61.1976 7.73026 60.9784 6.90262 60.5664 6.22665H60.5672C59.6189 4.73552 58.0737 4.80915 56.7077 4.80915ZM46.4027 6.10352e-05V4.88495H42.0611V6.10352e-05H46.4027Z" fill="#15141D"/>
</svg>
