<svg width="123" height="40" viewBox="0 0 123 40" fill="none" xmlns="http://www.w3.org/2000/svg">
<g clip-path="url(#clip0)">
<path d="M13.8625 0H0V6.90476H27.9632C25.9624 2.19048 20.627 0 13.8625 0ZM27.0105 17.7143H0V10.8095H28.8207C28.8207 11.0952 28.8207 11.3333 28.8207 11.619C28.8207 14.1905 28.2014 16.1429 27.0105 17.6667V17.7143ZM0 21.619V28.4762H25.2002L20.9605 21.619H0ZM0 32.4286H27.6297L31.8695 39.3333H0V32.4286ZM51.2579 23.7143H55.45C58.0225 23.7143 60.7854 23 60.7854 19.4762C60.7854 15.9524 57.1173 15.2381 54.6878 15.2381H51.2579V23.7143ZM55.9264 9.85714C60.4043 9.85714 64.3582 10.4762 66.5019 14.9048C67.1147 16.3335 67.4229 17.8742 67.4071 19.4286C67.4071 21.5714 66.883 23.8095 65.5492 25.5238C62.8815 29.0476 59.4516 29.1429 55.45 29.1429H51.2103V39.3333H44.5411V9.80952H55.9264V9.85714ZM122.952 32.7143C122.952 27.2857 117.569 26.3333 113.425 25.4286C112.282 25.1905 109.757 24.9048 109.757 23.3333C109.757 21.7619 111.615 21.5714 112.758 21.5714C113.374 21.5459 113.987 21.6565 114.556 21.8952C115.124 22.1339 115.632 22.4948 116.045 22.9524C116.344 23.4955 116.522 24.0963 116.569 24.7143L122.333 24.4286C122.095 19.0952 117.617 17.0476 112.806 17.0476C107.994 17.0476 103.754 18.8095 103.754 23.9048C103.754 32.5714 116.664 29.4286 116.664 33.3333C116.664 35.0476 114.902 35.3333 113.568 35.3333C110.805 35.3333 109.328 34.5238 108.947 31.7143L103.088 31.9048C103.069 32.5767 103.133 33.2484 103.278 33.9048C104.374 38.381 108.995 39.9524 113.139 39.9524C117.284 39.9524 122.952 38.3333 122.952 32.7143ZM99.9435 39.381V17.7143H93.9888V27C93.9888 27.9524 93.8935 28.9048 93.8935 29.8571C93.8935 32.381 93.3695 34.8571 90.273 34.8571C87.1766 34.8571 86.8908 32.5714 86.8908 30.1905V17.7143H80.6979V30.3333C80.6979 33.619 80.8885 37.2381 84.0802 39.0476C85.2709 39.6613 86.6002 39.9566 87.9388 39.9048C90.1778 39.9048 92.8931 38.9524 94.084 36.9524V39.3333H99.9435V39.381ZM70.3129 39.381H76.4582V9.80952H70.3606V39.381H70.3129Z" fill="#15141D"/>
</g>
<defs>
<clipPath id="clip0">
<rect width="123" height="40" fill="white"/>
</clipPath>
</defs>
</svg>
