<svg width="126" height="44" viewBox="0 0 126 44" fill="none" xmlns="http://www.w3.org/2000/svg">
<path fill-rule="evenodd" clip-rule="evenodd" d="M43.9927 29.068V0H125.348V29.068H43.9927Z" fill="url(#paint0_linear)"/>
<path d="M125.347 29.3489H43.9927V44.0001H125.347V29.3489Z" fill="url(#paint1_linear)"/>
<path d="M112.838 37.9935C113.137 38.0184 113.461 38.056 113.66 38.3183C113.722 38.4056 113.773 38.5181 113.773 38.6179C113.773 38.7801 113.66 38.905 113.626 38.9423C113.438 39.1547 113.126 39.1923 113.047 39.2046C112.938 39.2296 112.674 39.2672 112.36 39.2672C111.361 39.2672 111.111 38.9174 110.8 38.5304L106.32 38.4555C106.405 38.93 106.48 39.3295 106.743 39.729C107.178 40.4032 107.882 40.7404 108.091 40.8277C108.542 41.0275 109.203 41.2149 109.677 41.2898C109.953 41.3271 110.239 41.3521 110.527 41.3771C111.026 41.402 111.525 41.4396 112.025 41.4396C112.599 41.4396 113.173 41.402 113.749 41.3771C114.885 41.2398 115.971 41.1024 116.81 40.2908C117.58 39.5416 117.719 38.7052 117.719 38.2933C117.719 37.6814 117.48 37.2569 117.354 37.0698C116.81 36.2208 115.948 35.9958 115.034 35.7837L111.003 35.1468C110.776 35.1095 110.426 35.0595 110.317 34.8098C110.277 34.7475 110.266 34.635 110.266 34.6226C110.266 34.5102 110.328 34.3977 110.414 34.3104C110.663 34.0607 111.163 34.0234 111.487 34.0234C111.525 34.0234 112.689 33.9984 113.098 34.6101C113.147 34.6726 113.173 34.7225 113.233 34.8847L117.444 34.972C117.354 34.4852 117.258 34.0357 116.957 33.6486C116.707 33.3242 116.383 33.1118 116.27 33.0367C115.083 32.2628 113.608 32.1629 112.2 32.0754C111.814 32.0754 111.44 32.0754 111.067 32.088C110.663 32.113 110.266 32.138 109.878 32.1753C109.028 32.3002 108.217 32.4252 107.517 32.962C107.428 33.0367 107.229 33.1867 107.054 33.4364C106.634 34.0108 106.593 34.66 106.593 34.9221C106.593 35.846 107.007 36.3706 107.268 36.6077C107.741 37.0322 108.354 37.1944 108.943 37.3568L112.838 37.9935ZM79.8939 32.3877V34.5102H73.8007V35.534H78.8204V37.694H73.79V38.9423H80.2674V41.1398H70.3561V32.3877H79.8939ZM89.9611 32.3877C90.1938 33.4988 90.42 34.6226 90.6313 35.7337C90.77 36.5202 90.881 37.3069 91.0048 38.081C91.1691 37.1321 91.3441 36.1958 91.5426 35.2593C91.7432 34.2978 91.9823 33.3366 92.217 32.3877H94.7269L95.937 38.2058C96.0501 37.3442 96.1632 36.4828 96.2998 35.6339C96.4876 34.5477 96.6861 33.4738 96.8889 32.3877H100.308L98.0755 41.1398H94.5412L93.4293 36.2082C93.2543 37.0947 93.0942 37.9811 92.8936 38.855C92.7058 39.6165 92.5201 40.3783 92.3173 41.1398H88.7852L86.6019 32.3877H89.9611ZM59.4416 37.744V32.3877H62.6514V41.1398H58.6796C58.368 40.7155 58.0565 40.3033 57.7683 39.8665C57.557 39.5666 57.3436 39.2546 57.1302 38.9549C56.9189 38.6427 56.682 38.3556 56.4579 38.0434C56.2829 37.7939 56.1079 37.5192 55.9201 37.2569C55.7579 37.0198 55.5722 36.7825 55.41 36.5328C55.1838 36.2082 54.9703 35.8586 54.759 35.509L54.8081 41.1398H51.6516V32.3877H55.6704L59.4416 37.744Z" fill="black"/>
<path fill-rule="evenodd" clip-rule="evenodd" d="M54.4878 25.7213H49.354V3.30859L58.4469 4.76006C61.7089 5.28182 64.6394 7.52467 64.6394 12.4516C64.6394 17.6131 62.2823 19.497 58.4469 19.2922L54.4878 19.0821V25.7213ZM60.2325 12.3675C60.2325 10.3488 59.172 9.39983 57.7386 9.21949L54.4878 8.80979V14.5579L57.7386 14.8363C59.1964 14.9606 60.2325 14.3267 60.2325 12.3675Z" fill="#F6F9FF"/>
<path fill-rule="evenodd" clip-rule="evenodd" d="M69.8684 25.7205H65.5908V9.12939L69.7447 9.68793V12.6241L69.7953 12.6294C70.4005 10.5774 71.8863 9.90678 73.5782 10.1379C73.8799 10.1747 74.3896 10.2447 74.3896 10.2447V14.9527L73.3178 14.853C71.935 14.7199 69.8684 14.9808 69.8684 18.1446V25.7205Z" fill="#F6F9FF"/>
<path fill-rule="evenodd" clip-rule="evenodd" d="M78.6778 25.7238H75.101V10.5894L78.6778 11.0691V25.7238ZM78.631 9.71923L75.0879 9.20622V5.23877L78.631 5.87083V9.71923Z" fill="#F6F9FF"/>
<path fill-rule="evenodd" clip-rule="evenodd" d="M85.1933 25.723H80.4492V11.0771H85.0509V13.1781H85.109C86.0121 11.6373 87.616 10.6306 89.4559 10.6306C91.3539 10.6306 92.8304 11.2557 93.6473 13.1168C94.839 11.492 96.3304 10.6306 98.3708 10.6306C103.186 10.6306 103.497 14.3337 103.497 17.2594V25.723H98.7493V17.4064C98.7493 15.7519 97.9605 14.7731 96.6789 14.7731C94.5523 14.7731 94.3443 16.4312 94.3443 18.9157V25.723H89.6021V17.7058C89.6021 15.9007 89.0718 14.7731 87.734 14.7731C85.9522 14.7731 85.1933 15.8097 85.1933 18.9472V25.723Z" fill="#F6F9FF"/>
<path fill-rule="evenodd" clip-rule="evenodd" d="M110.598 15.4929H105.364C105.441 13.6296 106.295 12.3108 107.926 11.54C109.12 10.974 110.796 10.6919 112.958 10.6919C116.086 10.6919 118.134 11.2956 119.101 12.4994C119.67 13.2146 119.955 14.5244 119.955 16.4254V22.4428C119.955 23.9665 120.182 25.059 120.637 25.7184H114.892C114.721 25.2476 114.656 24.7859 114.694 24.3349H114.636C113.594 25.501 112.01 26.0849 109.887 26.0849C108.351 26.0849 107.128 25.7274 106.218 25.0123C105.195 24.2217 104.682 23.1005 104.682 21.6505C104.682 20.258 105.195 19.1745 106.218 18.4037C106.958 17.8575 108.085 17.4424 109.602 17.1603C110.362 17.0651 111.119 16.9627 111.877 16.8495C112.863 16.7183 113.594 16.5296 114.067 16.2853C114.39 16.1344 114.552 15.8235 114.552 15.3527C114.552 14.449 113.934 13.9962 112.702 13.9962C111.944 13.9962 111.385 14.1669 111.025 14.5047C110.741 14.7688 110.598 15.0976 110.598 15.4929ZM114.552 19.1368C114.111 19.3632 113.367 19.5985 112.317 19.8429C111.687 19.9938 111.248 20.1448 111 20.2957C110.6 20.5598 110.398 20.9354 110.398 21.4259C110.398 21.8391 110.6 22.1787 111 22.4428C111.344 22.6674 111.735 22.7806 112.173 22.7806C112.881 22.7806 113.454 22.574 113.892 22.159C114.331 21.7457 114.552 21.1905 114.552 20.4933V19.1368Z" fill="#F6F9FF"/>
<path d="M125.336 28.5525H42.3384V29.349H125.336V28.5525Z" fill="#CC0000"/>
<path d="M43.9958 0H0V43.9958H43.9958V0Z" fill="#CC0000"/>
<path d="M7.04614 21.9876C7.04614 24.8749 9.39513 27.2241 12.2818 27.2241H17.2258C17.4984 27.2241 17.7215 26.9529 17.7215 26.7289V17.0345C17.7215 16.3922 18.2439 15.8694 18.8864 15.8694C19.2964 15.8694 19.6834 16.0879 19.8855 16.4399C19.9141 16.4824 21.407 19.0613 22.9915 21.7926C24.5053 24.4009 26.0707 27.098 26.0936 27.1429C26.1641 27.2611 26.3014 27.3385 26.4444 27.3385C26.6675 27.3385 26.8505 27.1558 26.8505 26.931V17.0345C26.8505 16.3922 27.3729 15.8694 28.0136 15.8694C28.4273 15.8694 28.8086 16.0879 29.0165 16.4399C29.0432 16.4824 30.538 19.0613 32.1186 21.7926C33.6325 24.4009 35.1921 27.0973 35.2188 27.1429C35.2894 27.2611 35.4266 27.3385 35.5677 27.3385C35.7927 27.3385 35.9757 27.1558 35.9757 26.931V14.1004H34.0805V21.7383C34.0805 21.7383 30.5532 15.6635 30.4369 15.4684C29.9221 14.5874 28.9459 14.031 27.9087 14.031C26.2766 14.031 24.9591 15.3525 24.9591 16.981V21.7383C24.9591 21.7383 21.428 15.6635 21.3136 15.4684C20.7988 14.5874 19.8207 14.031 18.7816 14.031C17.1514 14.031 15.832 15.3525 15.832 16.981V24.7973C15.832 25.0818 15.6184 25.3298 15.3057 25.3302H12.3047C10.459 25.3302 8.96231 23.8331 8.96231 21.9876C8.96231 20.1414 10.459 18.6451 12.3047 18.6451H14.8214V16.7512H12.2818C9.39513 16.7512 7.04614 19.1 7.04614 21.9876Z" fill="white"/>
<path d="M36.7484 14.123V26.9536C36.7484 27.596 36.226 28.1188 35.5834 28.1188C35.1735 28.1188 34.7865 27.8999 34.5805 27.5479C34.5558 27.5054 33.0628 24.9259 31.4784 22.1948C29.9683 19.5877 28.403 16.8909 28.3801 16.8452C28.3096 16.7262 28.1742 16.6497 28.0293 16.6497C27.8062 16.6497 27.6232 16.8324 27.6232 17.0572V26.9536C27.6232 27.596 27.1008 28.1188 26.4563 28.1188C26.0464 28.1188 25.665 27.8999 25.4572 27.5479C25.4343 27.5058 23.9357 24.9259 22.3513 22.1948C20.8374 19.5865 19.2778 16.8894 19.2511 16.8452C19.1805 16.7262 19.0433 16.6497 18.9022 16.6497C18.6772 16.6497 18.4941 16.8324 18.4941 17.0572V26.7515C18.4941 27.4192 17.9088 28.0036 17.2415 28.0036H12.2975C8.9933 28.0036 6.30491 25.3151 6.30491 22.0103C6.30491 18.7051 8.9933 16.0169 12.2975 16.0169H14.8372V14.123H12.3013C7.94274 14.123 4.41162 17.654 4.41162 22.0103C4.41162 26.3666 7.94274 29.8979 12.3013 29.8979H17.291C19.1805 29.8987 20.3932 28.7911 20.3932 26.7489V22.2503C20.3932 22.2503 23.9471 28.3676 24.0368 28.5194C24.5535 29.4005 25.5278 29.9568 26.565 29.9568C28.1971 29.9568 29.5165 28.6353 29.5165 27.0069V22.2503C29.5165 22.2503 33.0457 28.3243 33.1601 28.5194C33.6749 29.4005 34.6549 29.9568 35.6921 29.9568C37.3223 29.9568 38.6417 28.6353 38.6417 27.0069V14.123H36.7484Z" fill="white"/>
<defs>
<linearGradient id="paint0_linear" x1="20.8059" y1="14.2617" x2="153.064" y2="14.534" gradientUnits="userSpaceOnUse">
<stop stop-color="#002F68"/>
<stop offset="0.4" stop-color="#1281EC"/>
<stop offset="1" stop-color="#013F7E"/>
</linearGradient>
<linearGradient id="paint1_linear" x1="103.498" y1="44.0001" x2="103.498" y2="28.9506" gradientUnits="userSpaceOnUse">
<stop stop-color="#D9D9D9"/>
<stop offset="1" stop-color="white"/>
</linearGradient>
</defs>
</svg>
