<svg width="174" height="226" viewBox="0 0 174 226" fill="none" xmlns="http://www.w3.org/2000/svg">
<path d="M150.905 222.46C149.929 221.367 149.588 220.089 149.368 218.772C148.695 214.747 148.061 210.723 147.339 206.708C145.924 198.864 143.636 191.293 139.929 184.21C138.939 182.43 137.853 180.706 136.675 179.044C136.366 178.562 135.928 178.175 135.411 177.927C134.894 177.679 134.319 177.579 133.748 177.639C132.163 177.708 130.573 177.639 128.987 177.639C125.573 177.537 122.202 177.405 118.382 177.269C117.699 178.098 116.777 179.22 115.851 180.347C114.231 182.4 112.205 184.097 109.899 185.332C106.343 187.166 102.763 187.737 98.7626 186.644C93.7967 185.288 89.1284 183.474 84.8161 180.625C78.7806 176.593 73.1144 172.033 67.8842 167C63.2061 162.547 58.6158 157.971 54.2255 153.254C50.9815 149.785 48.162 145.937 44.9961 142.376C40.6546 137.497 37.2448 132.053 34.0984 126.405C32.7862 124.053 31.6593 121.595 30.43 119.131C31.4057 118.731 31.6301 119.39 31.8935 119.751C33.6236 121.988 35.3309 124.248 37.0155 126.531C46.3473 139.127 56.484 151.02 67.933 161.756C73.1725 166.782 78.8504 171.331 84.899 175.347C89.182 178.127 93.6016 180.659 98.6114 181.947C99.0456 182.059 99.47 182.23 99.9139 182.318C104.929 183.342 109.07 181.791 112.402 177.986C114.825 175.132 116.966 172.051 118.797 168.786C123.007 161.517 126.402 153.868 129.69 146.146C133.392 137.463 135.944 128.439 138.158 119.317C138.534 117.775 138.831 116.214 139.066 114.648C139.641 110.746 140.236 106.804 140.675 102.868C140.95 100.275 141.094 97.67 141.105 95.0628C141.162 93.5788 140.833 92.1054 140.149 90.7874C139.465 89.4694 138.449 88.3522 137.202 87.5456C132.085 84.009 127.08 80.3162 121.529 77.3894C119.816 76.5221 118.042 75.7819 116.221 75.1747C115.212 74.8517 114.128 74.8517 113.119 75.1747C113.748 75.5357 114.373 75.9064 115.012 76.2576C118.778 78.3308 121.353 81.2918 122.231 85.6138C122.529 87.168 123.177 88.6341 124.124 89.9017C125.026 91.2413 125.855 92.6287 126.607 94.0579C127.709 92.9798 128.031 91.4578 129.607 91.0139C128.89 94.2335 127.656 97.0969 126.392 99.9945C122.178 109.726 115.66 117.805 108.519 125.468C107.129 126.961 105.797 128.512 104.387 129.985C100.304 134.273 97.1626 139.288 93.5674 143.951C92.8211 144.927 92.2162 146.02 90.9479 146.878C90.4601 144.268 92.0064 142.629 93.0601 140.868C94.1138 139.107 95.3284 137.502 96.5041 135.79C93.8688 132.055 90.7819 128.66 87.3137 125.683C87.2374 125.599 87.1443 125.533 87.0405 125.488C83.8259 124.561 82.6502 121.824 81.3283 119.175C80.7933 118.06 80.1161 117.019 79.3136 116.078C76.016 112.336 72.5916 108.707 69.3183 104.946C67.4598 102.814 65.7964 100.512 64.0695 98.2677C63.8445 97.9149 63.6549 97.5407 63.5036 97.1506C63.689 96.9799 63.7573 96.8725 63.8451 96.8481C63.9004 96.8317 63.9585 96.8271 64.0156 96.8347C64.0728 96.8423 64.1277 96.8618 64.1768 96.892C65.0695 97.5847 65.9964 98.2433 66.8354 98.9994C68.8452 100.819 70.8111 102.687 72.8745 104.604C74.0257 103.765 73.9135 102.687 73.8013 101.477C72.9086 100.951 72.0501 100.434 71.1769 99.9311C65.0841 96.414 60.7377 91.2968 57.6987 85.0382C56.0492 81.771 55.4479 78.0744 55.9767 74.4527C56.0119 73.946 56.0119 73.4375 55.9767 72.9307L52.245 72.36C52.1669 71.9503 52.0547 71.5405 52.0157 71.121C51.9767 70.7015 52.0157 70.2283 52.0157 69.6575C51.5913 69.7795 51.1913 69.7746 51.0401 69.96C50.5084 70.6819 50.0644 71.4624 49.5766 72.2234C49.3717 72.3112 49.1571 72.4868 48.9571 72.4771C44.6351 72.2673 40.7229 73.7747 36.8496 75.404C35.8149 75.8482 34.8555 76.4505 34.0057 77.1893C26.6641 83.5309 22.3275 91.4969 21.2933 101.204C20.1365 112.072 21.6728 123.057 25.7666 133.19C27.3032 137.093 28.9373 140.946 30.6008 144.79C34.6008 153.976 40.0204 162.327 45.6156 170.561C47.0107 172.62 48.2888 174.766 49.5669 176.903C52.9181 182.488 54.323 188.61 54.5474 195.064C54.5648 196.876 54.4261 198.686 54.1328 200.474C53.0397 208.46 50.5374 216.188 46.7424 223.299C46.4254 223.899 46.0546 224.464 45.718 225.03C44.8595 224.869 44.9034 224.245 45.0107 223.723C45.4449 221.62 45.8107 219.494 46.4254 217.445C47.8888 212.567 49.4498 207.728 50.4303 202.703C52.0986 194.127 51.0644 186.02 46.7229 178.405C45.4936 176.239 44.2156 174.093 42.7912 172.064C33.9529 159.419 26.8475 145.648 21.6641 131.117C19.7188 125.546 18.5421 119.737 18.1665 113.848C17.7957 108.648 17.7421 103.429 18.6543 98.2384C20.1005 89.791 24.3214 82.0667 30.6496 76.2869C31.1177 75.78 31.645 75.3312 32.2203 74.9503C36.4643 72.6088 36.8009 68.3258 37.8984 63.8477C34.674 65.999 34.0789 69.2136 32.7667 71.8722C32.529 72.0003 32.281 72.108 32.0252 72.1942C27.5666 73.2673 24.9422 70.56 22.9324 67.2819C20.3372 63.0282 19.8738 58.2476 21.0738 53.4964C22.1568 49.1987 25.0983 46.4963 29.5861 45.6914C30.2544 45.5743 30.9325 45.506 31.5959 45.3694C33.7276 44.945 34.9618 43.584 35.4252 41.5206C35.6149 40.635 35.7388 39.7366 35.796 38.8328C36.1228 34.5351 38.1326 31.5644 42.4351 30.4424C44.1814 29.9887 45.9571 29.6229 47.7278 29.2717C50.0791 28.8131 52.3864 28.2619 54.284 26.6863C54.6965 26.2981 55.0858 25.886 55.4499 25.4521C55.0791 25.335 54.8206 25.1545 54.6694 25.218C50.6888 26.9155 46.4059 27.5302 42.279 28.6863C39.6284 29.3473 37.1703 30.6223 35.1033 32.4083C33.7374 33.6522 32.6252 35.062 32.2886 36.9401C31.5764 40.906 28.9178 43.2182 25.5227 44.8914C24.4056 45.4426 23.2104 45.828 22.108 46.4329C19.8201 47.6963 18.2055 49.5256 17.825 52.2183C17.6006 53.7842 17.4396 55.3598 17.2591 56.9306C17.2006 57.4428 17.1616 57.955 17.1128 58.5306C16.7274 58.3452 16.4103 58.2915 16.3664 58.155C15.4765 55.5665 15.4151 52.7651 16.1908 50.1402C16.6762 48.3691 17.7562 46.8189 19.2494 45.7499C20.5324 44.8475 21.9763 44.1694 23.3519 43.3938C24.5324 42.7304 25.791 42.1499 26.8837 41.3889C27.6545 40.9037 28.3204 40.2692 28.8423 39.5227C29.3642 38.7763 29.7316 37.933 29.9227 37.0425C30.8349 32.4912 33.9862 29.8668 37.8496 27.8863C41.1033 26.2131 44.679 25.5984 48.1717 24.5887C49.362 24.2423 50.5718 23.9399 51.7425 23.535C54.4482 22.625 56.8018 20.8922 58.4743 18.5788C60.2841 16.1398 62.1866 13.73 63.6207 11.0031C66.5476 5.40794 71.4257 2.11522 77.4014 0.851788C88.4796 -1.47019 98.5529 0.924955 107.197 8.40798C109.329 10.2519 111.182 12.4178 113.138 14.4617C114.636 16.0286 115.691 17.9642 116.197 20.0715C116.35 20.5709 116.536 21.0597 116.753 21.535C121.89 23.0326 124.363 26.0667 124.87 31.2668C125.179 34.2202 124.607 37.1989 123.226 39.8279C122.468 41.2199 121.638 42.5714 120.739 43.8767C119.236 46.1402 117.612 48.3353 116.168 50.6329C113.592 54.7256 112.509 59.1013 113.729 63.9404C114.352 66.5587 114.232 69.2989 113.382 71.8527C114.073 72.2132 114.801 72.4962 115.553 72.6966C118.243 73.138 120.817 74.1132 123.124 75.5649C126.329 77.4869 129.465 79.5065 132.602 81.5504C135.066 83.1602 137.48 84.8773 139.919 86.5212C142.617 88.3358 143.783 90.9651 143.631 94.092C143.358 99.7457 143.227 105.419 142.114 111.004C141.87 112.219 142.027 113.541 141.651 114.702C140.87 117.141 141.651 119.092 142.944 121.078C148.31 129.371 152.393 138.361 156.934 147.107C158.883 150.702 160.142 154.63 160.646 158.688C160.945 161.742 160.564 164.824 159.529 167.712C158.012 172.181 154.739 174.727 150.412 176.113C148.124 176.772 145.759 177.132 143.378 177.181C142.617 177.225 141.866 177.342 140.788 177.459C148.178 191.737 151.207 206.737 150.905 222.46ZM96.1723 68.4185C96.0973 66.844 95.4883 65.342 94.4455 64.1599C92.6062 61.8443 90.3075 59.9343 87.6942 58.5501C84.4161 56.8818 80.8941 55.994 77.1916 56.5988C72.5037 57.3598 68.411 59.5257 64.7134 62.4233C63.7489 63.2139 62.9158 64.1524 62.2451 65.2038C60.5411 67.7505 59.3223 70.5901 58.6499 73.5796C58.1987 75.5706 58.1987 77.6374 58.6499 79.6284C59.7231 84.4187 62.4305 88.2968 65.5281 91.931C67.7711 94.4959 70.4767 96.6157 73.5038 98.1799C74.5672 98.7457 75.5379 99.014 76.7087 98.4774C79.4551 97.2042 82.3917 97.0823 85.3527 97.1896C86.4844 97.2286 87.621 97.214 88.7674 97.3116C89.4952 97.3819 90.2294 97.2843 90.9135 97.0264C91.5977 96.7684 92.2136 96.357 92.7138 95.8237C97.5626 91.2139 99.9968 85.5504 100.324 78.9308C100.324 78.443 100.577 77.7991 99.7041 77.4381C98.2407 78.4138 96.6309 79.4918 94.2553 78.4577C95.2601 77.8284 95.9919 77.3942 96.6943 76.9162C97.1232 76.6318 97.4594 76.228 97.6614 75.7546C97.8634 75.2813 97.9223 74.7592 97.8309 74.2527C97.6309 72.6966 96.8553 71.4234 95.3918 70.8673C94.104 70.3795 92.9528 70.8234 92.0699 71.9112C91.7553 72.2314 91.4179 72.5281 91.0601 72.799C91.1479 69.9015 92.0796 69.1551 96.1723 68.4185ZM109.802 97.1603C112.802 98.5604 116.29 98.6628 118.86 101.063C118.621 101.175 118.509 101.273 118.421 101.258C117.758 101.156 117.09 101.063 116.436 100.916C112.353 99.9799 108.27 99.1213 104.026 99.1945C97.4553 99.3018 90.8552 99.2384 84.3039 99.2774C82.8405 99.2774 81.377 99.3652 79.9136 99.5018C79.1747 99.5535 78.4574 99.7728 77.8159 100.143C77.1744 100.513 76.6256 101.025 76.2111 101.638C76.0658 101.996 75.9993 102.38 76.016 102.765C76.7575 103.117 77.5672 102.375 77.9233 103.253C77.5136 104.336 75.4062 104.268 76.1331 106.224H79.0599C78.6794 107.473 76.0697 107.375 77.4941 109.346C78.616 109.653 79.3965 108.18 80.86 108.746C80.0843 109.56 79.4209 110.248 78.4209 111.292L79.6356 112.39C80.063 112.229 80.4787 112.038 80.8795 111.819C83.2502 110.195 85.8942 109.814 88.6844 110.146C90.0308 110.307 91.3625 110.6 92.7138 110.736C94.6065 110.936 96.4553 111.156 98.3773 110.424C103.45 108.497 108.377 109.229 113.099 111.722C113.338 111.848 113.426 112.253 113.587 112.536C112.612 113.239 111.812 112.697 111.002 112.39C108.504 111.443 105.919 111.39 103.294 111.468C100.67 111.546 98.4748 112.502 96.9138 114.883C97.2407 116.136 97.5724 117.444 97.9236 118.746C98.3226 120.172 98.3344 121.679 97.9577 123.112C97.2699 125.736 96.7626 126.19 93.8357 126.634C93.7528 126.634 93.6894 126.795 93.6113 126.878C93.5577 127.092 93.3869 127.366 93.465 127.502C94.7382 129.61 96.4455 131.356 98.148 133.356L105.777 124.483C106.231 123.019 104.651 122.146 105.529 120.834L107.68 122.063C108.27 121.351 108.865 120.673 109.412 119.961C113.06 115.206 116.711 110.447 120.363 105.682C121.051 104.78 121.631 103.804 122.314 102.897C122.59 102.536 122.788 102.123 122.898 101.682C123.008 101.242 123.027 100.784 122.953 100.336C122.675 98.3165 122.519 96.2725 122.114 94.2774C121.504 91.2871 120.831 88.2968 119.978 85.3651C118.968 81.8919 116.475 79.6382 113.324 78.0235C110.685 76.6723 108.08 76.8381 105.519 78.1894C104.777 78.625 104.058 79.1005 103.368 79.6138C103.05 81.3406 102.841 82.9163 102.45 84.448C102.083 85.9868 101.593 87.494 100.987 88.9554C100.363 90.4188 99.4846 91.7408 98.7334 93.1359C97.9821 94.531 96.6504 95.4432 95.9675 97.292C98.2212 97.1555 100.114 97.0238 102.016 96.9311C103.919 96.8384 105.792 96.7945 107.807 96.7262C107.665 93.4188 106.777 90.3261 107.392 87.1748C107.597 87.2285 107.782 87.2285 107.807 87.287C108.968 90.3603 108.768 93.7213 109.802 97.1603ZM140.534 123.175C138.231 131.351 136.07 139.024 133.87 146.859C137.866 147.156 141.773 146.551 145.461 147.976C145.407 148.112 145.397 148.268 145.329 148.298C141.353 149.878 137.036 148.322 132.861 149.517C131.719 152.254 130.607 155.078 129.358 157.844C128.109 160.61 126.69 163.337 125.373 166.093C124.056 168.849 122.124 171.152 120.924 173.956C121.197 174.072 121.481 174.157 121.773 174.21C129.017 174.21 136.266 174.298 143.505 174.161C146.924 174.138 150.27 173.169 153.173 171.361C154.136 170.785 154.967 170.012 155.612 169.093C156.677 167.483 157.346 165.645 157.563 163.727C157.9 160.429 157.812 157.156 156.588 154.015C155.822 152.01 155.051 149.995 154.1 148.073C151.332 142.502 148.511 136.959 145.636 131.444C144.251 128.731 142.88 126 140.534 123.175ZM97.6748 63.316C98.3773 62.6623 98.8992 62.2477 99.3431 61.7599C101.657 59.2672 103.526 56.3963 104.87 53.272C106.943 48.4378 108.226 43.4377 107.909 38.1157C107.772 35.862 107.68 35.5108 106.543 33.4424C106.435 33.4256 106.325 33.4256 106.216 33.4424C105.998 33.5006 105.789 33.5858 105.592 33.6961C101.104 36.623 96.1041 37.7937 90.8406 38.1254C89.4893 38.2132 88.143 38.4425 86.7917 38.4962C84.1429 38.5986 82.0453 39.8669 80.1721 41.5743C79.1391 42.4544 78.2169 43.4569 77.4258 44.5597C75.9331 46.8133 74.616 49.1841 73.2355 51.5159C72.9135 52.0671 72.6403 52.6427 72.1867 53.5012C71.9604 52.9867 71.8391 52.4321 71.8299 51.87C71.8207 51.308 71.9237 50.7498 72.133 50.228C72.6647 48.7402 73.3233 47.3012 73.9038 45.8377C74.0794 45.3938 74.6745 44.9694 74.0452 44.4328C71.9672 46.6524 71.5037 47.4524 69.7866 52.0183C69.3574 53.1549 68.7476 54.2915 69.3622 55.7988C74.2404 54.0476 79.1721 52.8232 84.4844 54.2232C89.8893 55.6476 93.8211 59.0428 97.6748 63.316ZM94.9431 124.044C96.4065 120.141 94.8211 116.619 93.3821 113.048C89.3381 112.38 85.4698 111.131 81.7575 113.809C81.9185 117.409 83.221 120.37 86.0942 123.297C85.9625 121.424 85.8698 120.097 85.7771 118.775C87.3869 120.683 86.9625 123.536 89.5625 125.341C89.2162 123.6 88.9967 122.287 88.6893 121C88.382 119.712 87.9235 118.307 88.5576 116.483C89.7137 118.156 89.6991 119.78 90.2552 121.195C90.8113 122.609 90.8211 124.405 92.3284 125.985C92.904 123.122 91.3528 120.619 92.5577 117.692C94.1187 119.858 93.4211 122.268 94.9431 124.044ZM123.597 93.4871C123.704 95.1067 123.739 95.9994 123.836 96.9018C123.904 97.5555 124.051 98.1945 124.256 99.3848L125.719 96.9945L123.597 93.4871ZM103.275 77.004C104.119 76.5747 104.621 76.3406 105.109 76.0723C105.597 75.804 106.119 75.4771 106.948 74.9844C103.929 75.1162 103.543 75.3113 103.275 77.004ZM110.031 74.5649V74.3991H108.773V74.5649H110.031Z" fill="white"/>
<path d="M69.9181 68.0039L72.4596 65.4526C73.3523 65.8868 73.3036 66.5648 73.1036 66.9892C72.675 67.8882 72.1411 68.7332 71.5133 69.5063C70.8547 70.321 69.962 70.1161 69.0303 69.9405C68.5815 69.8527 68.0547 70.3649 67.5279 70.5258C67.3184 70.6064 67.091 70.6287 66.8699 70.5901C66.6488 70.5516 66.4424 70.4537 66.2726 70.3069C66.1028 70.1602 65.976 69.97 65.9059 69.7569C65.8357 69.5437 65.8247 69.3155 65.8742 69.0966C66.2463 67.6891 66.6958 66.3032 67.2205 64.9453C67.3497 64.7192 67.5325 64.5284 67.7528 64.3897C67.9732 64.251 68.2243 64.1687 68.484 64.1501C68.7395 64.2201 68.9754 64.348 69.1734 64.524C69.3713 64.7 69.526 64.9193 69.6255 65.1648C69.8645 65.8868 69.8059 66.7063 69.9181 68.0039Z" fill="white"/>
<path d="M64.0931 67.7355C64.3659 68.3346 64.518 68.9816 64.5406 69.6395C64.5632 70.2974 64.4559 70.9533 64.2249 71.5697C64.1746 71.6589 64.1045 71.7352 64.0198 71.7928C63.9352 71.8503 63.8384 71.8875 63.737 71.9014C63.5614 71.9014 63.2492 71.7551 63.2151 71.6331C63.0004 70.316 62.9809 69.0331 64.0931 67.7355Z" fill="white"/>
<path d="M19.4393 196.83C19.332 195.659 19.6345 194.123 19.0052 193.415C18.3759 192.708 16.8344 192.879 15.6783 192.718C13.8734 192.474 12.0539 192.327 10.2587 192.04C9.50264 191.923 8.3075 192.123 8.26359 190.996C8.21481 189.722 9.46361 190.064 10.1856 189.986C13.0149 189.688 15.8539 189.469 18.693 189.264C19.4101 189.215 19.6394 188.927 19.7125 188.23C20.015 185.303 20.3759 182.42 20.7174 179.517C20.7906 178.913 20.7857 178.195 21.6394 178.2C22.493 178.205 22.5565 178.961 22.5809 179.6C22.7028 182.527 22.8345 185.454 22.8784 188.381C22.8784 189.24 23.215 189.488 24.0004 189.542C26.9923 189.757 29.9809 189.996 32.9664 190.259C33.3384 190.275 33.6992 190.391 34.0103 190.596C34.1908 190.737 34.3127 191.288 34.2054 191.391C33.8946 191.735 33.4862 191.977 33.0346 192.083C31.0834 192.298 29.1029 192.415 27.137 192.571C26.1126 192.649 25.0931 192.771 24.0736 192.796C23.943 192.78 23.8105 192.792 23.685 192.831C23.5595 192.871 23.4439 192.936 23.346 193.024C23.248 193.112 23.17 193.22 23.1171 193.34C23.0642 193.461 23.0377 193.591 23.0394 193.723C22.6004 196.498 22.1369 199.269 21.6735 202.015C21.6453 202.468 21.5483 202.914 21.3857 203.337C21.1414 203.673 20.8449 203.968 20.5077 204.21C20.2247 203.864 19.732 203.542 19.6979 203.176C19.5369 201.552 19.5125 199.918 19.4296 198.298C19.4296 197.81 19.3759 197.323 19.3467 196.835L19.4393 196.83Z" fill="white"/>
<path d="M145.782 72.9259C145.675 71.7551 145.977 70.2185 145.348 69.5112C144.719 68.8039 143.177 68.9746 142.021 68.8136C140.216 68.5697 138.397 68.4234 136.602 68.1356C135.845 68.0185 134.65 68.2185 134.606 67.0917C134.558 65.8185 135.806 66.16 136.528 66.0819C139.358 65.7843 142.197 65.5648 145.036 65.3599C145.753 65.3112 145.982 65.0233 146.055 64.3258C146.358 61.3989 146.719 58.5159 147.06 55.6135C147.133 55.0086 147.128 54.2915 147.982 54.2964C148.836 54.3013 148.899 55.0574 148.924 55.6964C149.046 58.6233 149.177 61.5501 149.221 64.477C149.221 65.3355 149.558 65.5843 150.343 65.638C153.332 65.8526 156.32 66.0917 159.309 66.3551C159.681 66.3706 160.042 66.4869 160.353 66.6917C160.534 66.8331 160.655 67.3844 160.548 67.4868C160.237 67.8313 159.829 68.0729 159.377 68.1795C157.426 68.3941 155.446 68.5112 153.48 68.6673C152.455 68.7453 151.436 68.8673 150.416 68.8917C150.286 68.8757 150.153 68.8878 150.028 68.9272C149.902 68.9666 149.787 69.0324 149.689 69.1202C149.591 69.208 149.513 69.3157 149.46 69.4362C149.407 69.5566 149.38 69.687 149.382 69.8185C148.943 72.5942 148.48 75.3649 148.016 78.1357C147.988 78.5884 147.891 79.0342 147.728 79.4577C147.484 79.7936 147.188 80.0884 146.85 80.3309C146.568 79.9845 146.075 79.6626 146.041 79.2967C145.88 77.6723 145.855 76.0381 145.772 74.4186C145.772 73.9308 145.719 73.443 145.689 72.9552L145.782 72.9259Z" fill="white"/>
<path d="M173.831 95.9699C173.361 96.2611 172.852 96.4844 172.319 96.6334C171.223 96.7554 170.119 96.8043 169.017 96.7797C167.982 96.7797 167.499 97.1114 167.582 98.2431C167.645 99.301 167.593 100.362 167.426 101.409C167.368 101.833 166.938 102.199 166.66 102.594C166.299 102.224 165.768 101.916 165.616 101.477C165.246 100.302 164.941 99.1065 164.704 97.8968C164.543 97.1602 164.163 96.9212 163.407 96.9212C162.216 96.9521 161.024 96.8999 159.841 96.7651C159.47 96.7212 159.153 96.248 158.812 95.9699C159.104 95.6431 159.338 95.1358 159.694 95.0187C160.992 94.6041 162.353 94.3846 163.641 93.9455C163.878 93.84 164.089 93.6854 164.261 93.492C164.434 93.2986 164.563 93.0707 164.641 92.8236C164.977 91.5016 165.099 90.126 165.426 88.804C165.529 88.3845 166.021 88.0625 166.338 87.6967C166.665 88.1016 167.221 88.4772 167.28 88.9211C167.414 90.1947 167.479 91.4746 167.475 92.7553C167.475 93.5163 167.753 93.926 168.617 94.0187C169.974 94.1814 171.321 94.4225 172.651 94.7407C173.086 94.9141 173.492 95.1562 173.851 95.4577C173.846 95.6334 173.836 95.7992 173.831 95.9699Z" fill="white"/>
<path d="M16.2398 163.346C15.8768 163.564 15.4841 163.729 15.074 163.834C14.2287 163.93 13.378 163.969 12.5276 163.951C11.7324 163.951 11.3617 164.205 11.4251 165.083C11.4744 165.898 11.4335 166.716 11.3032 167.522C11.2593 167.844 10.9227 168.127 10.7129 168.434C10.4397 168.146 10.0251 167.912 9.90803 167.571C9.62416 166.666 9.38967 165.745 9.20559 164.815C9.19551 164.697 9.16073 164.583 9.10351 164.48C9.0463 164.376 8.96794 164.286 8.87356 164.215C8.77917 164.145 8.67089 164.094 8.55578 164.068C8.44068 164.042 8.32134 164.04 8.20557 164.063C7.28842 164.084 6.37093 164.043 5.45919 163.942C5.17139 163.907 4.92748 163.542 4.66406 163.327C4.88846 163.078 5.06895 162.683 5.347 162.595C6.34701 162.273 7.39581 162.107 8.38606 161.766C8.56831 161.685 8.73126 161.566 8.86412 161.417C8.99699 161.268 9.09675 161.093 9.1568 160.902C9.42022 159.888 9.50803 158.824 9.76169 157.805C9.84462 157.483 10.2202 157.234 10.4641 156.951C10.7178 157.263 11.1471 157.551 11.191 157.893C11.2951 158.875 11.3456 159.861 11.3422 160.849C11.3422 161.439 11.5568 161.751 12.2203 161.824C13.2676 161.949 14.3067 162.135 15.3325 162.381C15.6685 162.514 15.9812 162.7 16.2593 162.932L16.2398 163.346Z" fill="white"/>
<path d="M173.07 203.991C173.07 205.279 172.489 206.001 171.441 206.015C170.465 206.015 169.816 205.293 169.802 204.191C169.78 203.938 169.811 203.683 169.893 203.442C169.975 203.202 170.107 202.981 170.279 202.794C170.451 202.606 170.66 202.457 170.892 202.355C171.125 202.253 171.377 202.2 171.631 202.201C172.519 202.22 173.065 202.898 173.07 203.991Z" fill="white"/>
<path d="M160.875 129.844C160.875 131.131 160.294 131.853 159.245 131.868C158.27 131.868 157.621 131.146 157.606 130.044C157.585 129.79 157.616 129.535 157.698 129.295C157.78 129.054 157.911 128.833 158.083 128.646C158.255 128.459 158.464 128.31 158.697 128.208C158.93 128.106 159.181 128.053 159.436 128.053C160.323 128.073 160.87 128.751 160.875 129.844Z" fill="white"/>
<path d="M10.1417 125.941C10.1417 127.229 9.56119 127.951 8.5124 127.966C7.53678 127.966 6.88799 127.244 6.87335 126.141C6.85172 125.888 6.88296 125.633 6.96509 125.392C7.04722 125.152 7.17845 124.931 7.35045 124.744C7.52245 124.557 7.73147 124.407 7.96425 124.305C8.19702 124.203 8.44847 124.151 8.70265 124.151C9.59046 124.17 10.1368 124.848 10.1417 125.941Z" fill="white"/>
<path d="M7.21444 205.942C7.21444 207.23 6.63395 207.952 5.58515 207.967C4.60953 207.967 3.96074 207.245 3.94611 206.142C3.92448 205.889 3.95572 205.634 4.03785 205.393C4.11998 205.153 4.25121 204.932 4.42321 204.745C4.59521 204.558 4.80423 204.408 5.037 204.306C5.26978 204.204 5.52123 204.152 5.7754 204.152C6.66322 204.171 7.20957 204.849 7.21444 205.942Z" fill="white"/>
<path d="M170.612 184.298C170.202 184.752 170.066 185.054 169.851 185.127C167.222 186.049 166.948 188.244 166.861 190.552C166.886 190.868 166.829 191.186 166.695 191.474C166.605 191.594 166.489 191.691 166.355 191.759C166.221 191.826 166.074 191.862 165.924 191.864C165.744 191.819 165.575 191.739 165.426 191.628C165.277 191.518 165.151 191.379 165.056 191.22C164.744 190.493 164.607 189.698 164.344 188.947C163.651 186.996 162.724 186.376 160.69 186.332C160.334 186.358 159.976 186.323 159.631 186.23C159.373 186.127 159.046 185.83 159.026 185.6C159.054 185.265 159.193 184.949 159.421 184.703C159.603 184.547 159.824 184.444 160.061 184.405C162.431 183.761 163.124 181.995 163.222 179.786C163.237 179.239 163.377 178.704 163.631 178.22C163.74 178.045 163.89 177.898 164.067 177.793C164.245 177.688 164.445 177.627 164.651 177.615C164.953 177.659 165.295 178.142 165.422 178.503C165.565 179.082 165.671 179.671 165.739 180.264C166.114 182 166.978 183.235 168.9 183.517C169.436 183.596 169.929 183.976 170.612 184.298ZM163.187 184.786L165.485 186.849C165.875 186.2 166.285 185.532 166.646 184.947L164.529 182.683L163.187 184.786Z" fill="white"/>
<path d="M11.5855 86.2479C11.1758 86.7015 11.0392 87.004 10.8245 87.0771C8.19523 87.9991 7.92205 90.1942 7.83425 92.5016C7.85969 92.8181 7.80255 93.1358 7.66839 93.4236C7.57851 93.5434 7.46223 93.641 7.32857 93.7086C7.19491 93.7763 7.04746 93.8123 6.89765 93.8138C6.71767 93.7689 6.54833 93.6889 6.39933 93.5784C6.25033 93.4679 6.1246 93.3291 6.02935 93.1699C5.71715 92.4431 5.58056 91.6479 5.31714 90.8967C4.62445 88.9698 3.69761 88.3259 1.66344 88.282C1.30733 88.308 0.949401 88.2734 0.604886 88.1796C0.346346 88.0771 0.0195124 87.7796 0 87.5503C0.0286698 87.217 0.167723 86.9029 0.395127 86.6576C0.576599 86.5014 0.797772 86.3984 1.03416 86.3601C3.40492 85.7161 4.09761 83.9503 4.19518 81.7405C4.21028 81.1941 4.35045 80.6584 4.60494 80.1746C4.7125 79.9999 4.86026 79.8534 5.0359 79.7473C5.21155 79.6413 5.40999 79.5787 5.61471 79.5648C5.91715 79.6087 6.25862 80.0917 6.38545 80.4527C6.52902 81.0322 6.63493 81.6204 6.70253 82.2137C7.07814 83.9503 7.94157 85.1844 9.86354 85.4674C10.4099 85.5454 10.9026 85.9259 11.5855 86.2479ZM4.16103 86.7357L6.45862 88.7991C6.84887 88.1503 7.25863 87.482 7.61961 86.8966L5.50251 84.6332L4.16103 86.7357Z" fill="white"/>
</svg>
