<svg width="357" height="462" viewBox="0 0 357 462" fill="none" xmlns="http://www.w3.org/2000/svg">
<path d="M309.35 456.036C307.35 453.796 306.65 451.176 306.2 448.476C304.82 440.226 303.52 431.976 302.04 423.746C299.14 407.666 294.45 392.146 286.85 377.626C284.821 373.977 282.594 370.442 280.18 367.036C279.545 366.047 278.648 365.254 277.588 364.746C276.529 364.237 275.349 364.033 274.18 364.156C270.93 364.296 267.67 364.156 264.42 364.156C257.42 363.946 250.51 363.676 242.68 363.396C241.28 365.096 239.39 367.396 237.49 369.706C234.169 373.915 230.016 377.394 225.29 379.926C218 383.686 210.66 384.856 202.46 382.616C192.28 379.836 182.71 376.116 173.87 370.276C161.497 362.01 149.882 352.664 139.16 342.346C129.57 333.216 120.16 323.836 111.16 314.166C104.51 307.056 98.73 299.166 92.24 291.866C83.34 281.866 76.35 270.706 69.9 259.126C67.21 254.306 64.9 249.266 62.38 244.216C64.38 243.396 64.84 244.746 65.38 245.486C68.9267 250.073 72.4267 254.706 75.88 259.386C95.01 285.206 115.79 309.586 139.26 331.596C150.001 341.9 161.64 351.223 174.04 359.456C182.82 365.156 191.88 370.346 202.15 372.986C203.04 373.216 203.91 373.566 204.82 373.746C215.1 375.846 223.59 372.666 230.42 364.866C235.387 359.016 239.777 352.7 243.53 346.006C252.16 331.106 259.12 315.426 265.86 299.596C273.45 281.796 278.68 263.296 283.22 244.596C283.99 241.436 284.6 238.236 285.08 235.026C286.26 227.026 287.48 218.946 288.38 210.876C288.944 205.561 289.237 200.221 289.26 194.876C289.378 191.834 288.703 188.814 287.301 186.112C285.898 183.41 283.816 181.12 281.26 179.466C270.77 172.216 260.51 164.646 249.13 158.646C245.619 156.868 241.983 155.351 238.25 154.106C236.182 153.444 233.958 153.444 231.89 154.106C233.18 154.846 234.46 155.606 235.77 156.326C243.49 160.576 248.77 166.646 250.57 175.506C251.181 178.692 252.508 181.698 254.45 184.296C256.299 187.042 257.998 189.886 259.54 192.816C261.8 190.606 262.46 187.486 265.69 186.576C264.22 193.176 261.69 199.046 259.1 204.986C250.46 224.936 237.1 241.496 222.46 257.206C219.61 260.266 216.88 263.446 213.99 266.466C205.62 275.256 199.18 285.536 191.81 295.096C190.28 297.096 189.04 299.336 186.44 301.096C185.44 295.746 188.61 292.386 190.77 288.776C192.93 285.166 195.42 281.876 197.83 278.366C192.428 270.71 186.1 263.75 178.99 257.646C178.834 257.475 178.643 257.339 178.43 257.246C171.84 255.346 169.43 249.736 166.72 244.306C165.623 242.02 164.235 239.886 162.59 237.956C155.83 230.286 148.81 222.846 142.1 215.136C138.29 210.766 134.88 206.046 131.34 201.446C130.879 200.723 130.49 199.956 130.18 199.156C130.56 198.806 130.7 198.586 130.88 198.536C130.993 198.502 131.112 198.493 131.23 198.509C131.347 198.524 131.459 198.564 131.56 198.626C133.39 200.046 135.29 201.396 137.01 202.946C141.13 206.676 145.16 210.506 149.39 214.436C151.75 212.716 151.52 210.506 151.29 208.026C149.46 206.946 147.7 205.886 145.91 204.856C133.42 197.646 124.51 187.156 118.28 174.326C114.899 167.628 113.666 160.05 114.75 152.626C114.822 151.587 114.822 150.545 114.75 149.506L107.1 148.336C106.94 147.496 106.71 146.656 106.63 145.796C106.55 144.936 106.63 143.966 106.63 142.796C105.76 143.046 104.94 143.036 104.63 143.416C103.54 144.896 102.63 146.496 101.63 148.056C101.21 148.236 100.77 148.596 100.36 148.576C91.5 148.146 83.48 151.236 75.54 154.576C73.4188 155.487 71.452 156.721 69.71 158.236C54.66 171.236 45.77 187.566 43.65 207.466C41.2785 229.744 44.4278 252.263 52.82 273.036C55.97 281.036 59.32 288.936 62.73 296.816C70.93 315.646 82.04 332.766 93.51 349.646C96.37 353.866 98.99 358.266 101.61 362.646C108.48 374.096 111.36 386.646 111.82 399.876C111.856 403.59 111.571 407.301 110.97 410.966C108.729 427.337 103.6 443.179 95.82 457.756C95.17 458.986 94.41 460.146 93.72 461.306C91.96 460.976 92.05 459.696 92.27 458.626C93.16 454.316 93.91 449.956 95.17 445.756C98.17 435.756 101.37 425.836 103.38 415.536C106.8 397.956 104.68 381.336 95.78 365.726C93.26 361.286 90.64 356.886 87.72 352.726C69.6019 326.804 55.0358 298.574 44.41 268.786C40.4222 257.367 38.01 245.457 37.24 233.386C36.48 222.726 36.37 212.026 38.24 201.386C41.2048 184.069 49.8575 168.235 62.83 156.386C63.7896 155.347 64.8707 154.427 66.05 153.646C74.75 148.846 75.44 140.066 77.69 130.886C71.08 135.296 69.86 141.886 67.17 147.336C66.6828 147.599 66.1744 147.819 65.65 147.996C56.51 150.196 51.13 144.646 47.01 137.926C41.69 129.206 40.74 119.406 43.2 109.666C45.42 100.856 51.45 95.3161 60.65 93.6661C62.02 93.4261 63.41 93.2861 64.77 93.0061C69.14 92.1361 71.67 89.3461 72.62 85.1161C73.0088 83.3007 73.2629 81.459 73.38 79.6061C74.05 70.7961 78.17 64.7061 86.99 62.4061C90.57 61.4761 94.21 60.7261 97.84 60.0061C102.66 59.0661 107.39 57.9361 111.28 54.7061C112.126 53.9105 112.924 53.0657 113.67 52.1761C112.91 51.9361 112.38 51.5661 112.07 51.6961C103.91 55.1761 95.13 56.4361 86.67 58.8061C81.2364 60.1612 76.1974 62.7749 71.96 66.4361C69.16 68.9861 66.88 71.8761 66.19 75.7261C64.73 83.8561 59.28 88.5961 52.32 92.0261C50.03 93.1561 47.58 93.9461 45.32 95.1861C40.63 97.7761 37.32 101.526 36.54 107.046C36.08 110.256 35.75 113.486 35.38 116.706C35.26 117.756 35.18 118.806 35.08 119.986C34.29 119.606 33.64 119.496 33.55 119.216C31.7257 113.91 31.5999 108.167 33.19 102.786C34.1851 99.1554 36.399 95.9776 39.46 93.7861C42.09 91.9361 45.05 90.5461 47.87 88.9561C50.29 87.5961 52.87 86.4061 55.11 84.8461C56.6901 83.8515 58.0553 82.5508 59.1252 81.0206C60.1951 79.4904 60.9482 77.7617 61.34 75.9361C63.21 66.6061 69.67 61.2261 77.59 57.1661C84.26 53.7361 91.59 52.4761 98.75 50.4061C101.19 49.6961 103.67 49.0761 106.07 48.2461C111.617 46.3807 116.441 42.8285 119.87 38.0861C123.58 33.0861 127.48 28.1461 130.42 22.5561C136.42 11.0861 146.42 4.33614 158.67 1.74614C181.38 -3.01386 202.03 1.89613 219.75 17.2361C224.12 21.0161 227.92 25.4561 231.93 29.6461C234.999 32.8581 237.163 36.8261 238.2 41.1461C238.515 42.1698 238.895 43.1719 239.34 44.1461C249.87 47.2161 254.94 53.4361 255.98 64.0961C256.613 70.1505 255.44 76.2567 252.61 81.6461C251.056 84.4997 249.353 87.2702 247.51 89.9461C244.43 94.5861 241.1 99.0861 238.14 103.796C232.86 112.186 230.64 121.156 233.14 131.076C234.418 136.443 234.172 142.061 232.43 147.296C233.845 148.035 235.337 148.615 236.88 149.026C242.394 149.931 247.671 151.93 252.4 154.906C258.97 158.846 265.4 162.986 271.83 167.176C276.88 170.476 281.83 173.996 286.83 177.366C292.36 181.086 294.75 186.476 294.44 192.886C293.88 204.476 293.61 216.106 291.33 227.556C290.83 230.046 291.15 232.756 290.38 235.136C288.78 240.136 290.38 244.136 293.03 248.206C304.03 265.206 312.4 283.636 321.71 301.566C325.704 308.936 328.285 316.988 329.32 325.306C329.932 331.566 329.15 337.884 327.03 343.806C323.92 352.966 317.21 358.186 308.34 361.026C303.649 362.379 298.801 363.115 293.92 363.216C292.36 363.306 290.82 363.546 288.61 363.786C303.76 393.056 309.97 423.806 309.35 456.036ZM197.15 140.256C196.996 137.028 195.748 133.949 193.61 131.526C189.839 126.779 185.127 122.864 179.77 120.026C173.05 116.606 165.83 114.786 158.24 116.026C148.63 117.586 140.24 122.026 132.66 127.966C130.683 129.587 128.975 131.511 127.6 133.666C124.107 138.887 121.608 144.708 120.23 150.836C119.305 154.918 119.305 159.155 120.23 163.236C122.43 173.056 127.98 181.006 134.33 188.456C138.928 193.714 144.475 198.06 150.68 201.266C152.86 202.426 154.85 202.976 157.25 201.876C162.88 199.266 168.9 199.016 174.97 199.236C177.29 199.316 179.62 199.286 181.97 199.486C183.462 199.63 184.967 199.43 186.37 198.902C187.772 198.373 189.035 197.529 190.06 196.436C200 186.986 204.99 175.376 205.66 161.806C205.66 160.806 206.18 159.486 204.39 158.746C201.39 160.746 198.09 162.956 193.22 160.836C195.28 159.546 196.78 158.656 198.22 157.676C199.099 157.093 199.788 156.265 200.203 155.295C200.617 154.325 200.737 153.254 200.55 152.216C200.14 149.026 198.55 146.416 195.55 145.276C192.91 144.276 190.55 145.186 188.74 147.416C188.095 148.072 187.403 148.681 186.67 149.236C186.85 143.296 188.76 141.766 197.15 140.256ZM225.09 199.176C231.24 202.046 238.39 202.256 243.66 207.176C243.17 207.406 242.94 207.606 242.76 207.576C241.4 207.366 240.03 207.176 238.69 206.876C230.32 204.956 221.95 203.196 213.25 203.346C199.78 203.566 186.25 203.436 172.82 203.516C169.82 203.516 166.82 203.696 163.82 203.976C162.305 204.082 160.835 204.532 159.52 205.29C158.205 206.049 157.08 207.098 156.23 208.356C155.932 209.088 155.796 209.876 155.83 210.666C157.35 211.386 159.01 209.866 159.74 211.666C158.9 213.886 154.58 213.746 156.07 217.756H162.07C161.29 220.316 155.94 220.116 158.86 224.156C161.16 224.786 162.76 221.766 165.76 222.926C164.17 224.596 162.81 226.006 160.76 228.146L163.25 230.396C164.126 230.066 164.978 229.675 165.8 229.226C170.66 225.896 176.08 225.116 181.8 225.796C184.56 226.126 187.29 226.726 190.06 227.006C193.94 227.416 197.73 227.866 201.67 226.366C212.07 222.416 222.17 223.916 231.85 229.026C232.34 229.286 232.52 230.116 232.85 230.696C230.85 232.136 229.21 231.026 227.55 230.396C222.43 228.456 217.13 228.346 211.75 228.506C206.37 228.666 201.87 230.626 198.67 235.506C199.34 238.076 200.02 240.756 200.74 243.426C201.558 246.35 201.582 249.44 200.81 252.376C199.4 257.756 198.36 258.686 192.36 259.596C192.19 259.596 192.06 259.926 191.9 260.096C191.79 260.536 191.44 261.096 191.6 261.376C194.21 265.696 197.71 269.276 201.2 273.376L216.84 255.186C217.77 252.186 214.53 250.396 216.33 247.706L220.74 250.226C221.95 248.766 223.17 247.376 224.29 245.916C231.77 236.169 239.253 226.413 246.74 216.646C248.15 214.796 249.34 212.796 250.74 210.936C251.304 210.196 251.712 209.349 251.937 208.446C252.162 207.544 252.201 206.604 252.05 205.686C251.48 201.546 251.16 197.356 250.33 193.266C249.08 187.136 247.7 181.006 245.95 174.996C243.88 167.876 238.77 163.256 232.31 159.946C226.9 157.176 221.56 157.516 216.31 160.286C214.788 161.179 213.316 162.154 211.9 163.206C211.25 166.746 210.82 169.976 210.02 173.116C209.266 176.271 208.263 179.36 207.02 182.356C205.74 185.356 203.94 188.066 202.4 190.926C200.86 193.786 198.13 195.656 196.73 199.446C201.35 199.166 205.23 198.896 209.13 198.706C213.03 198.516 216.87 198.426 221 198.286C220.71 191.506 218.89 185.166 220.15 178.706C220.57 178.816 220.95 178.816 221 178.936C223.38 185.236 222.97 192.126 225.09 199.176ZM288.09 252.506C283.37 269.266 278.94 284.996 274.43 301.056C282.62 301.666 290.63 300.426 298.19 303.346C298.08 303.626 298.06 303.946 297.92 304.006C289.77 307.246 280.92 304.056 272.36 306.506C270.02 312.116 267.74 317.906 265.18 323.576C262.62 329.246 259.71 334.836 257.01 340.486C254.31 346.136 250.35 350.856 247.89 356.606C248.449 356.843 249.033 357.017 249.63 357.126C264.48 357.126 279.34 357.306 294.18 357.026C301.19 356.978 308.049 354.991 314 351.286C315.974 350.104 317.678 348.52 319 346.636C321.183 343.337 322.554 339.567 323 335.636C323.69 328.876 323.51 322.166 321 315.726C319.43 311.616 317.85 307.486 315.9 303.546C310.227 292.126 304.443 280.763 298.55 269.456C295.71 263.896 292.9 258.296 288.09 252.506ZM200.23 129.796C201.67 128.456 202.74 127.606 203.65 126.606C208.393 121.496 212.225 115.611 214.98 109.206C219.23 99.2961 221.86 89.0461 221.21 78.1361C220.93 73.5161 220.74 72.7961 218.41 68.5561C218.188 68.5216 217.962 68.5216 217.74 68.5561C217.293 68.6754 216.863 68.8501 216.46 69.0761C207.26 75.0761 197.01 77.4761 186.22 78.1561C183.45 78.3361 180.69 78.8061 177.92 78.9161C172.49 79.1261 168.19 81.7261 164.35 85.2261C162.232 87.0305 160.342 89.0855 158.72 91.3461C155.66 95.9661 152.96 100.826 150.13 105.606C149.47 106.736 148.91 107.916 147.98 109.676C147.516 108.621 147.267 107.484 147.249 106.332C147.23 105.18 147.441 104.036 147.87 102.966C148.96 99.9161 150.31 96.9661 151.5 93.9661C151.86 93.0561 153.08 92.1861 151.79 91.0861C147.53 95.6361 146.58 97.2761 143.06 106.636C142.18 108.966 140.93 111.296 142.19 114.386C152.19 110.796 162.3 108.286 173.19 111.156C184.27 114.076 192.33 121.036 200.23 129.796ZM194.63 254.286C197.63 246.286 194.38 239.066 191.43 231.746C183.14 230.376 175.21 227.816 167.6 233.306C167.93 240.686 170.6 246.756 176.49 252.756C176.22 248.916 176.03 246.196 175.84 243.486C179.14 247.396 178.27 253.246 183.6 256.946C182.89 253.376 182.44 250.686 181.81 248.046C181.18 245.406 180.24 242.526 181.54 238.786C183.91 242.216 183.88 245.546 185.02 248.446C186.16 251.346 186.18 255.026 189.27 258.266C190.45 252.396 187.27 247.266 189.74 241.266C192.94 245.706 191.51 250.646 194.63 254.286ZM253.37 191.646C253.59 194.966 253.66 196.796 253.86 198.646C254 199.986 254.3 201.296 254.72 203.736L257.72 198.836L253.37 191.646ZM211.71 157.856C213.44 156.976 214.47 156.496 215.47 155.946C216.47 155.396 217.54 154.726 219.24 153.716C213.05 153.986 212.26 154.386 211.71 157.856ZM225.56 152.856V152.516H222.98V152.856H225.56Z" fill="#15141D"/>
<path d="M143.33 139.406L148.54 134.176C150.37 135.066 150.27 136.456 149.86 137.326C148.981 139.169 147.887 140.901 146.6 142.486C145.25 144.156 143.42 143.736 141.51 143.376C140.59 143.196 139.51 144.246 138.43 144.576C138.001 144.741 137.534 144.787 137.081 144.708C136.628 144.629 136.205 144.428 135.857 144.127C135.509 143.827 135.249 143.437 135.105 143C134.961 142.563 134.939 142.095 135.04 141.646C135.803 138.761 136.724 135.92 137.8 133.136C138.065 132.673 138.439 132.281 138.891 131.997C139.343 131.713 139.858 131.544 140.39 131.506C140.914 131.649 141.397 131.912 141.803 132.273C142.209 132.633 142.526 133.083 142.73 133.586C143.22 135.066 143.1 136.746 143.33 139.406Z" fill="#15141D"/>
<path d="M131.39 138.856C131.949 140.084 132.261 141.411 132.307 142.759C132.354 144.108 132.134 145.452 131.66 146.716C131.557 146.899 131.413 147.055 131.24 147.173C131.066 147.291 130.868 147.368 130.66 147.396C130.3 147.396 129.66 147.096 129.59 146.846C129.15 144.146 129.11 141.516 131.39 138.856Z" fill="#15141D"/>
<path d="M39.85 403.496C39.63 401.096 40.25 397.946 38.96 396.496C37.67 395.046 34.51 395.396 32.14 395.066C28.44 394.566 24.71 394.266 21.03 393.676C19.48 393.436 17.03 393.846 16.94 391.536C16.84 388.926 19.4 389.626 20.88 389.466C26.68 388.856 32.5 388.406 38.32 387.986C39.79 387.886 40.26 387.296 40.41 385.866C41.03 379.866 41.77 373.956 42.47 368.006C42.62 366.766 42.61 365.296 44.36 365.306C46.11 365.316 46.24 366.866 46.29 368.176C46.54 374.176 46.81 380.176 46.9 386.176C46.9 387.936 47.59 388.446 49.2 388.556C55.3333 388.996 61.46 389.486 67.58 390.026C68.3427 390.058 69.0824 390.296 69.72 390.716C70.09 391.006 70.34 392.136 70.12 392.346C69.4829 393.052 68.6457 393.548 67.72 393.766C63.72 394.206 59.66 394.446 55.63 394.766C53.53 394.926 51.44 395.176 49.35 395.226C49.0823 395.193 48.8108 395.218 48.5535 395.299C48.2962 395.38 48.0592 395.515 47.8584 395.695C47.6576 395.875 47.4976 396.095 47.3892 396.342C47.2809 396.589 47.2265 396.856 47.23 397.126C46.33 402.816 45.38 408.496 44.43 414.126C44.3722 415.054 44.1732 415.968 43.84 416.836C43.3391 417.525 42.7314 418.129 42.04 418.626C41.46 417.916 40.45 417.256 40.38 416.506C40.05 413.176 40 409.826 39.83 406.506C39.83 405.506 39.72 404.506 39.66 403.506L39.85 403.496Z" fill="#15141D"/>
<path d="M298.85 149.496C298.63 147.096 299.25 143.946 297.96 142.496C296.67 141.046 293.51 141.396 291.14 141.066C287.44 140.566 283.71 140.266 280.03 139.676C278.48 139.436 276.03 139.846 275.94 137.536C275.84 134.926 278.4 135.626 279.88 135.466C285.68 134.856 291.5 134.406 297.32 133.986C298.79 133.886 299.26 133.296 299.41 131.866C300.03 125.866 300.77 119.956 301.47 114.006C301.62 112.766 301.61 111.296 303.36 111.306C305.11 111.316 305.24 112.866 305.29 114.176C305.54 120.176 305.81 126.176 305.9 132.176C305.9 133.936 306.59 134.446 308.2 134.556C314.327 134.996 320.453 135.486 326.58 136.026C327.343 136.058 328.082 136.296 328.72 136.716C329.09 137.006 329.34 138.136 329.12 138.346C328.483 139.052 327.646 139.548 326.72 139.766C322.72 140.206 318.66 140.446 314.63 140.766C312.53 140.926 310.44 141.176 308.35 141.226C308.082 141.193 307.811 141.218 307.554 141.299C307.296 141.38 307.059 141.515 306.858 141.695C306.658 141.875 306.498 142.095 306.389 142.342C306.281 142.589 306.227 142.856 306.23 143.126C305.33 148.816 304.38 154.496 303.43 160.176C303.372 161.104 303.173 162.018 302.84 162.886C302.339 163.575 301.731 164.179 301.04 164.676C300.46 163.966 299.45 163.306 299.38 162.556C299.05 159.226 299 155.876 298.83 152.556C298.83 151.556 298.72 150.556 298.66 149.556L298.85 149.496Z" fill="#15141D"/>
<path d="M356.35 196.736C355.386 197.333 354.342 197.791 353.25 198.096C351.003 198.346 348.741 198.447 346.48 198.396C344.36 198.396 343.37 199.076 343.54 201.396C343.669 203.565 343.561 205.741 343.22 207.886C343.1 208.756 342.22 209.506 341.65 210.316C340.91 209.556 339.82 208.926 339.51 208.026C338.75 205.616 338.125 203.166 337.64 200.686C337.31 199.176 336.53 198.686 334.98 198.686C332.539 198.749 330.096 198.643 327.67 198.366C326.91 198.276 326.26 197.306 325.56 196.736C326.16 196.066 326.64 195.026 327.37 194.786C330.03 193.936 332.82 193.486 335.46 192.586C335.945 192.37 336.379 192.053 336.732 191.656C337.086 191.26 337.351 190.793 337.51 190.286C338.2 187.576 338.45 184.756 339.12 182.046C339.33 181.186 340.34 180.526 340.99 179.776C341.66 180.606 342.8 181.376 342.92 182.286C343.194 184.897 343.327 187.521 343.32 190.146C343.32 191.706 343.89 192.546 345.66 192.736C348.443 193.07 351.204 193.564 353.93 194.216C354.823 194.572 355.654 195.068 356.39 195.686C356.38 196.046 356.36 196.386 356.35 196.736Z" fill="#15141D"/>
<path d="M33.29 334.856C32.5457 335.303 31.7407 335.64 30.9 335.856C29.1672 336.051 27.4234 336.132 25.68 336.096C24.05 336.096 23.29 336.616 23.42 338.416C23.5209 340.087 23.4371 341.764 23.17 343.416C23.08 344.076 22.39 344.656 21.96 345.286C21.4 344.696 20.55 344.216 20.31 343.516C19.7281 341.66 19.2474 339.774 18.87 337.866C18.8493 337.625 18.778 337.391 18.6608 337.179C18.5435 336.968 18.3828 336.783 18.1893 336.638C17.9959 336.492 17.7739 336.389 17.5379 336.336C17.302 336.282 17.0573 336.279 16.82 336.326C14.9399 336.368 13.059 336.284 11.19 336.076C10.6 336.006 10.1 335.256 9.56 334.816C10.02 334.306 10.39 333.496 10.96 333.316C13.01 332.656 15.16 332.316 17.19 331.616C17.5636 331.45 17.8976 331.206 18.17 330.901C18.4424 330.596 18.6469 330.236 18.77 329.846C19.31 327.766 19.49 325.586 20.01 323.496C20.18 322.836 20.95 322.326 21.45 321.746C21.97 322.386 22.85 322.976 22.94 323.676C23.1535 325.689 23.257 327.712 23.25 329.736C23.25 330.946 23.69 331.586 25.05 331.736C27.197 331.992 29.3272 332.373 31.43 332.876C32.1187 333.151 32.7599 333.532 33.33 334.006L33.29 334.856Z" fill="#15141D"/>
<path d="M354.79 418.176C354.79 420.816 353.6 422.296 351.45 422.326C349.45 422.326 348.12 420.846 348.09 418.586C348.046 418.067 348.11 417.544 348.278 417.051C348.446 416.558 348.715 416.105 349.068 415.722C349.421 415.338 349.849 415.032 350.326 414.823C350.804 414.613 351.319 414.506 351.84 414.506C353.66 414.546 354.78 415.936 354.79 418.176Z" fill="#15141D"/>
<path d="M329.79 266.176C329.79 268.816 328.6 270.296 326.45 270.326C324.45 270.326 323.12 268.846 323.09 266.586C323.046 266.067 323.11 265.544 323.278 265.051C323.446 264.558 323.715 264.105 324.068 263.722C324.421 263.338 324.849 263.032 325.326 262.823C325.804 262.613 326.319 262.506 326.84 262.506C328.66 262.546 329.78 263.936 329.79 266.176Z" fill="#15141D"/>
<path d="M20.79 258.176C20.79 260.816 19.6 262.296 17.45 262.326C15.45 262.326 14.12 260.846 14.09 258.586C14.0457 258.067 14.1097 257.544 14.2781 257.051C14.4464 256.558 14.7154 256.105 15.068 255.722C15.4206 255.338 15.8491 255.032 16.3263 254.823C16.8035 254.613 17.3189 254.506 17.84 254.506C19.66 254.546 20.78 255.936 20.79 258.176Z" fill="#15141D"/>
<path d="M14.79 422.176C14.79 424.816 13.6 426.296 11.45 426.326C9.45 426.326 8.12 424.846 8.09 422.586C8.04565 422.067 8.10969 421.544 8.27806 421.051C8.44643 420.558 8.71544 420.105 9.06804 419.722C9.42063 419.338 9.84912 419.032 10.3263 418.823C10.8035 418.613 11.3189 418.506 11.84 418.506C13.66 418.546 14.78 419.936 14.79 422.176Z" fill="#15141D"/>
<path d="M349.75 377.806C348.91 378.736 348.63 379.356 348.19 379.506C342.8 381.396 342.24 385.896 342.06 390.626C342.112 391.275 341.995 391.926 341.72 392.516C341.536 392.762 341.297 392.962 341.023 393.101C340.749 393.239 340.447 393.313 340.14 393.316C339.771 393.224 339.424 393.06 339.118 392.834C338.813 392.607 338.555 392.322 338.36 391.996C337.72 390.506 337.44 388.876 336.9 387.336C335.48 383.336 333.58 382.066 329.41 381.976C328.68 382.029 327.946 381.958 327.24 381.766C326.71 381.556 326.04 380.946 326 380.476C326.057 379.79 326.342 379.142 326.81 378.636C327.182 378.316 327.635 378.105 328.12 378.026C332.98 376.706 334.4 373.086 334.6 368.556C334.631 367.436 334.918 366.338 335.44 365.346C335.664 364.987 335.97 364.687 336.334 364.471C336.698 364.256 337.108 364.13 337.53 364.106C338.15 364.196 338.85 365.186 339.11 365.926C339.404 367.114 339.621 368.32 339.76 369.536C340.53 373.096 342.3 375.626 346.24 376.206C347.34 376.366 348.35 377.146 349.75 377.806ZM334.53 378.806L339.24 383.036C340.04 381.706 340.88 380.336 341.62 379.136L337.28 374.496L334.53 378.806Z" fill="#15141D"/>
<path d="M23.75 176.806C22.91 177.736 22.63 178.356 22.19 178.506C16.8 180.396 16.24 184.896 16.06 189.626C16.1122 190.275 15.995 190.926 15.72 191.516C15.5357 191.762 15.2974 191.962 15.0234 192.1C14.7494 192.239 14.4471 192.313 14.14 192.316C13.771 192.224 13.4239 192.06 13.1185 191.833C12.813 191.607 12.5553 191.322 12.36 190.996C11.72 189.506 11.44 187.876 10.9 186.336C9.48 182.386 7.58 181.066 3.41 180.976C2.68 181.029 1.94625 180.958 1.24 180.766C0.71 180.556 0.04 179.946 0 179.476C0.0587724 178.793 0.343827 178.149 0.81 177.646C1.18201 177.326 1.63541 177.115 2.12 177.036C6.98 175.716 8.4 172.096 8.6 167.566C8.63096 166.446 8.91832 165.348 9.44 164.356C9.66051 163.998 9.9634 163.698 10.3235 163.48C10.6835 163.263 11.0903 163.134 11.51 163.106C12.13 163.196 12.83 164.186 13.09 164.926C13.3843 166.114 13.6014 167.32 13.74 168.536C14.51 172.096 16.28 174.626 20.22 175.206C21.34 175.366 22.35 176.146 23.75 176.806ZM8.53 177.806L13.24 182.036C14.04 180.706 14.88 179.336 15.62 178.136L11.28 173.496L8.53 177.806Z" fill="#15141D"/>
</svg>
