<svg width="230" height="220" viewBox="0 0 230 220" fill="none" xmlns="http://www.w3.org/2000/svg">
<path d="M123.577 57.0675C123.17 56.6401 122.739 56.2352 122.288 55.8546C121.67 55.3921 121.006 54.9942 120.16 54.437C117.698 57.0633 115.518 59.9408 113.657 63.0221C106.747 74.0673 104.15 86.2571 104.468 99.0874C104.612 106.146 106.425 113.07 109.758 119.294C112.792 124.93 116.478 130.093 120.308 135.179C120.706 135.71 121.097 136.248 121.537 136.745C126.467 142.286 129.671 148.798 132.018 155.761C134.165 162.121 134.995 168.591 134.04 175.334C133.358 179.914 132.09 184.386 130.266 188.642C127.829 194.392 126.502 200.551 126.357 206.794C126.288 210.24 126.433 213.689 126.478 217.134C126.478 217.893 126.478 218.677 126.478 220C125.788 219.318 125.34 219.049 125.151 218.654C123.691 215.778 123.027 212.647 122.674 209.489C121.761 201.264 122.94 193.27 126.717 185.913C129.872 179.762 130.206 173.28 130.509 166.378C129.114 166.279 127.961 166.131 126.804 166.124C116.854 166.063 106.903 166.033 96.9522 165.98C95.5111 165.98 94.0739 165.877 92.4395 165.813C91.5066 161.735 93.2776 157.891 92.94 153.646C90.7103 155.215 90.714 157.436 90.1414 159.388C89.5461 161.401 90.0087 163.645 88.89 165.525C86.3379 165.904 57.6576 165.4 54.1499 164.922C54.0475 161.295 55.4392 157.978 56.5769 154.658C57.7307 151.272 59.096 147.961 60.6648 144.746C62.212 141.577 64.1347 138.591 65.9739 135.384C61.0441 138.109 56.5276 147.081 51.1161 164.755C48.4995 165.316 38.5109 165.449 32.9137 164.956C31.6168 164.843 30.2592 164.911 28.9433 163.819C27.726 156.868 26.759 149.7 26.0157 142.457C24.9918 145.008 24.9956 147.695 24.7036 150.318C24.3813 153.214 24.4344 156.151 24.0741 159.036C23.7366 161.742 24.0172 164.585 22.4132 167.666C22.2539 166.435 22.125 165.741 22.0794 165.04C21.6146 158.022 21.6983 150.978 22.3297 143.973C23.1943 134.436 25.1056 125.097 29.5349 116.455C30.0165 115.522 30.3729 114.522 30.7673 113.544C30.8015 113.464 30.6725 113.316 30.6043 113.165C30.4146 113.225 30.1454 113.222 30.0392 113.354C23.7973 121.242 18.7613 129.763 17.0851 139.864C16.4177 143.901 16.3267 148.032 15.9475 152.126C15.7958 153.904 16.0195 155.723 15.4545 158.084C14.8478 157.228 14.461 156.883 14.3169 156.462C13.0465 152.494 12.7583 148.392 13.001 144.28C13.3736 137.501 15.2299 130.887 18.439 124.904C24.313 113.938 31.7419 104.14 41.3665 96.1575C47.4908 91.0784 53.7365 86.1471 59.9974 81.2348C63.38 78.5816 66.2886 75.5266 68.4578 71.8272C71.7456 66.2288 74.9424 60.5812 78.1581 54.9411C78.3895 54.5355 78.4464 54.0352 77.9837 53.152C77.6575 53.6954 77.3018 54.2206 76.9181 54.725C71.6318 61.0246 65.1624 65.8043 57.7676 69.3179C53.3384 71.4178 48.9053 73.5214 44.3661 75.3598C32.5762 80.1281 22.7431 87.5572 14.5634 97.2529C9.77763 102.938 5.11704 108.715 1.51068 115.257C1.28918 115.579 1.03502 115.878 0.752245 116.148C-0.154085 114.317 -0.23372 113.472 0.471624 111.872C0.852913 111.025 1.2926 110.206 1.78751 109.42C8.43519 98.7539 16.3646 89.2287 26.5239 81.6783C31.2397 78.2473 36.3282 75.3596 41.6926 73.0704C46.4214 70.9933 51.1465 68.901 55.8336 66.7443C65.0676 62.4801 72.6747 56.2715 78.3933 47.7925C80.6193 44.4986 82.9628 41.2806 85.3254 38.0816C87.7789 34.7612 89.4285 31.0201 91.3018 27.4685C90.714 26.7673 90.2628 27.1918 89.8343 27.4231C84.1265 30.5193 78.148 33.0884 71.9731 35.0985C64.5063 37.5067 57.6497 41.5023 51.8746 46.8108C51.492 47.0605 51.0839 47.2689 50.6573 47.4324C50.8128 44.9838 52.2007 43.5738 53.6114 42.2206C57.329 38.6045 61.7568 35.7986 66.6148 33.9804C71.8214 32.0397 76.9826 29.9664 82.1627 27.9158C86.8615 26.071 91.2289 23.4749 95.094 20.2289C96.7188 18.8714 98.2505 17.4063 99.6787 15.8435C102.455 12.8112 105.367 9.91158 108.7 7.4668C113.741 3.78259 119.598 1.37277 125.773 0.443258C130.225 -0.287391 134.779 -0.113357 139.163 0.954957C144.775 2.29674 149.28 5.50339 153.361 9.36198C155.185 11.0904 156.872 12.834 159.428 13.6565C161.324 14.2705 162.58 16.0482 163.698 17.7046C164.734 19.2207 165.594 20.8771 166.683 22.7078C169.261 19.812 172.818 18.8568 176.258 17.6439C180.661 16.0899 184.843 16.6357 188.95 18.6787C193.397 20.8804 196.898 24.6129 198.81 29.1894C199.855 31.6254 200.635 34.167 201.135 36.7701C202.026 41.2806 200.494 45.397 198.454 49.3389C197.854 50.495 197.138 51.5866 196.341 52.936C197.278 53.2847 197.968 53.6941 198.692 53.785C205.803 54.5128 210.52 58.4889 213.907 64.5459C218.457 72.6686 220.516 81.5305 222.067 90.5629C222.674 94.0804 223.107 97.6282 223.618 101.134C223.984 101.367 224.364 101.577 224.756 101.763C228.491 103.219 229.758 106.244 229.974 109.935C230.142 112.604 229.488 115.26 228.101 117.547C226.963 119.468 225.64 121.284 224.248 123.372C224.636 123.98 225.054 124.567 225.503 125.131C228.776 128.921 229.189 132.484 226.66 136.764C224.194 140.881 220.75 144.327 216.633 146.797C212.803 149.154 208.871 151.345 204.039 151.974C204.354 153.111 204.457 154.029 204.84 154.794C207.991 161.094 210.126 167.788 212.644 174.341C214.553 179.432 215.758 184.76 216.224 190.177C216.702 195.192 217.092 200.214 217.502 205.233C217.562 205.991 217.502 206.749 217.502 208.174C216.884 207.359 216.611 207.132 216.508 206.844C214.468 201.067 213.474 195.037 212.568 189.029C211.051 178.973 207.638 169.539 203.713 160.222C202.636 157.679 201.355 155.223 200.194 152.751C196.781 152.626 193.596 152.721 190.46 152.327C187.324 151.933 184.301 151.057 181.127 150.367C180.748 151.391 180.331 152.221 180.096 153.096C177.771 161.776 172.75 168.891 167.051 175.611C166.364 176.422 165.636 177.192 164.938 177.995C163.802 179.303 163.129 180.948 163.023 182.676C162.572 188.028 160.774 190.318 155.738 191.773C152.936 192.565 150.095 193.211 147.225 193.706C145.779 193.905 144.315 193.944 142.86 193.824C141.343 193.763 139.929 193.24 139.307 191.716C138.643 190.094 139.114 188.593 140.247 187.297C140.591 186.896 140.958 186.516 141.347 186.16C147.987 180.216 151.404 172.602 152.655 163.948C153.793 156.011 156.205 148.476 159.428 141.172C159.588 140.816 159.694 140.444 159.914 139.838C159.463 139.426 158.984 139.046 158.48 138.701C149.485 133.295 141.188 126.882 132.652 120.814C127.468 117.126 122.386 113.29 117.244 109.537C115.31 108.129 113.628 106.404 112.269 104.436C111.988 104.03 111.89 103.492 111.617 102.715C112.447 102.639 113.073 102.449 113.626 102.571C114.131 102.733 114.579 103.037 114.916 103.446C117.57 106.282 120.794 108.393 123.911 110.648C133.265 117.387 142.649 124.095 152.064 130.771C159.648 136.138 167.843 140.527 176.137 144.689C183.626 148.449 191.658 150.117 200.027 149.351C209.163 148.518 216.713 144.424 222.545 137.325C223.122 136.601 223.63 135.824 224.062 135.005C224.444 134.307 224.734 133.563 224.927 132.791C225.439 130.619 224.635 128.118 222.909 127.155C221.184 126.192 219.299 126.575 217.6 127.477C216.934 127.881 216.318 128.362 215.765 128.91C214.578 129.971 213.387 131.033 212.257 132.151C209.383 135.005 205.81 136.79 202.253 138.526C200.217 139.519 199.011 138.689 198.916 136.354C198.916 135.846 198.962 135.335 198.992 134.747C198.56 134.803 198.123 134.824 197.688 134.808C196.083 134.588 195.496 133.928 195.735 132.488C195.941 131.571 196.194 130.665 196.493 129.774C195.958 129.774 195.606 129.751 195.253 129.774C193.05 129.945 192.219 129.172 192.621 127.147C192.787 126.377 193.079 125.639 193.486 124.964C194.68 122.885 196.365 121.13 198.393 119.851C200.297 118.646 202.213 117.461 204.142 116.296C205.928 115.223 207.555 114.021 208.51 111.884C207.1 112.513 205.674 113.112 204.286 113.779C203.692 114.077 203.045 114.254 202.382 114.298C201.719 114.342 201.054 114.253 200.425 114.037C200.137 113.954 199.869 113.811 199.641 113.617C199.412 113.422 199.228 113.181 199.1 112.91C198.973 112.638 198.905 112.343 198.901 112.043C198.898 111.743 198.958 111.446 199.079 111.171C199.226 110.802 199.422 110.455 199.663 110.14C202.193 107.006 205.018 104.216 208.981 102.984C210.994 102.359 213.069 101.915 215.132 101.468C216.648 101.134 218.215 100.914 219.921 100.615C219.642 95.4165 218.903 90.2528 217.714 85.1844C217.286 83.2475 216.702 81.341 216.292 79.3965C215.188 74.1355 212.777 69.4241 210.202 64.7809C209.189 62.9059 207.796 61.2631 206.111 59.9577C204.426 58.6523 202.487 57.713 200.418 57.2001C199.773 57.0588 199.114 56.9951 198.454 57.0106C198.26 57.0106 198.074 57.2381 197.835 57.3897C198.245 58.7769 200.49 58.8452 200.228 60.9185C199.485 60.8936 198.744 60.8227 198.01 60.7062C196.592 60.3954 195.211 59.9065 193.785 59.6563C192.022 59.3455 190.589 60.0353 188.984 60.9223C184.4 63.4088 183.296 67.5933 182.849 72.1493C182.515 75.7047 182.526 79.2942 182.386 82.8685C182.386 83.5306 182.352 84.1923 182.284 84.8508C182.14 85.8325 181.146 86.5338 180.251 86.1964C178.643 85.5975 177.092 84.8433 175.5 84.1913C171.582 82.588 167.68 80.9468 163.721 79.442C161.996 78.79 160.172 78.3352 158.272 78.5778C155.822 78.8962 153.55 78.3011 151.324 77.3232C149.622 76.5651 147.866 75.9928 145.936 76.205C145.177 76.2884 144.597 76.7016 144.487 77.3421C144.438 77.6502 144.45 77.9651 144.524 78.2683C144.597 78.5715 144.731 78.8571 144.916 79.1084C146.806 81.1847 149.299 82.6175 152.045 83.2058C155.666 83.9904 158.621 85.715 161.324 88.2394C166.099 92.6969 171.669 96.0627 177.392 99.1746C179.542 100.346 181.912 100.691 184.294 100.808C186.368 100.922 188.135 99.9478 189.796 98.7956C192.72 96.7639 194.616 93.8909 196.159 90.7828C198.954 85.1654 200.945 79.3018 201.446 72.987C201.622 71.4075 201.914 69.843 202.318 68.3059C202.515 67.4265 203.383 66.7898 204.017 66.9262C204.65 67.0627 205.268 67.9837 205.154 68.7911C204.862 71.2851 204.445 73.7716 204.225 76.2732C203.71 82.2127 201.347 87.5458 198.81 92.7992C197.355 95.9454 195.19 98.7115 192.485 100.88C188.575 103.913 184.252 104.974 179.417 103.598C179.038 103.492 178.658 103.439 178.154 103.336C176.918 104.777 176.721 106.691 175.879 108.29C176.277 109.867 177.551 110.724 178.666 111.58C183.729 115.454 187.009 120.776 190.558 125.889C190.907 126.393 191.336 127 190.687 127.852C190.135 127.533 189.609 127.17 189.113 126.768C188.02 125.802 186.987 124.771 186.019 123.679C181.036 117.782 175.151 112.797 169.648 107.426C162.155 100.098 154.655 92.7828 147.149 85.48C143.049 81.5091 138.494 78.0347 133.581 75.1286C128.87 72.2521 123.937 69.7552 118.829 67.6615C118.143 66.6419 118.45 65.7664 118.935 64.9514C120.395 62.4195 121.89 59.9178 123.577 57.0675ZM181.131 64.2692C179.443 64.0342 177.767 63.7575 176.083 63.5755C172.06 63.1472 168.742 61.2672 166.087 58.3714C163.157 55.2849 160.937 51.5954 159.584 47.5613C159.368 46.8866 159.095 46.2308 158.825 45.5107C158.374 45.8063 158.093 45.8897 157.953 46.102C155.06 50.1652 151.26 53.2165 147.172 55.9834C141.863 59.5805 136.137 60.9716 129.815 59.4516C128.678 59.1787 127.54 58.921 126.254 58.6291C124.377 60.5811 123.221 62.9274 121.704 65.2281C125.204 67.0513 128.503 68.6963 131.73 70.474C134.957 72.2517 138.112 74.1582 141.279 76.0003C141.662 75.7724 142.029 75.5191 142.379 75.2423C144.275 73.4267 146.531 73.0022 149.007 73.62C150.414 73.9725 151.783 74.4918 153.179 74.8405C154.449 75.1513 155.769 75.5986 157.035 75.5228C161.002 75.2461 164.62 76.3187 168.192 77.8425L178.943 82.4478C179.14 81.6783 179.281 80.8954 179.364 80.1053C179.447 77.452 179.269 74.7988 179.55 72.1645C179.83 69.5302 180.566 67.021 181.131 64.273V64.2692ZM177.676 149.173L162.693 141.168C162.314 141.74 161.908 142.131 161.734 142.597C159.163 149.42 156.846 156.303 155.833 163.573C155.457 166.329 154.872 169.054 154.085 171.722C152.356 177.518 149.667 182.779 144.859 186.721C144.145 187.316 143.508 187.999 142.963 188.752C142.625 189.215 142.534 189.851 142.307 190.473C146.834 190.992 154.169 189.548 157.555 187.683C158.988 186.895 159.622 185.671 159.883 184.2C159.997 183.413 159.997 182.614 159.883 181.827C159.523 178.822 160.35 176.331 162.891 174.531C162.994 174.447 163.089 174.355 163.175 174.254C169.163 168.099 173.979 161.208 176.561 152.918C176.963 151.694 177.305 150.451 177.676 149.181V149.173ZM189.432 56.3587C188.438 53.3491 185.674 51.7458 184.502 48.994C185.261 48.2814 185.962 47.6901 186.599 47.0458C187.025 46.6254 187.363 46.1241 187.592 45.5715C187.821 45.0189 187.937 44.426 187.934 43.8277C187.957 41.3602 186.08 39.8327 183.717 40.515C182.579 40.8409 181.518 41.3792 180.27 41.8833C177.995 39.7683 175.818 37.422 172.686 36.4214C169.652 35.4562 166.448 35.1461 163.285 35.5117C161.977 37.5661 161.635 39.7342 161.768 42.0311C162.106 48.0578 164.953 52.8753 169.076 57.0372C171.632 59.6184 174.923 60.5698 178.45 60.8275C181.203 61.0322 183.603 60.4144 185.655 58.3297C186.565 57.3897 188.101 57.022 189.417 56.3663L189.432 56.3587ZM155.405 35.1061C150.538 35.9058 145.726 37.0046 140.994 38.3962C137.005 39.5788 133.285 41.2541 130.103 43.9263C127.874 45.7987 125.795 47.8531 123.706 49.881C123.167 50.4002 122.838 51.1318 122.254 52.0036C123.869 53.0118 125.287 53.9594 126.766 54.8008C131.776 57.6512 137.005 57.4541 142.015 55.1571C146.36 53.1371 150.224 50.2142 153.349 46.5833C153.949 45.8973 154.665 45.1165 154.832 44.2826C155.416 41.3147 155.883 38.3393 155.405 35.1061ZM198.988 131.002C200.187 132.071 202.234 130.669 202.545 130.528C203.346 130.015 204.115 129.453 204.847 128.846C205.932 127.928 217.395 119.313 217.983 120.025C218.628 120.81 206.561 130.293 205.977 130.885C205.325 131.541 203.948 132.401 203.345 133.106C203.141 133.341 202.587 134.145 203.656 134.145C207.505 132.215 210.862 130.108 213.516 127.185C215.329 125.203 217.403 123.653 219.519 122.061C222.978 119.461 225.537 116.19 226.413 111.766C227.365 106.971 224.828 104.432 220.812 104.011C215.928 103.507 211.374 104.83 207.126 107.18C205.989 107.801 205.079 108.787 203.831 109.791C205.522 110.117 206.383 109.117 207.456 108.768C208.57 108.368 209.71 108.046 210.869 107.805C211.156 107.753 211.451 107.762 211.735 107.831C212.019 107.9 212.285 108.028 212.515 108.207C212.746 108.386 212.937 108.611 213.075 108.869C213.212 109.126 213.294 109.409 213.315 109.7C213.374 110.428 213.278 111.16 213.035 111.848C212.792 112.536 212.407 113.166 211.904 113.695C209.989 115.889 207.745 117.774 205.253 119.282C202.428 120.977 199.826 122.413 197.141 124.331C196.793 124.578 195.511 126.173 196.152 126.984C196.55 127.686 198.048 126.636 198.639 126.442C199.641 126.117 202.022 124.453 203.19 123.903C204.65 123.194 214.532 115.784 214.76 116.508C215.052 117.452 203.156 126.552 202.542 127.041C200.994 128.163 198.112 130.203 198.988 131.002ZM175.249 101.816C173.85 100.964 172.743 100.278 171.62 99.6143C167.067 96.9477 162.784 93.8439 158.833 90.3469C157.769 89.3679 156.657 88.4431 155.5 87.5761C155.075 87.2691 154.442 86.7839 153.82 87.4207C156.065 90.2142 170.437 103.958 173.236 105.993C174.43 104.993 174.635 103.537 175.249 101.816Z" fill="white"/>
</svg>
