<svg width="168" height="281" viewBox="0 0 168 281" fill="none" xmlns="http://www.w3.org/2000/svg">
<g clip-path="url(#clip0)">
<path d="M72.6623 69.2153L70.673 67.8751L71.6957 62.8192C70.6126 62.3123 70.2242 63.1156 69.9265 63.6568C69.1455 65.0744 68.5025 66.565 67.6783 68.2875C64.1917 67.4284 60.3038 68.3219 56.8129 65.7832C57.2919 63.8974 57.7579 62.0632 58.2671 60.07L55.0739 56.4316C52.3511 53.3302 52.2648 49.8551 54.1505 46.453C55.1343 44.6746 56.7784 43.2356 58.2196 41.7278C58.9402 40.9847 59.9025 40.4821 60.7138 39.8163C62.3147 38.5276 63.2122 36.9296 62.8411 34.7389C62.2456 31.2337 64.0234 28.725 66.5435 26.5772C67.8921 25.3626 69.6169 24.6427 71.4325 24.5368C73.3786 24.4509 75.3161 24.2834 77.2708 24.3779C80.382 24.5282 82.8502 23.45 84.6971 20.993C85.5815 19.799 86.4053 18.5618 87.1654 17.2859C88.1665 15.6192 89.0079 13.8494 90.0435 12.2214C96.7017 1.68854 109.112 -0.871632 117.419 1.19026C126.01 3.33805 132.711 7.8828 137.303 15.413C138.101 16.7274 138.852 17.84 140.353 18.4972C142.968 19.6398 143.982 21.9337 144.116 24.6399C144.319 28.7981 142.511 32.1615 139.848 35.147C139.059 36.0318 138.053 36.7234 136.962 37.6599C136.142 42.8146 134.575 47.9049 131.305 52.3551C128.221 56.5838 123.972 59.8309 119.071 61.7023C118.174 63.3233 117.955 65.2312 118.463 67.0117C118.687 67.8708 118.963 68.7299 119.106 69.6234C119.168 69.9159 119.166 70.2183 119.099 70.5099C119.033 70.8014 118.904 71.0752 118.721 71.3124C118.538 71.5495 118.305 71.7444 118.04 71.8837C117.774 72.023 117.481 72.1033 117.181 72.1192C115.257 72.3554 113.319 72.4542 111.11 72.6346C110.838 71.4362 110.592 70.3666 110.247 68.8975L108.348 72.2695H102.57C102.398 73.2661 102.018 74.2627 102.1 75.2163C102.303 77.6691 103.679 79.6751 104.9 81.7413C110.268 90.8093 117.164 98.6488 124.284 106.372C128.521 110.969 132.181 116.097 136.017 121.05C136.894 122.263 137.635 123.568 138.226 124.942C141.225 131.334 140.63 137.399 136.383 143.07C135.952 143.654 135.52 144.229 134.964 144.947C137.035 146.197 138.99 147.223 140.776 148.486C154.872 158.461 163.666 171.882 167.159 188.749C168.906 197.168 167.789 205.36 165.1 213.457C161.506 224.282 155.353 233.264 146.114 240.013C143.715 241.757 142.636 244.02 142.157 246.74C141.057 252.994 140.983 259.197 142.77 265.382C143.434 267.676 143.965 270.009 144.466 272.341C144.772 273.767 144.897 275.232 145.147 276.95C141.937 274.605 140.729 271.641 138.351 262.552C136.944 257.195 137.833 251.89 138.092 246.185C137.387 246.341 136.698 246.563 136.034 246.847C133.156 248.453 130.334 250.163 127.443 251.74C125.777 252.65 124.12 253.69 121.609 253.681C122.251 252.891 122.562 252.225 123.089 251.911C131.24 247.045 138.286 240.743 145.527 234.729C156.5 225.592 161.972 213.603 163.163 199.655C163.991 189.986 161.005 181.043 156.531 172.593C151.978 163.981 145.501 156.983 137.518 151.394C136.06 150.376 134.351 149.723 132.772 148.886C131.978 148.456 131.175 148.061 130.42 147.597C130.014 147.383 129.706 147.022 129.56 146.589C129.414 146.156 129.441 145.683 129.635 145.269C130.303 143.773 131.143 142.359 132.137 141.055C136.112 136.175 136.366 131.063 133.432 125.638C130.498 120.213 126.329 115.655 122.385 110.93C122.051 110.526 121.623 110.209 121.138 110.005C120.653 109.802 120.126 109.718 119.602 109.761C116.603 109.856 113.587 109.796 110.609 110.097C107.899 110.371 105.237 110.191 102.536 110.097C98.0696 109.929 93.5905 110.097 89.1158 110.182C88.3731 110.28 87.6597 110.533 87.0229 110.926C82.354 113.291 77.6923 115.677 73.0377 118.082C72.7061 118.268 72.3849 118.472 72.0754 118.692C74.3581 127.94 75.6613 132.713 75.4844 149.934C76.3474 150.363 77.3744 150.922 78.423 151.382C89.2107 156.085 96.9304 169.423 95.2173 181.043C94.5226 185.742 93.0296 190.33 91.9422 194.978C91.5376 196.589 90.5275 197.985 89.1201 198.878C86.4447 200.738 83.0142 199.217 82.8416 195.987C82.7294 193.929 83.0487 191.85 83.1696 189.874C82.0778 189.217 81.6334 189.999 81.1932 190.489C76.5905 195.6 71.9977 200.728 67.4151 205.871C66.1206 207.323 64.9037 208.848 63.5747 210.266C62.6469 211.258 61.9565 211.705 60.2218 211.155C59.1819 210.618 59.1474 209.342 58.8367 208.148C57.3652 207.499 56.5022 208.088 56.088 209.437C54.6295 214.2 52.2044 218.457 49.46 222.603C48.5581 223.969 47.6476 225.399 46.4394 226.494C42.6076 230.012 40.053 234.381 37.7099 238.904C33.0324 247.925 30.5684 257.556 29.5501 267.599C29.1574 271.465 28.8726 275.331 28.5231 279.197C28.4352 279.653 28.3111 280.101 28.152 280.537C27.6773 280.138 27.1509 279.919 27.0905 279.614C26.6978 277.569 26.1152 275.507 26.1282 273.454C26.18 265.984 26.797 258.57 28.5317 251.25C30.6893 242.07 34.5987 233.784 40.614 226.49C45.4987 220.545 49.5074 214.097 52.049 206.821C53.3781 203.015 54.6266 199.183 55.7945 195.325C56.7827 192.048 58.4526 189.007 58.9877 185.562C59.1603 184.445 59.9974 183.414 60.5584 182.366C62.319 179.07 64.0867 175.776 65.8617 172.486C67.145 170.169 67.8828 167.593 68.0192 164.951C63.7516 163.736 59.4969 162.46 55.0739 161.82C46.7803 160.613 38.4694 159.513 30.3484 157.331C23.6686 155.54 17.17 153.323 11.0641 150.05C7.43515 148.1 4.31532 145.552 2.12757 142.06C1.1955 140.57 0.336798 138.851 0.155563 137.133C-0.375195 132.116 0.379949 127.369 3.72416 123.207C9.12667 116.475 15.7633 111.179 22.6588 106.089C31.8586 99.3318 41.8006 93.7905 51.8462 88.4253C53.8517 87.4501 55.5227 85.9062 56.6489 83.9879C58.1022 81.3788 59.9181 78.987 62.0428 76.883C64.4032 74.6407 67.3159 72.974 69.9955 71.0624C70.8456 70.4611 71.7086 69.8769 72.6623 69.2153ZM59.2078 203.019C60.6835 202.967 60.662 201.649 60.9338 200.772C62.2068 196.477 64.9382 193.13 67.9674 189.982C68.4292 189.505 69.0937 189.221 70.125 188.543C70.0128 189.651 70.125 190.282 69.8661 190.729C69.1658 192.051 68.3787 193.325 67.51 194.544C65.3406 197.601 63.8679 201.093 63.1949 204.776C63.0784 205.381 62.5304 206.129 63.6264 206.743C64.0925 206.185 64.593 205.648 65.0245 205.064C69.659 198.788 75.0528 193.173 80.5071 187.615C81.6593 186.442 82.8632 185.368 83.4716 183.749C83.7176 183.109 84.175 182.396 85.1329 182.572C85.4738 184.11 85.9269 185.617 86.1254 187.16C86.2615 188.645 86.3133 190.136 86.2808 191.627C86.2808 193.238 86.2808 194.853 86.2808 196.326C87.7047 196.992 88.1794 196.219 88.3995 195.287C89.8105 189.337 91.269 183.392 92.529 177.409C93.0986 174.711 92.3866 172.078 91.2345 169.569C89.1443 164.92 86.1326 160.738 82.3799 157.275C81.7634 156.621 81.0208 156.098 80.1965 155.737C75.7821 154.195 71.9287 151.532 67.7129 149.616C57.2315 144.848 46.7026 140.166 35.9666 135.385C34.4261 136.179 33.0496 136.579 31.5738 137.219C30.4821 137.571 28.1865 138.078 27.4357 137.245C27.7593 136.888 29.5242 135.956 29.9945 135.647C31.6139 134.572 33.2969 133.595 35.0346 132.721C39.3497 130.69 43.8029 128.855 48.1352 126.824C55.1818 123.512 62.1593 120.054 69.2059 116.746C75.2988 113.885 81.4651 111.222 87.1524 107.528C90.3542 105.449 93.4654 102.768 94.8419 101.084C95.6741 100.337 96.4 99.4799 96.9995 98.5371C97.1289 98.6101 97.3188 99.538 97.3015 100.053C97.2541 101.746 96.5507 103.219 95.6359 104.62C95.2044 105.273 94.8635 105.977 94.3673 106.858C102.186 106.458 109.638 106.879 117.432 105.895C117.134 105.282 116.792 104.69 116.409 104.126C115.162 102.631 113.876 101.17 112.594 99.7055C107.636 94.0267 104.055 87.4587 100.348 80.9724C100.079 80.4391 99.8464 79.888 99.6533 79.3229C98.1948 75.6716 98.0567 72.0633 100.037 68.5366C101.138 66.5821 102.268 64.6706 103.39 62.7075C103.96 61.7195 104.542 60.7401 105.159 59.7006L100.542 55.9462C97.992 57.2951 98.6306 60.3836 96.6845 62.1104C93.9271 58.2916 96.9304 55.3062 97.8366 51.9814L96.7621 50.6927C92.2313 53.6352 90.5398 57.2177 91.282 62.0073C91.5206 63.3229 91.6419 64.6568 91.6444 65.9936C91.6286 66.6028 91.3717 67.1811 90.9296 67.6027C90.4876 68.0243 89.8961 68.2549 89.2841 68.2445C87.4838 68.2426 85.6853 68.1307 83.8988 67.9095C82.7022 67.7536 81.4911 68.0612 80.5158 68.7686C77.3916 70.8305 74.2243 72.8279 71.1045 74.8984C68.369 76.7092 65.9871 79.0003 64.0752 81.6597C67.9157 80.4054 71.6353 78.9663 75.3204 77.4285C79.1306 75.8391 83.4544 73.8288 88.037 73.2103C87.6055 73.9233 87.174 74.1166 86.5397 74.6836C83.6227 76.2043 80.697 77.7163 77.7325 79.1468C59.1776 88.0816 41.6367 98.6702 24.6567 110.243C18.4557 114.461 12.877 119.522 8.08241 125.277C6.54778 127.103 5.2355 129.103 4.17293 131.235C2.58928 134.448 2.89997 137.644 5.38979 140.398C6.68128 141.85 8.06188 143.222 9.52366 144.504C12.9757 147.477 17.0363 149.393 21.278 150.948C35.1079 156.055 49.4125 159.152 64.0234 161.047C68.9125 161.682 73.7497 162.735 78.6085 163.624C79.3334 163.753 80.0972 163.895 79.9936 164.977C78.4143 165.742 76.7616 166.429 75.2211 167.31C72.9902 168.598 71.0096 170.175 69.7625 172.512C68.222 175.407 66.6513 178.293 65.1238 181.197C65.0289 181.382 65.1756 181.691 65.2101 181.945L68.2048 180.854C66.0947 183.165 64.4765 184.874 62.9403 186.657C62.5088 187.138 61.8055 187.739 62.6297 188.569C63.9242 187.808 65.1756 186.992 66.5133 186.313C66.9448 186.094 67.5489 186.223 68.7355 186.159C67.0095 187.877 65.7797 189.166 64.4204 190.325C60.4462 193.706 58.8885 197.933 59.0697 202.937V202.993C59.0831 203.011 59.0991 203.027 59.1172 203.04C59.1646 203.045 59.1646 203.045 59.2078 203.019ZM104.21 53.283C109.06 58.6353 115.511 59.8896 121.319 56.5734C127.361 53.1154 130.959 47.8404 132.366 41.0362C133.445 35.8085 131.904 31.3411 128.608 27.329C127.818 26.371 126.882 25.5721 125.587 25.7396C121.669 26.2336 118.368 27.7542 116.776 31.6546C116.132 33.3154 115.592 35.0139 115.157 36.7406C113.431 43.2098 110.89 49.1549 104.663 52.6988C104.529 52.7632 104.469 52.9393 104.21 53.283ZM71.1045 147.284C72.1445 140.746 70.5824 125.153 68.4464 120.518C65.2058 121.626 62.1809 123.228 59.1172 124.753C55.9024 126.355 52.6445 127.897 49.4513 129.513C46.4696 131.016 43.0348 131.66 40.2127 133.843C42.5989 135.415 64.0838 144.728 71.1045 147.284ZM111.636 31.8308C110.98 32.6157 110.389 33.4533 109.871 34.3351C109.182 35.6544 108.638 37.0443 108.249 38.4803C107.407 41.996 105.245 45.0576 102.208 47.0372C101.66 47.4544 101.14 47.9064 100.65 48.3903C100.861 49.49 101.427 49.9281 102.26 49.5243C104.862 48.3389 106.99 46.3179 108.301 43.7854C110.212 40.0525 111.662 36.2166 111.636 31.8308Z" fill="white"/>
</g>
<defs>
<clipPath id="clip0">
<rect width="168" height="280" fill="white" transform="translate(0 0.532715)"/>
</clipPath>
</defs>
</svg>
