<svg width="390" height="652" viewBox="0 0 390 652" fill="none" xmlns="http://www.w3.org/2000/svg">
<g clip-path="url(#clip0)">
<path d="M168.39 159.89L163.78 156.77L166.15 145C163.64 143.82 162.74 145.69 162.05 146.95C160.24 150.25 158.75 153.72 156.84 157.73C148.76 155.73 139.75 157.81 131.66 151.9C132.77 147.51 133.85 143.24 135.03 138.6L127.63 130.13C121.32 122.91 121.12 114.82 125.49 106.9C127.77 102.76 131.58 99.4099 134.92 95.8999C136.59 94.1699 138.82 92.9999 140.7 91.4499C144.41 88.4499 146.49 84.7299 145.63 79.6299C144.25 71.4699 148.37 65.6299 154.21 60.6299C157.335 57.8022 161.333 56.1264 165.54 55.8799C170.05 55.6799 174.54 55.2899 179.07 55.5099C186.28 55.8599 192 53.3499 196.28 47.6299C198.33 44.8505 200.239 41.9702 202 38.9999C204.32 35.1199 206.27 30.9999 208.67 27.2099C224.1 2.68992 252.86 -3.27008 272.11 1.52992C292.02 6.52992 307.55 17.1099 318.19 34.6399C320.04 37.6999 321.78 40.2899 325.26 41.8199C331.32 44.4799 333.67 49.8199 333.98 56.1199C334.45 65.7999 330.26 73.6299 324.09 80.5799C322.26 82.6399 319.93 84.2499 317.4 86.4299C315.5 98.4299 311.87 110.28 304.29 120.64C297.145 130.484 287.297 138.043 275.94 142.4C273.861 146.174 273.354 150.615 274.53 154.76C275.05 156.76 275.69 158.76 276.02 160.84C276.164 161.521 276.159 162.225 276.005 162.904C275.851 163.582 275.551 164.22 275.128 164.772C274.704 165.324 274.166 165.778 273.55 166.102C272.934 166.426 272.255 166.613 271.56 166.65C267.1 167.2 262.61 167.43 257.49 167.85C256.86 165.06 256.29 162.57 255.49 159.15L251.09 167H237.7C237.3 169.32 236.42 171.64 236.61 173.86C237.08 179.57 240.27 184.24 243.1 189.05C255.54 210.16 271.52 228.41 288.02 246.39C297.84 257.09 306.32 269.03 315.21 280.56C317.244 283.383 318.961 286.421 320.33 289.62C327.28 304.5 325.9 318.62 316.06 331.82C315.06 333.18 314.06 334.52 312.77 336.19C317.57 339.1 322.1 341.49 326.24 344.43C358.907 367.65 379.287 398.893 387.38 438.16C391.43 457.76 388.84 476.83 382.61 495.68C374.28 520.88 360.02 541.79 338.61 557.5C333.05 561.56 330.55 566.83 329.44 573.16C326.89 587.72 326.72 602.16 330.86 616.56C332.4 621.9 333.63 627.33 334.79 632.76C335.5 636.08 335.79 639.49 336.37 643.49C328.93 638.03 326.13 631.13 320.62 609.97C317.36 597.5 319.42 585.15 320.02 571.87C318.385 572.233 316.789 572.749 315.25 573.41C308.58 577.15 302.04 581.13 295.34 584.8C291.48 586.92 287.64 589.34 281.82 589.32C283.31 587.48 284.03 585.93 285.25 585.2C304.14 573.87 320.47 559.2 337.25 545.2C362.68 523.93 375.36 496.02 378.12 463.55C380.04 441.04 373.12 420.22 362.75 400.55C352.2 380.5 337.19 364.21 318.69 351.2C315.31 348.83 311.35 347.31 307.69 345.36C305.85 344.36 303.99 343.44 302.24 342.36C301.3 341.862 300.587 341.022 300.248 340.013C299.909 339.005 299.971 337.904 300.42 336.94C301.969 333.457 303.915 330.166 306.22 327.13C315.43 315.77 316.02 303.87 309.22 291.24C302.42 278.61 292.76 268 283.62 257C282.844 256.06 281.853 255.321 280.729 254.847C279.606 254.374 278.385 254.179 277.17 254.28C270.22 254.5 263.23 254.36 256.33 255.06C250.05 255.7 243.88 255.28 237.62 255.06C227.27 254.67 216.89 255.06 206.52 255.26C204.799 255.486 203.146 256.076 201.67 256.99C190.85 262.497 180.047 268.05 169.26 273.65C168.492 274.083 167.747 274.557 167.03 275.07C172.32 296.6 175.34 307.71 174.93 347.8C176.93 348.8 179.31 350.1 181.74 351.17C206.74 362.12 224.63 393.17 220.66 420.22C219.05 431.16 215.59 441.84 213.07 452.66C212.133 456.412 209.792 459.662 206.53 461.74C200.33 466.07 192.38 462.53 191.98 455.01C191.72 450.22 192.46 445.38 192.74 440.78C190.21 439.25 189.18 441.07 188.16 442.21C177.493 454.11 166.85 466.047 156.23 478.02C153.23 481.4 150.41 484.95 147.33 488.25C145.18 490.56 143.58 491.6 139.56 490.32C137.15 489.07 137.07 486.1 136.35 483.32C132.94 481.81 130.94 483.18 129.98 486.32C126.6 497.41 120.98 507.32 114.62 516.97C112.53 520.15 110.42 523.48 107.62 526.03C98.7401 534.22 92.8201 544.39 87.3901 554.92C76.5501 575.92 70.8401 598.34 68.4801 621.72C67.5701 630.72 66.9101 639.72 66.1001 648.72C65.8966 649.781 65.609 650.824 65.2401 651.84C64.1401 650.91 62.9201 650.4 62.7801 649.69C61.8701 644.93 60.5201 640.13 60.5501 635.35C60.6701 617.96 62.1001 600.7 66.1201 583.66C71.1201 562.29 80.1801 543 94.1201 526.02C105.44 512.18 114.73 497.17 120.62 480.23C123.7 471.37 126.593 462.45 129.3 453.47C131.59 445.84 135.46 438.76 136.7 430.74C137.1 428.14 139.04 425.74 140.34 423.3C144.42 415.627 148.517 407.96 152.63 400.3C155.604 394.908 157.314 388.91 157.63 382.76C147.74 379.93 137.88 376.96 127.63 375.47C108.41 372.66 89.1501 370.1 70.3301 365.02C54.8501 360.85 39.7901 355.69 25.6401 348.07C17.2301 343.53 10.0001 337.6 4.93012 329.47C2.77012 326 0.780121 322 0.360121 318C-0.869879 306.32 0.880121 295.27 8.63012 285.58C21.1501 269.91 36.5301 257.58 52.5101 245.73C73.8301 230 96.8701 217.1 120.15 204.61C124.798 202.34 128.67 198.746 131.28 194.28C134.648 188.206 138.856 182.638 143.78 177.74C149.25 172.52 156 168.64 162.21 164.19C164.18 162.79 166.18 161.43 168.39 159.89ZM137.21 471.38C140.63 471.26 140.58 468.19 141.21 466.15C144.16 456.15 150.49 448.36 157.51 441.03C158.58 439.92 160.12 439.26 162.51 437.68C162.25 440.26 162.51 441.73 161.91 442.77C160.287 445.847 158.463 448.813 156.45 451.65C151.422 458.767 148.01 466.897 146.45 475.47C146.18 476.88 144.91 478.62 147.45 480.05C148.53 478.75 149.69 477.5 150.69 476.14C161.43 461.53 173.93 448.46 186.57 435.52C189.24 432.79 192.03 430.29 193.44 426.52C194.01 425.03 195.07 423.37 197.29 423.78C198.08 427.36 199.13 430.87 199.59 434.46C199.905 437.917 200.026 441.389 199.95 444.86C199.95 448.61 199.95 452.37 199.95 455.8C203.25 457.35 204.35 455.55 204.86 453.38C208.13 439.53 211.51 425.69 214.43 411.76C215.75 405.48 214.1 399.35 211.43 393.51C206.586 382.686 199.607 372.952 190.91 364.89C189.482 363.368 187.76 362.151 185.85 361.31C175.62 357.72 166.69 351.52 156.92 347.06C132.63 335.96 108.23 325.06 83.3501 313.93C79.7801 315.78 76.5901 316.71 73.1701 318.2C70.6401 319.02 65.3201 320.2 63.5801 318.26C64.3301 317.43 68.4201 315.26 69.5101 314.54C73.2629 312.037 77.1633 309.763 81.1901 307.73C91.1901 303 101.51 298.73 111.55 294C127.88 286.29 144.05 278.24 160.38 270.54C174.5 263.88 188.79 257.68 201.97 249.08C209.39 244.24 216.6 238 219.79 234.08C221.719 232.34 223.401 230.345 224.79 228.15C225.09 228.32 225.53 230.48 225.49 231.68C225.38 235.62 223.75 239.05 221.63 242.31C220.63 243.83 219.84 245.47 218.69 247.52C236.81 246.59 254.08 247.57 272.14 245.28C271.45 243.852 270.658 242.475 269.77 241.16C266.88 237.68 263.9 234.28 260.93 230.87C249.44 217.65 241.14 202.36 232.55 187.26C231.926 186.018 231.388 184.735 230.94 183.42C227.56 174.92 227.24 166.52 231.83 158.31C234.38 153.76 237 149.31 239.6 144.74C240.92 142.44 242.27 140.16 243.7 137.74L233 129C227.09 132.14 228.57 139.33 224.06 143.35C217.67 134.46 224.63 127.51 226.73 119.77L224.24 116.77C213.74 123.62 209.82 131.96 211.54 143.11C212.093 146.172 212.374 149.278 212.38 152.39C212.343 153.808 211.748 155.154 210.724 156.136C209.699 157.117 208.329 157.654 206.91 157.63C202.738 157.625 198.57 157.365 194.43 156.85C191.657 156.487 188.851 157.203 186.59 158.85C179.35 163.65 172.01 168.3 164.78 173.12C158.441 177.335 152.921 182.669 148.49 188.86C157.39 185.94 166.01 182.59 174.55 179.01C183.38 175.31 193.4 170.63 204.02 169.19C203.02 170.85 202.02 171.3 200.55 172.62C193.79 176.16 187.01 179.68 180.14 183.01C137.14 203.81 96.4901 228.46 57.1401 255.4C42.7696 265.221 29.8414 277.002 18.7301 290.4C15.1737 294.65 12.1326 299.305 9.67012 304.27C6.00012 311.75 6.72012 319.19 12.4901 325.6C15.4831 328.981 18.6825 332.174 22.0701 335.16C30.0701 342.08 39.4801 346.54 49.3101 350.16C81.3601 362.05 114.51 369.26 148.37 373.67C159.7 375.15 170.91 377.6 182.17 379.67C183.85 379.97 185.62 380.3 185.38 382.82C181.72 384.6 177.89 386.2 174.32 388.25C169.15 391.25 164.56 394.92 161.67 400.36C158.1 407.1 154.46 413.82 150.92 420.58C150.7 421.01 151.04 421.73 151.12 422.32L158.06 419.78C153.17 425.16 149.42 429.14 145.86 433.29C144.86 434.41 143.23 435.81 145.14 437.74C148.14 435.97 151.04 434.07 154.14 432.49C155.14 431.98 156.54 432.28 159.29 432.13C155.29 436.13 152.44 439.13 149.29 441.83C140.08 449.7 136.47 459.54 136.89 471.19V471.32C136.921 471.362 136.958 471.399 137 471.43C137.11 471.44 137.11 471.44 137.21 471.38ZM241.5 122.8C252.74 135.26 267.69 138.18 281.15 130.46C295.15 122.41 303.49 110.13 306.75 94.2899C309.25 82.1199 305.68 71.7199 298.04 62.3799C296.21 60.1499 294.04 58.2899 291.04 58.6799C281.96 59.8299 274.31 63.3699 270.62 72.4499C269.129 76.316 267.876 80.2701 266.87 84.2899C262.87 99.3499 256.98 113.19 242.55 121.44C242.24 121.59 242.1 122 241.5 122.8ZM164.78 341.63C167.19 326.41 163.57 290.11 158.62 279.32C151.11 281.9 144.1 285.63 137 289.18C129.55 292.91 122 296.5 114.6 300.26C107.69 303.76 99.7301 305.26 93.1901 310.34C98.7201 314 148.51 335.68 164.78 341.63ZM258.71 72.8599C257.189 74.6873 255.821 76.6372 254.62 78.6899C253.022 81.7612 251.761 84.9968 250.86 88.3399C248.909 96.5242 243.9 103.652 236.86 108.26C235.59 109.231 234.385 110.283 233.25 111.41C233.74 113.97 235.05 114.99 236.98 114.05C243.011 111.29 247.941 106.586 250.98 100.69C255.41 91.9999 258.77 83.0699 258.71 72.8599Z" fill="#15141D"/>
</g>
<defs>
<clipPath id="clip0">
<rect width="389.33" height="651.83" fill="white"/>
</clipPath>
</defs>
</svg>
