<svg width="280" height="402" viewBox="0 0 280 402" fill="none" xmlns="http://www.w3.org/2000/svg">
<path d="M86.0732 108.221L82.1469 106.095C81.3554 101.233 85.1135 97.3677 84.6398 92.1315C80.1152 95.934 79.5855 101.064 77.7844 105.845C75.0609 107.042 72.4122 105.845 69.5205 105.185C68.274 101.993 69.7697 98.8264 69.7012 95.5974C68.274 95.2607 67.9499 96.3703 67.6259 97.2804C66.772 99.6866 66.0055 102.13 65.133 104.761L55.6164 103.514C54.9038 102.488 54.2784 101.403 53.7467 100.273C52.3887 96.8363 50.7199 93.5312 48.7609 90.3985C43.7751 82.195 43.2142 73.5676 47.4397 64.8405C49.1473 61.2749 51.6901 58.7004 55.4668 57.5471C56.5278 57.2606 57.5687 56.9046 58.5829 56.4812C61.7551 55.0225 63.9426 52.8594 63.9488 49.0008C63.9551 45.1422 65.2576 41.7635 66.8531 38.4036C71.6394 28.2303 80.1589 23.8854 90.8347 22.9255C93.0098 22.7385 95.1971 22.7385 97.3723 22.9255C103.735 23.4428 108.783 20.8247 113.246 16.6295C115.784 14.2357 118.337 11.8607 120.905 9.5044C131.836 -0.469445 144.588 -2.165 158.068 2.42297C170.663 6.70549 179.208 15.8939 185.028 27.6817C186.383 30.4341 187.072 33.466 187.041 36.5335C187.041 38.2727 187.041 40.0057 187.041 41.6638C188.356 42.6051 189.404 43.3718 190.469 44.1136C196.159 48.0595 197.574 53.6449 194.869 60.8946C193.111 65.4024 190.079 69.301 186.144 72.1152C183.34 74.1848 181.781 76.7967 180.223 79.6891C178.254 83.3171 176.347 87.1383 173.624 90.1616C168.488 95.8592 166.687 102.592 165.908 109.866C165.729 111.591 165.458 113.306 165.098 115.003C164.967 115.589 164.381 116.069 163.745 116.96C162.96 116.168 161.938 115.582 161.645 114.747C161.189 113.3 160.942 111.795 160.91 110.278C160.798 108.127 160.91 105.958 160.91 103.589C154.397 104.381 152.646 109.199 151.518 114.411C148.09 115.657 144.912 115.408 141.671 114.847C135.258 113.737 128.826 112.715 122.401 111.693C121.724 111.659 121.046 111.689 120.375 111.78C120.5 114.055 122.382 114.591 123.766 115.327C128.011 117.544 132.046 120.144 135.819 123.094C144.575 130.051 152.023 138.248 159.439 146.564C162.025 149.475 164.855 152.174 167.497 154.873C174.82 154.106 180.616 156.806 185.34 160.92L198.559 158.289C197.231 156.457 195.979 154.736 194.745 153.016C189.678 145.953 188.693 138.242 191.13 130.013C191.406 128.958 191.826 127.945 192.376 127.003C196.739 120.145 201.725 113.843 208.169 108.838C215.074 103.464 223.126 102.018 231.614 102.754C232.694 102.89 233.737 103.233 234.687 103.763C236.409 104.707 238.307 105.283 240.262 105.455C242.218 105.628 244.188 105.394 246.048 104.767C246.578 104.599 247.295 104.967 248.061 105.116C248.228 105.709 248.32 106.321 248.335 106.936C248.192 107.559 247.972 108.162 247.681 108.732C248.373 108.944 248.99 109.112 249.594 109.324C253.066 110.571 253.134 111.125 249.881 114.118C251.576 117.989 253.097 122.072 255.097 125.899C257.977 131.41 259.204 137.313 260.258 143.353C261.598 151.021 260.557 158.582 259.354 166.094C257.607 177.284 254.796 188.283 250.959 198.939C249.551 202.822 248.597 206.93 246.771 210.608C244.409 215.352 244.939 219.79 246.771 224.372C249.355 230.818 251.946 237.259 254.543 243.696C257.559 244.32 260.276 245.236 263.056 245.486C271.351 246.221 278.811 254.967 279.715 263.931C281.254 279.259 276.524 292.225 266.521 303.627C260.426 310.577 253.128 316.094 245.755 321.517C240.096 325.681 237.167 325.208 232.518 319.404C232.013 320.14 231.184 320.8 231.234 321.393C231.423 322.677 231.768 323.933 232.262 325.133C234.826 332.782 236.281 340.759 236.581 348.821C237.319 363.417 237.252 378.042 236.382 392.631C236.189 395.579 236.507 398.678 234.774 402.106C233.571 398.648 232.886 395.031 232.742 391.372C231.87 377.242 230.991 363.1 230.106 348.945C229.626 341.117 228.214 333.374 225.899 325.881C224.921 322.727 224.859 322.764 220.801 321.474C219.05 328.156 217.473 334.889 215.504 341.496C213.591 347.942 211.272 354.269 209.079 360.821C210.107 361.992 211.135 363.096 212.089 364.268C215.398 368.345 215.336 372.602 211.871 376.667C208.602 380.54 204.107 383.18 199.132 384.147C194.233 385.138 189.266 385.824 184.318 386.572C181.302 387.027 178.273 387.388 175.238 387.688C172.614 387.943 170.009 387.856 167.535 386.74C164.369 385.313 163.247 382.663 164.163 379.26C164.886 376.548 166.712 374.715 168.731 373.026C173.804 368.862 178.148 363.993 182.716 359.312C186.618 355.31 188.051 351.021 186.879 345.698C186.175 342.531 185.695 339.283 183.9 336.784L151.113 346.383C151.113 347.998 151.057 349.5 151.113 350.971C151.567 358.816 150.982 366.687 149.374 374.379C147.866 381.18 146.65 388.055 144.962 394.813C142.038 406.511 136.009 417.203 127.511 425.757C122.526 430.905 117.714 436.298 113.09 441.796C106.657 449.274 102.278 458.296 100.382 467.977C99.6782 471.605 98.6623 475.177 97.7088 478.755C96.3065 484.041 92.187 486.366 87.4007 487.688C84.6959 488.436 82.5707 487.32 81.8665 484.571C80.969 481.061 78.9872 478.961 75.7901 477.446C73.2473 476.249 70.985 474.472 68.5358 473.045C63.3443 470.028 58.0407 469.23 52.332 471.842C44.4981 475.426 36.4897 473.949 28.6807 471.786C23.1963 470.265 21.0338 466.799 20.9153 461.076C20.8702 460.423 20.8974 459.766 20.9964 459.119C22.598 451.601 14.8265 442.943 8.2577 441.621C6.76943 441.286 5.30059 440.87 3.85775 440.374C2.98357 440.139 2.17786 439.699 1.50709 439.091C0.836332 438.483 0.319756 437.724 0 436.877C2.63623 433.324 5.27246 429.702 7.98348 426.137C15.3624 416.387 22.8099 406.744 30.139 396.988C32.8886 393.316 36.3183 390.207 40.2415 387.831C50.5296 381.657 61.7881 377.269 73.5402 374.852C75.2354 374.491 76.9119 374.055 78.9623 373.568C79.3237 371.698 79.7101 369.828 80.0342 367.958C81.96 356.775 85.0636 345.885 88.0551 334.957C89.8375 328.449 91.2024 321.829 92.7791 315.271C95.4029 304.319 94.1938 293.572 90.6477 283.081C88.4915 276.685 85.9951 270.409 83.169 264.28C78.5883 254.387 74.232 244.426 70.7544 234.078C69.3709 229.957 67.6009 225.974 65.8933 221.953C58.4146 204.356 55.2237 186.048 57.4486 167.016C58.2379 160.75 59.6002 154.57 61.5183 148.552C64.2854 139.619 67.2457 130.687 72.8048 122.944C75.7091 118.893 78.3017 114.598 82.9571 112.104C84.135 111.431 84.8393 109.804 86.0732 108.221ZM93.8947 250.522C94.7547 252.149 95.9015 253.327 97.9456 253.059C98.2697 253.571 98.4629 254.306 98.9241 254.555C103.91 257.211 108.906 259.819 113.913 262.379C115.277 263.077 116.736 263.588 118.157 264.186C104.197 262.728 93.3026 255.154 82.633 246.882C82.8585 247.872 83.3829 248.768 84.135 249.45C88.8653 253.284 93.6392 257.061 98.413 260.839C107.961 268.382 118.88 271.318 131.593 270.663C130.409 269.541 129.724 268.793 128.895 268.132C126.171 265.963 123.286 263.956 120.706 261.662C119.106 260.187 117.103 259.221 114.953 258.888C109.795 258.049 104.82 256.322 100.252 253.783C99.4644 253.486 98.644 253.287 97.8085 253.19C97.098 251.32 95.7893 250.379 93.7326 250.697C93.9196 249.114 92.8975 249.201 90.6975 249.269C92.4488 249.949 93.1717 250.242 93.8947 250.522ZM143.16 337.581C141.591 348.118 139.374 358.548 136.523 368.812C135.177 373.855 133.482 378.786 131.805 383.773C128.277 394.356 122.496 404.048 114.86 412.18C106.792 420.793 100.49 430.906 96.3128 441.945C95.2221 444.788 93.957 447.556 92.6794 450.336C92.1994 451.131 91.633 451.871 90.9905 452.542C93.3649 438.909 98.3009 426.529 107.007 415.851C109.07 413.32 111.22 410.864 113.37 408.371C119.96 400.782 124.949 391.94 128.041 382.376C131.618 371.611 133.924 360.559 136.635 349.544C138.904 340.324 137.614 331.367 136.567 322.303C136.343 321.034 135.652 319.895 134.628 319.111C132.023 317.241 128.889 316.942 125.854 317.547C122.999 318.114 121.902 320.495 120.943 323.101C118.08 330.654 116.504 338.633 116.281 346.708C116.125 354.506 114.162 361.756 109.687 368.264C108.413 370.292 107.242 372.382 106.178 374.528C98.6997 388.242 88.6098 399.401 74.3941 406.389C66.3438 410.387 59.4841 416.429 54.5008 423.911C49.2221 431.635 44.4295 439.695 39.4188 447.599C38.646 448.809 37.8421 449.999 36.9259 451.427C35.8789 448.933 36.9696 447.107 37.6925 445.368C43.4635 431.548 50.9734 418.837 62.6214 409.138C66.261 406.108 70.5114 403.727 74.7119 401.464C84.5463 396.165 92.2618 388.666 98.3943 379.453C98.9054 378.686 99.9773 377.876 98.9241 376.623C96.0136 377.552 93.0658 378.3 90.2738 379.434C87.2761 380.681 84.216 379.509 81.2246 380.058C79.5169 380.375 77.7657 380.506 76.0581 380.837C65.362 382.879 55.0772 386.677 45.6199 392.076C41.0807 394.686 37.1568 398.243 34.1152 402.505C27.1476 412.024 19.887 421.268 12.7387 430.619C11.8225 431.822 10.869 433.019 9.7472 434.515C11.2928 435.269 12.6016 435.936 13.929 436.553C15.2565 437.17 16.5902 437.731 17.8055 438.267C18.3539 437.644 18.7839 437.413 18.9148 437.021C24.0252 422.958 32.9809 411.575 43.7066 401.427C49.5764 395.857 56.6406 391.701 64.3602 389.277C70.3618 387.357 76.3385 385.356 82.3401 383.436C83.1942 383.237 84.0635 383.109 84.939 383.056C83.3242 384.606 81.4177 385.82 79.33 386.628C74.9051 388.436 70.4304 390.131 65.9619 391.839C59.1992 394.325 52.9567 398.045 47.5519 402.81C37.8982 411.494 29.8773 421.461 24.0751 433.125C22.8286 435.618 21.9561 438.299 20.959 440.811C21.7505 442.057 22.2864 442.986 22.9284 443.853C26.2875 448.403 28.1572 453.378 27.4156 459.131C27.375 459.565 27.375 460.001 27.4156 460.434C27.5589 463.551 28.313 464.798 31.4166 465.546C37.8047 467.067 44.2862 468.189 50.6368 465.384C57.6044 462.311 64.2729 463.264 70.7046 466.768C74.5187 468.844 78.1832 471.2 81.8665 473.525C83.9033 474.832 85.4571 476.77 86.2914 479.042C86.9051 480.341 87.596 481.603 88.3605 482.819C89.1395 481.541 89.7316 480.918 89.9372 480.176C91.2834 475.358 92.804 470.564 93.795 465.671C95.9139 455.154 100.65 445.935 107.412 437.775C112.28 431.909 117.347 426.193 122.644 420.713C130.461 412.732 135.97 402.782 138.586 391.92C139.259 389.171 139.988 386.428 140.562 383.661C142.637 373.631 144.793 363.601 144.207 353.253C143.896 348.44 143.553 343.684 143.16 337.581ZM235.977 148.234C235.086 150.385 234.319 151.706 233.983 153.128C233.085 156.936 232.375 160.795 231.564 164.629C230.835 168.082 230.711 171.399 232.107 174.84C233.577 178.449 233.035 181.971 230.711 185.349C227.015 190.735 223.693 196.371 220.116 201.819C211.727 214.548 203.293 227.252 194.813 239.931C191.317 245.193 187.839 250.472 184.299 255.702C183.24 257.273 182.268 259.05 180.205 259.443C179.787 259 179.251 258.695 179.27 258.42C179.625 253.203 183.981 249.737 185.259 245.124C174.346 229.665 161.888 215.739 149.854 201.919C133.831 202.349 103.96 215.552 96.0697 225.606C99.8589 231.391 104.658 236.453 109.157 241.727C120.799 255.247 134.616 266.106 150.066 274.902C159.794 280.438 170.084 284.253 181.395 285.331C191.603 286.303 200.291 283.511 207.732 276.566C213.166 271.48 217.586 265.409 220.758 258.676C224.117 251.607 227.283 244.426 230.106 237.12C234.649 225.345 238.563 213.32 243.256 201.588C246.542 193.539 249.368 185.31 251.719 176.94C255.559 162.977 256.313 149.082 252.206 135.069C251.894 134.003 251.67 132.949 250.199 132.787C249.638 135.742 249.357 138.797 248.435 141.645C247.363 144.723 246.037 147.707 244.471 150.566C243.094 153.215 241.642 155.927 238.495 157.273L235.977 148.234ZM152.689 156.781C144.496 147.191 134.406 139.401 123.055 133.903C111.501 128.218 99.5535 123.562 87.6126 118.849C86.4596 118.394 85.1197 118.394 83.6551 118.144C81.8976 120.264 80.19 122.215 78.607 124.266C74.1323 130.026 71.6269 136.733 69.2088 143.534C64.8463 155.758 62.0293 168.257 62.6775 181.304C63.1693 192.654 65.484 203.852 69.5329 214.467C72.2128 221.368 75.1419 228.181 78.0399 234.982C78.1646 235.287 78.6631 235.443 79.0246 235.717C79.4935 235.268 79.9115 234.768 80.271 234.228C85.4251 224.123 93.689 217.203 103.33 211.687C118.824 202.81 135.183 196.626 153.188 195.479C156.46 195.248 159.695 194.644 162.829 193.678C160.692 192.755 159.57 192.051 158.355 191.776C147.18 189.221 135.819 190.124 123.255 190.23C125.05 189.345 125.71 188.859 126.446 188.684C128.126 188.252 129.836 187.948 131.562 187.774C141.129 187.051 150.676 187.045 160.399 188.84C160.125 188.024 160.075 187.338 159.719 186.895C156.472 182.787 153.232 178.679 149.885 174.659C143.36 166.829 135.757 160.54 124.738 158.239C125.538 157.973 126.357 157.764 127.187 157.616C130.602 157.354 133.563 158.744 136.479 160.259C142.575 163.413 147.604 167.87 152.16 172.932C153.025 173.737 153.961 174.461 154.958 175.095C157.245 169.416 152.789 167.939 149.941 165.838C150.234 160.714 150.234 160.714 152.689 156.781ZM137.956 306.856C135.464 306.332 132.846 306.045 130.434 305.223C126.601 303.92 122.731 303.87 118.811 304.219C115.782 304.487 112.741 305.36 109.756 305.173C106.77 304.986 103.972 303.795 101.031 303.041C100.563 306.744 100.532 310.521 99.5535 314.031C97.9145 319.872 99.9399 324.16 104.134 327.901C105.599 329.203 107.02 330.569 108.584 331.741C109.332 332.302 110.379 332.476 111.357 332.85C112.224 329.004 112.654 325.513 113.819 322.253C116.387 315.147 122.781 311.406 130.204 312.279C132.152 312.496 134.086 312.833 135.993 313.289C137.269 313.525 138.478 314.034 139.539 314.779C143.154 317.69 146.202 321.1 147.448 325.719C148.352 329.079 149.081 332.489 149.897 335.873C150.184 337.064 150.483 338.255 150.77 339.42C161.87 337.482 177.008 332.476 181.806 329.185C181.295 326.479 180.872 323.718 179.064 321.411C172.932 321.293 167.223 324.086 160.436 323.425C163.16 320.433 166.363 320.489 169.062 319.404C171.76 318.319 175.194 319.024 177.687 316.717C176.11 308.146 174.571 299.656 172.969 291.053C167.466 289.034 161.795 286.896 156.067 284.901C155.025 284.649 153.938 284.649 152.895 284.901C147.978 285.78 143.111 287.045 138.156 287.625C125.28 289.127 112.517 288.903 100.264 283.835C99.5049 283.626 98.7293 283.482 97.9456 283.405C98.5785 287.887 99.4817 292.328 100.65 296.701C107.874 301.688 107.898 301.869 115.963 300.647C124.165 299.407 131.251 302.237 137.956 306.856ZM159.956 178.362C161.445 180.313 162.833 182.339 164.113 184.433C166.643 189.002 168.906 193.715 171.367 198.328C174.135 203.521 176.927 208.726 181.009 213.046C187.602 220.021 197.318 220.283 204.267 213.738C205.397 212.719 206.439 211.608 207.383 210.415C213.379 202.399 219.312 194.345 225.282 186.309C225.842 185.635 226.174 184.801 226.23 183.926C226.286 183.051 226.063 182.181 225.594 181.441C223.84 178.158 221.348 175.326 218.315 173.169C212.182 168.843 205.314 166.125 198.085 164.442C193.722 163.413 189.26 163.575 185.795 166.935C183.209 169.429 180.703 172.14 179.027 175.55L192.289 187.394C194.782 184.826 196.901 182.339 199.338 180.2C201.774 178.062 204.18 175.326 208.599 176.13C203.482 181.497 197.917 185.842 195.511 192.381C199.712 200.186 199.712 200.186 199.612 203.427C196.92 202.922 195.679 200.79 194.346 198.901C189.162 191.611 183.046 185.03 176.154 179.328C175.325 178.642 174.508 177.938 173.661 177.202C173.418 175.425 173.324 173.674 172.932 171.997C171.604 166.324 168.413 162.273 162.624 160.633C162.362 160.558 162 160.895 161.739 161.007C161.695 161.699 161.658 162.322 161.62 163.052C159.37 163.725 158.037 160.259 155.662 161.693C155.936 162.173 156.042 162.69 156.342 162.858C159.321 164.504 160.486 166.854 160 170.339C159.67 172.814 159.956 175.438 159.956 178.362ZM171.037 381.18C174.646 380.824 177.668 380.612 180.653 380.207C186.262 379.44 191.871 378.661 197.437 377.714C201.137 377.102 204.497 375.188 206.91 372.315C207.458 371.772 207.794 371.052 207.859 370.283C207.924 369.514 207.714 368.748 207.265 368.12C206.798 367.391 206.237 366.711 205.732 366.001C203.239 362.485 203.158 358.795 204.71 354.855C208.942 344.114 212.189 333.037 215.211 321.91C215.978 319.099 216.102 316.449 214.962 313.638C214.025 311.19 213.361 308.645 212.98 306.052C211.945 299.818 208.25 295.454 203.594 291.602C201.606 289.963 199.612 289.252 196.994 290.187C192.874 291.644 188.494 292.219 184.137 291.876C182.666 291.77 181.196 291.702 179.457 291.602C178.547 295.286 179.856 298.397 180.703 301.433C184.019 313.607 187.621 325.7 190.974 337.868C191.983 341.421 192.698 345.051 193.112 348.721C193.654 353.957 191.952 358.545 188.219 362.398C183.826 366.93 179.762 371.779 174.776 375.725C173.299 376.891 171.542 377.963 171.037 381.18ZM212.712 282.757C214.413 284.726 216.152 286.665 217.804 288.672C219.605 290.86 221.369 293.079 223.058 295.348C224.553 297.368 226.273 299.276 227.626 302.966C219.997 296.957 215.635 289.508 208.194 284.234L206.374 286.16C206.99 286.762 207.637 287.332 208.312 287.868C214.575 292.095 218.639 297.724 219.817 305.322C220.252 307.676 220.877 309.99 221.686 312.242C222.372 314.367 224.235 315.359 226.28 314.642C227.524 314.246 228.699 313.659 229.763 312.902C239.056 306.045 246.46 297.642 250.33 286.547C250.713 285.176 250.99 283.777 251.159 282.364C245.55 279.584 244.633 278.056 245.98 272.589C246.657 269.615 247.79 266.764 249.339 264.137C251.395 260.833 251.383 257.61 250.523 254.119C248.435 245.635 245.294 237.525 241.798 229.54C241.679 229.266 241.218 229.135 240.551 228.673C237.822 235.649 235.341 242.593 232.387 249.332C229.346 256.257 225.837 262.977 222.366 270.14C224.186 270.925 225.931 271.698 227.694 272.434C229.458 273.169 231.689 272.683 232.979 274.927C230.761 275.476 228.748 275.102 226.691 274.522C224.429 273.898 222.104 273.475 219.73 272.945C218.14 275.002 216.732 276.816 215.168 278.848C217.586 280.394 219.605 281.647 221.593 282.956C224.547 284.907 224.535 284.926 226.672 288.223C221.755 286.727 217.966 283.243 212.712 282.757ZM179.058 59.5357C177.188 59.037 175.587 58.3762 173.941 58.2017C167.317 57.516 161.508 59.8661 156.148 63.4691C153.437 65.2956 150.826 67.2779 148.246 69.2851C139.982 75.7245 130.378 79.0844 120.363 81.5031C119.204 81.7836 117.708 81.2163 117.01 82.7498C119.11 90.118 121.809 94.5065 127.15 99.1069C132.098 103.371 137.745 104.885 144.164 103.408C149.07 102.321 153.696 100.225 157.75 97.2555C168.744 89.1518 175.418 78.1868 178.665 65.0525C179.052 63.4068 178.902 61.6427 179.039 59.5357H179.058ZM238.177 138.99C238.177 136.129 238.482 133.498 238.121 130.961C237.074 123.574 234.02 117.284 227.389 113.226C221.238 109.486 215.485 109.486 209.845 114.049C204.049 118.737 199.3 124.428 196.652 131.559C194.29 137.918 194.826 143.952 199.144 149.394C203.85 155.341 209.615 159.723 217.436 161.637L228.031 154.979C230.131 148.459 230.686 141.446 238.177 138.99ZM239.392 318.07L240.364 318.999C244.515 315.882 248.846 312.983 252.754 309.599C256.723 306.198 260.443 302.517 263.885 298.584C272.305 288.865 275.844 277.545 274.361 264.666C273.782 259.63 271.868 255.453 267.842 252.336C265.892 250.828 263.798 249.799 261.074 251.09C258.782 256.436 256.13 261.619 253.134 266.605C251.825 268.781 251.364 271.474 250.641 273.961C250.492 274.472 250.841 275.127 250.965 275.725C253.14 275.781 254.206 274.322 255.378 273.069C257.908 270.37 260.364 267.621 262.962 264.966C263.442 264.467 264.072 263.538 265.225 264.592C265.343 267.085 263.455 268.781 262.308 270.794C261.355 272.483 259.983 274.086 259.572 275.9C258.388 281.161 255.465 287.482 254.424 293.279C256.481 291.459 258.5 286.422 263.355 284.77C263.193 286.341 262.663 289.327 262.321 289.994C261.329 291.929 260.222 293.803 259.005 295.604C254.869 301.763 249.989 307.389 244.478 312.354C242.564 314.049 240.427 315.627 239.392 318.089V318.07ZM88.778 113.201C91.1463 115.296 93.9632 115.869 96.5309 116.904C102.14 119.167 107.986 121.018 113.495 123.543C125.959 129.253 138.586 134.701 148.084 145.167C148.676 145.791 149.499 146.146 150.259 145.255C150.145 144.843 149.971 144.45 149.742 144.089C142.298 135.554 133.874 127.928 124.644 121.367C121.809 119.36 118.886 117.471 116.044 115.47C114.579 114.442 114.143 113.101 114.798 111.518C115.287 110.311 115.886 109.151 116.586 108.052C117.97 105.908 119.459 103.832 120.681 102.055C117.496 96.5947 114.561 91.5517 111.395 86.1284C110.416 87.6557 109.251 88.9461 108.69 90.492C107.468 93.5255 106.801 96.7539 106.721 100.023C106.671 102.409 106.383 104.783 105.861 107.111C105.387 109.368 103.872 110.303 101.529 110.035C99.585 109.822 97.6526 109.512 95.7394 109.106C92.0811 108.277 90.0681 109.953 88.778 113.201ZM96.5995 329.577C92.3615 343.472 88.5661 356.594 86.3038 370.096C86.2204 371.133 86.2204 372.176 86.3038 373.213C91.8131 372.621 94.7984 371.623 99.0238 369.361C102.832 367.322 105.73 364.374 107.232 360.409C109.756 353.677 111.451 346.751 110.709 339.078C105.256 337.538 101.585 333.392 96.5995 329.577ZM95.1411 275.924C104.352 279.976 113.52 282.426 123.298 282.214C130.546 282.058 137.832 282.283 145.23 279.87C142.282 276.629 139.215 275.07 135.189 275.444C132.597 275.688 129.954 275.444 127.349 275.65C118.146 276.341 108.96 274.109 101.099 269.273C98.3071 267.596 95.7207 265.583 92.9972 263.794C92.2182 263.276 91.5451 262.123 89.8811 263.17L95.1411 275.924ZM198.478 223.443C197.399 223.543 196.564 223.605 195.735 223.711C188.749 224.572 182.766 222.433 178.073 217.253C175.639 214.472 173.424 211.506 171.448 208.383C169.435 205.322 167.753 202.043 165.883 198.789C164.338 199.001 163.066 199.126 161.807 199.369C160.548 199.612 159.146 199.238 158.423 200.697C161.059 205.322 174.914 221.548 179.756 225.694C181.732 224.703 182.081 224.603 182.517 225.183C183.826 226.922 185.053 228.723 186.381 230.45C187.796 232.32 188.83 234.508 191.223 236.104C193.785 232.501 195.935 229.022 198.035 225.507C198.297 225.014 198.266 224.391 198.453 223.443H198.478ZM159.296 53.4267C154.497 52.9342 147.99 54.9041 141.39 58.85C132.977 63.8743 126.321 69.6155 124.782 73.2622C130.042 71.6664 135.158 69.9023 139.683 66.9288C146.326 62.5715 152.783 57.9523 159.296 53.4267ZM85.8987 237.413C92.6108 242.556 99.2793 246.14 105.929 249.793C106.459 250.08 107.219 249.936 108.503 250.049C102.744 243.092 97.4844 236.777 92.2369 230.45C92.0886 230.304 91.8955 230.211 91.6885 230.188C91.2905 230.199 90.8943 230.245 90.5043 230.325L85.8987 237.413ZM181.252 164.722C178.647 160.826 175.219 159.299 170.277 159.436L178.055 169.254L181.252 164.722ZM155.837 152.617L157.345 154.555C157.389 153.558 157.613 152.411 155.843 152.617H155.837ZM257.609 249.039L256.662 250.285C256.998 250.504 257.466 250.977 257.659 250.909C258.155 250.596 258.608 250.218 259.005 249.787L257.609 249.039Z" fill="white"/>
</svg>
