<svg width="392" height="456" viewBox="0 0 392 456" fill="none" xmlns="http://www.w3.org/2000/svg">
<path d="M26.4348 601.078C29.1263 598.129 29.9902 594.671 30.5883 591.102C32.3937 580.251 34.1105 569.389 36.0599 558.56C39.87 537.402 46.0283 516.974 55.9967 497.855C58.6636 493.056 61.5882 488.405 64.7578 483.923C65.5909 482.628 66.765 481.589 68.1507 480.921C69.5364 480.252 71.0799 479.979 72.6107 480.132C76.875 480.321 81.1614 480.199 85.4367 480.132C94.5855 479.866 103.734 479.5 114.035 479.135L120.847 487.447C125.22 492.982 130.682 497.558 136.896 500.892C146.499 505.835 156.135 507.376 166.923 504.428C180.314 500.77 192.896 495.871 204.581 488.19C220.857 477.311 236.135 465.008 250.237 451.425C262.852 439.411 275.191 427.041 287.087 414.35C295.837 404.985 303.435 394.555 311.974 384.99C323.671 371.889 332.875 357.147 341.359 341.907C344.881 335.512 347.872 328.884 351.195 322.245C348.581 321.136 347.971 322.932 347.218 323.896C342.574 329.948 337.992 336.07 333.473 342.262C308.308 376.245 280.984 408.332 250.115 437.294C235.827 450.705 220.841 463.274 204.382 473.97C192.808 481.418 180.89 488.234 167.333 491.704C166.148 492.014 165.007 492.468 163.811 492.712C150.287 495.472 139.122 491.282 130.14 481.019C123.606 473.324 117.834 465.013 112.905 456.202C101.541 436.595 92.3925 415.946 83.5316 395.131C73.5632 371.689 66.674 347.349 60.6929 322.688C59.6961 318.543 58.8764 314.32 58.2562 310.097C56.6945 299.512 55.0885 288.938 53.9144 278.309C53.1843 271.313 52.8146 264.284 52.8068 257.25C52.6475 253.249 53.5306 249.275 55.3695 245.719C57.2085 242.163 59.9399 239.147 63.2958 236.967C77.174 227.501 90.7089 217.47 105.628 209.656C110.252 207.331 115.038 205.345 119.95 203.715C122.674 202.848 125.599 202.848 128.323 203.715C126.617 204.691 124.934 205.699 123.217 206.642C113.071 212.183 106.06 220.219 103.745 231.879C102.957 236.074 101.217 240.033 98.6615 243.451C96.1805 246.776 94.364 250.588 92.0159 254.667C89.0475 251.752 88.1836 247.651 83.9304 246.454C85.8687 255.144 89.2137 262.869 92.5918 270.672C103.956 296.941 121.533 318.731 140.795 339.391C144.538 343.415 148.127 347.604 151.926 351.583C162.936 363.144 171.409 376.666 181.1 389.268C183.105 391.884 184.744 394.81 188.156 397.115C189.485 390.066 185.309 385.643 182.463 380.9C179.616 376.156 176.349 371.822 173.181 367.189C180.271 357.158 188.57 348.041 197.891 340.045C198.094 339.817 198.343 339.635 198.623 339.513C207.295 337.019 210.463 329.637 214.029 322.477C215.474 319.475 217.298 316.67 219.456 314.131C228.317 304.034 237.588 294.247 246.415 284.106C251.422 278.342 255.908 272.135 260.56 266.083C261.169 265.129 261.682 264.115 262.088 263.058C261.59 262.603 261.412 262.315 261.158 262.249C261.01 262.206 260.854 262.195 260.702 262.216C260.549 262.237 260.403 262.29 260.272 262.37C257.868 264.233 255.365 266.017 253.105 268.056C247.689 272.966 242.384 278.032 236.824 283.175C233.722 280.958 234.021 277.998 234.32 274.74C236.724 273.321 239.05 271.925 241.398 270.572C257.824 261.063 269.564 247.241 277.738 230.35C282.188 221.542 283.809 211.574 282.379 201.809C282.287 200.436 282.287 199.059 282.379 197.686L292.447 196.145C292.71 195.048 292.917 193.938 293.068 192.82C293.178 191.623 293.068 190.415 293.068 188.819C294.175 189.151 295.283 189.129 295.671 189.639C297.11 191.579 298.318 193.696 299.614 195.746C300.167 195.979 300.721 196.445 301.275 196.422C312.938 195.857 323.427 199.936 333.916 204.314C336.711 205.505 339.301 207.128 341.592 209.124C361.385 226.271 373.07 247.729 375.861 273.92C378.974 303.239 374.835 332.875 363.81 360.217C359.657 370.725 355.259 381.144 350.763 391.518C340.019 416.323 325.421 438.89 310.291 461.168C306.525 466.71 303.08 472.507 299.625 478.27C290.598 493.333 286.81 509.903 286.212 527.26C286.161 532.149 286.532 537.032 287.319 541.857C290.265 563.405 297.016 584.256 307.256 603.438C308.109 605.057 309.106 606.586 310.014 608.105C312.329 607.672 312.229 605.988 311.908 604.58C310.8 598.916 309.759 593.175 308.098 587.644C304.144 574.477 299.946 561.42 297.31 547.876C292.813 524.733 295.604 502.865 307.278 482.305C310.601 476.475 314.046 470.678 317.878 465.18C341.722 431.065 360.891 393.907 374.875 354.698C380.12 339.682 383.295 324.02 384.312 308.146C385.32 294.125 385.419 280.038 382.949 266.028C379.053 243.221 367.673 222.364 350.608 206.752C349.359 205.404 347.953 204.209 346.421 203.194C334.979 196.877 334.071 185.328 331.103 173.268C339.808 179.076 341.403 187.81 344.959 194.926C345.595 195.267 346.258 195.556 346.941 195.791C359.036 198.639 366.036 191.357 371.453 182.49C378.464 171.007 379.715 158.106 376.47 145.282C373.546 133.7 365.616 126.44 353.532 124.223C351.726 123.902 349.899 123.713 348.104 123.358C342.356 122.25 339.033 118.537 337.77 112.962C337.272 110.557 336.946 108.12 336.796 105.669C335.91 94.0753 330.494 86.0618 318.886 83.0359C314.179 81.8057 309.405 80.8192 304.62 79.8771C298.284 78.6357 292.06 77.1505 286.898 72.8944C285.782 71.8525 284.731 70.742 283.753 69.5692C284.75 69.2478 285.436 68.7601 285.846 68.9375C296.634 73.515 308.175 75.1443 319.318 78.2921C326.418 80.2761 333.096 83.2909 338.657 88.334C342.345 91.6591 345.302 95.494 346.255 100.526C348.171 111.222 355.337 117.462 364.486 121.973C367.498 123.458 370.733 124.5 373.657 126.118C379.815 129.543 384.168 134.475 385.209 141.735C385.807 145.958 386.239 150.203 386.726 154.448C386.893 155.834 386.981 157.219 387.125 158.771C388.166 158.261 389.019 158.128 389.141 157.751C391.542 150.767 391.705 143.208 389.606 136.127C388.306 131.345 385.395 127.16 381.366 124.278C377.899 121.84 374.011 120.011 370.29 117.916C367.111 116.132 363.777 114.591 360.775 112.508C358.697 111.198 356.902 109.486 355.494 107.472C354.087 105.458 353.096 103.183 352.579 100.781C350.087 88.5556 341.636 81.4731 331.258 76.1197C322.486 71.6086 312.783 69.9572 303.435 67.2527C300.212 66.3217 296.955 65.5015 293.799 64.4042C286.51 61.9501 280.167 57.2812 275.656 51.0484C270.772 44.3981 265.688 37.9696 261.778 30.5989C253.859 15.5029 240.734 6.61374 224.629 3.22212C194.724 -3.05126 167.599 3.41055 144.284 23.594C138.546 28.5706 133.54 34.4228 128.268 39.9425C124.233 44.1637 121.389 49.3805 120.027 55.0607C119.616 56.4181 119.116 57.7473 118.532 59.0397C104.676 63.0742 98.008 71.2318 96.6346 85.2859C95.819 93.2526 97.3799 101.282 101.12 108.362C103.138 112.122 105.356 115.77 107.766 119.291C111.82 125.409 116.184 131.317 120.094 137.523C127.027 148.607 129.951 160.378 126.662 173.424C124.986 180.492 125.308 187.887 127.592 194.782C125.51 195.613 123.693 196.766 121.744 197.054C114.489 198.248 107.548 200.886 101.331 204.813C92.6915 210 84.2184 215.453 75.7784 220.962C69.1328 225.295 62.6644 229.928 56.0742 234.373C48.7973 239.272 45.6517 246.354 46.1058 254.8C46.8479 270.051 47.2134 285.358 50.2039 300.421C50.8574 303.746 50.4365 307.282 51.4445 310.396C53.5489 316.947 51.4445 322.234 47.9666 327.598C33.5678 350.009 22.4918 374.227 10.2417 397.825C5.00424 407.528 1.6235 418.124 0.273285 429.069C-0.546295 437.321 0.48291 445.651 3.28598 453.454C7.37302 465.513 16.2006 472.374 27.8636 476.109C34.0108 478.093 40.4017 478.669 46.8258 479.002C48.8748 479.112 50.9128 479.434 53.8147 479.755C33.7893 518.183 25.6263 558.649 26.4348 601.078ZM173.978 185.472C174.178 181.223 175.819 177.168 178.63 173.978C183.583 167.727 189.78 162.575 196.828 158.849C205.689 154.337 215.17 151.943 225.15 153.562C237.787 155.623 248.83 161.442 258.787 169.278C261.386 171.407 263.63 173.936 265.433 176.771C270.023 183.645 273.308 191.306 275.125 199.371C276.337 204.741 276.337 210.315 275.125 215.686C272.223 228.621 264.935 239.084 256.583 248.882C250.561 255.81 243.291 261.544 235.151 265.784C232.283 267.314 229.613 268.001 226.512 266.582C219.113 263.157 211.194 262.825 203.252 263.113C200.195 263.213 197.138 263.18 194.092 263.446C192.131 263.632 190.152 263.366 188.309 262.669C186.466 261.971 184.807 260.861 183.459 259.422C170.379 246.997 163.822 231.713 162.947 213.857C162.88 212.549 162.26 210.798 164.608 209.823C168.595 212.46 172.893 215.364 179.295 212.571C176.592 210.876 174.61 209.701 172.716 208.415C171.556 207.652 170.646 206.563 170.101 205.286C169.555 204.009 169.398 202.599 169.648 201.233C170.179 197.021 172.228 193.596 176.293 192.089C179.76 190.792 182.861 191.967 185.243 194.904C186.091 195.764 186.997 196.564 187.956 197.298C187.558 189.462 185.054 187.445 173.978 185.472ZM137.228 263.058C129.132 266.826 119.728 267.114 112.861 273.521C113.514 273.82 113.802 274.075 114.046 274.042C115.829 273.776 117.635 273.521 119.396 273.122C130.405 270.595 141.415 268.278 152.856 268.466C170.578 268.766 188.3 268.599 206.021 268.699C209.986 268.699 213.963 268.943 217.917 269.309C219.906 269.452 221.837 270.044 223.564 271.043C225.291 272.041 226.768 273.419 227.885 275.072C228.439 275.882 228.273 277.2 228.406 278.109C226.401 279.062 224.23 277.001 223.267 279.484C224.374 282.399 230.056 282.221 228.096 287.497H220.154C221.173 290.822 228.218 290.601 224.374 295.91C221.339 296.741 219.246 292.773 215.292 294.303L221.871 301.174L218.615 304.134C217.473 303.694 216.363 303.175 215.292 302.582C208.901 298.215 201.779 297.184 194.247 298.082C190.615 298.514 187.026 299.301 183.393 299.678C178.276 300.199 173.303 300.787 168.119 298.825C154.44 293.626 141.149 295.599 128.423 302.327C127.78 302.66 127.537 303.757 127.094 304.544C129.685 306.45 131.89 304.987 134.072 304.156C140.795 301.607 147.761 301.463 154.839 301.673C161.917 301.884 167.842 304.455 172.051 310.928C171.165 314.253 170.268 317.833 169.315 321.336C168.249 325.187 168.222 329.253 169.238 333.118C171.088 340.2 172.45 341.419 180.314 342.617C180.546 342.617 180.724 343.06 180.923 343.282C181.078 343.858 181.532 344.612 181.322 344.966C177.888 350.652 173.281 355.363 168.695 360.772L148.138 336.72C146.92 332.719 151.184 330.424 148.803 326.878L143.01 330.203C141.426 328.274 139.82 326.445 138.336 324.528C128.463 311.671 118.613 298.803 108.785 285.923C106.935 283.496 105.374 280.858 103.546 278.409C102.798 277.441 102.259 276.329 101.962 275.142C101.664 273.956 101.615 272.721 101.818 271.514C102.571 266.061 102.926 260.542 104.033 255.166C105.684 247.086 107.489 239.028 109.793 231.114C112.518 221.738 119.241 215.653 127.736 211.308C134.847 207.661 141.869 208.105 148.78 211.762C150.781 212.932 152.715 214.212 154.573 215.597C155.437 220.252 156.002 224.464 157.043 228.632C158.045 232.796 159.378 236.873 161.031 240.824C162.714 244.725 165.073 248.338 167.111 252.096C169.149 255.853 172.716 258.325 174.565 263.324C168.496 262.947 163.379 262.592 158.262 262.337C153.144 262.082 148.072 261.971 142.644 261.783C143.021 252.861 145.424 244.515 143.752 236.024C143.198 236.157 142.7 236.157 142.644 236.324C139.51 244.659 140.053 253.736 137.261 263.013L137.228 263.058ZM54.3575 333.195C60.56 355.263 66.3749 375.956 72.3227 397.093C61.5458 397.891 51.0125 396.273 41.0662 400.108C41.2102 400.485 41.2434 400.906 41.4096 400.972C52.1422 405.251 63.7167 401.05 75.0364 404.297C78.1155 411.668 81.106 419.305 84.4731 426.764C87.8402 434.223 91.6725 441.583 95.2279 449.009C98.7833 456.435 103.978 462.653 107.212 470.223C106.502 470.535 105.759 470.765 104.997 470.911C85.4589 470.911 65.9208 471.154 46.3938 470.789C37.1765 470.719 28.1575 468.104 20.3319 463.23C17.7069 461.682 15.4415 459.592 13.6863 457.1C10.8269 452.739 9.03574 447.765 8.45847 442.581C7.55023 433.714 7.78281 424.847 11.017 416.39C13.0882 410.981 15.1594 405.539 17.7291 400.363C25.1943 385.333 32.7998 370.374 40.5457 355.485C44.389 348.181 48.0773 340.821 54.3575 333.195ZM169.958 171.695C168.053 169.932 166.635 168.813 165.45 167.505C159.217 160.775 154.182 153.026 150.564 144.595C144.97 131.56 141.515 118.06 142.367 103.707C142.733 97.6221 142.977 96.68 146.056 91.1049C146.345 91.0555 146.641 91.0555 146.931 91.1049C147.517 91.2577 148.079 91.4888 148.603 91.7921C160.687 99.5839 174.189 102.854 188.377 103.707C192.021 103.94 195.654 104.572 199.298 104.705C206.442 104.982 212.102 108.395 217.142 113.006C219.927 115.384 222.415 118.089 224.551 121.064C228.572 127.149 232.127 133.544 235.849 139.84C236.724 141.314 237.455 142.877 238.673 145.193C239.288 143.8 239.618 142.298 239.643 140.775C239.668 139.252 239.387 137.739 238.817 136.326C237.389 132.314 235.616 128.435 234.044 124.478C233.567 123.292 231.961 122.139 233.656 120.698C239.271 126.673 240.523 128.845 245.153 141.159C246.26 144.218 247.944 147.288 246.26 151.356C233.058 146.634 219.811 143.331 205.534 147.111C190.947 151.012 180.358 160.168 169.958 171.695ZM177.301 335.545C173.292 325.005 177.633 315.506 181.499 305.874C192.409 304.078 202.842 300.698 212.844 307.924C212.412 317.645 208.879 325.658 201.159 333.528C201.513 328.474 201.757 324.894 202.012 321.336C197.67 326.49 198.822 334.182 191.811 339.07C192.741 334.381 193.328 330.846 194.17 327.365C195.045 323.697 196.23 320.094 194.513 315.173C191.401 319.684 191.434 324.04 189.939 327.886C188.444 331.732 188.41 336.554 184.401 340.81C182.85 333.051 186.982 326.312 183.781 318.399C179.516 324.251 181.488 330.724 177.301 335.545ZM100.046 253.049C99.7469 257.483 99.6584 259.832 99.4036 262.226C99.2153 263.978 98.8276 265.707 98.296 268.877L94.3751 262.426L100.046 253.049ZM154.839 208.626C152.568 207.517 151.206 206.83 149.899 206.11C148.592 205.389 147.174 204.502 144.926 203.172C153.1 203.527 154.13 204.059 154.861 208.626H154.839ZM136.619 202.086V201.643H140.008V202.086H136.619Z" fill="white"/>
<path d="M244.787 184.34L237.931 177.457C235.539 178.632 235.66 180.461 236.203 181.603C237.354 184.032 238.793 186.313 240.49 188.397C242.262 190.614 244.676 190.037 247.135 189.505C248.331 189.284 249.782 190.614 251.189 191.09C251.751 191.306 252.362 191.365 252.955 191.261C253.549 191.157 254.103 190.893 254.558 190.498C255.013 190.103 255.352 189.591 255.539 189.018C255.726 188.445 255.754 187.832 255.619 187.244C254.618 183.444 253.405 179.703 251.987 176.039C251.641 175.428 251.15 174.913 250.556 174.539C249.963 174.166 249.286 173.946 248.586 173.899C247.895 174.084 247.257 174.427 246.722 174.903C246.188 175.378 245.771 175.972 245.507 176.637C244.942 178.643 245.086 180.849 244.787 184.34Z" fill="white"/>
<path d="M260.493 183.63C258.987 187.565 258.887 190.757 260.139 193.96C260.278 194.202 260.471 194.408 260.704 194.562C260.937 194.716 261.202 194.814 261.479 194.847C261.966 194.847 262.841 194.448 262.896 194.127C263.45 190.58 263.495 187.088 260.493 183.63Z" fill="white"/>
</svg>
