<svg width="447" height="604" viewBox="0 0 447 604" fill="none" xmlns="http://www.w3.org/2000/svg">
<path d="M298.433 230.02C299.63 230.457 301.3 230.538 301.943 231.396C303.86 233.97 305.549 236.706 306.991 239.574C316.594 258.566 320.48 278.693 318.121 299.857C316.817 311.565 314.941 323.219 313.262 334.892C311.716 345.617 311.475 356.261 313.914 366.87C314.369 369.323 315.023 371.735 315.87 374.082C316.764 376.37 318.229 378.444 319.783 381.232C316.504 390.518 312.279 399.921 308.17 409.385C297.709 433.624 290.991 458.72 293.109 485.398C294.002 496.776 295.244 508.26 297.825 519.361C303.489 543.706 310.082 567.838 316.388 592.031C317.072 594.795 318.143 597.449 319.569 599.914C319.841 600.384 320.206 600.795 320.641 601.121C321.076 601.447 321.572 601.682 322.1 601.813C322.628 601.943 323.176 601.965 323.713 601.878C324.249 601.792 324.763 601.598 325.223 601.308C325.9 600.818 326.461 600.186 326.867 599.455C327.272 598.725 327.513 597.915 327.573 597.081C327.501 594.65 326.429 592.255 325.786 589.842C319.488 564.906 312.735 540.069 307.089 514.99C304.491 502.753 302.892 490.325 302.31 477.828C301.836 469.722 302.908 461.357 304.471 453.331C307.208 438.923 311.677 424.9 317.782 411.566C320.337 406.061 322.508 400.376 324.928 394.791C326.599 390.876 328.332 386.988 330.074 383.002C339.9 380.839 349.62 384.012 359.312 381.912C362.403 375.405 360.902 368.505 360.858 361.901C360.813 355.296 359.964 348.414 359.419 340.12C361.456 342.417 362.993 343.436 363.502 344.83C367.191 353.973 367.79 363.554 367.156 373.269C366.977 376.067 366.664 378.846 366.378 381.992C373.666 383.336 381.117 383.55 388.47 382.627C388.979 379.204 389.363 376.102 389.899 373.019C390.426 370.078 389.506 366.691 392.972 362.893C393.446 367.361 393.866 370.373 394.053 373.403C394.268 376.218 394.294 379.052 394.42 382.251C401.673 384.825 408.713 384.646 415.707 383.547C419.888 382.886 422.693 380.374 424.265 376.317C432.85 354.116 435.664 331.987 423.104 310.224C419.361 303.745 415.323 297.417 410.973 291.339C406.333 284.972 402.878 277.821 400.771 270.229C400.262 268.379 400.485 266.323 400.36 264.143C401.307 264.429 401.807 264.429 401.968 264.661C409.695 275.815 417.61 286.844 425.033 298.203C434.726 313.031 441.238 329.172 443.498 346.877C443.713 347.906 444.087 348.895 444.606 349.808C444.704 350.005 445.249 349.987 445.928 350.139C447.5 347.207 446.75 344.062 446.419 341.032C445.187 329.94 442.426 319.171 437.227 309.339C432.904 301.144 428.017 293.252 423.122 285.351C419.352 279.283 414.966 273.59 411.259 267.476C404.415 256.471 401.098 243.635 401.754 230.69C401.879 228.187 401.879 225.676 402.084 223.182C403.799 202.26 397.001 183.732 385.924 166.501C379.814 156.766 371.66 148.477 362.028 142.209C351.496 135.425 340.928 128.883 329.1 124.441C322.106 121.814 315.513 118.123 308.768 114.843C298.727 109.954 291.795 102.116 286.927 92.3022C288.428 90.4254 289.607 91.5872 290.679 92.3022C298.272 96.9855 305.776 101.803 313.431 106.361C326.635 114.226 339.999 121.805 353.148 129.75C358.946 133.263 364.467 137.258 369.934 141.271C379.142 148.122 386.972 156.656 393.008 166.421C403.987 183.831 411.687 202.564 415.144 222.941C416.145 228.884 417.119 234.837 418.119 240.816C420.522 240.092 420.442 238.135 420.629 236.455C421.523 228.161 420.254 219.983 418.673 211.939C414.939 193.153 407.328 175.841 396.867 159.86C389.734 149.103 380.643 139.783 370.068 132.387C351.388 119.124 331.539 107.782 311.502 96.7442C297.897 89.2546 285.524 80.2724 276.663 67.2505C273.643 62.8444 271.088 58.1254 268.444 53.4779C264.21 46.0241 260.404 38.3289 255.839 31.0717C249.247 20.5076 239.822 12.8572 228.924 7.09252C221.359 2.89958 212.816 0.79584 204.17 0.997169C187.197 1.51554 170.813 4.21465 155.645 12.3746C147.995 16.314 141.212 21.7478 135.697 28.3547C133.419 31.1611 131.231 33.7172 127.291 34.3965C122.646 35.174 120.145 38.5166 118.572 42.9139C116.178 49.7421 114.865 56.4988 115.892 63.899C117 72.1125 118.572 80.0669 121.931 87.6637C123.19 90.2288 124.23 92.8957 125.04 95.6359C128.015 107.567 132.821 118.614 141.03 128.758C138.449 130.242 136.501 131.699 134.322 132.565C119.921 138.285 110.515 149.261 103.055 162.22C98.935 169.394 96.8127 177.542 96.9094 185.815C96.9094 190.087 96.9094 194.359 96.9094 199.221C94.9173 200.624 92.6841 202.322 90.3257 203.842C86.1271 206.523 81.7052 208.954 77.6406 211.885C64.9644 220.93 69.2702 218.946 55.2451 220.117C52.0154 220.404 48.8376 221.117 45.7939 222.235C38.7367 224.755 31.6794 227.32 24.8366 230.377C10.1505 236.946 2.41443 248.672 1.25311 264.652C0.779663 271.06 1.0119 277.522 1.11017 283.957C1.3335 297.9 1.33347 311.86 2.06601 325.784C3.2005 347.359 8.73907 368.13 15.3407 388.543C23.4048 413.383 34.1366 437.276 47.3482 459.802C54.2178 471.545 61.6413 482.95 71.1998 492.718C73.019 494.425 74.4418 496.509 75.3679 498.826C76.294 501.142 76.7008 503.634 76.5597 506.124C76.2023 517.573 75.6217 528.879 73.2544 540.185C69.6811 557.309 66.8672 574.612 63.9193 591.861C63.4406 594.669 63.5042 597.542 64.1068 600.325C64.3927 601.585 66.4652 602.881 67.957 603.275C68.9308 603.534 70.8156 602.488 71.4231 601.487C72.4932 599.638 73.2252 597.614 73.5849 595.508C77.8252 572.676 81.994 549.829 86.0913 526.967C86.8328 522.775 86.9847 518.485 87.4939 513.292C89.1287 514.093 90.7155 514.988 92.2463 515.974C97.9457 520.255 103.386 524.911 109.318 528.87C113.509 531.596 118.007 533.818 122.717 535.493C140.584 542.026 158.075 536.387 168.866 520.639C174.864 511.709 179.126 501.727 181.426 491.217C186.491 469.293 191.387 447.325 195.96 425.294C201.32 399.331 203.402 372.965 204.84 346.519C205.653 331.522 207.297 316.579 208.413 301.609C208.842 295.951 209.44 290.195 205.921 284.181C204.777 286.138 203.696 287.496 203.143 289.034C199.989 297.908 199.855 307.311 198.944 316.525C197.032 335.732 195.728 354.956 194.147 374.234C191.798 402.79 186.563 430.889 180.506 458.836C178.308 468.963 175.736 478.999 173.181 489.045C171.043 497.736 167.546 506.034 162.818 513.632C158.879 519.843 153.733 524.553 146.596 526.958C140.835 529.017 134.558 529.127 128.729 527.27C120.23 524.476 112.379 519.999 105.646 514.106C94.1076 504.506 83.8222 493.492 75.0321 481.323C56.4038 455.055 41.2748 426.47 30.0268 396.292C22.0674 375.155 16.8593 353.276 12.6429 331.138C12.4294 330.087 12.3039 329.019 12.2677 327.947C12.0354 306.855 11.3744 285.754 11.7764 264.67C11.9818 253.534 17.6097 245.169 28.535 240.762C37.7451 237.053 46.714 232.719 55.7543 228.688C57.675 231.494 55.6025 232.451 54.4501 233.443C50.6535 236.696 46.5889 239.636 42.837 242.988C39.879 245.574 37.1857 248.448 34.7971 251.568C33.743 252.989 33.9038 255.339 33.2338 258.879L46.4638 251.907C48.9919 252.944 48.1879 254.964 48.0807 256.528C47.8485 259.737 47.1874 262.9 46.9194 266.109C46.5873 271.156 44.3294 275.882 40.6126 279.31C29.2407 290.115 30.1608 293.44 36.7982 307.346C48.0897 330.995 63.0884 352.382 76.6043 374.672C82.8575 385.022 90.5043 394.585 97.8563 404.255C100.822 408.152 102.528 412.031 102.189 416.973C101.626 425.223 102.725 433.374 104.315 441.471C104.985 444.894 105.476 448.362 108.451 451.374C109.273 450.239 110.175 449.524 110.282 448.692C110.488 446.56 110.578 444.418 110.55 442.275C111.185 411.53 111.676 380.786 112.534 350.05C112.833 341.474 113.665 332.925 115.026 324.453C118.769 300.027 124.004 275.869 133.312 252.953C142.961 228.878 159.472 208.172 180.792 193.412C186.589 189.363 193.191 186.369 199.659 183.384C212.013 177.691 225.1 174.16 238.366 170.943C249.702 177.894 259.475 187.121 267.068 198.041C271.589 204.476 276.001 210.974 280.531 217.418C290.554 231.863 297.337 248.305 300.416 265.617C303.059 279.753 302.028 294.331 297.423 307.954C293.305 320.35 293.957 342.06 298.54 356.458C299.228 354.045 299.969 352.561 300.023 351.095C300.63 333.837 304.329 317.133 308.465 300.447C311.577 287.89 311.882 274.802 309.358 262.114C307.169 250.96 304.293 239.869 298.245 229.939C298.245 229.367 298.308 228.804 298.325 228.241C298.388 228.84 298.406 229.43 298.433 230.02ZM114.409 279.274C112.087 291.429 109.988 301.877 108.156 312.342C107.379 316.749 104.762 319.26 100.858 320.753C98.0234 321.915 94.8689 322.035 91.9545 321.091C89.0401 320.147 86.5544 318.2 84.939 315.596C81.8709 310.729 80.2219 305.101 80.1776 299.347C80.0972 290.41 80.1776 281.472 80.1151 272.535C80.1151 270.122 80.6779 267.396 77.2743 265.859C76.4882 266.752 75.2286 267.646 74.8356 268.817C74.1551 271.219 73.6241 273.66 73.2455 276.128C68.9308 298.007 70.3958 308.785 80.6332 328.358L58.4343 324.783C54.0213 316.99 49.7334 309.59 45.642 302.091C42.6404 296.604 42.2206 291.366 47.4286 286.638C53.8873 280.793 56.3618 273.161 56.9781 264.634C57.5677 256.474 58.5951 248.341 59.3633 240.789C64.2587 236.535 68.4662 232.745 72.8703 229.108C77.5691 225.274 82.3841 221.583 87.2616 217.99C91.7282 214.665 96.436 211.546 101.215 208.212C105.86 213.575 109.514 219.018 114.365 223.021C119.466 227.222 125.71 230.028 131.463 233.452C126.103 246.929 122.825 251.63 115.937 255.161C115.598 251.827 115.24 248.726 114.981 245.615C114.749 242.773 114.758 239.913 114.436 237.08C114.231 235.248 113.284 233.407 111.194 233.755C110.229 233.916 109.085 235.597 108.817 236.758C108.46 238.869 108.322 241.01 108.406 243.149C108.406 247.787 108.406 252.435 108.406 257.073C108.406 265.76 107.04 274.054 102.627 281.75C100.894 284.761 100.161 288.372 99.2053 291.786C98.9908 292.537 99.7502 293.574 100.018 294.307C100.733 294.378 101.251 294.566 101.385 294.414C105.351 289.865 109.219 285.298 114.401 279.274H114.409ZM136.671 225.327C131.677 224.863 127.541 222.691 123.771 220.072C111.926 211.823 104.815 200.919 105.405 185.877C105.619 180.435 106.638 175.215 109.353 170.478C113.445 163.328 117.393 155.597 124.772 151.71C136.305 145.561 148.677 144.193 160.585 151.093C172.672 158.091 178.398 168.968 178.898 182.311C170.858 189.408 162.979 195.601 156.029 202.698C149.079 209.794 143.085 217.739 136.671 225.327ZM132.312 65.6329C133.41 65.5792 134.196 65.3022 134.759 65.5524C140.584 68.1264 146.22 71.2098 152.197 73.3548C168.83 79.3429 180.828 90.336 188.367 106.164C192.664 115.191 197.3 123.968 203.152 132.083C204.304 133.683 204.938 135.658 205.831 137.74C196.282 138.634 181.712 137.097 173.77 133.879C150.544 124.486 148.811 124.209 136.948 99.8633C131.677 89.0222 130.954 77.4214 132.312 65.6329ZM66.0007 335.714C73.04 335.642 86.3058 338.056 90.6115 340.773C93.229 342.426 95.9714 344.562 97.508 347.163C102.993 356.583 99.8038 368.926 90.1917 376.513C89.2109 375.549 88.3143 374.503 87.5117 373.385C80.3057 361.534 73.1591 349.653 66.0721 337.743C65.7416 337.242 66.0007 336.402 66.0007 335.714ZM212.013 149.359C213.871 149.359 215.086 148.975 215.685 149.422C221.938 154.087 226.628 159.574 228.361 164.177C224.654 164.705 221.473 167.842 216.909 165.446L212.013 149.359ZM197.05 149.547C198.256 149.296 199.292 148.814 199.525 149.064C204.804 154.811 205.135 162.363 207.484 169.915L201.231 172.534C199.802 164.749 198.488 157.492 197.05 149.529V149.547ZM101.635 381.089C102.817 384.614 102.719 388.444 101.358 391.904C95.2925 385.791 95.2925 385.791 101.635 381.089ZM104.583 330.941L103.636 338.565L97.5526 333.9L104.583 330.941Z" fill="white"/>
<path d="M263.183 419.083C266.595 416.026 266.756 412.433 267.131 408.921C268.322 397.553 269.513 386.187 270.704 374.825C272.859 354.938 276.873 335.297 282.693 316.159C287.704 299.357 290.661 282.098 290.554 264.438C290.536 257.265 288.954 250.183 285.917 243.685C285.137 242.341 284.221 241.08 283.184 239.923C280.379 240.352 280.593 242.059 280.879 243.292C286.096 266.351 281.924 288.721 275.993 310.958C275.295 313.73 274.415 316.453 273.357 319.108C266.005 336.805 263.129 355.591 261.36 374.396C260.127 387.48 261.253 400.797 261.485 414.006C261.521 415.615 262.53 417.197 263.183 419.083Z" fill="white"/>
<path d="M224.314 539.033C224.627 541.839 224.6 544.234 225.208 546.469C227.075 553.699 229.129 560.885 231.193 568.061C233.319 575.48 232.926 582.862 231.193 590.28C230.559 593.051 229.755 595.866 229.755 598.663C229.755 600.12 231.014 602.006 232.265 602.935C233.891 604.124 235.659 603.034 236.883 601.586C239.645 598.276 241.243 594.15 241.43 589.842C242.493 573.343 238.357 558.052 230.71 543.582C229.647 541.544 229.558 541.598 224.314 539.033Z" fill="white"/>
</svg>
