<svg width="172" height="233" viewBox="0 0 172 233" fill="none" xmlns="http://www.w3.org/2000/svg">
<path d="M57.2855 89.1488C56.8241 89.3175 56.1803 89.3484 55.9324 89.679C55.1938 90.6706 54.5429 91.7247 53.9871 92.8293C50.286 100.145 48.7883 107.899 49.6973 116.052C50.1999 120.562 50.9229 125.052 51.5702 129.548C52.1658 133.68 52.2588 137.78 51.3189 141.867C51.1434 142.812 50.8913 143.741 50.5649 144.645C50.2206 145.527 49.6559 146.325 49.0569 147.4C50.3204 150.977 51.9489 154.599 53.5327 158.245C57.5643 167.582 60.1534 177.25 59.3374 187.527C58.9932 191.91 58.5146 196.334 57.5196 200.61C55.3368 209.989 52.7959 219.285 50.3652 228.605C50.1015 229.669 49.6889 230.692 49.1395 231.641C49.0343 231.822 48.8937 231.981 48.7261 232.106C48.5585 232.232 48.3673 232.322 48.1639 232.373C47.9605 232.423 47.749 232.431 47.5422 232.398C47.3354 232.365 47.1374 232.29 46.9601 232.178C46.6994 231.99 46.4832 231.746 46.3268 231.465C46.1703 231.183 46.0774 230.871 46.0546 230.55C46.0822 229.613 46.4953 228.691 46.7432 227.761C49.1705 218.155 51.7733 208.587 53.9493 198.927C54.9507 194.213 55.5667 189.425 55.7912 184.611C55.9737 181.488 55.5606 178.266 54.958 175.174C53.9033 169.624 52.1808 164.221 49.8281 159.085C48.8434 156.964 48.0068 154.774 47.0737 152.623C46.4299 151.115 45.762 149.617 45.0906 148.081C41.3034 147.248 37.5575 148.47 33.8219 147.661C32.6307 145.155 33.2091 142.497 33.2263 139.953C33.2435 137.408 33.5706 134.757 33.7806 131.562C32.9956 132.447 32.4034 132.84 32.2072 133.377C30.7852 136.899 30.5546 140.59 30.799 144.332C30.8679 145.41 30.9884 146.48 31.0986 147.692C28.2898 148.21 25.418 148.293 22.5842 147.937C22.3879 146.618 22.2399 145.423 22.0333 144.236C21.8302 143.103 22.1848 141.798 20.849 140.335C20.6665 142.056 20.5047 143.217 20.4324 144.384C20.3497 145.468 20.3394 146.56 20.2912 147.792C17.4955 148.784 14.7825 148.715 12.0867 148.291C10.4754 148.037 9.39433 147.069 8.78838 145.506C5.47973 136.954 4.3952 128.429 9.23596 120.046C10.6785 117.549 12.2347 115.112 13.9115 112.771C15.6996 110.318 17.0314 107.563 17.8433 104.638C18.0395 103.926 17.9535 103.134 18.0017 102.294C17.6367 102.404 17.4439 102.404 17.3819 102.494C14.4038 106.79 11.3534 111.039 8.49229 115.415C4.75671 121.127 2.24682 127.345 1.37576 134.165C1.29308 134.561 1.14903 134.942 0.948833 135.294C0.91096 135.37 0.700942 135.363 0.439279 135.422C-0.166676 134.292 0.12253 133.081 0.249918 131.913C0.725042 127.641 1.78891 123.492 3.79269 119.705C5.45907 116.548 7.34235 113.507 9.22907 110.464C10.682 108.126 12.3725 105.933 13.8013 103.578C16.4389 99.3384 17.7171 94.3937 17.4646 89.407C17.4164 88.443 17.4164 87.4755 17.3372 86.5149C16.6761 78.455 19.2962 71.3178 23.5654 64.6799C25.9203 60.9295 29.0629 57.7364 32.7753 55.322C36.8345 52.7088 40.9075 50.1886 45.4659 48.4774C48.1617 47.4652 50.7026 46.0433 53.302 44.7797C57.1718 42.8965 59.8436 39.877 61.72 36.0967C61.1415 35.3737 60.6871 35.8213 60.2739 36.0967C57.3474 37.9008 54.4554 39.7565 51.5048 41.5124C46.4161 44.5422 41.2655 47.4618 36.1975 50.5225C33.9631 51.8756 31.8353 53.4146 29.7283 54.9605C26.1792 57.5999 23.1617 60.8872 20.8352 64.6489C16.6038 71.3557 13.636 78.5721 12.3036 86.422C11.918 88.7115 11.5427 91.0045 11.1571 93.3078C10.231 93.0289 10.262 92.2749 10.1897 91.6277C9.84536 88.4326 10.3343 85.2824 10.9437 82.1837C12.3828 74.9467 15.3162 68.2777 19.3478 62.1218C22.097 57.9777 25.6008 54.3875 29.6766 51.5382C36.8758 46.4289 44.526 42.0598 52.2485 37.8078C57.492 34.9226 62.2605 31.4625 65.6759 26.4462C66.8396 24.7488 67.8243 22.9309 68.8434 21.1406C70.4753 18.2692 71.942 15.3048 73.7013 12.5092C76.2422 8.43964 79.8745 5.49249 84.0749 3.2718C86.9904 1.65658 90.2831 0.846171 93.6152 0.923728C100.157 1.12342 106.471 2.16318 112.317 5.30657C115.266 6.82416 117.88 8.91739 120.005 11.4625C120.883 12.5436 121.727 13.5283 123.245 13.79C125.035 14.0895 125.999 15.3771 126.605 17.0711C127.528 19.7015 128.034 22.3043 127.638 25.1551C127.211 28.3191 126.605 31.3833 125.311 34.3098C124.826 35.298 124.425 36.3253 124.113 37.3809C122.966 41.9772 121.114 46.2327 117.95 50.1404C118.945 50.7119 119.695 51.2731 120.535 51.6071C126.085 53.8105 129.711 58.0385 132.586 63.0307C134.174 65.7942 134.992 68.933 134.954 72.12C134.954 73.7658 134.954 75.4115 134.954 77.2844C135.722 77.825 136.583 78.4791 137.492 79.0644C139.11 80.0973 140.814 81.0338 142.381 82.1631C147.266 85.6473 145.607 84.883 151.012 85.334C152.257 85.4448 153.482 85.7191 154.655 86.15C157.375 87.1209 160.095 88.109 162.732 89.2865C168.392 91.817 171.374 96.3342 171.821 102.49C172.004 104.959 171.914 107.448 171.876 109.927C171.79 115.298 171.79 120.676 171.508 126.04C171.071 134.351 168.936 142.352 166.392 150.216C163.284 159.785 159.148 168.989 154.056 177.666C151.408 182.19 148.547 186.584 144.863 190.347C144.162 191.004 143.614 191.807 143.257 192.7C142.9 193.592 142.743 194.552 142.797 195.511C142.935 199.922 143.159 204.277 144.071 208.632C145.449 215.229 146.533 221.894 147.669 228.539C147.854 229.621 147.829 230.727 147.597 231.8C147.487 232.285 146.688 232.784 146.113 232.936C145.738 233.036 145.011 232.633 144.777 232.247C144.365 231.535 144.083 230.755 143.944 229.944C142.31 221.148 140.703 212.347 139.124 203.54C138.838 201.925 138.78 200.273 138.583 198.272C137.953 198.581 137.342 198.926 136.752 199.305C134.555 200.954 132.458 202.748 130.172 204.273C128.557 205.323 126.823 206.18 125.008 206.825C118.122 209.341 111.381 207.169 107.222 201.102C104.91 197.662 103.268 193.817 102.381 189.768C100.429 181.323 98.5421 172.86 96.7793 164.373C94.7135 154.372 93.9113 144.215 93.357 134.027C93.0437 128.25 92.4102 122.494 91.9798 116.727C91.8146 114.547 91.5839 112.33 92.9404 110.013C93.3811 110.767 93.7977 111.29 94.0112 111.882C95.2265 115.301 95.2782 118.923 95.6293 122.473C96.3661 129.872 96.8688 137.277 97.4782 144.704C98.3837 155.704 100.401 166.529 102.736 177.295C103.583 181.195 104.574 185.062 105.559 188.932C106.382 192.28 107.73 195.476 109.553 198.403C111.071 200.796 113.054 202.61 115.805 203.537C118.025 204.33 120.444 204.372 122.691 203.657C125.967 202.581 128.992 200.856 131.587 198.586C136.034 194.888 139.998 190.645 143.386 185.957C150.566 175.838 156.397 164.826 160.732 153.201C163.799 145.058 165.807 136.63 167.432 128.102C167.514 127.697 167.562 127.286 167.576 126.873C167.666 118.748 167.921 110.619 167.766 102.497C167.686 98.2071 165.517 94.9845 161.307 93.2872C157.757 91.8583 154.3 90.1885 150.816 88.6358C150.076 89.7168 150.875 90.0852 151.319 90.4674C152.782 91.7206 154.348 92.8534 155.795 94.1445C156.935 95.1406 157.973 96.2478 158.893 97.4497C159.299 97.9971 159.237 98.9026 159.496 100.266L154.397 97.5805C153.422 97.9799 153.732 98.758 153.774 99.3605C153.863 100.596 154.118 101.815 154.221 103.051C154.349 104.995 155.219 106.816 156.652 108.137C161.035 112.299 160.68 113.58 158.122 118.937C153.77 128.047 147.989 136.286 142.78 144.873C140.37 148.859 137.423 152.543 134.59 156.269C133.446 157.77 132.789 159.264 132.92 161.168C133.137 164.346 132.713 167.486 132.1 170.605C131.842 171.924 131.653 173.26 130.506 174.42C130.189 173.983 129.842 173.707 129.8 173.387C129.721 172.565 129.687 171.74 129.697 170.915C129.453 159.071 129.263 147.228 128.933 135.387C128.818 132.084 128.497 128.79 127.972 125.527C126.53 116.117 124.512 106.811 120.925 97.9833C117.206 88.7089 110.842 80.7325 102.625 75.0465C100.391 73.4869 97.8466 72.3335 95.3539 71.1836C90.5924 68.9904 85.5485 67.6305 80.4357 66.391C76.0666 69.0689 72.3 72.6233 69.3736 76.83C67.6315 79.3089 65.9307 81.8119 64.1851 84.2942C60.3221 89.8588 57.7078 96.1927 56.5211 102.862C55.5025 108.307 55.8996 113.923 57.6745 119.171C59.2617 123.946 59.0104 132.309 57.2442 137.856C56.979 136.926 56.6933 136.355 56.6726 135.79C56.4385 129.142 55.0131 122.707 53.4191 116.279C52.2196 111.442 52.102 106.4 53.0748 101.512C53.9183 97.2155 55.0269 92.9429 57.3578 89.1178C57.3578 88.8974 57.3337 88.6805 57.3268 88.4636C57.3027 88.6943 57.2958 88.9215 57.2855 89.1488ZM128.21 108.123C129.105 112.805 129.914 116.83 130.62 120.862C130.919 122.559 131.928 123.526 133.433 124.101C134.525 124.549 135.741 124.595 136.864 124.232C137.987 123.868 138.945 123.118 139.568 122.115C140.75 120.24 141.386 118.072 141.403 115.856C141.434 112.413 141.403 108.97 141.427 105.527C141.427 104.597 141.21 103.547 142.522 102.955C142.825 103.299 143.31 103.643 143.462 104.095C143.724 105.02 143.929 105.96 144.075 106.911C145.738 115.339 145.173 119.491 141.227 127.031L149.783 125.654C151.484 122.652 153.137 119.801 154.713 116.913C155.87 114.799 156.032 112.781 154.025 110.96C151.536 108.708 150.582 105.768 150.344 102.483C150.117 99.3398 149.721 96.2068 149.425 93.2975C147.538 91.6587 145.917 90.1989 144.219 88.7976C142.408 87.3206 140.553 85.8986 138.673 84.5146C136.951 83.2338 135.137 82.0322 133.295 80.748C131.505 82.8138 130.096 84.9105 128.227 86.4529C126.261 88.0711 123.854 89.1522 121.637 90.4708C123.703 95.6628 124.967 97.4738 127.621 98.8337C127.752 97.5495 127.89 96.3548 127.989 95.1567C128.079 94.0618 128.076 92.9601 128.199 91.8687C128.279 91.1629 128.644 90.4536 129.449 90.5879C129.821 90.6499 130.262 91.2971 130.365 91.7447C130.503 92.5576 130.556 93.3826 130.523 94.2064C130.523 95.9933 130.523 97.7836 130.523 99.5705C130.523 102.917 131.05 106.112 132.751 109.076C133.419 110.237 133.701 111.628 134.07 112.943C134.152 113.232 133.86 113.631 133.756 113.914C133.481 113.941 133.281 114.014 133.23 113.955C131.701 112.203 130.21 110.443 128.213 108.123H128.21ZM119.63 87.3412C121.555 87.1622 123.149 86.3256 124.602 85.3168C129.167 82.139 131.907 77.9386 131.68 72.1441C131.598 70.0474 131.205 68.0367 130.158 66.212C128.582 63.4576 127.06 60.4795 124.216 58.9818C119.771 56.6131 115.003 56.0863 110.413 58.7443C105.755 61.4401 103.548 65.6301 103.355 70.7704C106.454 73.5041 109.491 75.89 112.169 78.6237C114.848 81.3574 117.158 84.4182 119.63 87.3412ZM121.31 25.823C120.887 25.8023 120.584 25.6956 120.367 25.792C118.122 26.7836 115.95 27.9714 113.646 28.7977C107.235 31.1044 102.612 35.3392 99.7058 41.4367C98.0497 44.914 96.2629 48.295 94.0077 51.4212C93.5636 52.0374 93.3192 52.7983 92.9749 53.6005C96.6553 53.9448 102.271 53.3526 105.332 52.1132C114.283 48.4947 114.951 48.3879 119.523 39.0094C121.555 34.8331 121.833 30.3642 121.31 25.823ZM146.867 129.865C144.154 129.837 139.041 130.767 137.382 131.814C136.373 132.45 135.316 133.273 134.724 134.275C132.61 137.904 133.839 142.659 137.544 145.582C137.922 145.21 138.267 144.807 138.576 144.377C141.354 139.811 144.108 135.235 146.839 130.646C146.967 130.454 146.867 130.13 146.867 129.865ZM90.5923 58.0763C89.8762 58.0763 89.408 57.9283 89.1773 58.1004C86.7673 59.8976 84.9597 62.0116 84.2918 63.7847C85.7206 63.9878 86.9463 65.1963 88.7056 64.2736L90.5923 58.0763ZM96.3593 58.1486C95.8945 58.0522 95.4951 57.8663 95.4056 57.9627C93.3708 60.1765 93.2434 63.0858 92.3379 65.9951L94.748 67.0038C95.2988 64.0051 95.8049 61.2094 96.3593 58.1418V58.1486ZM133.133 147.345C132.677 148.703 132.715 150.178 133.24 151.511C135.578 149.156 135.578 149.156 133.133 147.345ZM131.997 128.026L132.362 130.963L134.707 129.166L131.997 128.026Z" fill="white"/>
<path d="M70.8715 161.98C69.5563 160.803 69.4943 159.419 69.3497 158.066C68.8907 153.686 68.4316 149.308 67.9726 144.931C67.142 137.27 65.5951 129.704 63.3522 122.332C61.4207 115.859 60.2811 109.211 60.3224 102.407C60.329 99.6443 60.9388 96.916 62.1093 94.413C62.4099 93.895 62.7629 93.4093 63.1628 92.9635C64.2439 93.1288 64.1612 93.7864 64.0511 94.2615C62.0404 103.144 63.6482 111.762 65.9343 120.328C66.2031 121.396 66.5424 122.445 66.95 123.468C69.7835 130.285 70.8922 137.522 71.5739 144.766C72.049 149.806 71.6152 154.936 71.5257 160.025C71.5119 160.645 71.1228 161.254 70.8715 161.98Z" fill="white"/>
<path d="M85.8516 208.188C85.7311 209.269 85.7414 210.192 85.5073 211.053C84.7877 213.838 83.9959 216.606 83.2005 219.371C82.3811 222.228 82.5326 225.072 83.2005 227.93C83.445 228.997 83.7549 230.082 83.7549 231.159C83.7549 231.72 83.2694 232.447 82.7874 232.805C82.1608 233.263 81.4791 232.843 81.0074 232.285C79.943 231.01 79.3273 229.42 79.2549 227.761C78.8452 221.405 80.4393 215.515 83.3865 209.94C83.7962 209.155 83.8306 209.176 85.8516 208.188Z" fill="white"/>
</svg>
