<svg width="211" height="272" viewBox="0 0 211 272" fill="none" xmlns="http://www.w3.org/2000/svg">
<path d="M182.432 268.435C181.256 267.118 180.845 265.578 180.58 263.991C179.769 259.141 179.005 254.291 178.135 249.454C176.43 240.001 173.673 230.878 169.206 222.342C168.013 220.197 166.704 218.119 165.285 216.117C164.912 215.536 164.384 215.07 163.761 214.771C163.138 214.472 162.445 214.352 161.758 214.424C159.847 214.506 157.931 214.424 156.02 214.424C151.906 214.301 147.844 214.142 143.241 213.977C142.418 214.977 141.307 216.329 140.19 217.687C138.238 220.161 135.796 222.206 133.018 223.694C128.733 225.905 124.418 226.592 119.598 225.276C113.614 223.641 107.988 221.455 102.791 218.022C95.5183 213.163 88.6902 207.668 82.3875 201.603C76.7501 196.236 71.2185 190.722 65.928 185.038C62.0188 180.858 58.6211 176.22 54.806 171.929C49.5742 166.051 45.4652 159.49 41.6737 152.683C40.0924 149.85 38.7345 146.887 37.2531 143.919C38.4288 143.437 38.6992 144.23 39.0166 144.665C41.1015 147.361 43.1589 150.085 45.1889 152.836C56.4343 168.014 68.6497 182.346 82.4463 195.284C88.7602 201.341 95.6024 206.822 102.891 211.661C108.053 215.012 113.378 218.063 119.416 219.615C119.939 219.75 120.45 219.956 120.985 220.062C127.028 221.296 132.019 219.427 136.034 214.842C138.954 211.403 141.534 207.69 143.74 203.755C148.813 194.996 152.905 185.779 156.867 176.473C161.329 166.01 164.403 155.135 167.072 144.142C167.524 142.284 167.883 140.403 168.165 138.516C168.859 133.814 169.576 129.064 170.105 124.32C170.436 121.196 170.609 118.056 170.622 114.914C170.692 113.126 170.295 111.351 169.47 109.762C168.646 108.174 167.422 106.828 165.92 105.856C159.753 101.594 153.722 97.1441 147.032 93.617C144.969 92.5719 142.831 91.6799 140.637 90.9482C139.421 90.559 138.114 90.559 136.898 90.9482C137.656 91.3832 138.409 91.83 139.179 92.2532C143.717 94.7516 146.821 98.3197 147.879 103.528C148.238 105.401 149.018 107.168 150.16 108.695C151.247 110.309 152.245 111.981 153.152 113.704C154.48 112.404 154.868 110.57 156.767 110.035C155.903 113.915 154.416 117.366 152.893 120.858C147.814 132.585 139.961 142.32 131.355 151.555C129.679 153.353 128.074 155.223 126.376 156.998C121.455 162.165 117.67 168.208 113.337 173.828C112.438 175.004 111.709 176.32 110.181 177.355C109.593 174.21 111.456 172.235 112.726 170.113C113.996 167.991 115.459 166.057 116.876 163.993C113.7 159.492 109.981 155.401 105.801 151.813C105.709 151.713 105.597 151.632 105.472 151.578C101.598 150.461 100.181 147.163 98.5884 143.971C97.9438 142.628 97.1277 141.373 96.1606 140.239C92.1868 135.73 88.0602 131.356 84.1157 126.824C81.8761 124.255 79.8715 121.481 77.7906 118.777C77.5194 118.351 77.291 117.901 77.1087 117.43C77.3321 117.225 77.4144 117.095 77.5202 117.066C77.5868 117.046 77.6568 117.041 77.7257 117.05C77.7946 117.059 77.8608 117.082 77.9199 117.119C78.9957 117.954 80.1126 118.747 81.1236 119.658C83.5455 121.851 85.9145 124.102 88.4011 126.413C89.7884 125.402 89.6532 124.102 89.518 122.645C88.4423 122.01 87.4076 121.387 86.3554 120.781C79.0133 116.543 73.7756 110.376 70.1134 102.834C68.1256 98.8971 67.401 94.4425 68.0383 90.0782C68.0807 89.4676 68.0807 88.8548 68.0383 88.2442L63.5413 87.5564C63.4473 87.0626 63.3121 86.5688 63.265 86.0633C63.218 85.5577 63.265 84.9875 63.265 84.2998C62.7536 84.4467 62.2716 84.4408 62.0894 84.6642C61.4486 85.5342 60.9137 86.4748 60.3258 87.3918C60.0789 87.4976 59.8203 87.7092 59.5793 87.6975C54.371 87.4447 49.6565 89.2611 44.9891 91.2245C43.7422 91.7598 42.586 92.4856 41.562 93.376C32.715 101.018 27.4891 110.617 26.2428 122.315C24.8488 135.411 26.7001 148.649 31.6333 160.86C33.485 165.563 35.4543 170.207 37.4588 174.839C42.2791 185.908 48.81 195.972 55.5526 205.895C57.2338 208.375 58.7739 210.962 60.3141 213.537C64.3525 220.267 66.0455 227.645 66.3159 235.422C66.3369 237.605 66.1698 239.786 65.8163 241.941C64.4991 251.564 61.4837 260.877 56.9105 269.446C56.5284 270.169 56.0816 270.851 55.676 271.533C54.6414 271.339 54.6943 270.586 54.8237 269.957C55.3468 267.424 55.7877 264.861 56.5284 262.392C58.2919 256.514 60.173 250.682 61.3546 244.627C63.365 234.293 62.1188 224.523 56.887 215.347C55.4056 212.737 53.8655 210.151 52.149 207.705C41.4984 192.467 32.9359 175.872 26.6896 158.362C24.3454 151.649 22.9274 144.648 22.4748 137.552C22.028 131.286 21.9634 124.996 23.0626 118.741C24.8055 108.562 29.8919 99.2535 37.5176 92.2885C38.0817 91.6777 38.7172 91.1369 39.4105 90.6778C44.5247 87.8562 44.9303 82.6949 46.2529 77.2986C42.3673 79.8909 41.6501 83.7648 40.0689 86.9686C39.7825 87.1228 39.4836 87.2526 39.1753 87.3565C33.8025 88.6498 30.6399 85.3873 28.218 81.437C25.0907 76.311 24.5322 70.5502 25.9783 64.8246C27.2833 59.6457 30.828 56.3891 36.2361 55.4192C37.0415 55.2781 37.8586 55.1958 38.658 55.0312C41.2269 54.5198 42.7141 52.8797 43.2726 50.3931C43.5012 49.3259 43.6505 48.2433 43.7193 47.1541C44.1132 41.9752 46.5351 38.3953 51.7199 37.0433C53.8243 36.4966 55.9641 36.0557 58.0979 35.6324C60.9313 35.0799 63.7118 34.4156 65.9985 32.5169C66.4956 32.0492 66.9647 31.5526 67.4034 31.0296C66.9567 30.8886 66.6451 30.6711 66.4629 30.7475C61.6661 32.7932 56.5049 33.5339 51.5317 34.927C48.3376 35.7236 45.3755 37.26 42.8846 39.4122C41.2387 40.9112 39.8984 42.6101 39.4928 44.8733C38.6345 49.6524 35.4308 52.4388 31.3394 54.4551C29.9933 55.1194 28.5531 55.5837 27.2245 56.3127C24.4676 57.8352 22.5218 60.0396 22.0633 63.2845C21.7929 65.1714 21.5989 67.0702 21.3814 68.963C21.3109 69.5802 21.2638 70.1975 21.2051 70.8911C20.7407 70.6677 20.3586 70.6031 20.3057 70.4385C19.2333 67.3193 19.1593 63.9434 20.094 60.7803C20.679 58.646 21.9804 56.7779 23.7798 55.4897C25.3258 54.4022 27.0658 53.5851 28.7235 52.6504C30.1461 51.851 31.6627 51.1514 32.9795 50.2344C33.9084 49.6497 34.7109 48.8851 35.3398 47.9856C35.9688 47.0861 36.4114 46.0699 36.6417 44.9967C37.741 39.5122 41.5385 36.3496 46.1942 33.963C50.115 31.9467 54.4239 31.206 58.6329 29.9892C60.0672 29.5718 61.525 29.2073 62.9359 28.7194C66.1964 27.6229 69.0326 25.5347 71.0481 22.747C73.2289 19.8078 75.5215 16.9038 77.2498 13.6178C80.7768 6.87528 86.6552 2.90736 93.8563 1.38485C107.206 -1.41327 119.345 1.47302 129.762 10.4905C132.33 12.7125 134.564 15.3225 136.921 17.7856C138.726 19.6737 139.998 22.0063 140.607 24.5458C140.792 25.1475 141.016 25.7366 141.277 26.3093C147.467 28.114 150.448 31.7703 151.059 38.0367C151.431 41.5957 150.742 45.1852 149.078 48.3533C148.164 50.0308 147.164 51.6594 146.08 53.2324C144.269 55.96 142.312 58.6052 140.572 61.374C137.468 66.306 136.163 71.5789 137.633 77.4103C138.384 80.5654 138.239 83.8676 137.215 86.945C138.047 87.3795 138.924 87.7205 139.831 87.962C143.073 88.4939 146.175 89.6691 148.955 91.4185C152.817 93.7346 156.596 96.1683 160.376 98.6313C163.345 100.571 166.255 102.64 169.194 104.621C172.445 106.808 173.85 109.977 173.667 113.745C173.338 120.558 173.179 127.394 171.839 134.125C171.545 135.589 171.733 137.182 171.281 138.581C170.34 141.52 171.281 143.872 172.839 146.264C179.305 156.257 184.225 167.091 189.698 177.631C192.046 181.963 193.563 186.697 194.171 191.587C194.531 195.266 194.072 198.98 192.825 202.462C190.997 207.846 187.052 210.915 181.838 212.584C179.081 213.379 176.231 213.812 173.362 213.872C172.445 213.924 171.539 214.066 170.24 214.207C179.146 231.413 182.797 249.489 182.432 268.435ZM116.476 82.8066C116.386 80.9093 115.652 79.0993 114.395 77.6748C112.179 74.8843 109.409 72.5827 106.26 70.9146C102.309 68.9042 98.0652 67.8343 93.6035 68.5633C87.9543 69.4803 83.0224 72.0903 78.5665 75.5821C77.4042 76.5348 76.4003 77.6657 75.5921 78.9328C73.5387 82.0017 72.0699 85.4235 71.2597 89.026C70.7159 91.4253 70.7159 93.9159 71.2597 96.3152C72.5529 102.088 75.8154 106.761 79.5482 111.141C82.2512 114.231 85.5117 116.786 89.1594 118.671C90.4409 119.353 91.6107 119.676 93.0215 119.029C96.3311 117.495 99.8699 117.348 103.438 117.477C104.802 117.525 106.172 117.507 107.553 117.624C108.43 117.709 109.315 117.592 110.139 117.281C110.964 116.97 111.706 116.474 112.309 115.832C118.152 110.276 121.085 103.452 121.479 95.4746C121.479 94.8868 121.785 94.1108 120.732 93.6758C118.969 94.8515 117.029 96.1506 114.166 94.9044C115.377 94.1461 116.259 93.6229 117.105 93.0468C117.622 92.7041 118.027 92.2175 118.271 91.6471C118.514 91.0767 118.585 90.4475 118.475 89.8372C118.234 87.962 117.299 86.4277 115.536 85.7576C113.984 85.1698 112.597 85.7047 111.533 87.0156C111.154 87.4014 110.747 87.7589 110.316 88.0854C110.422 84.5937 111.544 83.6943 116.476 82.8066ZM132.901 117.442C136.516 119.129 140.719 119.253 143.817 122.145C143.529 122.28 143.394 122.398 143.288 122.38C142.488 122.257 141.683 122.145 140.895 121.969C135.975 120.84 131.055 119.805 125.941 119.894C118.022 120.023 110.069 119.946 102.174 119.993C100.411 119.993 98.6472 120.099 96.8836 120.264C95.9933 120.326 95.1288 120.59 94.3557 121.036C93.5827 121.483 92.9214 122.099 92.4219 122.839C92.2469 123.269 92.1667 123.732 92.1868 124.196C93.0803 124.62 94.0561 123.726 94.4853 124.784C93.9915 126.089 91.452 126.007 92.3279 128.364H95.8549C95.3964 129.869 92.2515 129.752 93.968 132.126C95.32 132.497 96.2605 130.722 98.0241 131.403C97.0894 132.385 96.2899 133.214 95.0848 134.472L96.5486 135.795C97.0637 135.601 97.5646 135.371 98.0476 135.107C100.904 133.149 104.091 132.691 107.453 133.091C109.075 133.285 110.68 133.637 112.309 133.802C114.589 134.043 116.817 134.307 119.133 133.426C125.247 131.104 131.184 131.985 136.874 134.989C137.162 135.142 137.268 135.63 137.462 135.971C136.287 136.817 135.323 136.165 134.347 135.795C131.337 134.654 128.221 134.59 125.059 134.684C121.896 134.778 119.251 135.93 117.37 138.798C117.764 140.309 118.163 141.885 118.587 143.454C119.068 145.173 119.082 146.989 118.628 148.715C117.799 151.878 117.188 152.425 113.661 152.96C113.561 152.96 113.484 153.154 113.39 153.253C113.326 153.512 113.12 153.841 113.214 154.006C114.748 156.545 116.806 158.65 118.857 161.06L128.051 150.367C128.598 148.604 126.693 147.551 127.751 145.97L130.344 147.451C131.055 146.593 131.772 145.776 132.43 144.918C136.827 139.188 141.226 133.453 145.627 127.712C146.456 126.624 147.156 125.449 147.979 124.355C148.311 123.92 148.55 123.422 148.682 122.892C148.815 122.361 148.837 121.809 148.749 121.269C148.414 118.835 148.226 116.372 147.738 113.968C147.003 110.365 146.192 106.761 145.163 103.228C143.946 99.0428 140.942 96.327 137.145 94.3812C133.965 92.7529 130.826 92.9528 127.739 94.5811C126.845 95.1061 125.98 95.6791 125.147 96.2976C124.765 98.3785 124.512 100.277 124.042 102.123C123.599 103.977 123.009 105.794 122.278 107.555C121.526 109.318 120.468 110.911 119.563 112.593C118.657 114.274 117.052 115.373 116.229 117.601C118.945 117.436 121.226 117.278 123.519 117.166C125.811 117.054 128.069 117.001 130.496 116.919C130.326 112.933 129.256 109.207 129.997 105.409C130.244 105.474 130.467 105.474 130.496 105.544C131.895 109.248 131.654 113.298 132.901 117.442ZM169.935 148.792C167.16 158.644 164.556 167.891 161.905 177.331C166.719 177.69 171.428 176.961 175.872 178.678C175.807 178.842 175.795 179.03 175.713 179.066C170.922 180.97 165.72 179.095 160.688 180.535C159.312 183.833 157.972 187.237 156.467 190.57C154.962 193.903 153.252 197.189 151.664 200.51C150.077 203.831 147.749 206.606 146.303 209.986C146.632 210.125 146.975 210.228 147.326 210.292C156.056 210.292 164.791 210.397 173.515 210.233C177.635 210.204 181.667 209.036 185.166 206.859C186.326 206.164 187.328 205.232 188.105 204.125C189.388 202.186 190.194 199.97 190.456 197.659C190.862 193.685 190.756 189.741 189.28 185.955C188.357 183.539 187.429 181.111 186.282 178.795C182.947 172.082 179.548 165.402 176.083 158.756C174.414 155.487 172.762 152.195 169.935 148.792ZM118.287 76.6578C119.133 75.8701 119.762 75.3705 120.297 74.7826C123.086 71.7788 125.338 68.3192 126.958 64.5542C129.456 58.7287 131.002 52.7033 130.62 46.29C130.455 43.5742 130.344 43.1509 128.974 40.6585C128.843 40.6382 128.71 40.6382 128.58 40.6585C128.317 40.7286 128.065 40.8313 127.828 40.9641C122.419 44.4912 116.394 45.902 110.051 46.3017C108.423 46.4076 106.801 46.6838 105.172 46.7485C101.98 46.872 99.4525 48.4003 97.1952 50.4578C95.9503 51.5184 94.839 52.7265 93.8857 54.0554C92.0869 56.7712 90.4997 59.6281 88.8361 62.438C88.4481 63.1022 88.1189 63.7959 87.5723 64.8305C87.2996 64.2104 87.1534 63.5421 87.1423 62.8648C87.1312 62.1875 87.2554 61.5148 87.5076 60.8861C88.1483 59.0932 88.9419 57.359 89.6414 55.5955C89.8531 55.0606 90.5702 54.5491 89.8119 53.9025C87.3077 56.5772 86.7493 57.5412 84.6801 63.0434C84.1628 64.4131 83.428 65.7828 84.1686 67.5992C90.0471 65.4889 95.9901 64.0134 102.392 65.7005C108.905 67.417 113.643 71.5083 118.287 76.6578ZM114.995 149.838C116.759 145.135 114.848 140.891 113.114 136.588C108.241 135.783 103.579 134.278 99.1057 137.505C99.2997 141.843 100.869 145.412 104.332 148.939C104.173 146.681 104.061 145.082 103.949 143.489C105.889 145.788 105.378 149.227 108.511 151.402C108.094 149.303 107.829 147.722 107.459 146.17C107.089 144.618 106.536 142.925 107.3 140.727C108.693 142.743 108.676 144.7 109.346 146.405C110.016 148.11 110.028 150.273 111.844 152.178C112.538 148.727 110.668 145.711 112.12 142.184C114.002 144.794 113.161 147.698 114.995 149.838ZM149.525 113.016C149.654 114.967 149.695 116.043 149.813 117.131C149.895 117.918 150.071 118.688 150.318 120.123L152.082 117.242L149.525 113.016ZM125.035 93.1526C126.052 92.6353 126.658 92.3532 127.246 92.0299C127.833 91.7065 128.462 91.3127 129.462 90.719C125.823 90.8777 125.359 91.1128 125.035 93.1526ZM133.177 90.2134V90.0136H131.66V90.2134H133.177Z" fill="white"/>
<path d="M84.8383 82.3068L87.901 79.2324C88.9767 79.7556 88.918 80.5727 88.6769 81.0841C88.1605 82.1675 87.5172 83.1857 86.7606 84.1173C85.967 85.099 84.8912 84.8521 83.7685 84.6405C83.2277 84.5347 82.5928 85.1519 81.9579 85.3459C81.7055 85.4431 81.4315 85.4698 81.1651 85.4234C80.8986 85.3769 80.6498 85.259 80.4452 85.0821C80.2406 84.9053 80.0879 84.6762 80.0033 84.4193C79.9188 84.1624 79.9056 83.8874 79.9651 83.6236C80.4136 81.9275 80.9552 80.2574 81.5876 78.621C81.7432 78.3486 81.9635 78.1186 82.229 77.9515C82.4945 77.7844 82.7971 77.6853 83.1101 77.6628C83.418 77.7471 83.7023 77.9013 83.9408 78.1134C84.1794 78.3254 84.3658 78.5897 84.4856 78.8856C84.7737 79.7556 84.7031 80.7431 84.8383 82.3068Z" fill="white"/>
<path d="M77.8191 81.9836C78.1478 82.7056 78.331 83.4853 78.3583 84.2781C78.3855 85.0709 78.2562 85.8613 77.9778 86.6041C77.9173 86.7115 77.8327 86.8035 77.7308 86.8729C77.6288 86.9422 77.5121 86.987 77.39 87.0038C77.1783 87.0038 76.8021 86.8275 76.761 86.6805C76.5023 85.0933 76.4788 83.5473 77.8191 81.9836Z" fill="white"/>
<path d="M24.0084 237.55C23.8791 236.139 24.2435 234.287 23.4852 233.435C22.7269 232.583 20.8693 232.788 19.4762 232.594C17.3011 232.3 15.1085 232.124 12.9452 231.777C12.0341 231.636 10.5939 231.877 10.541 230.519C10.4822 228.985 11.9871 229.396 12.8571 229.302C16.2665 228.944 19.6878 228.679 23.109 228.432C23.9731 228.374 24.2494 228.027 24.3376 227.186C24.7021 223.659 25.1371 220.185 25.5485 216.687C25.6367 215.958 25.6308 215.094 26.6596 215.1C27.6883 215.106 27.7647 216.017 27.7941 216.787C27.9411 220.314 28.0998 223.841 28.1527 227.368C28.1527 228.403 28.5583 228.703 29.5047 228.767C33.1101 229.026 36.7116 229.314 40.3092 229.632C40.7576 229.65 41.1924 229.79 41.5672 230.037C41.7847 230.208 41.9317 230.872 41.8023 230.995C41.4278 231.411 40.9357 231.702 40.3915 231.83C38.0402 232.089 35.6535 232.23 33.2845 232.418C32.0501 232.512 30.8215 232.659 29.5929 232.688C29.4356 232.669 29.2759 232.684 29.1247 232.731C28.9735 232.779 28.8341 232.858 28.7161 232.964C28.598 233.07 28.504 233.199 28.4403 233.344C28.3766 233.49 28.3447 233.647 28.3467 233.805C27.8176 237.15 27.2592 240.489 26.7007 243.799C26.6667 244.344 26.5498 244.881 26.3539 245.392C26.0594 245.796 25.7022 246.152 25.2958 246.444C24.9548 246.026 24.3611 245.638 24.32 245.198C24.126 243.24 24.0966 241.271 23.9966 239.319C23.9966 238.731 23.932 238.143 23.8967 237.556L24.0084 237.55Z" fill="white"/>
<path d="M176.259 88.238C176.129 86.8272 176.494 84.9755 175.736 84.1231C174.977 83.2707 173.12 83.4765 171.727 83.2825C169.552 82.9886 167.359 82.8122 165.196 82.4654C164.284 82.3243 162.844 82.5653 162.791 81.2074C162.733 79.6732 164.237 80.0846 165.107 79.9906C168.517 79.632 171.938 79.3675 175.359 79.1206C176.224 79.0618 176.5 78.715 176.588 77.8744C176.952 74.3473 177.387 70.8732 177.799 67.3755C177.887 66.6466 177.881 65.7825 178.91 65.7884C179.939 65.7942 180.015 66.7054 180.044 67.4755C180.191 71.0025 180.35 74.5295 180.403 78.0566C180.403 79.0912 180.809 79.391 181.755 79.4557C185.357 79.7143 188.958 80.0023 192.56 80.3198C193.008 80.3384 193.443 80.4786 193.818 80.7254C194.035 80.8959 194.182 81.5601 194.053 81.6836C193.678 82.0987 193.186 82.3899 192.642 82.5183C190.291 82.7769 187.904 82.918 185.535 83.1061C184.3 83.2002 183.072 83.3471 181.843 83.3765C181.686 83.3572 181.526 83.3718 181.375 83.4193C181.224 83.4668 181.085 83.5461 180.966 83.6519C180.848 83.7577 180.754 83.8876 180.691 84.0327C180.627 84.1778 180.595 84.3349 180.597 84.4935C180.068 87.8383 179.51 91.1772 178.951 94.5161C178.917 95.0617 178.8 95.5989 178.604 96.1092C178.31 96.514 177.953 96.8692 177.546 97.1614C177.205 96.744 176.611 96.3561 176.57 95.9152C176.376 93.9577 176.347 91.9884 176.247 90.0368C176.247 89.4489 176.182 88.8611 176.147 88.2733L176.259 88.238Z" fill="white"/>
<path d="M210.06 116.008C209.493 116.358 208.879 116.628 208.237 116.807C206.916 116.954 205.587 117.013 204.258 116.983C203.011 116.983 202.43 117.383 202.529 118.747C202.605 120.022 202.542 121.301 202.341 122.562C202.271 123.073 201.754 123.514 201.418 123.99C200.983 123.544 200.343 123.173 200.16 122.644C199.713 121.228 199.346 119.787 199.061 118.33C198.867 117.442 198.409 117.154 197.498 117.154C196.063 117.191 194.627 117.128 193.2 116.966C192.754 116.913 192.372 116.343 191.96 116.008C192.313 115.614 192.595 115.002 193.024 114.861C194.588 114.362 196.228 114.097 197.78 113.568C198.065 113.441 198.32 113.255 198.528 113.022C198.735 112.788 198.891 112.514 198.985 112.216C199.39 110.623 199.537 108.965 199.931 107.372C200.055 106.867 200.648 106.479 201.03 106.038C201.424 106.526 202.094 106.978 202.165 107.513C202.326 109.048 202.404 110.591 202.4 112.134C202.4 113.051 202.735 113.545 203.776 113.656C205.412 113.852 207.035 114.143 208.637 114.526C209.162 114.735 209.65 115.027 210.083 115.39C210.077 115.602 210.066 115.802 210.06 116.008Z" fill="white"/>
<path d="M20.1528 197.2C19.7153 197.463 19.2421 197.661 18.7479 197.788C17.7293 197.903 16.7042 197.95 15.6794 197.929C14.7212 197.929 14.2744 198.235 14.3508 199.293C14.4102 200.275 14.3609 201.261 14.2039 202.232C14.151 202.62 13.7454 202.961 13.4926 203.331C13.1634 202.985 12.6637 202.702 12.5227 202.291C12.1806 201.2 11.898 200.091 11.6762 198.97C11.664 198.828 11.6221 198.69 11.5532 198.566C11.4842 198.441 11.3898 198.333 11.2761 198.248C11.1623 198.162 11.0318 198.102 10.8931 198.07C10.7544 198.038 10.6106 198.037 10.4711 198.064C9.36587 198.089 8.26024 198.04 7.16155 197.917C6.81472 197.876 6.5208 197.435 6.20337 197.177C6.47378 196.877 6.69128 196.401 7.02635 196.295C8.23142 195.907 9.49528 195.707 10.6886 195.296C10.9082 195.198 11.1046 195.054 11.2647 194.875C11.4248 194.696 11.545 194.484 11.6174 194.255C11.9348 193.032 12.0406 191.751 12.3463 190.522C12.4462 190.134 12.8989 189.835 13.1928 189.494C13.4985 189.87 14.0158 190.217 14.0687 190.628C14.1942 191.811 14.255 193.001 14.2509 194.19C14.2509 194.902 14.5096 195.278 15.309 195.366C16.5711 195.517 17.8234 195.74 19.0594 196.036C19.4643 196.198 19.8412 196.422 20.1763 196.701L20.1528 197.2Z" fill="white"/>
<path d="M209.143 246.179C209.143 247.731 208.443 248.601 207.179 248.618C206.004 248.618 205.222 247.748 205.204 246.42C205.178 246.115 205.216 245.807 205.315 245.518C205.414 245.228 205.572 244.962 205.779 244.736C205.986 244.511 206.238 244.331 206.519 244.208C206.799 244.085 207.102 244.021 207.408 244.021C208.478 244.045 209.137 244.862 209.143 246.179Z" fill="white"/>
<path d="M194.447 156.827C194.447 158.379 193.747 159.249 192.483 159.267C191.308 159.267 190.526 158.397 190.508 157.068C190.482 156.763 190.52 156.456 190.619 156.166C190.718 155.876 190.876 155.61 191.083 155.385C191.29 155.159 191.542 154.979 191.823 154.856C192.103 154.733 192.406 154.67 192.713 154.67C193.782 154.693 194.441 155.511 194.447 156.827Z" fill="white"/>
<path d="M12.8045 152.124C12.8045 153.676 12.1049 154.546 10.8411 154.564C9.66539 154.564 8.88356 153.694 8.86593 152.365C8.83986 152.06 8.87751 151.753 8.97648 151.463C9.07545 151.173 9.23359 150.907 9.44086 150.682C9.64813 150.456 9.90001 150.276 10.1805 150.153C10.461 150.03 10.764 149.967 11.0703 149.967C12.1402 149.991 12.7986 150.808 12.8045 152.124Z" fill="white"/>
<path d="M9.27687 248.53C9.27687 250.082 8.57734 250.952 7.31349 250.97C6.13781 250.97 5.35598 250.1 5.33834 248.771C5.31227 248.466 5.34992 248.159 5.44889 247.869C5.54787 247.579 5.706 247.313 5.91327 247.088C6.12054 246.862 6.37242 246.682 6.65293 246.559C6.93344 246.436 7.23645 246.373 7.54274 246.373C8.61261 246.397 9.271 247.214 9.27687 248.53Z" fill="white"/>
<path d="M206.18 222.448C205.686 222.995 205.522 223.359 205.263 223.447C202.095 224.558 201.766 227.204 201.66 229.984C201.69 230.365 201.622 230.748 201.46 231.095C201.352 231.24 201.211 231.357 201.05 231.439C200.889 231.52 200.712 231.564 200.531 231.565C200.314 231.511 200.11 231.415 199.931 231.282C199.751 231.148 199.599 230.981 199.485 230.789C199.108 229.913 198.944 228.955 198.626 228.05C197.792 225.699 196.675 224.952 194.224 224.899C193.794 224.931 193.363 224.889 192.948 224.776C192.636 224.652 192.243 224.294 192.219 224.017C192.252 223.614 192.42 223.233 192.695 222.936C192.914 222.748 193.18 222.623 193.465 222.577C196.322 221.801 197.157 219.673 197.274 217.01C197.293 216.352 197.462 215.706 197.768 215.123C197.9 214.912 198.08 214.736 198.294 214.609C198.507 214.482 198.749 214.409 198.997 214.395C199.361 214.447 199.773 215.029 199.926 215.464C200.099 216.163 200.226 216.872 200.308 217.587C200.76 219.679 201.801 221.166 204.117 221.507C204.764 221.601 205.357 222.06 206.18 222.448ZM197.233 223.036L200.002 225.522C200.472 224.741 200.966 223.935 201.401 223.23L198.85 220.502L197.233 223.036Z" fill="white"/>
<path d="M14.5445 104.292C14.0507 104.839 13.8861 105.203 13.6274 105.291C10.459 106.402 10.1298 109.048 10.024 111.828C10.0546 112.209 9.98577 112.592 9.82411 112.939C9.71579 113.084 9.57567 113.201 9.4146 113.283C9.25353 113.364 9.07585 113.408 8.89532 113.409C8.67843 113.355 8.47437 113.259 8.29481 113.126C8.11526 112.992 7.96375 112.825 7.84896 112.633C7.47274 111.758 7.30815 110.799 6.99071 109.894C6.15598 107.572 5.03908 106.796 2.58779 106.743C2.15866 106.775 1.72734 106.733 1.31217 106.62C1.00062 106.496 0.606766 106.138 0.583252 105.861C0.617801 105.46 0.785367 105.081 1.0594 104.786C1.27809 104.597 1.54461 104.473 1.82947 104.427C4.68638 103.651 5.52111 101.523 5.63868 98.8603C5.65688 98.2018 5.8258 97.5563 6.13247 96.9733C6.26209 96.7628 6.44015 96.5862 6.65181 96.4584C6.86347 96.3306 7.1026 96.2552 7.3493 96.2385C7.71376 96.2914 8.12525 96.8734 8.27808 97.3084C8.45109 98.0068 8.57873 98.7156 8.66018 99.4305C9.11282 101.523 10.1533 103.01 12.4694 103.351C13.1278 103.445 13.7215 103.904 14.5445 104.292ZM5.59753 104.88L8.36626 107.366C8.83653 106.585 9.33032 105.779 9.76532 105.074L7.21409 102.346L5.59753 104.88Z" fill="white"/>
</svg>
