<svg width="340" height="204" viewBox="0 0 340 204" fill="none" xmlns="http://www.w3.org/2000/svg">
<path d="M335.056 -33.0959C334.84 -33.9287 334.696 -35.0173 333.174 -35.1026C333.174 -34.1255 333.142 -33.1811 333.174 -32.2368C333.568 -22.8001 333.456 -13.3831 332.007 -4.03824C331.443 -0.431442 331.181 3.22125 330.696 6.84772C330.21 10.4742 329.784 14.1072 329.207 17.714C327.849 26.2391 324.144 33.8265 320.157 41.3221C317.626 46.0765 314.911 50.7391 312.242 55.4148C304.976 68.0976 298.47 81.2067 290.719 93.6337C281.125 108.979 271.557 124.331 261.504 139.374C257.773 144.955 253.34 150.07 249.162 155.349C247.372 157.618 245.365 159.704 243.562 161.959C236.348 170.976 227.167 177.646 217.219 183.207C213.547 185.253 209.553 186.755 205.625 188.289C201.867 189.758 197.972 190.866 194.188 192.276C189.645 193.866 184.941 194.952 180.161 195.516C179.377 195.523 178.594 195.446 177.827 195.286C178.889 193.155 180.83 193.148 182.292 192.401C184.338 191.358 186.463 190.433 188.437 189.306C188.952 189.022 189.355 188.571 189.579 188.027C189.803 187.483 189.835 186.88 189.67 186.315C189.362 185.174 187.958 184.348 186.443 184.413C185.673 184.432 184.91 184.557 184.174 184.787C180.896 185.935 177.617 186.932 174.475 188.387C170.848 190.166 167.037 191.543 163.111 192.493C150.467 195.319 137.64 196.375 124.721 196.604C124.305 196.559 123.896 196.464 123.502 196.322C124.617 194.926 126.256 195.063 127.686 194.755C132.007 193.811 136.355 193.011 140.67 192.034C149.511 190.029 157.919 186.448 165.491 181.462C168.869 179.252 172.298 177.101 175.774 175.042C183.414 170.524 191.1 166.124 200.274 165.468C201.407 165.301 202.497 164.913 203.481 164.327C203.707 164.172 203.893 163.965 204.025 163.725C204.157 163.485 204.231 163.217 204.241 162.943C204.199 162.676 204.094 162.424 203.934 162.206C203.774 161.988 203.565 161.811 203.323 161.691C202.26 161.269 201.129 161.047 199.985 161.035C195.959 161.251 191.932 161.527 187.932 161.992C176.128 163.363 164.501 161.605 152.848 160.248C152.256 160.068 151.696 159.795 151.189 159.441C152.566 157.356 154.835 157.258 156.756 156.759C167 154.136 177.295 151.664 187.578 149.041C192.454 147.836 197.536 147.715 202.464 148.686C204.733 149.1 206.976 149.795 209.265 149.998C213.468 150.333 217.691 150.431 221.915 150.516C222.161 150.542 222.41 150.514 222.645 150.435C222.88 150.355 223.095 150.226 223.276 150.056C223.456 149.887 223.598 149.68 223.691 149.45C223.784 149.221 223.827 148.973 223.816 148.726L221.482 146.273C224.649 143.184 226.413 139.545 227.902 135.781C231.305 127.197 234.565 118.553 237.994 109.982C245.431 91.3909 253.484 73.075 261.911 54.8968C268.626 40.4106 275.164 25.8391 281.807 11.3136C283.328 8.00189 285.001 4.75578 286.529 1.44408C288.148 -2.04466 289.729 -5.55965 291.198 -9.10742C291.526 -9.8878 291.342 -10.878 291.388 -11.7305C290.66 -11.901 290.247 -12.1437 289.952 -12.0388C285.565 -10.5108 283.768 -6.08427 280.004 -2.60207C279.663 -7.56633 279.269 -11.7371 279.118 -15.921C278.738 -26.1118 279.118 -36.3289 277.859 -46.4869C277.053 -52.9791 276.462 -59.491 275.741 -65.9964C275.656 -66.7571 275.931 -67.7932 274.43 -68.2654C272.98 -63.5372 272.829 -58.7107 272.036 -54.0153C270.488 -44.8671 270.724 -35.5878 270.292 -26.3676C269.78 -15.7964 269.636 -5.19897 269.328 5.38533C269.262 7.64777 269.373 9.943 268.587 12.5989C262.547 9.49052 256.553 7.44448 249.156 7.48383C250.205 8.60521 250.598 9.24788 251.162 9.59544C252.966 10.7103 254.789 11.7923 256.678 12.7432C262.403 15.6155 265.701 20.2781 267.17 26.1998C265.281 30.0689 263.537 33.715 261.714 37.3087C261.179 38.0898 260.561 38.811 259.871 39.4597C258.704 37.571 257.806 36.1021 256.887 34.6463C235.594 0.932579 194.588 -14.6422 156.317 -4.15628C146.218 -1.38889 136.644 2.77532 128.361 9.21509C119.18 16.3303 111.14 24.5735 104.963 34.5348C87.1255 63.3039 85.1254 93.1222 99.664 123.649C108.845 142.935 123.751 156.785 143.155 165.783C144.756 166.524 146.815 166.694 147.93 168.871C146.9 168.871 146.133 168.871 145.379 168.871C139.365 169.173 139.057 169.442 137.916 175.429C135.496 175.613 133.01 175.77 130.538 176C126.177 176.413 122.669 177.928 122.334 182.794C116.924 185.325 116.924 185.325 116.964 190.538C116.223 190.997 115.37 191.424 114.622 191.994C110.832 194.873 111.455 199.7 115.888 201.51C117.152 201.974 118.453 202.329 119.777 202.572C124.721 203.661 129.718 203.602 134.716 203.11C140.467 202.546 146.198 201.87 151.949 201.319C153.654 201.155 155.478 200.88 157.097 201.28C163.17 202.801 169.341 202.421 175.459 202.592C182.595 202.686 189.694 201.55 196.444 199.234C199.002 198.401 201.513 197.398 204.104 196.683C211.541 194.655 218.725 191.796 225.521 188.158C232.689 184.308 239.208 179.633 244.316 173.134C247.418 169.199 250.553 165.297 253.884 161.566C259.518 155.237 264.669 148.494 269.295 141.394C277.302 129.157 285.001 116.711 294.024 105.175C294.542 104.52 294.765 103.352 296.523 103.556C296.688 105.776 296.571 108.008 296.175 110.199C295.887 112.291 295.474 114.369 295.041 116.442C294.575 118.698 294.096 120.96 293.5 123.19C292.903 125.419 292.188 127.616 291.48 129.813C290.772 132.01 290.044 134.2 289.185 136.338C288.391 138.305 287.447 140.201 286.496 142.089C285.466 144.155 284.424 146.221 283.256 148.214C282.089 150.208 280.804 152.149 279.479 154.018C278.154 155.887 276.771 157.769 275.282 159.527C273.911 161.14 272.325 162.556 270.915 164.117C269.505 165.678 267.098 166.353 266.036 169.193C267.537 169.015 269.024 168.737 270.488 168.36C275.695 166.563 280.004 163.363 283.86 159.52C289.544 153.732 294.045 146.891 297.113 139.381C300.659 130.844 303.105 121.891 304.392 112.737C305.358 106.262 306.246 99.7806 307.055 93.2927C307.517 90.2547 307.736 87.1847 307.71 84.1118C307.592 81.4215 308.255 78.7546 309.619 76.4326C316.793 63.6908 323.744 50.8178 331.102 38.1743C336.456 29.2143 339.49 19.06 339.929 8.63144C340.395 -5.46128 338.552 -19.4097 335.056 -33.0959ZM151.241 175.147C151.412 175.252 151.504 175.495 151.628 175.678C151.439 175.688 151.249 175.671 151.064 175.626C150.926 175.587 150.828 175.436 150.697 175.318C150.913 175.259 151.143 175.088 151.241 175.147ZM239.155 34.9479C239.673 34.9479 239.995 35.3545 239.995 35.9906C239.995 36.7448 239.66 37.1645 239.044 37.1776C238.909 37.1765 238.776 37.1472 238.653 37.0916C238.53 37.0359 238.42 36.955 238.331 36.8543C238.241 36.7536 238.174 36.6352 238.133 36.5067C238.092 36.3783 238.078 36.2427 238.093 36.1086C238.079 35.9611 238.096 35.8123 238.144 35.6718C238.191 35.5314 238.267 35.4023 238.367 35.293C238.467 35.1837 238.589 35.0965 238.724 35.0371C238.86 34.9776 239.007 34.9473 239.155 34.9479ZM232.014 60.7857C232.506 60.6283 233.024 60.543 233.509 60.3791C233.6 60.3413 233.682 60.2834 233.748 60.2095C233.814 60.1357 233.862 60.048 233.889 59.9528C234.02 59.4544 234.06 58.9298 234.184 58.4314C234.224 58.2675 234.414 58.1494 234.532 58.0117C234.656 58.1625 234.866 58.3068 234.893 58.4708C234.943 58.9544 234.967 59.4404 234.965 59.9266C234.965 60.2151 235.07 60.3725 235.398 60.4053C235.912 60.4679 236.422 60.5599 236.925 60.6807C237.091 60.7475 237.245 60.8381 237.385 60.9496V61.1463C237.204 61.2539 237.01 61.3377 236.807 61.3955C236.392 61.4415 235.973 61.4612 235.555 61.4546C235.161 61.4546 234.978 61.5792 235.011 62.012C235.034 62.413 235.014 62.8152 234.952 63.2121C234.952 63.3694 234.761 63.5137 234.663 63.658C234.525 63.5203 234.322 63.4022 234.263 63.2383C234.126 62.7919 234.012 62.3388 233.922 61.8808C233.917 61.823 233.899 61.767 233.871 61.7162C233.843 61.6655 233.804 61.6211 233.758 61.586C233.712 61.5509 233.659 61.5257 233.602 61.5121C233.546 61.4985 233.487 61.4968 233.43 61.507C232.977 61.5235 232.523 61.5038 232.073 61.448C231.935 61.448 231.817 61.2513 231.686 61.1463C231.791 61.0217 231.876 60.8644 232.014 60.7857ZM230.846 76.4851C236.401 77.1408 241.037 75.4096 244.513 70.9109C244.867 70.4519 245.254 70.0256 245.647 69.5994C246.134 69.2387 246.64 68.9037 247.162 68.596C247.372 68.7927 246.821 69.8026 246.782 69.9076C245.11 74.3538 243.005 78.5967 241.05 82.9248C240.352 82.8479 239.659 82.723 238.978 82.551C233.188 80.5837 227.417 78.5245 221.606 76.5965C220.597 76.2621 220.387 76.2818 219.285 75.9408C217.364 75.4948 215.777 74.944 213.881 74.6751C211.96 74.2685 210.065 73.8357 208.169 73.4029C206.504 73.2258 204.858 73.0291 203.218 72.8324C204.825 72.5383 206.47 72.5139 208.084 72.7602C209.573 72.8586 210.983 73.2389 212.439 73.3635C212.911 73.4094 213.553 73.5471 214.052 73.6455C215.967 74.039 217.567 74.3997 219.449 74.6423C223.298 75.1013 227.043 76.0391 230.846 76.4851ZM208.55 31.6493C209.304 31.4067 210.097 31.2821 210.845 31.0263C210.983 30.9649 211.107 30.8747 211.208 30.7616C211.308 30.6485 211.384 30.5152 211.429 30.3706C211.625 29.5967 211.698 28.7967 211.888 28.0294C211.947 27.7802 212.235 27.5966 212.419 27.3736C212.609 27.6032 212.93 27.8261 212.963 28.0819C213.042 28.8225 213.081 29.5668 213.081 30.3115C213.069 30.4045 213.077 30.4991 213.104 30.5887C213.132 30.6784 213.178 30.7612 213.24 30.8314C213.303 30.9017 213.379 30.9577 213.465 30.9959C213.55 31.034 213.643 31.0534 213.737 31.0526C214.527 31.1467 215.311 31.2869 216.085 31.4723C216.339 31.5726 216.575 31.712 216.786 31.8854V32.1805C216.512 32.3486 216.217 32.4787 215.908 32.5674C215.268 32.6385 214.624 32.667 213.98 32.6527C213.383 32.6527 213.101 32.8429 213.147 33.5052C213.185 34.1231 213.154 34.7434 213.055 35.3545C213.022 35.5971 212.767 35.8135 212.609 36.0431C212.406 35.8267 212.091 35.6496 212.006 35.3873C211.79 34.7027 211.612 34.0065 211.475 33.3019C211.464 33.2142 211.436 33.1295 211.392 33.0529C211.348 32.9763 211.289 32.9093 211.219 32.856C211.149 32.8028 211.068 32.7643 210.982 32.7428C210.897 32.7214 210.808 32.7175 210.72 32.7314C210.026 32.75 209.332 32.7194 208.642 32.6396C208.425 32.6396 208.242 32.3379 208.045 32.1805C208.189 32.01 208.32 31.7215 208.53 31.6493H208.55ZM205.75 50.0112C205.55 49.8073 205.388 49.5697 205.271 49.3095C205.249 49.0273 205.276 48.7434 205.35 48.4701C205.612 48.516 205.96 48.4701 206.117 48.6275C206.655 49.1259 207.12 49.6964 207.612 50.2407L207.809 50.1358L208.104 47.6766C208.126 47.3198 208.172 46.965 208.242 46.6143C208.301 46.4175 208.51 46.2601 208.648 46.0896C208.799 46.2732 209.061 46.4503 209.074 46.6536C209.153 47.6504 209.166 48.6537 209.212 49.6571C209.212 49.88 209.212 50.1096 209.265 50.4571L210.957 49.1849C211.278 48.9423 211.612 48.6996 211.94 49.0997C212.268 49.4997 212.012 49.7554 211.691 50.0768C211.232 50.4899 210.825 50.9555 210.32 51.4736L212.891 51.6834C213.284 51.6939 213.677 51.7312 214.065 51.7949C214.262 51.8408 214.426 52.0507 214.603 52.1884C214.419 52.3392 214.249 52.6081 214.052 52.6278C213.075 52.7458 212.084 52.7983 211.107 52.877C210.812 52.877 210.511 52.9425 210.111 52.995L211.258 54.6344C211.403 54.7931 211.521 54.9748 211.606 55.1722C211.631 55.2688 211.637 55.3695 211.624 55.4686C211.61 55.5676 211.577 55.663 211.527 55.7493C211.452 55.8006 211.365 55.8323 211.275 55.8415C211.184 55.8506 211.093 55.837 211.009 55.8017C210.764 55.6547 210.543 55.4712 210.353 55.2574C209.979 54.8836 209.619 54.4836 209.193 54.0246C209.002 55.1919 208.832 56.2673 208.655 57.3428C208.632 57.5674 208.579 57.788 208.497 57.9986C208.425 58.1429 208.196 58.3527 208.104 58.3199C208.013 58.2828 207.932 58.2259 207.866 58.1533C207.8 58.0806 207.752 57.9942 207.724 57.9002C207.651 57.1199 207.625 56.3329 207.599 55.5394C207.599 55.0804 207.599 54.6148 207.599 53.9787C207.245 54.2541 207.022 54.4377 206.792 54.6344C206.353 54.9754 205.927 55.323 205.481 55.6247C205.41 55.6817 205.32 55.7107 205.229 55.7063C205.138 55.7018 205.051 55.6642 204.986 55.6005C204.921 55.5368 204.881 55.4515 204.874 55.3605C204.868 55.2695 204.894 55.1792 204.95 55.1066C205.154 54.7546 205.389 54.421 205.651 54.1098C205.914 53.7754 206.209 53.454 206.563 53.0475C206.104 52.9819 205.723 52.9229 205.35 52.877C204.517 52.7655 203.684 52.6671 202.851 52.5491C202.576 52.5097 202.248 52.4245 202.346 52.0769C202.398 51.9755 202.472 51.8872 202.563 51.819C202.654 51.7507 202.759 51.7044 202.871 51.6834C204.097 51.5457 205.33 51.4539 206.674 51.3359C206.333 50.8375 206.038 50.4047 205.73 49.9784L205.75 50.0112ZM181.545 19.4256C184.004 19.1633 186.476 18.9731 188.949 18.7698C189.604 18.7239 189.775 18.4747 189.834 17.8714C190.103 15.3335 190.418 12.8088 190.713 10.2775C190.778 9.75283 190.772 9.12984 191.513 9.12984C192.254 9.12984 192.313 9.78562 192.339 10.3561C192.444 12.9006 192.562 15.445 192.595 17.9894C192.595 18.737 192.89 18.9534 193.572 19.0059C196.195 19.1895 198.779 19.4059 201.382 19.6617C201.705 19.6756 202.018 19.7776 202.287 19.9568C202.445 20.0748 202.549 20.5535 202.458 20.6453C202.187 20.9443 201.833 21.1545 201.441 21.2487C199.73 21.4323 198.018 21.5372 196.3 21.6749C195.415 21.7405 194.523 21.8454 193.637 21.8651C193.523 21.8521 193.407 21.8635 193.298 21.8985C193.188 21.9335 193.088 21.9914 193.002 22.0682C192.917 22.1451 192.848 22.2392 192.802 22.3443C192.755 22.4495 192.732 22.5633 192.732 22.6783C192.352 25.0915 191.945 27.5048 191.545 29.8918C191.522 30.287 191.437 30.6762 191.296 31.046C191.139 31.3477 190.791 31.551 190.529 31.8002C190.286 31.5051 189.873 31.2231 189.827 30.9017C189.69 29.4853 189.663 28.0622 189.591 26.6457C189.591 26.2129 189.545 25.7867 189.519 25.3342H189.598C189.506 24.3177 189.768 22.9799 189.224 22.3766C188.68 21.7733 187.329 21.9044 186.325 21.7733C184.758 21.5569 183.171 21.4257 181.604 21.1765C180.948 21.0782 179.912 21.2487 179.873 20.2716C179.807 19.1633 180.896 19.4584 181.525 19.3928L181.545 19.4256ZM185.217 42.8763C185.217 43.6239 184.876 44.0501 184.266 44.0567C184.131 44.0566 183.997 44.028 183.874 43.9727C183.75 43.9174 183.639 43.8367 183.549 43.7359C183.459 43.635 183.391 43.5163 183.349 43.3874C183.308 43.2585 183.294 43.1224 183.309 42.9878C183.296 42.8399 183.314 42.691 183.362 42.5505C183.41 42.41 183.487 42.2811 183.588 42.1719C183.688 42.0627 183.81 41.9756 183.946 41.9163C184.082 41.8569 184.229 41.8265 184.378 41.827C184.876 41.8074 185.197 42.2074 185.197 42.8435L185.217 42.8763ZM165.327 6.93298C165.845 6.93298 166.167 7.33955 166.167 7.97566C166.167 8.7298 165.832 9.14951 165.216 9.15607C165.081 9.15596 164.948 9.1275 164.826 9.07256C164.703 9.01761 164.593 8.93741 164.503 8.83717C164.414 8.73694 164.346 8.61893 164.305 8.49083C164.264 8.36272 164.25 8.22741 164.265 8.0937C164.248 7.94541 164.261 7.79512 164.306 7.6525C164.35 7.50989 164.423 7.37811 164.522 7.26567C164.62 7.15323 164.741 7.06261 164.876 6.99966C165.011 6.93671 165.158 6.90282 165.308 6.90018L165.327 6.93298ZM107.979 87.7514C107.706 87.9218 107.411 88.0521 107.101 88.1383C106.462 88.2062 105.821 88.2347 105.179 88.2235C104.582 88.2235 104.3 88.4137 104.346 89.076C104.381 89.6918 104.351 90.3096 104.255 90.9188C104.222 91.168 103.966 91.3844 103.809 91.5746C103.599 91.3647 103.291 91.1811 103.199 90.9188C102.986 90.2356 102.808 89.5417 102.668 88.84C102.657 88.7523 102.629 88.6676 102.585 88.5909C102.541 88.5143 102.482 88.4474 102.412 88.3941C102.342 88.3408 102.261 88.3023 102.175 88.2809C102.09 88.2595 102.001 88.2556 101.913 88.2694C101.221 88.2881 100.529 88.2574 99.8411 88.1776C99.6247 88.1776 99.4411 87.876 99.2378 87.7186C99.4083 87.5284 99.546 87.2267 99.7559 87.1612C100.51 86.9185 101.304 86.7939 102.051 86.5382C102.189 86.476 102.312 86.3855 102.413 86.2725C102.513 86.1595 102.589 86.0266 102.635 85.8824C102.831 85.1151 102.897 84.3151 103.094 83.5412C103.153 83.2986 103.435 83.115 103.618 82.8855C103.815 83.1216 104.136 83.338 104.169 83.6003C104.246 84.341 104.283 85.0853 104.281 85.8299C104.281 86.2759 104.445 86.4857 104.937 86.571C105.729 86.6624 106.515 86.8003 107.291 86.9841C107.543 87.0875 107.777 87.2291 107.986 87.4038L107.979 87.7514ZM124.623 120.835C124.53 120.904 124.42 120.947 124.305 120.96C124.19 120.973 124.073 120.955 123.967 120.908C123.666 120.733 123.394 120.511 123.161 120.252C122.695 119.78 122.249 119.288 121.711 118.717C121.475 120.167 121.265 121.511 121.056 122.849C121.03 123.136 120.966 123.418 120.865 123.688C120.774 123.872 120.479 124.134 120.367 124.095C120.254 124.05 120.153 123.98 120.071 123.89C119.989 123.8 119.929 123.693 119.895 123.577C119.803 122.6 119.777 121.609 119.744 120.632C119.744 120.055 119.744 119.478 119.744 118.665L118.741 119.452C118.196 119.871 117.665 120.304 117.088 120.685C116.997 120.746 116.888 120.774 116.778 120.764C116.669 120.754 116.567 120.705 116.489 120.628C116.412 120.55 116.363 120.448 116.353 120.339C116.343 120.229 116.371 120.12 116.432 120.029C116.691 119.592 116.983 119.176 117.305 118.783C117.639 118.363 118.006 117.976 118.452 117.471C117.869 117.386 117.403 117.314 116.937 117.255C115.895 117.117 114.852 116.993 113.816 116.848C113.481 116.802 113.068 116.698 113.193 116.258C113.26 116.136 113.353 116.032 113.467 115.952C113.581 115.873 113.711 115.82 113.849 115.799C115.377 115.629 116.911 115.511 118.596 115.366C118.17 114.763 117.796 114.225 117.416 113.694C117.169 113.437 116.967 113.14 116.819 112.815C116.788 112.465 116.822 112.111 116.918 111.773C117.246 111.832 117.672 111.773 117.875 111.963C118.531 112.586 119.121 113.274 119.731 113.983L119.98 113.845C120.105 112.822 120.229 111.799 120.347 110.782C120.37 110.341 120.429 109.902 120.524 109.471C120.59 109.222 120.852 109.031 121.029 108.815C121.213 109.045 121.541 109.268 121.561 109.517C121.659 110.763 121.679 112.009 121.725 113.261C121.725 113.543 121.764 113.825 121.797 114.258C122.59 113.661 123.252 113.176 123.908 112.671C124.302 112.369 124.754 112.068 125.128 112.566C125.502 113.064 125.22 113.419 124.82 113.786C124.249 114.304 123.738 114.888 123.115 115.53L126.322 115.786C126.812 115.801 127.3 115.849 127.784 115.93C128.027 115.989 128.23 116.252 128.44 116.422C128.217 116.612 128 116.94 127.751 116.966C126.538 117.111 125.312 117.176 124.085 117.275C123.712 117.307 123.344 117.36 122.846 117.425L124.275 119.471C124.455 119.665 124.601 119.886 124.708 120.127C124.744 120.245 124.754 120.368 124.74 120.49C124.725 120.612 124.685 120.73 124.623 120.835ZM117.462 95.3191C117.449 95.1712 117.467 95.0222 117.515 94.8818C117.563 94.7413 117.64 94.6124 117.741 94.5031C117.841 94.394 117.963 94.3069 118.099 94.2475C118.235 94.1882 118.382 94.1578 118.531 94.1583C119.049 94.1583 119.37 94.5715 119.37 95.2076C119.37 95.9552 119.036 96.3814 118.419 96.388C118.284 96.3879 118.15 96.3592 118.027 96.304C117.903 96.2487 117.792 96.168 117.702 96.0672C117.612 95.9663 117.544 95.8476 117.502 95.7187C117.461 95.5898 117.447 95.4536 117.462 95.3191ZM128.518 137.682C128.383 137.683 128.25 137.656 128.126 137.601C128.002 137.546 127.892 137.466 127.801 137.366C127.711 137.266 127.643 137.147 127.601 137.019C127.56 136.89 127.546 136.754 127.561 136.62C127.548 136.472 127.566 136.323 127.614 136.183C127.662 136.042 127.739 135.913 127.84 135.804C127.94 135.695 128.062 135.608 128.198 135.549C128.335 135.489 128.481 135.459 128.63 135.459C129.148 135.459 129.463 135.866 129.469 136.502C129.469 137.256 129.128 137.676 128.518 137.682ZM124.466 85.266C106.563 75.2194 103.087 51.7097 114.865 35.0069C116.747 32.3068 119.241 30.0909 122.144 28.5409C132.171 23.1832 142.336 23.4521 152.428 27.6228L153.156 33.092L154.573 34.62L157.851 36.4169C158.191 35.6788 158.48 34.9185 158.717 34.1413C158.857 33.286 158.946 32.4233 158.986 31.5575C159.915 32.0526 160.81 32.6068 161.668 33.2167C175.374 44.66 178.122 61.3365 172.377 76.0588C171.2 79.1341 169.398 81.9315 167.084 84.2739C164.77 86.6163 161.994 88.4525 158.933 89.6662C156.887 90.5384 154.914 90.9188 152.815 89.9613C152.282 89.7452 151.736 89.5591 151.182 89.4039C146.651 87.9678 142.086 87.6071 137.627 89.5285C136.752 89.9201 135.797 90.1032 134.839 90.0634C133.881 90.0235 132.945 89.7619 132.106 89.299C129.526 88.0268 126.979 86.6824 124.466 85.266ZM174.902 94.8403C174.823 96.2634 174.764 97.5225 174.679 99.1029C170.554 97.3061 166.593 96.106 163.065 93.7845C164.849 91.4565 166.764 90.8466 169.157 92.0467C171.006 92.9976 172.882 93.8567 174.902 94.8403ZM132.801 111.819C132.473 109.926 132.308 108.008 132.309 106.087C132.197 97.1487 141.595 90.827 148.966 93.2861C152.782 94.5584 156.573 95.9617 160.284 97.5291C163.826 99.0242 167.288 100.729 170.705 102.493C173.433 103.903 176.082 105.49 177.308 108.592C177.394 108.802 177.925 108.835 178.659 109.09C178.797 108.14 179.132 107.248 179.02 106.421C178.202 99.9158 178.231 93.3316 179.105 86.8333C179.387 84.5446 179.407 82.2428 179.479 79.9148C179.551 77.4163 179.597 74.9505 178.463 72.57C177.947 71.3239 177.696 69.9837 177.728 68.6354C177.689 64.8581 178.856 63.5072 182.443 62.4579C185.825 61.3579 189.411 61.0308 192.936 61.5005C196.024 63.3563 196.72 66.6418 195.224 69.7961C192.601 75.2784 193.342 80.6427 194.49 86.1578C194.962 88.4203 195.316 90.7024 195.834 92.9517C197.346 99.7471 197.241 106.803 195.526 113.55C194.863 116.157 193.73 118.622 192.182 120.822C191.288 122.091 190.12 123.141 188.764 123.895C187.409 124.649 185.9 125.087 184.352 125.177C180.13 125.572 175.874 125.391 171.702 124.639C167.544 123.846 163.386 123.045 159.202 122.422C157.294 122.223 155.374 122.168 153.458 122.259C153.176 122.259 152.9 122.672 152.579 122.914C152.861 124.364 154.271 124.226 155.202 124.528C160.507 126.246 165.852 127.839 171.19 129.452C175.262 130.662 179.504 131.196 183.748 131.033C188.765 130.882 193.178 129.354 196.647 125.557C197.124 125.115 197.628 124.704 198.156 124.324C201.323 127.249 202.779 131.905 207.022 133.584C208.373 132.036 207.33 131.053 206.845 130.18C205.159 127.157 203.369 124.187 201.507 121.262C200.959 120.47 200.581 119.574 200.397 118.629C200.213 117.685 200.227 116.712 200.438 115.773C202.405 107.058 201.094 98.5652 198.739 90.1253C197.651 86.2693 196.772 82.3543 195.867 78.6491C197.9 76.4523 200.294 76.3604 202.556 76.6818C206.551 77.1938 210.499 78.0272 214.36 79.1738C222.033 81.6788 229.574 84.5905 237.162 87.3579C237.496 87.5343 237.804 87.7549 238.08 88.0137C237.765 91.6795 237.253 93.0829 234.361 98.0865C229.161 99.4219 223.732 99.6077 218.452 98.6308C212.885 97.6602 208.956 93.9878 204.333 90.2171C204.228 91.6008 203.874 92.4926 204.182 92.932C205.369 94.6567 206.563 96.4798 208.117 97.8176C213.671 102.559 219.987 105.615 227.449 105.871C228.528 105.971 229.599 106.14 230.656 106.376C229.213 115.124 220.905 135.65 215.75 143.368C213.724 144.378 211.645 143.644 209.593 143.296C207.127 142.876 204.694 142.279 202.228 141.866C197.481 140.981 192.601 141.093 187.899 142.194C179.505 144.312 171.072 146.28 162.711 148.536C160.088 149.25 157.917 149.152 155.74 147.388C144.231 138.03 135.575 126.816 132.801 111.819ZM135.804 181.121H138.316V181.266H135.804V181.121ZM133.358 186.715L129.686 188.21C129.922 186.027 131.286 186.118 133.358 186.715ZM126.144 187.673L129.633 188.217H126.079C126.144 188.033 126.144 187.856 126.144 187.673Z" fill="white"/>
<path d="M67.8915 34.1739C67.1881 34.2751 66.4932 34.4285 65.8127 34.633C59.4319 37.3217 53.1364 40.2268 46.677 42.6925C40.8865 44.896 34.873 46.2731 28.5906 44.9222C20.8327 43.2631 14.8192 38.9743 10.4451 32.541C2.66102 21.0911 -0.0604678 8.30996 1.1724 -5.36962C1.60521 -10.1568 2.07082 -14.9571 2.77906 -19.7115C3.34303 -23.502 4.26768 -27.2465 5.11364 -30.9975C5.48307 -32.3114 5.92085 -33.605 6.4252 -34.8732C7.80234 -34.2174 7.25804 -33.1747 7.25804 -32.4206C7.25804 -28.1908 7.17279 -23.9544 7.15312 -19.7181C7.10721 -9.88139 8.79913 -0.16272 9.99265 9.56906C10.8865 16.0967 13.4052 22.2954 17.3177 27.5965C20.8065 32.5083 25.3182 35.82 31.476 36.6397C34.427 37.0331 37.1944 36.2528 40.0012 35.7741C51.1888 33.8985 61.1632 28.8293 71.1901 23.97C86.6263 16.5208 101.448 7.85922 115.514 -1.93333C120.898 -5.70407 126.8 -8.64852 132.414 -11.9668C133.83 -12.8062 135.66 -13.1734 136.552 -15.2063C134.676 -15.9277 132.899 -16.5179 131.207 -17.2786C130.59 -17.5631 130.084 -18.0431 129.768 -18.6441C129.451 -19.2452 129.342 -19.9338 129.456 -20.6034C129.568 -21.277 129.931 -21.8829 130.473 -22.2982C131.015 -22.7135 131.695 -22.9071 132.374 -22.8396C134.285 -22.7005 136.176 -22.3576 138.014 -21.8166C146.12 -19.2918 154.409 -19.8493 162.645 -20.4263C163.957 -20.5181 164.613 -21.4231 165.511 -22.1051C166.409 -22.7871 167.911 -23.6397 169.078 -23.5675C173.669 -23.2659 178.259 -22.8199 182.85 -22.0855C188.404 -21.1805 193.552 -19.0099 198.471 -16.2818C201.33 -14.6948 204.255 -13.2193 207.179 -11.7569C208.099 -11.4594 209.042 -11.2401 209.999 -11.1011C209.538 -11.9419 209.007 -12.7426 208.412 -13.4947C206.058 -15.7703 203.612 -17.9409 201.29 -20.2427C199.572 -21.9478 197.421 -22.7347 195.231 -23.4495C191.755 -24.584 188.247 -25.607 184.778 -26.7284C183.486 -27.1325 182.238 -27.6664 181.053 -28.3219C180.518 -28.5668 180.092 -29.0012 179.859 -29.5413C179.625 -30.0814 179.599 -30.689 179.787 -31.2467C179.987 -31.8007 180.367 -32.2714 180.867 -32.583C181.366 -32.8947 181.956 -33.0292 182.542 -32.9649C183.5 -32.9471 184.453 -32.8038 185.375 -32.5386C193.159 -30.3483 200.844 -27.9481 207.94 -23.8954C215.272 -19.6919 222.761 -15.7637 230.184 -11.711C231.056 -12.4717 230.407 -13.1209 229.935 -13.6325C229.045 -14.642 228.071 -15.5743 227.023 -16.4195C216.773 -24.2954 206.615 -32.2566 194.346 -36.8471C192.031 -37.7127 189.919 -39.1423 187.788 -40.4145C186.909 -40.9326 186.325 -42.0212 187.007 -42.8409C187.486 -43.4246 188.634 -43.5623 189.513 -43.6803C190.089 -43.6502 190.652 -43.4982 191.165 -43.2344C202.313 -39.4374 212.97 -34.565 222.538 -27.5547C224.085 -26.4267 225.817 -25.5086 227.43 -24.5184C227.502 -24.4725 227.699 -24.6561 228.158 -24.9119C227.705 -25.6885 227.204 -26.4354 226.656 -27.1481C221.292 -33.3977 214.642 -37.8635 207.205 -41.2998C202.845 -43.3131 198.68 -45.687 194.411 -47.9298C193.714 -48.2652 193.088 -48.7329 192.568 -49.3069C192.407 -49.5266 192.297 -49.7796 192.246 -50.0473C192.195 -50.3151 192.204 -50.5909 192.273 -50.8546C192.399 -51.0897 192.578 -51.2916 192.797 -51.4433C193.016 -51.595 193.268 -51.6922 193.532 -51.7267C194.479 -51.739 195.42 -51.5858 196.313 -51.2743C198.116 -50.6185 199.861 -49.8053 201.612 -49.0643C210.471 -53.0908 219.731 -54.14 229.246 -53.8384C232.525 -53.7334 235.804 -53.9302 239.083 -54.1138C239.916 -54.1597 240.722 -54.6843 242.021 -55.1696C239.168 -57.3271 236.322 -57.9829 233.555 -58.4026C229.751 -58.946 225.914 -59.2308 222.072 -59.2551C217.842 -59.3141 213.599 -59.1239 209.376 -58.842C204.969 -58.5403 200.576 -57.9829 196.175 -57.5304C176.6 -55.6549 157.373 -51.7071 138.158 -47.6937C134.801 -46.9986 131.601 -45.5886 128.322 -44.4804C127.777 -44.2967 127.292 -43.9361 126.748 -43.7525C118.38 -40.9195 110.008 -38.0953 101.631 -35.2798C98.8968 -34.3617 96.136 -33.5092 93.421 -32.5452C76.9085 -26.7349 60.4287 -20.8264 43.9162 -15.0096C41.3584 -14.1753 38.7551 -13.4878 36.1189 -12.9504C35.4632 -12.8127 34.7352 -13.18 33.5745 -13.3964C34.0401 -14.3932 34.1778 -15.2129 34.6631 -15.6064C36.1008 -16.8766 37.6705 -17.9891 39.3454 -18.9246C46.1647 -22.5094 53.31 -25.4365 60.6845 -27.6662C63.242 -28.4072 65.6815 -29.581 68.2719 -30.5975C69.1113 -37.2733 70.0031 -43.7131 70.6982 -50.1791C71.354 -56.3566 71.4852 -62.6389 74.1739 -69C76.056 -67.3146 75.9838 -65.7736 76.1412 -64.3374C77.138 -56.5139 78.1086 -48.6839 79.1447 -40.867C79.3677 -39.1948 79.9185 -37.5553 80.4038 -35.5421C81.7501 -35.6151 83.0881 -35.7993 84.4041 -36.0929C92.8374 -38.7751 101.205 -41.6671 109.678 -44.2246C115.581 -45.9646 121.312 -48.2409 126.8 -51.0251C129.557 -52.389 132.474 -53.4003 135.483 -54.0351C151.064 -57.5566 166.724 -60.6978 182.542 -62.7963C196.313 -64.6128 210.084 -65.99 223.961 -65.8391C230.518 -65.8781 237.025 -64.6858 243.142 -62.3242C244.227 -61.9385 245.284 -61.4761 246.303 -60.9405C251.182 -58.1009 251.195 -52.6907 246.218 -50.002C244.524 -49.0903 242.664 -48.5283 240.749 -48.3495C236.158 -47.9626 231.535 -47.897 226.925 -47.733C225.003 -47.6675 223.075 -47.7789 221.161 -47.6216C218.131 -47.3789 215.114 -46.9658 212.203 -46.6576C211.671 -44.9656 212.858 -44.7755 213.626 -44.4082C224.866 -39.2538 232.906 -30.5581 239.89 -20.7018C241.007 -19.1353 241.948 -17.4508 242.696 -15.6785C243.811 -12.9832 243.352 -10.7929 240.893 -9.06822C239.649 -8.2267 238.725 -6.99079 238.27 -5.5598C237.365 -3.11373 235.647 -2.2809 233.253 -3.10718C231.114 -3.93702 229.064 -4.98063 227.135 -6.22214C224.689 -7.69109 222.492 -9.62563 219.692 -10.3011C219.442 -10.0322 219.246 -9.91418 219.2 -9.75679C217.232 -3.57278 215.265 -2.43172 209.061 -4.19577C207.407 -4.70592 205.803 -5.36437 204.268 -6.16311C200.294 -8.13046 196.431 -10.2945 192.385 -12.0651C189.03 -13.5024 185.587 -14.7225 182.076 -15.7178C177.817 -17.048 173.245 -16.9837 169.026 -15.5342C163.485 -13.5669 157.674 -13.3636 151.904 -13.5669C148.634 -13.7137 145.402 -12.8156 142.677 -11.0028C134.775 -5.82866 126.8 -0.779152 118.931 4.37528C114.577 7.20825 110.36 10.2773 106.012 13.0972C99.71 17.2155 93.7096 21.6944 88.5355 27.203C87.0402 28.7003 85.6509 30.2999 84.3778 31.9902C73.5771 47.2437 66.6718 63.9005 66.0684 82.8329C65.6716 93.2347 66.7625 103.64 69.308 113.733C72.4295 125.898 78.2004 136.686 86.0894 146.319C93.5378 155.521 103.655 162.188 115.049 165.402C116.301 165.763 117.541 166.176 118.682 166.53C119.023 168.143 117.96 168.635 117.167 168.675C114.494 168.891 111.806 168.852 109.14 168.556C96.2409 166.589 85.591 160.497 77.0659 150.68C69.4588 141.925 64.7766 131.689 61.76 120.54C57.5564 105.083 57.1695 89.3579 58.8089 73.547C60.0389 61.0845 62.8757 48.8334 67.2488 37.0987C67.5309 36.1399 67.7456 35.1626 67.8915 34.1739Z" fill="white"/>
<path d="M154.573 34.633C154.868 36.4954 155.36 38.3513 155.366 40.2071C155.366 41.0859 154.448 41.9712 153.904 42.9221C153.333 42.4171 152.868 42.2007 152.841 41.9515C152.487 38.0627 150.179 35.3937 147.543 32.8099C147.182 32.4558 147.248 31.4393 147.451 30.8426C147.543 30.5606 148.572 30.2721 148.92 30.4557C150.382 31.2426 151.753 32.2066 153.156 33.0788L154.573 34.633Z" fill="white"/>
<path d="M143.562 72.6681C144.146 75.2913 142.782 76.4192 141.24 77.2258C137.962 78.944 133.686 77.6652 131.692 74.5306C129.528 71.1336 129.666 65.7562 132.256 62.6872C133.162 61.7561 134.332 61.1245 135.607 60.8772C137.194 60.5428 138.447 62.556 137.647 63.9594C137.28 64.6152 136.591 65.0873 136.257 65.7497C134.525 69.1728 136.257 72.4649 139.988 72.9042C141.184 72.9305 142.38 72.8515 143.562 72.6681Z" fill="white"/>
<path d="M162.816 54.9622L171.433 52.5686C172.495 53.1916 172.371 54.1031 171.787 54.9425C169.97 57.5656 167.675 58.5755 164.96 57.7886C163.688 57.4345 162.468 56.7722 162.816 54.9622Z" fill="white"/>
</svg>
