<svg width="72" height="72" viewBox="0 0 72 72" fill="#8540ED" xmlns="http://www.w3.org/2000/svg">
<path fill-rule="evenodd" clip-rule="evenodd" d="M36.0005 5.65186C36.7427 5.65246 37.4752 5.68818 38.1981 5.75902C52.676 7.1781 60.5411 23.6021 53.6442 36.4107L38.2464 65.0067C38.028 65.4122 37.7039 65.751 37.3085 65.9872C36.9131 66.2234 36.4611 66.3481 36.0005 66.3481C35.54 66.3481 35.088 66.2234 34.6925 65.9872C34.2971 65.751 33.973 65.4122 33.7547 65.0067L18.3569 36.4107C11.46 23.6022 19.325 7.17821 33.8029 5.75914C34.5264 5.68762 35.2589 5.65186 36.0005 5.65186ZM36.0004 18.5465H36.0004C40.0167 18.5465 43.2726 21.8024 43.2726 25.8187V25.8188C43.2726 29.8351 40.0167 33.091 36.0004 33.091H36.0004C31.984 33.091 28.7281 29.8351 28.7281 25.8188V25.8187C28.7281 21.8024 31.984 18.5465 36.0004 18.5465Z"/>
</svg>
