<svg width="44" height="38" viewBox="0 0 44 38" fill="none" xmlns="http://www.w3.org/2000/svg">
<path d="M42.3215 36.1232C40.5242 35.635 38.54 35.5122 36.9591 34.5836C33.6747 32.5939 30.4915 30.4178 27.4298 28.0692C24.528 25.9202 22.6136 25.7135 20.9387 28.6194C19.3363 31.2942 17.4102 33.7422 15.1929 35.9216C14.3058 36.805 12.447 36.7944 11.0508 37.1748C10.6553 35.5354 9.67249 33.6838 9.98213 32.3147C10.9087 28.712 12.0603 25.2014 13.4313 21.8004C14.2174 19.6991 13.5588 18.291 11.4254 16.7596C8.02435 14.3561 4.76192 11.7491 1.66231 8.95795C0.692213 8.09423 0.598691 6.2812 0.107017 4.90958C1.47237 4.71944 3.00629 3.99538 4.17803 4.45623C8.52951 6.14808 12.7066 8.44708 17.0788 10.0768C17.9225 10.323 18.7796 10.3982 19.593 10.2973C20.4064 10.1964 21.1574 9.92172 21.7959 9.49157C24.9701 6.99842 27.6038 3.95005 30.781 1.46882C31.704 0.631403 33.623 0.880276 35.1253 0.655925C35.3614 2.313 36.2925 4.3685 35.7248 5.55621C33.9656 8.88766 32.0066 12.0935 29.8562 15.1603C28.6333 17.0447 28.6785 18.57 30.9321 20.578C34.4742 23.7949 37.857 27.1766 41.064 30.7065C42.1151 31.8434 42.5136 33.4948 43.2408 34.9342C42.9274 35.3513 42.6245 35.7372 42.3215 36.1232Z" fill="#F38EC0"/>
</svg>
