<svg width="87" height="85" viewBox="0 0 87 85" fill="none" xmlns="http://www.w3.org/2000/svg">
<path d="M55.4532 33.1264C61.5784 32.0335 66.6684 31.1628 71.7371 30.2054C74.7889 29.625 78.1687 29.2115 78.8228 33.0703C79.3863 36.4091 76.8752 38.0987 73.6088 39.006C68.9598 40.3001 64.4389 42.1143 59.1219 43.9596L76.1871 54.479C78.7894 56.0776 81.5937 57.4471 83.929 59.3649C85.139 60.3785 85.4872 62.4135 86.2542 63.998C84.4356 64.4284 82.3133 65.6712 80.8491 65.135C73.6701 62.507 66.6704 59.3825 59.5927 56.4837C57.4425 55.5986 55.2263 54.8789 52.2792 53.8063C52.977 59.4505 53.643 64.3865 54.3161 69.3452C54.5341 71.0106 55.1374 72.7677 54.7975 74.3295C54.4858 75.7444 53.3964 77.5031 52.1803 78.06C51.2776 78.4823 49.0935 77.6083 48.4159 76.638C47.2741 74.7661 46.416 72.7325 45.8691 70.6031C44.6242 66.5764 43.5822 62.5392 42.2412 57.838C36.7626 65.3169 31.7196 72.2211 26.6431 79.0988C25.5613 80.5675 24.5671 82.2136 23.153 83.2668C22.1255 84.0428 19.775 84.6671 19.2604 84.1305C18.346 83.1819 17.669 81.0366 18.1312 79.8782C20.4298 74.1468 23.0832 68.5485 25.7178 62.9501C27.2706 59.664 29.036 56.4766 31.3137 52.0331C27.9038 52.7253 25.6944 53.1844 23.4855 53.6059C19.2485 54.408 15.0207 55.3571 10.7539 55.8503C10.0928 55.8134 9.45314 55.6101 8.89378 55.2594C8.33443 54.9086 7.87331 54.4215 7.55281 53.8429C7.22374 52.9077 8.02344 50.9258 8.93227 50.3264C11.6259 48.6171 14.4442 47.1162 17.3624 45.8371C20.4101 44.4394 23.5445 43.2944 27.5073 41.6702C24.5252 39.5656 22.1347 37.8473 19.7023 36.174C14.3166 32.4866 8.89288 28.8367 3.53031 25.1042C1.79369 23.8891 -0.202209 22.1345 1.75144 20.0286C2.67301 19.0376 5.37452 18.8288 6.8423 19.3764C15.8133 22.7263 24.69 26.3885 34.4106 30.3851C33.7889 25.7844 33.2499 21.7376 32.6847 17.687C32.3921 15.4338 31.4436 13.103 31.861 11.0783C32.2784 9.05357 34.1779 7.34674 35.4262 5.49825C37.0762 6.73565 39.6315 7.63733 40.2027 9.27387C42.0901 14.6511 43.2607 20.3083 44.7337 25.797L46.506 25.7506C50.1261 20.3754 53.7411 15.0039 57.351 9.63623C58.9211 7.30681 60.2316 4.73167 62.1205 2.69715C63.2174 1.51096 65.215 1.17158 66.8161 0.450422C67.167 2.27825 68.3504 4.44423 67.783 5.89971C64.7619 13.1689 61.2631 20.233 57.9585 27.3769C57.1682 28.9371 56.5304 30.6032 55.4532 33.1264Z" fill="#313131"/>
</svg>
