<svg
  width="32"
  height="32"
  viewBox="0 0 32 32"
  fill="none"
  xmlns="http://www.w3.org/2000/svg">
<path
    d="M23.518 26.7586V18.5192L7.94323 27.7865C7.71315 27.9131 7.50046 28 7.24472 28C6.91488 27.998 6.59927 27.8654 6.36704 27.6312C6.13482 27.3969 6.00491 27.0802 6.00579 26.7503H6V5.24966H6.00662C6.00579 4.56276 6.56195 4 7.24472 4C7.49466 4 7.71315 4.07448 7.92502 4.19945L23.518 13.48V5.24138C23.5264 4.9178 23.6608 4.61029 23.8926 4.38438C24.1244 4.15848 24.4353 4.03205 24.759 4.03205C25.0827 4.03205 25.3936 4.15848 25.6254 4.38438C25.8572 4.61029 25.9916 4.9178 26 5.24138V26.7586C26 27.0877 25.8693 27.4034 25.6365 27.6361C25.4038 27.8688 25.0881 27.9996 24.759 27.9996C24.4299 27.9996 24.1142 27.8688 23.8815 27.6361C23.6487 27.4034 23.518 27.0877 23.518 26.7586Z"
    fill="black"
  />
</svg>
