<svg
  width="32"
  height="32"
  viewBox="0 0 32 32"
  fill="none"
  xmlns="http://www.w3.org/2000/svg">
<path
    fill-rule="evenodd"
    clip-rule="evenodd"
    d="M4.39052 4.39052C4.91122 3.86983 5.75544 3.86983 6.27614 4.39052L16 14.1144L25.7239 4.39052C26.2446 3.86983 27.0888 3.86983 27.6095 4.39052C28.1302 4.91122 28.1302 5.75544 27.6095 6.27614L17.8856 16L27.6095 25.7239C28.1302 26.2446 28.1302 27.0888 27.6095 27.6095C27.0888 28.1302 26.2446 28.1302 25.7239 27.6095L16 17.8856L6.27614 27.6095C5.75544 28.1302 4.91122 28.1302 4.39052 27.6095C3.86983 27.0888 3.86983 26.2446 4.39052 25.7239L14.1144 16L4.39052 6.27614C3.86983 5.75544 3.86983 4.91122 4.39052 4.39052Z"
    fill="black"
  />
</svg>
