<svg
  width="32"
  height="32"
  viewBox="0 0 32 32"
  fill="none"
  xmlns="http://www.w3.org/2000/svg">
<path
    d="M19.6855 12.0005H12.599V9.71412C12.599 7.77105 14.1988 6.17123 16.1419 6.17123C18.085 6.17123 19.6848 7.77105 19.6848 9.71412L19.6855 12.0005ZM16.1426 22.2859C15.537 22.2841 14.9566 22.0427 14.5284 21.6145C14.1001 21.1862 13.8587 20.6059 13.8569 20.0002C13.8587 19.3946 14.1001 18.8143 14.5284 18.386C14.9566 17.9577 15.537 17.7164 16.1426 17.7146C16.7482 17.7164 17.3286 17.9577 17.7568 18.386C18.1851 18.8143 18.4265 19.3946 18.4282 20.0002C18.4265 20.6059 18.1851 21.1862 17.7568 21.6145C17.3286 22.0427 16.7482 22.2841 16.1426 22.2859ZM22.9995 12.0005H21.8567V9.71412C21.8567 6.51381 19.3429 4 16.1426 4C12.943 4 10.4285 6.51381 10.4285 9.71412V11.9998H9.28565C8.67989 12.0016 8.09946 12.243 7.67119 12.6714C7.24291 13.0998 7.00161 13.6803 7 14.2861V25.7144C7.00179 26.32 7.24317 26.9003 7.67142 27.3286C8.09968 27.7568 8.68001 27.9982 9.28565 28H22.9995C23.6052 27.9982 24.1855 27.7568 24.6138 27.3286C25.042 26.9003 25.2834 26.32 25.2852 25.7144V14.2861C25.2834 13.6805 25.042 13.1001 24.6138 12.6719C24.1855 12.2436 23.6052 12.0022 22.9995 12.0005Z"
    fill="black"
  />
</svg>
