<svg
  width="32"
  height="32"
  viewBox="0 0 32 32"
  fill="none"
  xmlns="http://www.w3.org/2000/svg">
<path
    d="M16.0007 13C14.4734 13 13.2314 14.2434 13.2314 15.7693C13.2314 17.2952 14.4734 18.5386 16.0007 18.5386C17.528 18.5386 18.77 17.2965 18.77 15.7693C18.77 14.242 17.5266 13 16.0007 13ZM6.76928 13C5.24202 13 4 14.2434 4 15.7693C4 17.2952 5.24202 18.5386 6.76928 18.5386C8.29654 18.5386 9.53857 17.2965 9.53857 15.7693C9.53857 14.242 8.29654 13 6.76928 13ZM25.2307 13C23.7048 13 22.4614 14.2434 22.4614 15.7693C22.4614 17.2952 23.7048 18.5386 25.2307 18.5386C26.7566 18.5386 28 17.2965 28 15.7693C28 14.242 26.758 13 25.2307 13Z"
    fill="black"
  />
</svg>
