<svg
  width="32"
  height="32"
  viewBox="0 0 32 32"
  fill="none"
  xmlns="http://www.w3.org/2000/svg">
<path
    fill-rule="evenodd"
    clip-rule="evenodd"
    d="M5.27808 26.7219C6.09642 27.5403 7.20633 28 8.36364 28H23.6364C24.7937 28 25.9036 27.5403 26.7219 26.7219C27.5403 25.9036 28 24.7937 28 23.6364V8.36364C28 7.20633 27.5403 6.09642 26.7219 5.27808C25.9036 4.45974 24.7937 4 23.6364 4H8.36364C7.20633 4 6.09642 4.45974 5.27808 5.27808C4.45974 6.09642 4 7.20633 4 8.36364V23.6364C4 24.7937 4.45974 25.9036 5.27808 26.7219ZM6.69229 6.69229C7.13556 6.24903 7.73676 6 8.36364 6H23.6364C24.2632 6 24.8644 6.24903 25.3077 6.69229C25.751 7.13556 26 7.73676 26 8.36364V23.6364C26 24.2632 25.751 24.8644 25.3077 25.3077C24.8644 25.751 24.2632 26 23.6364 26H8.36364C7.73676 26 7.13556 25.751 6.69229 25.3077C6.24903 24.8644 6 24.2632 6 23.6364V8.36364C6 7.73676 6.24903 7.13556 6.69229 6.69229Z"
    fill="black"
  />
<path
    fill-rule="evenodd"
    clip-rule="evenodd"
    d="M9.77406 15.6805C9.97865 15.8851 10.2561 16 10.5455 16H21.4545C21.7439 16 22.0213 15.8851 22.2259 15.6805C22.4305 15.4759 22.5455 15.1984 22.5455 14.9091V10.5455C22.5455 10.2561 22.4305 9.97865 22.2259 9.77406C22.0213 9.56948 21.7439 9.45454 21.4545 9.45454H10.5455C10.2561 9.45454 9.97865 9.56948 9.77406 9.77406C9.56948 9.97865 9.45454 10.2561 9.45454 10.5455V14.9091C9.45454 15.1984 9.56948 15.4759 9.77406 15.6805ZM11.4545 14V11.4545H20.5455V14H11.4545Z"
    fill="black"
  />
</svg>
