<svg
  width="32"
  height="32"
  viewBox="0 0 32 32"
  fill="none"
  xmlns="http://www.w3.org/2000/svg">
<path
    d="M15.2929 7.70711C15.4804 7.89464 15.7348 8 16 8C16.2652 8 16.5196 7.89464 16.7071 7.70711C16.8946 7.51957 17 7.26522 17 7V5C17 4.73478 16.8946 4.48043 16.7071 4.29289C16.5196 4.10536 16.2652 4 16 4C15.7348 4 15.4804 4.10536 15.2929 4.29289C15.1054 4.48043 15 4.73478 15 5V7C15 7.26522 15.1054 7.51957 15.2929 7.70711Z"
    fill="black"
  />
<path
    d="M15.2929 27.7071C15.4804 27.8946 15.7348 28 16 28C16.2652 28 16.5196 27.8946 16.7071 27.7071C16.8946 27.5196 17 27.2652 17 27V25C17 24.7348 16.8946 24.4804 16.7071 24.2929C16.5196 24.1054 16.2652 24 16 24C15.7348 24 15.4804 24.1054 15.2929 24.2929C15.1054 24.4804 15 24.7348 15 25V27C15 27.2652 15.1054 27.5196 15.2929 27.7071Z"
    fill="black"
  />
<path
    d="M7.70711 16.7071C7.89464 16.5196 8 16.2652 8 16C8 15.7348 7.89464 15.4804 7.70711 15.2929C7.51957 15.1054 7.26522 15 7 15H5C4.73478 15 4.48043 15.1054 4.29289 15.2929C4.10536 15.4804 4 15.7348 4 16C4 16.2652 4.10536 16.5196 4.29289 16.7071C4.48043 16.8946 4.73478 17 5 17H7C7.26522 17 7.51957 16.8946 7.70711 16.7071Z"
    fill="black"
  />
<path
    d="M27.7071 16.7071C27.8946 16.5196 28 16.2652 28 16C28 15.7348 27.8946 15.4804 27.7071 15.2929C27.5196 15.1054 27.2652 15 27 15H25C24.7348 15 24.4804 15.1054 24.2929 15.2929C24.1054 15.4804 24 15.7348 24 16C24 16.2652 24.1054 16.5196 24.2929 16.7071C24.4804 16.8946 24.7348 17 25 17H27C27.2652 17 27.5196 16.8946 27.7071 16.7071Z"
    fill="black"
  />
<path
    d="M10.6388 22.363C10.6388 22.0978 10.5335 21.8435 10.346 21.656C10.1585 21.4685 9.90416 21.3632 9.639 21.3632C9.37384 21.3632 9.11953 21.4685 8.932 21.656L7.518 23.07C7.33584 23.2586 7.23505 23.5112 7.23733 23.7734C7.2396 24.0356 7.34477 24.2864 7.53018 24.4718C7.71559 24.6572 7.9664 24.7624 8.2286 24.7647C8.4908 24.767 8.7434 24.6662 8.932 24.484L10.346 23.07C10.5335 22.8825 10.6388 22.6282 10.6388 22.363Z"
    fill="black"
  />
<path
    d="M24.7758 8.223C24.7758 7.95784 24.6705 7.70353 24.483 7.516C24.2955 7.32853 24.0412 7.22321 23.776 7.22321C23.5108 7.22321 23.2565 7.32853 23.069 7.516L21.655 8.93C21.5595 9.02225 21.4833 9.13259 21.4309 9.2546C21.3785 9.3766 21.3509 9.50782 21.3497 9.6406C21.3486 9.77338 21.3739 9.90506 21.4242 10.028C21.4745 10.1509 21.5487 10.2625 21.6426 10.3564C21.7365 10.4503 21.8482 10.5245 21.971 10.5748C22.0939 10.6251 22.2256 10.6504 22.3584 10.6493C22.4912 10.6481 22.6224 10.6205 22.7444 10.5681C22.8664 10.5157 22.9768 10.4395 23.069 10.344L24.483 8.93C24.6705 8.74247 24.7758 8.48816 24.7758 8.223Z"
    fill="black"
  />
<path
    d="M9.636 10.6368C9.90116 10.6368 10.1555 10.5315 10.343 10.344C10.5305 10.1565 10.6358 9.90216 10.6358 9.637C10.6358 9.37184 10.5305 9.11753 10.343 8.93L8.928 7.516C8.7394 7.33384 8.4868 7.23305 8.2246 7.23533C7.9624 7.2376 7.71159 7.34277 7.52618 7.52818C7.34077 7.71359 7.2356 7.9644 7.23333 8.2266C7.23105 8.4888 7.33184 8.7414 7.514 8.93L8.929 10.344C9.11653 10.5315 9.37084 10.6368 9.636 10.6368Z"
    fill="black"
  />
<path
    d="M23.779 24.7768C24.0442 24.7768 24.2985 24.6715 24.486 24.484C24.6735 24.2965 24.7788 24.0422 24.7788 23.777C24.7788 23.5118 24.6735 23.2575 24.486 23.07L23.072 21.656C22.8834 21.4738 22.6308 21.373 22.3686 21.3753C22.1064 21.3776 21.8556 21.4828 21.6702 21.6682C21.4848 21.8536 21.3796 22.1044 21.3773 22.3666C21.375 22.6288 21.4758 22.8814 21.658 23.07L23.072 24.484C23.2595 24.6715 23.5138 24.7768 23.779 24.7768Z"
    fill="black"
  />
<path
    fill-rule="evenodd"
    clip-rule="evenodd"
    d="M16 23C14.1435 23 12.363 22.2625 11.0503 20.9497C9.7375 19.637 9 17.8565 9 16C9 14.1435 9.7375 12.363 11.0503 11.0503C12.363 9.7375 14.1435 9 16 9C17.8565 9 19.637 9.7375 20.9497 11.0503C22.2625 12.363 23 14.1435 23 16C23 17.8565 22.2625 19.637 20.9497 20.9497C19.637 22.2625 17.8565 23 16 23ZM16 11C14.6739 11 13.4021 11.5268 12.4645 12.4645C11.5268 13.4021 11 14.6739 11 16C11 17.3261 11.5268 18.5979 12.4645 19.5355C13.4021 20.4732 14.6739 21 16 21C17.3261 21 18.5979 20.4732 19.5355 19.5355C20.4732 18.5979 21 17.3261 21 16C21 14.6739 20.4732 13.4021 19.5355 12.4645C18.5979 11.5268 17.3261 11 16 11Z"
    fill="black"
  />
</svg>
