<svg
  width="32"
  height="32"
  viewBox="0 0 32 32"
  fill="none"
  xmlns="http://www.w3.org/2000/svg">
<path
    d="M14.1357 20.2881C14.2593 20.3387 14.3916 20.3643 14.5251 20.3636H14.5262C14.6597 20.3643 14.792 20.3387 14.9155 20.2881C15.0391 20.2376 15.1514 20.1631 15.2462 20.0691L22.3458 12.9695C22.4404 12.8749 22.5154 12.7627 22.5665 12.6391C22.6177 12.5156 22.6441 12.3832 22.6441 12.2495C22.6441 12.1157 22.6177 11.9833 22.5665 11.8598C22.5154 11.7363 22.4404 11.624 22.3458 11.5295C22.2513 11.4349 22.139 11.3599 22.0155 11.3087C21.8919 11.2576 21.7595 11.2312 21.6258 11.2312C21.4921 11.2312 21.3597 11.2576 21.2362 11.3087C21.1126 11.3599 21.0004 11.4349 20.9058 11.5295L14.5273 17.9189L11.1891 14.5731C10.9981 14.3821 10.7391 14.2749 10.4691 14.2749C10.199 14.2749 9.94005 14.3821 9.74909 14.5731C9.55814 14.764 9.45086 15.023 9.45086 15.2931C9.45086 15.4268 9.47719 15.5592 9.52837 15.6828C9.57954 15.8063 9.65454 15.9185 9.74909 16.0131L13.8051 20.0691C13.8998 20.1631 14.0122 20.2376 14.1357 20.2881Z"
    fill="black"
  />
<path
    fill-rule="evenodd"
    clip-rule="evenodd"
    d="M8.36364 28C7.20633 28 6.09642 27.5403 5.27808 26.7219C4.45974 25.9036 4 24.7937 4 23.6364V8.36364C4 7.20633 4.45974 6.09642 5.27808 5.27808C6.09642 4.45974 7.20633 4 8.36364 4H23.6364C24.7937 4 25.9036 4.45974 26.7219 5.27808C27.5403 6.09642 28 7.20633 28 8.36364V23.6364C28 24.7937 27.5403 25.9036 26.7219 26.7219C25.9036 27.5403 24.7937 28 23.6364 28H8.36364ZM8.36364 6C7.73676 6 7.13556 6.24903 6.69229 6.69229C6.24903 7.13556 6 7.73676 6 8.36364V23.6364C6 24.2632 6.24903 24.8644 6.69229 25.3077C7.13556 25.751 7.73676 26 8.36364 26H23.6364C24.2632 26 24.8644 25.751 25.3077 25.3077C25.751 24.8644 26 24.2632 26 23.6364V8.36364C26 7.73676 25.751 7.13556 25.3077 6.69229C24.8644 6.24903 24.2632 6 23.6364 6H8.36364Z"
    fill="black"
  />
</svg>
