<svg
  width="32"
  height="32"
  viewBox="0 0 32 32"
  fill="none"
  xmlns="http://www.w3.org/2000/svg">
<path
    fill-rule="evenodd"
    clip-rule="evenodd"
    d="M16 3.75C9.24493 3.75 3.75 9.24493 3.75 16C3.75 19.4491 5.18793 22.5631 7.48811 24.79C7.55096 24.8682 7.62542 24.9363 7.70889 24.992C9.89087 27.0069 12.7994 28.25 16 28.25C19.2005 28.25 22.1079 27.007 24.2908 24.9923C24.3746 24.9367 24.4494 24.8687 24.5125 24.7904C25.6923 23.6538 26.6313 22.2912 27.2734 20.7838C27.9178 19.2713 28.25 17.6441 28.25 16C28.25 9.24493 22.7551 3.75 16 3.75ZM5.75 16C5.75 10.3481 10.3481 5.75 16 5.75C21.6519 5.75 26.25 10.3481 26.25 16C26.25 18.2319 25.5278 20.2945 24.3104 21.9794C23.569 20.1281 21.9058 18.6799 19.7249 17.9123C20.2884 17.4309 20.7539 16.8432 21.0939 16.1812C21.507 15.3767 21.723 14.4856 21.724 13.5813V13.5806C21.7215 12.064 21.1174 10.6103 20.0443 9.53852C18.9712 8.46678 17.5167 7.86455 16.0001 7.864H15.9999C14.4833 7.86455 13.0288 8.46678 11.9557 9.53852C10.8826 10.6103 10.2785 12.064 10.276 13.5806L10.276 13.581C10.276 15.3142 11.0554 16.8644 12.2767 17.9119C10.0946 18.6802 8.43122 20.1285 7.68926 21.9815C6.43074 20.2452 5.74971 18.1522 5.75 16V16ZM13.3667 10.9477C14.0651 10.2493 15.0123 9.857 16 9.857C16.9877 9.857 17.9349 10.2493 18.6333 10.9477C19.3317 11.6461 19.724 12.5933 19.724 13.581C19.724 14.5687 19.3317 15.5159 18.6333 16.2143C17.9349 16.9127 16.9877 17.305 16 17.305C15.0123 17.305 14.0651 16.9127 13.3667 16.2143C12.6683 15.5159 12.276 14.5687 12.276 13.581C12.276 12.5933 12.6683 11.6461 13.3667 10.9477ZM16 26.2477C13.5313 26.2477 11.148 25.352 9.29127 23.7294C9.57819 21.227 12.2944 19.297 16 19.297C19.7056 19.297 22.4218 21.227 22.7087 23.7294C20.852 25.352 18.4687 26.2477 16 26.2477Z"
    fill="black"
  />
</svg>
