<svg xmlns="http://www.w3.org/2000/svg" width="224" height="224" viewBox="0 0 224 224"><defs><clipPath id="xk9da"><path d="M20 224c-11.046 0-20-8.954-20-20V20C0 8.954 8.954 0 20 0h184c11.046 0 20 8.954 20 20v184c0 11.046-8.954 20-20 20z"/></clipPath></defs><g><g><g><path fill="#ffdfdf" d="M20 224c-11.046 0-20-8.954-20-20V20C0 8.954 8.954 0 20 0h184c11.046 0 20 8.954 20 20v184c0 11.046-8.954 20-20 20z"/></g><g clip-path="url(#xk9da)"><path fill="#10a6a1" d="M0 224V15C0 6.716 6.716 0 15 0h194c8.284 0 15 6.716 15 15v209z"/></g><g clip-path="url(#xk9da)"><g><g><path fill="#002869" d="M169.435-2.296C115.85-1.715 131.09 34.133 98.57 41.54c0 0-.063 29.44-2.843 49.097l-7.278 5.921c2.4 1.98 4.488 3.418 6.371 4.467-.729 30.559 18.054 38.72 18.054 38.72 5.786-.366 16.365-10.14 29.336-25.148a168.01 168.01 0 0 1 3.787 2.457c22.975 15.344 32.74-4.388 54.966 16.768 21.58 20.543 48.562-1.537 69.012 22.168 20.184 23.396 60.43 14.801 66.624 9.694v-195.83H203.22c-9.531 10.942-11.664 27.611-33.785 27.851z"/></g></g><g><g><g><g><path fill="#fdb98d" d="M153.993 187.163c2.367 6.261 7.943 8.315 13.217 10.384 1.934.76 12.628 10.78-3.176 7.637-2.773-.551-12.197-2.746-16.557-4.76-4.422-2.042-2.074-8.678-2.845-11.254 0 0 5.878-11.221 9.36-2.007z"/></g></g></g><g><g><g><path fill="#002869" d="M167.21 197.547c6.35 2.568 11.406 5.819 9.79 9.627-1.816 4.284-11.591 3.127-15.13 1.519-1.912-.87-5.35-2.89-7.905-3.874-3.068-1.18-5.553-2.679-7.635-3.586-2.889-1.258-3.341-5.436-1.583-8.794.209 1.24 1.259 3.206 2.552 3.968 5.43 3.2 12.125 6.672 15.418 7.082 3.292.41 5.193-.08 5.874-1.692 1.048-2.477-.104-3.261-1.38-4.25z"/></g></g></g></g><g><g><g><g><path fill="#fdb98d" d="M166.959 174.85c1.873 6.426 7.274 8.906 12.37 11.379 1.87.906 11.753 11.728-3.76 7.367-2.72-.765-11.946-3.685-16.136-6.03-4.25-2.38-1.474-8.833-2.043-11.462 0 0 6.812-10.712 9.569-1.254z"/></g></g></g><g><g><g><path fill="#002869" d="M179.33 186.229c6.075 2.842 10.92 6.686 9.013 10.358-2.144 4.13-11.8 2.218-15.202.34-1.84-1.016-5.109-3.298-7.58-4.477-2.968-1.415-5.33-3.103-7.335-4.168-2.782-1.478-2.972-5.685-.959-8.895.113 1.252 1.07 3.299 2.3 4.159 5.165 3.61 11.57 7.593 14.821 8.257 3.251.664 5.184.323 5.988-1.23 1.237-2.388.15-3.26-1.046-4.344z"/></g></g></g></g><g><g><path fill="#002869" d="M112.167 89.503c2.764 27.982 37.737 29.103 39.608-8.113.377-7.486 7.84-26.114-15.317-33.83-10.328-3.44-24.29 41.943-24.29 41.943z"/></g></g><g><g><path fill="#a9d3e0" d="M130.796 113.626c-6.436 36.71-10.83 78.77-37.54 78.814-26.711.042-29.926-35.119-33.349-33.477-4.122 1.977-5.882-7.414-5.595-17.094.021-.703.043-1.436.085-2.17 1.681-28.881 20.498-79.25 53.199-72.42 26.136 5.457 29.497 10.446 23.2 46.347z"/></g></g><g><g><path fill="#002869" d="M73.18 154.156s43.997-13.556 58.79-60.46c5.966-18.91 16.037 18.652 13.443 52.183-1.147 14.82-4.826 27.56-11.79 37.647-11.985 17.356-58.959 23.694-60.443-29.37z"/></g></g><g><g><path fill="#002869" d="M155.665 178.75s-52.731-92.796-16.593-91.83c26.426.708 28.886 88.82 28.886 88.82.334 2.676-11.457 4.307-12.293 3.01z"/></g></g><g><g><path fill="#016099" d="M59.91 158.963s36.428-13.13 51.223-60.034c0 0 18.686.363 18.716 41.71.003 3.779-2.1 32.865-17.251 50.175-14.459 16.52-55.708 10.763-52.688-31.851z"/></g></g><g><g><path fill="#fdb98d" d="M135.1 166.19c1.78-.332 4.814-1.126 5.046-1.934.377-1.308-6.018.554-8.633-.073-1.921-.46-4.714-2.156-4.791-2.784.284-1.909 6.206-1.85 7.263-3.156.637-.787-1.123-1.33-4.614-.634-3.166.63-4.48-.357-7.293-.26-1.055.037-3.114.2-5.218.28-1.683.064-4.476-1.64-4.476-1.64l-1.558 7.886c1.273 1.046 13.09 8.687 18.291 8.95 5.845.298 9.797-1.531 10.476-2.426.339-.447-1.472-.637-2.406-.547 1.846-.51 3.774-1.013 4.16-1.57.501-.724-2.995-.491-5.74-.01 2.573-.623 5.872-1.352 6.315-2.098.778-1.315-4.202-.362-6.823.016z"/></g></g><g><g><path fill="#016099" d="M143.085 189.955S83.432 97.93 121.607 90.148c32.945-6.714 34.022 96.596 34.022 96.596.627 3.718-10.77 4.668-12.544 3.211z"/></g></g><g><g><path fill="#a9d3e0" d="M111.916 167.843c-17.115-6.667-32.043-10.376-44.423-23.141-4.543-4.684-8.576-12.143-9.429-21.765-.056-.5-.09-1.012-.124-1.522-1.364-22.356 11.865-48.49 43.593-49.837l2.398 23.758c5.19 10.178-10.235 21.266-5.34 27.161 9.748 11.746 9.987 31.805 17.31 34.679 2.076.814-1.395 11.676-3.985 10.667z"/></g></g><g><g><g><path fill="#ed715d" d="M119.934 68.597l-17.14 10.002c-4.33 4.432 4.178 17.76 9.373 13.076l6.722-6.925z"/></g></g><g><g><g><path fill="#fdb98d" d="M133.983 87.736c-1.079.72-2.023 1.442-3.167 2.003a15.661 15.661 0 0 1-4.807 1.465c-4.468.59-11.355.46-13.592-3.299-3.952-6.642-1.272-19.654 9.146-24.11 9.092-3.889 26.315-4.055 22.734 1.418-5.556 8.494.038 11.346-3.172 16.99-.673 1.183-1.632 2.465-4.602 4.082-.954.52-1.796.957-2.54 1.451z"/></g></g><g><g><path fill="#ed715d" d="M121.335 76.6a4.355 4.355 0 0 1-5.992-1.431 4.355 4.355 0 0 1 1.432-5.992 4.355 4.355 0 1 1 4.56 7.424z"/></g></g><g><g><path fill="#ed715d" d="M130.816 89.74a16.315 16.315 0 0 1-4.807 1.464 4.362 4.362 0 0 1 1.826-5.174 4.354 4.354 0 0 1 6.148 1.706c-1.079.72-2.023 1.442-3.167 2.003z"/></g></g><g><g><path fill="#002869" d="M151.211 60.8s-7.755-24.022-31.88-13.977c-9.226 3.84-20.762-5.304-20.762-5.304-25.957 2.831-31.787 27.176-28.262 43.538 0 0 11.562-11.464 21.473-2.974 9.02 7.725 19.897 9.099 19.983-2.236.085-11.246 6.488-14.525 13.583-15.38 4.92-.592 5.035 7.966 12.129 9.563 9.984 2.247 13.736-13.23 13.736-13.23z"/></g></g></g></g><g><g><path fill="#016099" d="M160.939 121.457a.437.437 0 0 1-.43-.372c-2.28-15.54-7.618-27.159-14.645-31.88-2.804-1.883-5.77-2.514-8.58-1.82a.435.435 0 1 1-.208-.846c3.052-.755 6.26-.081 9.274 1.943 7.231 4.858 12.705 16.695 15.02 32.476a.436.436 0 0 1-.431.5z"/></g></g><g><g><path fill="#002869" d="M123.112 154.715a.436.436 0 0 1-.386-.233c-6.968-13.212-11.906-29-13.55-43.318a.436.436 0 0 1 .866-.098c1.632 14.213 6.536 29.89 13.455 43.01a.437.437 0 0 1-.385.639z"/></g></g><g><g><path fill="#ed715d" d="M121.15 87.13a.218.218 0 0 1-.212-.264c.71-3.257-2.544-4.29-2.683-4.333a.218.218 0 0 1 .126-.418c.039.012 3.779 1.19 2.982 4.844a.217.217 0 0 1-.213.171z"/></g></g><g><g><path fill="#ed715d" d="M124.93 84.128c-.107 0-.218-.012-.33-.038-.928-.21-1.678-1.262-1.743-2.444a.218.218 0 0 1 .205-.23c.125-.012.223.086.23.207.063 1.134.77 1.898 1.404 2.042.503.116.952-.142 1.269-.72 1.607-2.928 3.258-3.793 3.328-3.828a.217.217 0 0 1 .197.388c-.015.008-1.608.851-3.143 3.65-.347.632-.85.973-1.416.973z"/></g></g><g><g><path fill="#002869" d="M127.73 76.66a.227.227 0 0 1-.095-.02c-3.572-1.727-2.677-5.903-2.667-5.945a.219.219 0 0 1 .26-.164.216.216 0 0 1 .165.26c-.035.158-.826 3.883 2.43 5.456a.218.218 0 0 1-.094.414z"/></g></g><g><g><path fill="#002869" d="M134.546 85.81a.234.234 0 0 1-.08-.016c-3.691-1.472-3.37-4.401-3.367-4.43a.214.214 0 0 1 .243-.19c.12.015.204.123.19.242-.013.107-.273 2.63 3.096 3.973a.219.219 0 0 1-.082.42z"/></g></g><g><g><path fill="#016099" d="M72.73 149.91a.437.437 0 0 1-.262-.089c-11.233-8.523-14.568-25.753-14.6-25.926a.435.435 0 1 1 .855-.16c.032.17 3.31 17.075 14.271 25.392a.435.435 0 0 1-.264.783z"/></g></g></g></g></g></svg>