<svg xmlns="http://www.w3.org/2000/svg" width="180" height="108" viewBox="0 0 180 108"><defs><clipPath id="rgasa"><path d="M0 108V15C0 6.716 6.716 0 15 0h150c8.284 0 15 6.716 15 15v93z"/></clipPath></defs><g><g><g><path fill="#ffdfdf" d="M0 108V15C0 6.716 6.716 0 15 0h150c8.284 0 15 6.716 15 15v93z"/></g><g clip-path="url(#rgasa)"><path fill="#10a6a1" d="M0 108V15C0 6.716 6.716 0 15 0h150c8.284 0 15 6.716 15 15v93z"/></g><g clip-path="url(#rgasa)"><g><g><path fill="#002869" d="M103.522.756c-24.543.266-17.564 16.685-32.458 20.077 0 0-.029 13.485-1.302 22.488l-3.333 2.712c1.099.907 2.055 1.565 2.918 2.046-.334 13.996 8.269 17.735 8.269 17.735 2.65-.168 7.495-4.645 13.436-11.519a76.95 76.95 0 0 1 1.735 1.125c10.523 7.028 14.996-2.01 25.175 7.68 9.885 9.41 22.242-.703 31.61 10.154 9.244 10.716 27.677 6.779 30.514 4.44V-12h-61.09C114.63-6.988 113.654.646 103.522.756z"/></g></g><g><g><g><g><path fill="#fdb98d" d="M96.449 87.532c1.084 2.868 3.638 3.808 6.054 4.756.886.348 5.783 4.938-1.455 3.498-1.27-.253-5.586-1.257-7.583-2.18-2.026-.936-.95-3.975-1.304-5.155 0 0 2.693-5.14 4.288-.919z"/></g></g></g><g><g><g><path fill="#002869" d="M102.503 92.288c2.908 1.176 5.224 2.665 4.484 4.41-.832 1.962-5.31 1.432-6.93.695-.876-.398-2.45-1.324-3.62-1.774-1.406-.541-2.544-1.227-3.498-1.642-1.323-.577-1.53-2.49-.725-4.029.096.568.577 1.47 1.169 1.818 2.487 1.465 5.554 3.056 7.062 3.244 1.507.187 2.378-.037 2.69-.775.48-1.135-.048-1.494-.632-1.947z"/></g></g></g></g><g><g><g><g><path fill="#fdb98d" d="M102.388 81.892c.858 2.944 3.331 4.08 5.666 5.212.856.415 5.383 5.372-1.723 3.375-1.246-.351-5.471-1.688-7.39-2.763-1.947-1.09-.675-4.045-.936-5.249 0 0 3.12-4.906 4.383-.575z"/></g></g></g><g><g><g><path fill="#002869" d="M108.054 87.104c2.782 1.302 5.001 3.063 4.128 4.744-.982 1.892-5.404 1.016-6.963.156-.842-.465-2.34-1.51-3.472-2.05-1.36-.649-2.44-1.421-3.36-1.91-1.274-.677-1.36-2.603-.438-4.074.051.574.49 1.512 1.053 1.905 2.366 1.654 5.3 3.478 6.788 3.783 1.49.303 2.375.147 2.743-.564.567-1.094.069-1.493-.48-1.99z"/></g></g></g></g><g><g><path fill="#002869" d="M77.292 42.802c1.266 12.816 17.284 13.33 18.141-3.716.173-3.429 3.591-11.96-7.015-15.494-4.73-1.576-11.126 19.21-11.126 19.21z"/></g></g><g><g><path fill="#a9d3e0" d="M85.824 53.85C82.876 70.666 80.864 89.93 68.63 89.95c-12.234.02-13.707-16.085-15.274-15.333-1.888.905-2.695-3.396-2.563-7.83.01-.321.02-.657.04-.994.769-13.227 9.388-36.297 24.365-33.17 11.97 2.5 13.51 4.785 10.626 21.229z"/></g></g><g><g><path fill="#002869" d="M59.435 72.414s20.151-6.209 26.927-27.692c2.733-8.66 7.345 8.543 6.157 23.901-.525 6.788-2.21 12.623-5.4 17.243-5.49 7.95-27.004 10.852-27.684-13.452z"/></g></g><g><g><path fill="#002869" d="M97.215 83.679s-24.152-42.503-7.6-42.06c12.104.324 13.23 40.681 13.23 40.681.153 1.226-5.247 1.973-5.63 1.379z"/></g></g><g><g><path fill="#016099" d="M53.357 74.616s16.685-6.014 23.461-27.497c0 0 8.559.167 8.573 19.104 0 1.731-.962 15.053-7.902 22.981-6.622 7.567-25.515 4.93-24.132-14.588z"/></g></g><g><g><path fill="#fdb98d" d="M87.795 77.926c.816-.152 2.206-.516 2.312-.886.172-.599-2.757.254-3.955-.033-.88-.211-2.159-.988-2.194-1.276.13-.874 2.843-.847 3.327-1.445.292-.36-.515-.61-2.113-.29-1.45.289-2.052-.164-3.34-.12-.484.018-1.427.092-2.39.13-.771.028-2.05-.752-2.05-.752l-.714 3.612c.583.479 5.995 3.978 8.377 4.1 2.677.135 4.487-.702 4.799-1.112.155-.205-.675-.292-1.103-.25.846-.235 1.729-.465 1.906-.72.23-.331-1.372-.225-2.63-.004 1.18-.286 2.69-.62 2.893-.961.356-.603-1.924-.166-3.125.007z"/></g></g><g><g><path fill="#016099" d="M91.453 88.811s-27.322-42.15-9.838-45.714c15.09-3.075 15.583 44.243 15.583 44.243.287 1.703-4.933 2.138-5.745 1.471z"/></g></g><g><g><path fill="#a9d3e0" d="M77.177 78.683C69.337 75.63 62.5 73.931 56.83 68.084c-2.08-2.145-3.928-5.562-4.318-9.969a14.956 14.956 0 0 1-.057-.697c-.625-10.24 5.434-22.21 19.966-22.826l1.098 10.881c2.378 4.662-4.687 9.74-2.445 12.44 4.464 5.38 4.574 14.568 7.928 15.884.951.373-.639 5.348-1.825 4.886z"/></g></g><g><g><g><path fill="#ed715d" d="M80.85 33.227l-7.851 4.58c-1.984 2.03 1.913 8.135 4.293 5.99l3.078-3.172z"/></g></g><g><g><g><path fill="#fdb98d" d="M87.284 41.993c-.494.33-.926.66-1.45.917a7.173 7.173 0 0 1-2.202.67c-2.047.272-5.201.212-6.225-1.51-1.81-3.042-.583-9.002 4.189-11.043 4.164-1.781 12.052-1.857 10.412.65-2.545 3.89.018 5.196-1.453 7.782-.308.541-.747 1.128-2.108 1.87-.437.237-.822.437-1.163.664z"/></g></g><g><g><path fill="#ed715d" d="M81.491 36.892a1.995 1.995 0 1 1-2.089-3.399 1.995 1.995 0 0 1 2.089 3.4z"/></g></g><g><g><path fill="#ed715d" d="M85.834 42.91a7.472 7.472 0 0 1-2.202.67 1.994 1.994 0 1 1 3.652-1.588c-.494.33-.926.66-1.45.918z"/></g></g><g><g><path fill="#002869" d="M95.175 29.655s-3.552-11.002-14.602-6.401c-4.226 1.759-9.51-2.43-9.51-2.43-11.888 1.297-14.558 12.447-12.944 19.942 0 0 5.296-5.251 9.835-1.363 4.131 3.539 9.113 4.168 9.153-1.024.039-5.15 2.971-6.652 6.22-7.044 2.254-.271 2.307 3.648 5.556 4.38 4.573 1.029 6.292-6.06 6.292-6.06z"/></g></g></g></g><g><g><path fill="#016099" d="M99.63 57.438a.2.2 0 0 1-.197-.171c-1.044-7.117-3.489-12.44-6.707-14.601-1.285-.863-2.643-1.152-3.93-.834a.2.2 0 1 1-.095-.388c1.398-.346 2.867-.037 4.247.89 3.312 2.225 5.82 7.647 6.88 14.875a.2.2 0 0 1-.198.229z"/></g></g><g><g><path fill="#002869" d="M82.305 72.67a.2.2 0 0 1-.177-.106c-3.191-6.052-5.453-13.283-6.206-19.84a.2.2 0 0 1 .396-.046c.748 6.51 2.994 13.69 6.163 19.7a.2.2 0 0 1-.176.292z"/></g></g><g><g><path fill="#ed715d" d="M81.406 41.715c-.007 0-.014 0-.02-.002a.1.1 0 0 1-.077-.119c.325-1.492-1.165-1.965-1.229-1.985a.1.1 0 0 1 .058-.191c.018.005 1.73.545 1.366 2.218a.1.1 0 0 1-.098.08z"/></g></g><g><g><path fill="#ed715d" d="M83.138 40.34a.68.68 0 0 1-.152-.017c-.425-.097-.768-.578-.798-1.12a.1.1 0 0 1 .094-.105c.057-.006.102.04.105.094.03.52.353.87.643.936.23.053.437-.065.582-.33.736-1.341 1.492-1.737 1.524-1.753a.1.1 0 0 1 .09.177c-.007.004-.736.39-1.44 1.672-.158.29-.39.446-.648.446z"/></g></g><g><g><path fill="#002869" d="M84.42 36.92a.104.104 0 0 1-.044-.01c-1.636-.79-1.226-2.703-1.221-2.723a.1.1 0 0 1 .119-.075.099.099 0 0 1 .075.12c-.015.072-.378 1.778 1.114 2.498a.1.1 0 0 1-.043.19z"/></g></g><g><g><path fill="#002869" d="M87.542 41.11a.108.108 0 0 1-.037-.007c-1.69-.674-1.543-2.016-1.542-2.03a.098.098 0 0 1 .111-.086.1.1 0 0 1 .087.111c-.006.05-.124 1.205 1.418 1.82a.1.1 0 0 1-.037.192z"/></g></g><g><g><path fill="#016099" d="M59.23 70.47a.2.2 0 0 1-.121-.041c-5.145-3.904-6.673-11.796-6.688-11.875a.2.2 0 1 1 .392-.073c.015.078 1.517 7.82 6.537 11.63a.2.2 0 0 1-.12.358z"/></g></g></g></g></g></svg>