<svg xmlns="http://www.w3.org/2000/svg" width="249" height="210" viewBox="0 0 249 210"><g><g><g><path fill="#fff" d="M220.13 167.65c-.05.434-.11.867-.171 1.29-2.54-.675-5.15-1.35-7.831-2.025-6.45-1.623-13.263-3.195-20.308-4.717-9.746-2.116-19.925-4.142-30.214-6.057a1523.44 1523.44 0 0 0-28.603-5.029 1899.886 1899.886 0 0 0-19.642-3.155c-.272-.04-.544-.08-.806-.13-.726-.111-1.462-.222-2.177-.333l.151-1.33c.615-5.251 1.744-12.165 4.082-24.904 6.41-35.052 79.749-30.063 101.135-4.293 7.579 9.14 6.863 32.079 4.384 50.683z"/></g><g><g><g><g><g><path fill="#ca4233" d="M102.186 104.498c.502 3.832-2.466 21.268-5.074 40.395l49.655 7.544 60.375 12.03c4.345-7.015 4.212-33.228 4.345-37.824.687-24.004-17.064-67.09-57.029-54.359-41.536-8.164-55.766 5.632-52.272 32.214z"/></g></g></g></g><g><g><g><g><g><g><path fill="#243936" d="M147.717 76.797c-5.915 14.757-34.448 14.604-30.918-7.101 1.091-6.705-6.998-11.458-7.862-16.2-1.967-10.784 7.962-14.305 10.188-24.193 3.352-14.897 9.851-38.779 51.591-13.71 12.078 7.252-23 61.204-23 61.204z"/></g></g></g></g></g></g></g><g><g><g><g><path fill="#002869" d="M248.782 177.577a.64.64 0 0 1-.604.404.624.624 0 0 1-.232-.04c-5.987-2.43-13.142-4.798-21.134-7.096a309.786 309.786 0 0 0-6.853-1.905c-2.54-.675-5.15-1.35-7.831-2.025-6.45-1.623-13.263-3.195-20.308-4.717-9.746-2.116-19.925-4.142-30.214-6.057a1523.17 1523.17 0 0 0-28.603-5.029 1899.159 1899.159 0 0 0-19.642-3.155c-.272-.04-.544-.08-.806-.13-.726-.111-1.462-.222-2.177-.333a2331.787 2331.787 0 0 0-42.39-6.118c-19.48-2.63-66.798-9.221-67.241-9.292-.363-.04-.625-.363-.565-.705.03-.363.333-.686.706-.625.443.04 87.126 12.054 109.641 15.41.776.11 1.471.221 2.086.312.343.05.665.09.958.141 6.52 1.018 13.242 2.127 20.035 3.255 9.575 1.603 19.34 3.316 28.995 5.12 9.897 1.844 19.693 3.8 29.086 5.835 7.478 1.623 14.694 3.296 21.517 5.02a484.845 484.845 0 0 1 13.737 3.688c8.133 2.328 15.4 4.727 21.477 7.186a.678.678 0 0 1 .362.856z"/></g></g></g></g><g><g><g><g><path fill="#fff" d="M174.977 179.68l-.022-.001c-.018-.39-.218-.743-.23-1.14-.093-3.13-98.579-20.867-101.205-17.517-2.739 3.492-2.697 8.755-2.514 15.954-.238 8.178.738 16.55.738 16.55l53.825 13.984c.474.076 5.776 2.532 6.251 2.464 3.773-.541 43.29-23.597 43.16-27.816z"/></g></g></g><g><g><g><g><path fill="#e8e2e3" d="M142.036 179.424l-4.45-1.012a.706.706 0 0 1-.206-1.295l2.295-1.368a2.421 2.421 0 0 1 1.78-.28l4.59 1.044a.611.611 0 0 1 .178 1.121l-2.58 1.536a2.19 2.19 0 0 1-1.607.254z"/></g></g></g><g><g><g><path fill="#e8e2e3" d="M151.89 181.979l-4.45-1.013a.706.706 0 0 1-.205-1.295l2.295-1.367a2.427 2.427 0 0 1 1.779-.281l4.591 1.044a.611.611 0 0 1 .178 1.12l-2.58 1.538a2.194 2.194 0 0 1-1.608.254z"/></g></g></g><g><g><g><path fill="#e8e2e3" d="M161.377 184.013l-4.452-1.011a.707.707 0 0 1-.204-1.296l2.295-1.367a2.426 2.426 0 0 1 1.78-.281l4.59 1.045a.61.61 0 0 1 .177 1.12l-2.58 1.536a2.186 2.186 0 0 1-1.606.254z"/></g></g></g><g><g><g><path fill="#e8e2e3" d="M133.144 183.755l-4.451-1.013a.706.706 0 0 1-.205-1.295l2.295-1.367a2.426 2.426 0 0 1 1.78-.281l4.59 1.044a.611.611 0 0 1 .178 1.12l-2.58 1.537a2.2 2.2 0 0 1-1.607.255z"/></g></g></g><g><g><g><path fill="#e8e2e3" d="M142.998 186.308l-4.45-1.013a.705.705 0 0 1-.205-1.294l2.295-1.367a2.425 2.425 0 0 1 1.779-.281l4.591 1.045a.611.611 0 0 1 .178 1.12l-2.58 1.536a2.19 2.19 0 0 1-1.608.254z"/></g></g></g><g><g><g><path fill="#e8e2e3" d="M152.484 188.344l-4.45-1.013a.706.706 0 0 1-.205-1.295l2.295-1.366a2.426 2.426 0 0 1 1.78-.282l4.59 1.045a.61.61 0 0 1 .177 1.12l-2.58 1.536a2.193 2.193 0 0 1-1.607.255z"/></g></g></g><g><g><g><path fill="#e8e2e3" d="M124.49 187.691l-4.451-1.013a.706.706 0 0 1-.205-1.295l2.295-1.367a2.426 2.426 0 0 1 1.779-.28l4.592 1.044a.611.611 0 0 1 .177 1.121l-2.581 1.536a2.186 2.186 0 0 1-1.607.254z"/></g></g></g><g><g><g><path fill="#e8e2e3" d="M134.343 190.245l-4.45-1.012a.706.706 0 0 1-.205-1.295l2.296-1.368a2.431 2.431 0 0 1 1.778-.28l4.592 1.044a.61.61 0 0 1 .176 1.121l-2.58 1.536a2.188 2.188 0 0 1-1.607.254z"/></g></g></g><g><g><g><path fill="#e8e2e3" d="M143.83 192.28l-4.451-1.012a.706.706 0 0 1-.205-1.295l2.296-1.367a2.425 2.425 0 0 1 1.779-.281l4.59 1.044a.611.611 0 0 1 .178 1.12l-2.58 1.538a2.194 2.194 0 0 1-1.607.254z"/></g></g></g><g><g><g><path fill="#e8e2e3" d="M116.111 192.02l-4.45-1.011a.706.706 0 0 1-.205-1.295l2.296-1.367a2.416 2.416 0 0 1 1.779-.281l4.591 1.044a.61.61 0 0 1 .177 1.12l-2.58 1.537a2.188 2.188 0 0 1-1.608.254z"/></g></g></g><g><g><g><path fill="#e8e2e3" d="M125.966 194.576l-4.45-1.013a.706.706 0 0 1-.205-1.295l2.296-1.367a2.425 2.425 0 0 1 1.778-.281l4.591 1.044a.611.611 0 0 1 .177 1.12l-2.58 1.538a2.199 2.199 0 0 1-1.607.254z"/></g></g></g><g><g><g><path fill="#e8e2e3" d="M135.452 196.61l-4.45-1.012a.707.707 0 0 1-.205-1.296l2.295-1.366a2.426 2.426 0 0 1 1.779-.281l4.592 1.045a.611.611 0 0 1 .177 1.12l-2.58 1.536a2.19 2.19 0 0 1-1.608.254z"/></g></g></g></g><g><g><g><path fill="#e8e2e3" d="M140.854 199.896a.47.47 0 0 1-.413-.243.475.475 0 0 1 .185-.642c.269-.147 26.88-14.83 30.052-17.593a.471.471 0 1 1 .62.712c-3.247 2.828-29.116 17.1-30.215 17.707a.471.471 0 0 1-.229.059z"/></g></g></g></g><g><g><g><g><g><g><g><g><g><path fill="#f27979" d="M168.062 47.135l.496 28.99c0 8.015-25.033 8.49-25.355-.22l-.83-11.753z"/></g></g></g></g></g></g><g><g><g><g><g><g><g><path fill="#f8b791" d="M128.718 46.903c-.02 1.678-.135 3.21.063 4.849.26 2.13.861 4.268 1.807 6.247 2.513 5.264 7.43 12.14 13.09 12.26 11.601.244 22.3-12.344 19.777-26.79-2.202-12.608-14.181-31.405-17.59-23.656-5.29 12.023-12.333 7.969-16.188 15.437-.808 1.565-1.521 3.51-1.178 7.873.11 1.402.23 2.623.22 3.78z"/></g></g></g></g></g></g><g><g><g><g><g><g><path fill="#002869" d="M145.418 45.812s2.5 3.607 9.174-1.088c.835-.587-2.937.849-5.305 1.187-2.44.349-4.531-.867-3.87-.1z"/></g></g></g></g></g></g><g><g><g><g><g><g><path fill="#002869" d="M129.764 44.392c.618.888 5.867 4.424 7.499.892.428-.927-1.385 1.07-3.681.398-2.366-.695-4.213-1.86-3.818-1.29z"/></g></g></g></g></g></g><g><g><g><g><g><g><g><path fill="#f27979" d="M142.842 55.053c-1.479.162-3.774-.048-4.27-1.773-.219-.758.13-1.437.442-2.117.795-1.735 1.506-3.329 1.322-5.301-.024-.26.375-.345.4-.084.175 1.886-.38 3.458-1.161 5.151-.46.993-1.024 1.884-.165 2.88.78.903 2.242.965 3.348.845.26-.028.345.371.084.4z"/></g></g></g></g></g></g></g><g><g><g><g><g><g><path fill="#f27979" d="M147.21 59.886c1.8 1.967-4.871-.804-9.01.242"/></g></g></g></g></g></g></g></g><g><g><g><g><path fill="#f8b791" d="M138.598 46.074c.53-3.093 3.636-11.78 1.782-12.06-1.557-.236-4.156 6.02-4.652 8.22.499-2.293 3.818-12.046 1.196-11.79-1.923.188-4.696 11.582-5.023 13.106.125-.744 3.173-11.582 1.247-11.255-2.233.379-4.201 10.317-4.529 11.84.15-.94 3.052-10.17.66-9.654-1.482.319-3.879 8.03-4.216 9.553-2.667 12.045-.437 22.53 1.718 25.609l9.03.615c1.864-3.956 1.697-17.843 2.787-24.184z"/></g></g><g><g><path fill="#f27979" d="M126.885 69.46c-1.932-2.877-4.353-13.12-1.638-25.386.397-1.793 2.793-9.133 4.072-9.408.242-.053.36.031.427.1.46.484.305 2.15-.026 3.914a84.67 84.67 0 0 0-1.218 5.097l-.02.094c-.025.101-.04.18-.049.235-.017.101.05.197.151.216.109.018.2-.046.22-.146l.047-.22c.05-.212.135-.533.234-.909.4-1.517.768-3.01 1.015-4.322 1.417-5.107 2.496-6.145 3.079-6.244.088-.013.142.005.195.06.7.757-.343 5.546-1.043 8.45a107.19 107.19 0 0 0-.617 2.528.19.19 0 0 0 .372.07l.048-.218c.042-.177.109-.44.187-.76.166-.66.33-1.325.485-1.982 1.118-4.227 2.95-9.881 4.136-9.996.215-.025.37.037.492.181.943 1.124-.554 6.488-1.358 9.372-.244.875-.437 1.566-.533 2.007a.189.189 0 0 0 .37.082c.535-2.37 3.121-8.273 4.439-8.074a.34.34 0 0 1 .242.166c.621.95-.476 5.023-1.279 7.997-.386 1.435-.751 2.791-.904 3.677-.43 2.513-.662 6.14-.907 9.982-.363 5.704-.74 11.6-1.81 14.039l-8.809-.602zm8.926.989a.19.19 0 0 0 .172-.109c1.143-2.428 1.527-8.46 1.898-14.293.244-3.83.475-7.449.903-9.942.15-.868.513-2.216.897-3.643.911-3.38 1.943-7.21 1.23-8.303a.715.715 0 0 0-.503-.333c-1.062-.16-2.356 1.999-3.358 4.22.898-3.437 1.487-6.504.674-7.476-.2-.239-.488-.345-.818-.314-1.028.1-2.197 2.858-3.165 5.832.299-1.895.345-3.333-.09-3.803a.575.575 0 0 0-.535-.177c-.885.15-1.793 1.604-2.716 4.336.045-.917-.06-1.602-.38-1.938-.137-.144-.388-.296-.78-.21-1.735.373-4.196 8.952-4.362 9.696-2.552 11.53-.624 22.368 1.748 25.76a.187.187 0 0 0 .142.079l9.031.617z"/></g></g></g></g><g><g><g><g><path fill="#f8b791" d="M161.72 62.749c1.55-3.35 1.633-7.635 2.618-9.47 2.205-4.108 3.311-6.17 2.783-6.968-2.14-3.222-6.864 7.954-9.435 7.225-.904-.822-.933-4.555-.67-7.16.318-3.121 3.637-11.779 1.784-12.06-1.557-.236-4.155 6.021-4.652 8.22.499-2.292 3.818-12.044 1.196-11.79-1.923.19-4.696 11.583-5.023 13.106.125-.742 3.173-11.582 1.247-11.254-2.233.379-4.201 10.316-4.529 11.84.15-.94 3.051-10.17.66-9.654-1.482.32-4.22 9.279-4.55 10.802-1.457 6.718-.36 23.133 1.31 25.156l10.66 4.05s2.498-3.942 3.432-5.944c1.167-2.502 2.587-4.842 3.168-6.099z"/></g></g><g><g><path fill="#f27979" d="M144.575 70.584c-1.625-2.15-2.692-18.275-1.242-24.958.461-2.128 3.141-10.385 4.406-10.658.243-.053.36.033.427.102.46.483.304 2.149-.026 3.912a84.172 84.172 0 0 0-1.219 5.098l-.02.095c-.024.1-.04.178-.048.235-.017.1.05.196.151.215.106.015.2-.047.22-.147l.047-.219c.05-.212.134-.533.234-.909.4-1.517.768-3.01 1.015-4.322 1.417-5.107 2.496-6.145 3.079-6.244.087-.014.142.005.194.06.702.758-.343 5.549-1.042 8.453-.228.88-.4 1.6-.505 2.041a8.84 8.84 0 0 0-.112.483.19.19 0 0 0 .153.218c.1.02.198-.046.22-.146.014-.072.03-.145.047-.22.042-.176.109-.44.188-.761.164-.658.328-1.322.484-1.977 1.118-4.228 2.95-9.884 4.136-10 .213-.023.37.037.492.181.943 1.124-.554 6.49-1.359 9.372-.244.876-.436 1.566-.532 2.009a.19.19 0 0 0 .37.081c.535-2.37 3.13-8.275 4.438-8.074a.324.324 0 0 1 .233.157c.552.842-.375 4.303-1.12 7.084-.486 1.815-.945 3.53-1.055 4.612-.214 2.107-.338 6.348.73 7.319.022.019.047.034.076.04 1.283.365 2.882-1.729 4.571-3.946 1.444-1.894 2.937-3.854 3.987-3.854h.027c.283.01.525.174.743.501.468.702-.69 2.857-2.79 6.773-.464.86-.725 2.206-1.029 3.764-.356 1.833-.761 3.911-1.596 5.715-.242.525-.638 1.25-1.095 2.089-.622 1.14-1.395 2.558-2.075 4.01-.822 1.763-2.898 5.093-3.337 5.792l-10.466-3.976zm10.543 4.397a.192.192 0 0 0 .16-.088c.025-.039 2.516-3.976 3.444-5.964.672-1.442 1.443-2.855 2.062-3.99.462-.846.86-1.574 1.108-2.11.853-1.846 1.263-3.948 1.623-5.802.298-1.53.556-2.849.99-3.659 2.311-4.305 3.366-6.27 2.774-7.16-.287-.432-.638-.656-1.046-.67-1.26-.052-2.744 1.923-4.328 4.003-1.445 1.898-3.082 4.056-4.123 3.823-.756-.777-.863-4.147-.576-6.969.106-1.051.562-2.751 1.043-4.552.844-3.149 1.717-6.405 1.072-7.39a.695.695 0 0 0-.493-.323c-1.064-.156-2.356 1.997-3.36 4.22.9-3.44 1.49-6.506.676-7.476-.2-.24-.487-.346-.82-.316-1.027.1-2.195 2.86-3.163 5.833.299-1.894.345-3.334-.09-3.803a.572.572 0 0 0-.535-.177c-.885.15-1.793 1.603-2.716 4.336.045-.917-.06-1.602-.38-1.938-.137-.143-.386-.296-.78-.21-1.761.38-4.542 10.235-4.696 10.947-1.473 6.79-.33 23.283 1.35 25.316a.176.176 0 0 0 .078.056l10.659 4.05c.022.009.045.013.067.013z"/></g></g></g></g><g><g><g><g><path fill="#ca4233" d="M142.303 68.13c-.929 8.306-6.867 54.988 7.846 82.227 3.139 5.813 8.09 10.617 13.26 14.11 37.968 25.671 80.169-42.502 33.768-89.795 0 0-15.042 31.196-24.022 28.507-8.256-2.471-7.447-3.377-13.665-34.61-.75-3.772-16.814-3.78-17.187-.44z"/></g></g></g><g><g><g><path fill="#ca4233" d="M139.403 68.848c1.127 10.08 14.661 80.073-16.504 85.216-55.744 9.2-40.907-67.74-7.044-81.137 0 0-1.28 9.904 6.796 12.468-.587.519-8.683 11.361-5.048-3.854.77-3.226 2.15-7.625 4.15-13.54 1.232-3.644 17.277-2.493 17.65.847z"/></g></g></g><g><g><g><g><g><path fill="#002869" d="M116.772 81.197c-3.82 13.255-10.03 25.592-12.627 39.16-.102.534.718.764.82.225 2.599-13.566 8.818-25.788 12.638-39.041.152-.527-.32-2.11-.473-1.582z"/></g></g></g></g><g><g><g><g><path fill="#002869" d="M163.429 88.19c2.144 7.2 5.48 13.845 9.13 20.389 3.138 5.628 6.994 11.362 8.316 17.759.111.535.931.308.82-.227-1.151-5.571-4.258-10.583-7.01-15.483-4.097-7.292-8.036-14.609-10.436-22.664-.156-.524-.978-.3-.82.227z"/></g></g></g></g><g><g><g><g><path fill="#002869" d="M141.457 122.3c.732 11.912-4.126 24.919-15.645 30.021-.501.222.072 1.55.574 1.327 11.894-5.27 16.5-18.869 15.744-31.181-.033-.549-.706-.712-.673-.167z"/></g></g></g></g><g><g><g><g><path fill="#002869" d="M141.885 82.33c-2.07 20.525-2.797 43.856 5.277 63.305 4.844 11.665 15.73 22.222 28.73 24.035 7.9 1.102 14.38.22 21.267-4.96.433-.326.207-1.158-.227-.82-13.888 10.796-35.418 4.111-45.17-11.759-12.521-20.373-11.314-47.115-9.026-69.8.055-.545-.796-.541-.85 0z"/></g></g></g></g></g></g><g><g><g><g><g><path fill="#243936" d="M140.328 10.734s26.39-25.822 48.249 4.874c9 12.64 17.075 7.01 18.88 19.851 1.21 8.612-5.524 16.065 3.285 24.203 10.318 9.534 5.194 30.458-10.962 27.437-13.285-2.483-18.467 10.139-29.944 8.7-6.717-.843-16.472-5.738-9.945-19.064 8.857-18.08-4.529-12.402.704-29.497.196-.641.321-1.313.49-1.986.484-2.237.615-4.308-.4-6.27-3.019-5.842-20.808-1.05-17.857-15.4 2.787-13.56-2.5-12.848-2.5-12.848z"/></g></g></g></g></g></g><g><g><g><g><path fill="#243936" d="M206.818 91.89a.528.528 0 0 0 .07-.03c14.545-7.217 10.389-16.437 5.573-27.111-.502-1.111-1.588-.626-1.084.49 4.934 10.942 8.5 18.848-5.018 25.556a.596.596 0 0 0 .459 1.094z"/></g></g></g></g><g><g><g><g><path fill="#243936" d="M107.598 75.873a.594.594 0 0 1-.074-1.065c8.629-4.979 7.041-17.329 7.023-17.453a.596.596 0 0 1 1.18-.161c.018.132 1.707 13.27-7.609 18.644a.593.593 0 0 1-.52.035z"/></g></g></g></g><g><g><g><g><path fill="#243936" d="M117.41 19.482a.596.596 0 0 1-.383-.853c5.516-10.577 15.758-11.331 16.745-11.083a.587.587 0 0 1 .427.712.6.6 0 0 1-.716.441c-.906-.203-10.309.715-15.4 10.48a.596.596 0 0 1-.673.303z"/></g></g></g></g></g><g><g><g><g><path fill="#fff" d="M131.372 135.426c-.893-5.647-100.872-22.072-101.947-17.953-1.867 7.163-1.659 65.843-1.659 65.843-1.384.07-1.276 7.192.054 7.58 8.953 2.618 95.235 19.863 104 19.078 1.19-.107.652-4.238.021-5.252 0 0 1.114-59.278-.47-69.296z"/></g></g></g><g><g><g><path fill="#e8e2e3" d="M33.477 120.76c2.615-1.67 44.47 4.712 74.037 11.31 18.433 4.11 20.07 5.704 20.208 5.994 1.335 6.504.065 60.516-.007 63.517-1.622.753-16.857-1.092-47.034-7.053-24.49-4.838-45.365-9.786-46.534-11.03-.813-.93-2.513-8.737-.727-61.021l.057-1.718zm92.634 81.901c.883 0 1.53-.062 1.903-.193.54-.19.634-.536.64-.732.058-2.33 1.382-57.157-.008-63.873-.988-4.777-82.51-19.245-94.238-18.234-.552.048-1.845.16-1.87 1l-.062 1.816c-1.321 38.686-.998 59.436.96 61.675 1.666 1.905 30.816 8.108 45.996 11.123 18.91 3.756 39.87 7.418 46.679 7.418z"/></g></g></g></g></g></g></svg>