<svg xmlns="http://www.w3.org/2000/svg" xmlns:xlink="http://www.w3.org/1999/xlink" width="34" height="34" viewBox="0 0 34 34"><use xlink:href="#B" fill="#1d1d1b"/><use xlink:href="#B" fill="none" stroke="#1d1d1b" stroke-miterlimit="20" stroke-width=".5"/><defs ><path id="B" d="M10.03 24.832c.226-2.75 3.142-4.785 6.97-4.785s6.744 2.035 6.97 4.785a10.445 10.445 0 0 1-13.94 0zm2.996-10.251a3.974 3.974 0 0 1 7.948 0 3.974 3.974 0 0 1-7.948 0zM17 6.5c5.79 0 10.5 4.71 10.5 10.5 0 2.455-.853 4.71-2.27 6.5-.65-2.097-2.508-3.74-5.028-4.495a5.455 5.455 0 0 0 2.272-4.424A5.476 5.476 0 0 0 17 9.114a5.476 5.476 0 0 0-5.474 5.467c0 1.82.899 3.43 2.272 4.424-2.52.756-4.377 2.398-5.028 4.496A10.44 10.44 0 0 1 6.5 17c0-5.79 4.71-10.5 10.5-10.5zM29 17c0-6.617-5.383-12-12-12S5 10.383 5 17c0 3.384 1.413 6.439 3.674 8.622a.732.732 0 0 0 .189.172C11.003 27.777 13.858 29 17 29s5.996-1.223 8.137-3.206a.732.732 0 0 0 .19-.172A11.957 11.957 0 0 0 29 17z"/></defs></svg>