<svg xmlns="http://www.w3.org/2000/svg" width="16" height="16" viewBox="0 0 16 16"><g><g><path fill="#bababa" d="M16 14.77c0 .333-.122.621-.365.865a1.183 1.183 0 0 1-.866.365c-.346 0-.634-.122-.865-.365l-3.298-3.289a6.585 6.585 0 0 1-3.837 1.192 6.651 6.651 0 0 1-2.63-.533 6.768 6.768 0 0 1-2.163-1.442A6.768 6.768 0 0 1 .534 9.399 6.652 6.652 0 0 1 0 6.769c0-.916.178-1.793.534-2.63a6.768 6.768 0 0 1 1.442-2.163A6.768 6.768 0 0 1 4.139.534 6.652 6.652 0 0 1 6.77 0c.917 0 1.793.178 2.63.534a6.768 6.768 0 0 1 2.163 1.442 6.768 6.768 0 0 1 1.443 2.163c.356.837.533 1.714.533 2.63 0 1.41-.397 2.69-1.192 3.837l3.298 3.298c.237.237.356.525.356.865zm-4.923-8c0-1.187-.422-2.201-1.265-3.044-.842-.843-1.857-1.264-3.043-1.264-1.186 0-2.2.421-3.043 1.264S2.462 5.583 2.462 6.769c0 1.186.421 2.2 1.264 3.044.843.842 1.857 1.264 3.043 1.264 1.186 0 2.2-.422 3.044-1.265.842-.842 1.264-1.857 1.264-3.043z"/></g></g></svg>