<svg xmlns="http://www.w3.org/2000/svg" width="22" height="22" viewBox="0 0 22 22"><defs><clipPath id="A"><path fill="#fff" d="M11 22C4.925 22 0 17.075 0 11S4.925 0 11 0s11 4.925 11 11-4.925 11-11 11z"/></clipPath><clipPath id="B"><path fill="#fff" d="M11 22a7 7 0 0 1 0-14 7 7 0 0 1 0 14z"/></clipPath></defs><g fill="none" stroke="currentColor" stroke-miterlimit="20" stroke-width="4"><path d="M11 22C4.925 22 0 17.075 0 11v0C0 4.925 4.925 0 11 0h0c6.075 0 11 4.925 11 11v0c0 6.075-4.925 11-11 11z" clip-path="url(#A)"/><path d="M11 22a7 7 0 0 1-7-7v0a7 7 0 0 1 7-7v0a7 7 0 0 1 7 7v0a7 7 0 0 1-7 7z" clip-path="url(#B)"/></g></svg>