<svg xmlns="http://www.w3.org/2000/svg" width="24" height="24" viewBox="0 0 24 24"><defs><clipPath id="A"><path fill="#fff" d="M12 19a7 7 0 0 1 0-14 7 7 0 0 1 0 14z"/></clipPath></defs><path fill="none" stroke="currentColor" stroke-miterlimit="20" stroke-width="4" d="M12 19a7 7 0 0 1-7-7v0a7 7 0 0 1 7-7v0a7 7 0 0 1 7 7v0a7 7 0 0 1-7 7z" clip-path="url(#A)"/><path d="M12 4a1 1 0 0 1-1-1V1a1 1 0 0 1 2 0v2a1 1 0 0 1-1 1zm0 20a1 1 0 0 1-1-1v-2a1 1 0 0 1 2 0v2a1 1 0 0 1-1 1zM4 12a1 1 0 0 1-1 1H1a1 1 0 1 1 0-2h2a1 1 0 0 1 1 1zm20 0a1 1 0 0 1-1 1h-2a1 1 0 1 1 0-2h2a1 1 0 0 1 1 1zM6.346 17.656a1 1 0 0 1 0 1.414l-1.414 1.414a1 1 0 0 1-1.414-1.414l1.414-1.414a1 1 0 0 1 1.414 0zm14.137-14.14a1 1 0 0 1 0 1.414l-1.414 1.414a1 1 0 1 1-1.414-1.414l1.414-1.414a1 1 0 0 1 1.414 0zM6.343 6.344a1 1 0 0 1-1.414 0L3.514 4.93a1 1 0 0 1 1.414-1.414L6.343 4.93a1 1 0 0 1 0 1.414zm14.143 14.14a1 1 0 0 1-1.414 0l-1.414-1.414a1 1 0 0 1 1.414-1.414l1.414 1.414a1 1 0 0 1 0 1.414z" fill="currentColor"/></svg>