<svg xmlns="http://www.w3.org/2000/svg" width="41" height="41" viewBox="0 0 41 41"><defs><mask id="2ttjb" width="2" height="2" x="-1" y="-1"><path fill="#fff" d="M3 2h35v35H3z"/><path d="M3 19.5C3 9.835 10.835 2 20.5 2S38 9.835 38 19.5 30.165 37 20.5 37 3 29.165 3 19.5z"/></mask><filter id="2ttja" width="61" height="62" x="-10" y="-11" filterUnits="userSpaceOnUse"><feOffset dy="1" in="SourceGraphic" result="FeOffset1046Out"/><feGaussianBlur in="FeOffset1046Out" result="FeGaussianBlur1047Out" stdDeviation="1.2 1.2"/></filter></defs><g><g><g><g filter="url(#2ttja)"><path fill="none" d="M3 19.5C3 9.835 10.835 2 20.5 2S38 9.835 38 19.5 30.165 37 20.5 37 3 29.165 3 19.5z" mask="url(&quot;#2ttjb&quot;)"/><path fill-opacity=".16" d="M3 19.5C3 9.835 10.835 2 20.5 2S38 9.835 38 19.5 30.165 37 20.5 37 3 29.165 3 19.5z"/></g><path fill="#fff" d="M3 19.5C3 9.835 10.835 2 20.5 2S38 9.835 38 19.5 30.165 37 20.5 37 3 29.165 3 19.5z"/></g><g><path fill="#ca4233" d="M27.044 18.642L16.7 12.485a.78.78 0 0 0-.405-.118.741.741 0 0 0-.736.743h-.003v12.78h.003c0 .41.331.743.736.743a.85.85 0 0 0 .416-.126l10.333-6.149a1.12 1.12 0 0 0 0-1.716z"/></g></g></g></svg>