<svg xmlns="http://www.w3.org/2000/svg" width="41" height="41" viewBox="0 0 41 41"><defs><mask id="cdb3b" width="2" height="2" x="-1" y="-1"><path fill="#fff" d="M3 2h35v35H3z"/><path d="M3 19.5C3 9.835 10.835 2 20.5 2S38 9.835 38 19.5 30.165 37 20.5 37 3 29.165 3 19.5z"/></mask><filter id="cdb3a" width="61" height="62" x="-10" y="-11" filterUnits="userSpaceOnUse"><feOffset dy="1" in="SourceGraphic" result="FeOffset1034Out"/><feGaussianBlur in="FeOffset1034Out" result="FeGaussianBlur1035Out" stdDeviation="1.2 1.2"/></filter></defs><g><g><g><g filter="url(#cdb3a)"><path fill="none" d="M3 19.5C3 9.835 10.835 2 20.5 2S38 9.835 38 19.5 30.165 37 20.5 37 3 29.165 3 19.5z" mask="url(&quot;#cdb3b&quot;)"/><path fill-opacity=".16" d="M3 19.5C3 9.835 10.835 2 20.5 2S38 9.835 38 19.5 30.165 37 20.5 37 3 29.165 3 19.5z"/></g><path fill="#fff" d="M3 19.5C3 9.835 10.835 2 20.5 2S38 9.835 38 19.5 30.165 37 20.5 37 3 29.165 3 19.5z"/></g></g><g><g><g><g><path fill="#ca4233" d="M23.449 16.836h-4.72v-1.522a2.371 2.371 0 0 1 2.36-2.36 2.371 2.371 0 0 1 2.36 2.36zm-2.36 6.85a1.527 1.527 0 0 1-1.522-1.522c0-.837.685-1.522 1.522-1.522s1.522.685 1.522 1.522-.685 1.522-1.522 1.522zm3.806-6.85v-1.522a3.769 3.769 0 0 0-3.806-3.806 3.769 3.769 0 0 0-3.806 3.806v1.522h-.76c-.838 0-1.523.685-1.523 1.522v7.612c0 .837.685 1.522 1.522 1.522h9.134c.837 0 1.522-.685 1.522-1.522v-7.612c0-.837-.685-1.522-1.522-1.522z"/></g></g></g></g></g></svg>