<svg xmlns="http://www.w3.org/2000/svg" width="22" height="22" viewBox="0 0 22 22"><defs><clipPath id="A"><path fill="#fff" d="M4 22a4 4 0 0 1-4-4V4a4 4 0 0 1 4-4h14a4 4 0 0 1 4 4v14a4 4 0 0 1-4 4z"/></clipPath></defs><path fill="none" stroke="currentColor" stroke-miterlimit="20" stroke-width="4" d="M4 22a4 4 0 0 1-4-4V4a4 4 0 0 1 4-4h14a4 4 0 0 1 4 4v14a4 4 0 0 1-4 4z" clip-path="url(#A)"/><path fill="currentColor" d="M9.648 15a.93.93 0 0 1-.66-.27L5.27 11.012a.933.933 0 1 1 1.32-1.32l3.06 3.067 5.847-5.857a.933.933 0 1 1 1.32 1.32l-6.508 6.508a.93.93 0 0 1-.66.27z"/></svg>