<svg xmlns="http://www.w3.org/2000/svg" width="27" height="36" viewBox="0 0 27 36"><g><g><path fill="#ca4233" d="M18.737 12.207H8.27V8.83c0-2.87 2.363-5.233 5.233-5.233 2.87 0 5.233 2.363 5.233 5.233zm-5.233 15.192a3.386 3.386 0 0 1-3.376-3.376 3.386 3.386 0 0 1 3.376-3.376 3.386 3.386 0 0 1 3.376 3.376 3.386 3.386 0 0 1-3.376 3.376zm10.128-15.192h-1.688V8.83c0-4.727-3.713-8.44-8.44-8.44-4.726 0-8.44 3.713-8.44 8.44v3.376H3.376A3.386 3.386 0 0 0 0 15.583v16.88a3.386 3.386 0 0 0 3.376 3.376h20.256a3.386 3.386 0 0 0 3.376-3.376v-16.88a3.386 3.386 0 0 0-3.376-3.376z"/></g></g></svg>