<svg xmlns="http://www.w3.org/2000/svg" width="608" height="423" viewBox="0 0 608 423"><g><g><g><g><path fill="#002869" d="M510.736 244.965c-23.134-.684-47.52-5.178-60.82-25.19-23.726-35.7-6.819-88.198-88.299-126.687-60.874-28.755-64.64-109.185-133.488-88.913-56.954-5.63-59.999 54.867-71.576 77.148-18.14 34.912-52.83 40.023-57.553 101.321-2.546 33.035-1.987 52.697-25.89 67.671-35.405 22.18-53.607 30.355-51.046 64.01 1.874 24.641 34.45 38.903 77.136 44.76 43.013 5.903 70.44 11.17 90.68 33.222 36.97 40.282 75.835 37.276 127.178 11.423 33.337-16.785 66.061-13.304 120.03-4.208 53.51 9.018 55.807-53.87 100.698-60.408 46.268-6.739 56.183-31.192 53.648-51.817-2.359-19.194-26.904-40.743-80.699-42.332z"/></g><g><path fill="#a9d3e1" d="M307.507 157.269c7.843 75.571-24.012 127.944-78.464 128.031-54.452.087-63.43-34.067-70.748-31.554-11.879 4.078-11.297-38.647-10.153-57.42 3.425-56.18 24.1-122.428 91.48-112.557 46.167 6.764 62.666 23.212 67.885 73.5z"/></g><g><g><path fill="#016099" d="M185.352 243.947s89.69-27.636 119.85-123.254c12.16-38.548 32.69 38.023 27.402 106.38-2.337 30.214-9.837 56.183-24.036 76.745-24.432 35.383-120.19 48.302-123.216-59.871z"/></g><g><path fill="#016099" d="M353.504 294.084S246.007 104.91 319.678 106.881c53.872 1.441 58.887 181.066 58.887 181.066.682 5.455-23.356 8.78-25.061 6.137z"/></g><g><path fill="#016099" d="M158.3 253.745s74.261-26.764 104.421-122.382c0 0 38.093.74 38.155 85.027.006 7.704-4.28 66.998-35.167 102.288-29.476 33.677-113.565 21.94-107.409-64.933z"/></g></g><g><path fill="#fdb98d" d="M311.842 264.42c3.628-.676 9.815-2.295 10.289-3.942.768-2.666-12.27 1.129-17.602-.15-3.914-.938-9.608-4.395-9.766-5.676.58-3.89 12.653-3.77 14.808-6.433 1.298-1.604-2.29-2.711-9.406-1.292-6.456 1.287-9.133-.73-14.868-.529-2.151.075-6.348.407-10.638.57-3.43.13-9.125-3.343-9.125-3.343l-3.176 16.075c2.596 2.132 26.685 17.709 37.29 18.247 11.914.606 19.97-3.123 21.355-4.946.691-.91-3.001-1.298-4.906-1.115 3.764-1.042 7.695-2.064 8.483-3.203 1.021-1.474-6.108-1-11.702-.018 5.245-1.27 11.97-2.755 12.872-4.278 1.586-2.68-8.565-.739-13.908.033z"/></g><g><path fill="#016099" d="M327.859 316.926S205.88 127.384 284.074 113.462c56.2-10.006 69.357 196.919 69.357 196.919 1.278 7.578-21.956 9.515-25.572 6.545z"/></g><g><path fill="#a9d3e1" d="M269.886 271.057c-34.89-13.59-70.89-20.36-96.127-46.383-9.261-9.55-17.484-24.756-19.221-44.37a66.892 66.892 0 0 1-.255-3.104c-2.779-45.574 24.261-98.774 85.339-95.754l-19.737 47.64c10.583 20.75 1.199 45.023 11.18 57.041 19.87 23.946 33.112 50.18 48.043 56.037 4.23 1.66-3.941 30.95-9.222 28.893z"/></g><g><g><g><path fill="#016099" d="M184.436 235.29a.889.889 0 0 1-.536-.18c-22.898-17.374-29.699-52.5-29.765-52.853a.888.888 0 0 1 1.745-.326c.065.345 6.749 34.81 29.094 51.763a.888.888 0 0 1-.538 1.596z"/></g></g></g><g><g><path fill="#002869" d="M350.176 276.228a.903.903 0 0 1-.898-.82c-7.427-81.437-27.06-144.652-48.854-157.304a.903.903 0 0 1 .906-1.562c22.276 12.933 42.267 76.71 49.745 158.703a.902.902 0 0 1-.817.98l-.082.003z"/></g><g><g><path fill="#002869" d="M284.918 241.235a.889.889 0 0 1-.785-.475c-14.15-26.962-24.155-59.169-27.448-88.36a.888.888 0 1 1 1.765-.199c3.27 28.981 13.204 60.958 27.256 87.733a.89.89 0 0 1-.788 1.301z"/></g></g><g><path fill="#002869" d="M194.001 394.416c-26.575-17.265-60.93-21.348-94.155-25.295-42.873-5.096-83.369-9.908-96.197-44.246-10.04-26.876 2.492-48.136 43.251-73.379 32.753-20.287 37.488-45.856 42.502-72.927 1.42-7.664 2.887-15.59 5.019-23.488 4.843-17.937 15.973-26.886 28.86-37.25 13.474-10.836 28.745-23.117 42.748-48.839l1.583.863c-14.174 26.039-29.595 38.44-43.2 49.381-13.163 10.585-23.56 18.946-28.249 36.315-2.114 7.83-3.575 15.717-4.988 23.347-5.088 27.473-9.894 53.424-43.326 74.13C7.983 277.72-4.333 298.352 5.34 324.245c12.442 33.308 52.408 38.057 94.72 43.085 33.429 3.973 67.997 8.08 94.926 25.576z"/></g><g><path fill="#002869" d="M438.448 407.71c-12.027 0-24.75-3.277-38.598-6.844-32.413-8.341-69.15-17.804-118.095 6.745l-.808-1.613c49.545-24.85 88.251-14.882 119.352-6.877 35.159 9.05 62.93 16.203 90.413-29.278 18.397-30.446 41.639-32.762 62.145-34.807 18.546-1.85 36.063-3.595 47.495-25.704 6.649-12.86 6.818-25.699.49-37.125-10.824-19.54-39.14-32.998-75.748-36.003l-2.147-.172c-23.855-1.914-59.904-4.804-76.854-48.828-23.878-62.02-54.455-75.784-81.43-87.928-1.362-.613-2.713-1.222-4.05-1.83l.747-1.642c1.335.608 2.684 1.214 4.042 1.826 27.295 12.288 58.23 26.215 82.375 88.926 16.542 42.965 51.91 45.801 75.314 47.677l2.15.174c37.21 3.053 66.06 16.857 77.177 36.924 6.637 11.982 6.477 25.407-.464 38.829-11.882 22.977-29.871 24.772-48.917 26.67-21.066 2.1-42.851 4.274-60.782 33.947-17.303 28.633-34.672 36.93-53.807 36.933z"/></g></g></g><g><g><path fill="#002869" d="M377.86 273.214c-1.262 7.87-21.855 6.382-26.389 5.957a1.805 1.805 0 0 0-1.481.574c-12.72 13.466-38.254 8.18-43.309 1.525-.356-.47-1-.568-1.502-.26-45.277 27.628-138.068 9.392-147.2-21.608-32.282 41.565 22.663 74.647 63.08 81.841 61.126 10.88 85.01 4.95 90.677-13.74 18.326 17.438 62.212 2.114 73.329-9.11 15.932-16.087 2.393-66.963-7.205-45.179z"/></g></g><g><g><path fill="#016099" d="M247.62 330.342c-40.06 0-81.6-13.351-103.824-32.662-15.046-13.073-20.519-27.925-15.826-42.947a.902.902 0 0 1 1.72.539c-4.462 14.284.826 28.48 15.29 41.047 33.229 28.873 110.196 44.259 159.627 20.815.873-.414 1.747-.862 2.625-1.31 4.114-2.102 8.366-4.278 13.01-3.425 38.233 7.03 68.75-1.214 90.706-24.489a.9.9 0 1 1 1.31 1.236c-22.4 23.753-53.475 32.165-92.342 25.028-4.047-.746-8.018 1.29-11.863 3.256-.894.457-1.785.912-2.673 1.334-16.981 8.052-37.176 11.578-57.76 11.578z"/></g></g><g><g><g><g><g><g><g><g><g><path fill="#ed715d" d="M219.775 54.374L213.2 96.786c-1.205 10.939 36.809 12.992 38.558 1.15v-16.91z"/></g></g></g></g></g></g></g></g><g><g><g><g><g><g><g><g><g><g><g><path fill="#fdb98d" d="M266.386 50.886c.358 2.277.817 4.338.872 6.602a27.843 27.843 0 0 1-1.22 8.848c-2.376 7.65-6.601 17.985-14.28 19.2-16.432 2.602-35.58-12.095-35.007-32.227.5-17.569 14.813-45.706 20.977-35.85 9.565 15.296 18.337 8.393 25.051 17.78 1.407 1.967 2.76 4.47 3.157 10.466.128 1.927.205 3.611.45 5.181z"/></g></g></g></g></g></g></g></g><g><g><g><g><g><g><g><g><path fill="#ed715d" d="M238.992 62.997a7.743 7.743 0 1 1-15.378 1.826 7.743 7.743 0 0 1 15.378-1.826z"/></g></g></g></g></g></g></g></g><g><g><g><g><g><g><g><g><path fill="#ed715d" d="M267.258 57.488c.067 2.945-.17 5.964-1.22 8.848-3.567-.327-6.548-3.101-6.987-6.801a7.741 7.741 0 0 1 6.775-8.602c.192-.023.376-.035.56-.047.358 2.277.817 4.338.872 6.602z"/></g></g></g></g></g></g></g></g></g><g><g><g><g><g><path fill="#ed715d" d="M255.9 71.602a.424.424 0 0 1-.64.16c-5.182-3.904-9.656 1.006-9.844 1.217a.424.424 0 1 1-.635-.563c.052-.057 5.177-5.71 10.989-1.33a.423.423 0 0 1 .13.516z"/></g></g></g></g><g><g><g><g><path fill="#ed715d" d="M253.668 62.476a2.88 2.88 0 0 1-.336.554c-1.127 1.47-3.595 1.939-5.739 1.093a.422.422 0 0 1-.238-.55c.078-.23.332-.325.55-.238 2.056.812 3.984.182 4.754-.82.615-.795.523-1.8-.24-2.83-3.87-5.224-4.055-8.845-4.06-8.997a.423.423 0 0 1 .846-.034c.002.034.197 3.536 3.895 8.526.835 1.127 1.029 2.296.568 3.296z"/></g></g></g></g><g><g><g><g><path fill="#002869" d="M242.745 51.452a.413.413 0 0 1-.116.15c-5.957 4.91-12.611-.07-12.679-.122a.424.424 0 1 1 .516-.674c.25.191 6.192 4.62 11.624.142a.424.424 0 0 1 .655.504z"/></g></g></g></g><g><g><g><g><path fill="#002869" d="M264.465 46.845a.457.457 0 0 1-.093.13c-5.606 5.328-10.523 2.377-10.573 2.346a.414.414 0 0 1-.136-.582.423.423 0 0 1 .582-.138c.179.109 4.428 2.62 9.543-2.241a.426.426 0 0 1 .677.485z"/></g></g></g></g></g></g><g><g><g><g><g><g><g><path fill="#012869" d="M243.457 4.027s-24.015 3.857-56.46 44.177c-10.657 13.244-26.072 84.97-26.072 84.97 9.805-23.251 39.014-13.976 54.538-31.45 10.13-11.403 8.713-30.07 8.606-51.56-.092-18.23 21.078-11.857 19.909-28.965-1.295-18.965-.521-17.172-.521-17.172z"/></g></g></g></g></g></g></g></g></g></g></g></svg>