<svg xmlns="http://www.w3.org/2000/svg" xmlns:xlink="http://www.w3.org/1999/xlink" width="311" height="237" viewBox="0 0 311 237">
  <defs>
    <linearGradient id="linear-gradient" x1="0.101" y1="0.069" x2="0.94" y2="0.958" gradientUnits="objectBoundingBox">
      <stop offset="0" stop-color="#ffd1a0"/>
      <stop offset="1" stop-color="#ffdfdf"/>
    </linearGradient>
    <clipPath id="clip-path">
      <path id="Rectangle_58" data-name="Rectangle 58" d="M20,0H281a30,30,0,0,1,30,30V217a20,20,0,0,1-20,20H30A30,30,0,0,1,0,207V20A20,20,0,0,1,20,0Z" transform="translate(32 958)" fill="url(#linear-gradient)"/>
    </clipPath>
  </defs>
  <g id="Mask_Group_3" data-name="Mask Group 3" transform="translate(-32 -958)" clip-path="url(#clip-path)">
    <g id="Group_175" data-name="Group 175" transform="translate(27.239 951.261)">
      <path id="Path_113" data-name="Path 113" d="M1255.019,568.977a17.128,17.128,0,0,1,7.808,13.313c.547,5.955-1.5,12.7,2.085,17.481,4.445,5.93,14.338,4.429,19.649,9.6,2.85,2.773,3.815,7.086,3.252,11.023a26.631,26.631,0,0,1-4.7,10.856c-2.392,3.555-5.317,7.315-4.893,11.579.459,4.622,4.724,8,5.953,12.477,1.655,6.035-3.116,12.542-9.145,14.219s-12.6-.6-17.554-4.421c-7.042-5.427-12.4-14.207-21.206-15.453-9.4-1.33-18.372,6.85-27.684,5.009a24.893,24.893,0,0,1-6.529-2.592c-3.2-1.662-6.458-3.518-8.538-6.462-4.008-5.674-1.755-14.695,4.45-17.818a6.657,6.657,0,0,0,2.645-1.747,4.271,4.271,0,0,0,.589-2.71,11.571,11.571,0,0,0-2.926-7.1c-1.626-1.807-3.785-3.056-5.491-4.788-4.026-4.084-4.614-10.881-2.017-15.877,3.283-6.318,11.067-6.376,15.086-12,4.333-6.065,3.841-12.723,11.473-16.3a35.549,35.549,0,0,1,10.932-2.683C1236.75,563.556,1247.717,564.117,1255.019,568.977Z" transform="translate(-1033.633 -506.52)" fill="#0a3f64"/>
      <path id="Path_114" data-name="Path 114" d="M796.759,1119.033s25.037,1.467,31.271,9.535,16.885,22.736,20.919,31.17,18.519,24.814,4.217,38.016-31-14.977-31-14.977l-4.747,24.167-68.215-.879-8.068-14.424s-20.536,14.668-30.8,0-6.6-32.637,5.867-40.338,27.87-28.237,38.5-30.8S785.745,1116.685,796.759,1119.033Z" transform="translate(-606.322 -994.481)" fill="#18898e"/>
      <path id="Path_115" data-name="Path 115" d="M835.3,1444.456a.255.255,0,0,1-.167-.447c.168-.147,16.907-14.721,21.6-20.5,4.36-5.367-2.834-17.319-3.66-18.65-2.217.058-29.287,1.01-41.442,12.031a.254.254,0,1,1-.342-.377c12.758-11.568,41.629-12.163,41.919-12.167a.271.271,0,0,1,.218.117c.351.546,8.531,13.425,3.7,19.368-4.726,5.817-21.5,20.42-21.667,20.567A.25.25,0,0,1,835.3,1444.456Z" transform="translate(-700.487 -1247.041)" fill="#0a3f64"/>
      <path id="Path_116" data-name="Path 116" d="M1230.07,1102.932l-2.887,1.6,16.736,30.189,4.079,3.955-1.193-5.555Z" transform="translate(-1067.112 -981.386)" fill="#0a3f64"/>
      <path id="Path_117" data-name="Path 117" d="M1368.262,1359.008l2.862,2.775.861-.477-.837-3.9-2.886,1.6Z" transform="translate(-1191.455 -1205.675)" fill="#b2dac8"/>
      <path id="Path_118" data-name="Path 118" d="M1198.981,1058.213a4.645,4.645,0,1,0-1.811,6.315A4.645,4.645,0,0,0,1198.981,1058.213Z" transform="translate(-1034.581 -939.863)" fill="#bdd1f9"/>
      <path id="Path_119" data-name="Path 119" d="M1170.257,1031.251a1.013,1.013,0,0,1,.424.457,3.871,3.871,0,0,1,.453,2.4.672.672,0,1,1,1.026.821,3.777,3.777,0,0,1,1.773-.165,1.66,1.66,0,0,1,1.306,1.1,1.082,1.082,0,0,1-.826,1.347,1.122,1.122,0,0,1,1.218,1.225,1.224,1.224,0,0,1-1.507.934,1.455,1.455,0,0,1,1.228,1.678,1.437,1.437,0,0,1-1.81,1.01,1.216,1.216,0,0,1,.346,1.7,1.647,1.647,0,0,1-1.738.588,2.6,2.6,0,0,1-1.5-1.174c-.6.563-.148,1.631-.54,2.357s-1.43.774-2.269.71a4.754,4.754,0,0,1-.781-1.524,2.77,2.77,0,0,1-1.884.294c-.617-.206-.989-1.114-.483-1.522.145-.117.334-.172.468-.3s.169-.394,0-.476a1.3,1.3,0,1,1-1.26-2.2,4.35,4.35,0,0,1-1.794-.167,1.686,1.686,0,0,1-1.135-1.3,1.72,1.72,0,0,1,.928-1.575,5.057,5.057,0,0,1,1.851-.515c-.205-.213-.511-.316-.7-.547-.4-.5.048-1.308.663-1.494a3,3,0,0,1,1.873.267l-.582-1.952a.613.613,0,0,1-.026-.4.545.545,0,0,1,.245-.241c1.329-.793,1.916.6,2.957.333C1168.921,1032.729,1169.126,1030.736,1170.257,1031.251Z" transform="translate(-1008.75 -918.134)" fill="#fdd44e"/>
      <path id="Path_120" data-name="Path 120" d="M1757.865,1551.877a.25.25,0,0,1-.176-.071c-.108-.1-11.057-10.339-26.477-2.45a.255.255,0,0,1-.233-.454c15.749-8.057,26.951,2.429,27.063,2.537a.254.254,0,0,1-.176.438Z" transform="translate(-1511.021 -1371.77)" fill="#0a3f64"/>
      <path id="Path_121" data-name="Path 121" d="M1174.175,1296.176s4.99-13.281,8.168-14.5,18.335-3.911,18.58-1.222-7.823,2.934-7.823,2.934,3.667,1.711,2.934,3.545-1.345,1.834-1.345,1.834,2.322-.489,2.322.978a4.383,4.383,0,0,1-1.222,2.689s2.322.856,1.1,2.567-6.112,2.444-7.334,3.789-3.911,5.256-5.378,5.5a29.367,29.367,0,0,1-4.767,0Z" transform="translate(-1020.392 -1136.828)" fill="#fb9391"/>
      <path id="Path_122" data-name="Path 122" d="M1703.412,915.711s2.686-1.829,3.581-.272c2.282,3.969-2.75,5.943-5.285,5.775Z" transform="translate(-1485.345 -815.583)" fill="#ea6868"/>
      <path id="Path_123" data-name="Path 123" d="M1396.956,584.884a22.086,22.086,0,0,0-29.042,21.658c-.09,8.272-.1,14.961,1.088,20.321a21.98,21.98,0,0,1-2.36,15.922l-2.841,4.851c9.465,10.809,16.7,7.975,16.7,7.975l5.264-12.883h0c13.494,3.724,21.483-20.721,24.351-27.74l-.021,0c.117-.259.235-.518.344-.784A22.089,22.089,0,0,0,1396.956,584.884Z" transform="translate(-1187.524 -523.805)" fill="#fb9391"/>
      <path id="Path_124" data-name="Path 124" d="M1391.084,588.721c-5.331,2.78-10.857,5.384-15.527,9.146-.515.412-4.261,3.571-3.842,4.282-2.287-3.877-2.874-8.507-3.126-13-.437-7.789,3.669-15.254,9.929-19.739,6.189-4.434,13.751-4.963,20.908-2.7,7.675,2.431,14.761,8.236,16.769,16.292,1.884,7.562-.929,15-3.261,22.1,2.618-7.972-5.439-18.009-10.563-23.3.149.154-7.38,4.8-7.769,5.015C1393.447,587.475,1392.27,588.1,1391.084,588.721Z" transform="translate(-1191.714 -507.622)" fill="#0a3f64"/>
      <path id="Path_125" data-name="Path 125" d="M1368.281,814.5a3.281,3.281,0,0,0-1-2.093c-1.179-1.147-3.415-2.785-5.826-1.773-3.538,1.485-1.206,10.207,5.14,8.939C1366.592,819.578,1368.6,818.734,1368.281,814.5Z" transform="translate(-1183.995 -723.489)" fill="#fb9391"/>
      <path id="Path_126" data-name="Path 126" d="M1198.292,1321.2l35.417-9.6a2.686,2.686,0,0,1,3.359,2.985l-6.569,44.4a2.685,2.685,0,0,1-1.535,2.047l-28.729,13.211a9.6,9.6,0,0,1-9.269-.689l-30.468-19.936a2.686,2.686,0,0,1-1.215-2.2l-.713-44.029a2.686,2.686,0,0,1,3.919-2.429l30.268,15.656A7.675,7.675,0,0,0,1198.292,1321.2Z" transform="translate(-1006.639 -1159.171)" fill="#f7a705"/>
      <path id="Path_127" data-name="Path 127" d="M1441.915,1432.462l-2.079.563a7.674,7.674,0,0,1-5.534-.59l-1.677-.867v53.874a9.6,9.6,0,0,0,9.154.624l.136-.063Z" transform="translate(-1248.183 -1271.037)" fill="#fdd44e"/>
      <path id="Path_128" data-name="Path 128" d="M1582.466,1507.521s-5.209-8-7.732-10.468-3.132-6.74-4.974-5.845.737,7.182.737,7.182-6.86-2.14-8.868-3.119-6.043-1.814-6.874-.4,9.145,5.438,9.145,5.438-8.731-2.563-9.776-1.422,9.586,6.035,9.586,6.035-9.18-3.189-10.118-2.811-.491,1.594,2.485,3.512a33.679,33.679,0,0,0,6.509,3.11s-6.619-1.758-7.486-1.692-2.014.791,2.694,3.166,15.726,5.849,21.936,5.35Z" transform="translate(-1354.413 -1323.495)" fill="#fb9391"/>
      <path id="Path_129" data-name="Path 129" d="M1750.007,1585.045s5.121-4.042,4.334-12.468c0,0-1.235-6.285-3.152-6.351s-2.34.95-1.487,4.2-.521,1.325-1.9,3.342,3.484,3.392,2.109,4.4-2.567-2.017-3.575,1.008,1.559,1.742.733,3.851-2.109,3.117-1.467,4.034S1749.274,1586.786,1750.007,1585.045Z" transform="translate(-1523.882 -1389.717)" fill="#fff"/>
      <path id="Path_162" data-name="Path 162" d="M2104.777,1624.524h-41.77v1.2h21.43a3.91,3.91,0,0,1,3.91,3.91h0a3.91,3.91,0,0,1-3.91,3.91h-21.43v1.128h41.77a5.075,5.075,0,0,0,5.075-5.075h0A5.075,5.075,0,0,0,2104.777,1624.524Z" transform="translate(-1803.782 -1441.102)" fill="#0a3f64"/>
      <path id="Path_163" data-name="Path 163" d="M2090.252,1629.6h0a5.075,5.075,0,0,0-5.075-5.076h-22.169v1.2h21.43a3.91,3.91,0,0,1,3.91,3.91h0a3.91,3.91,0,0,1-3.91,3.91h-21.43v1.128h22.169A5.075,5.075,0,0,0,2090.252,1629.6Z" transform="translate(-1803.782 -1441.102)" fill="#066363"/>
      <path id="Path_164" data-name="Path 164" d="M2084.437,1634.7h-21.43v.027a3.91,3.91,0,0,1,3.459,3.883h0a3.91,3.91,0,0,1-3.459,3.883v.027h21.43a3.91,3.91,0,0,0,3.91-3.91h0A3.91,3.91,0,0,0,2084.437,1634.7Z" transform="translate(-1803.782 -1450.072)" fill="#fff"/>
      <path id="Path_165" data-name="Path 165" d="M2088.347,1638.259a3.91,3.91,0,0,0-3.91-3.91h-21.43v.027a3.9,3.9,0,0,1,2.521,1.345c4.286-.34,17.07-.735,18.417,6.448h.492A3.91,3.91,0,0,0,2088.347,1638.259Z" transform="translate(-1803.782 -1449.762)" fill="#62c1c6"/>
      <path id="Path_166" data-name="Path 166" d="M2080.536,1710.094h43.769v1.381h-22.456a4.306,4.306,0,0,0-4.1,4.488h0a4.306,4.306,0,0,0,4.1,4.488h22.456v1.295h-43.769a5.59,5.59,0,0,1-5.319-5.826h0A5.59,5.59,0,0,1,2080.536,1710.094Z" transform="translate(-1814.544 -1516.521)" fill="#18898e"/>
      <path id="Path_167" data-name="Path 167" d="M2248.348,1715.92h0a5.589,5.589,0,0,1,5.318-5.826H2276.9v1.381h-22.456a4.306,4.306,0,0,0-4.1,4.488h0a4.306,4.306,0,0,0,4.1,4.488H2276.9v1.295h-23.231A5.59,5.59,0,0,1,2248.348,1715.92Z" transform="translate(-1967.136 -1516.521)" fill="#158282"/>
      <path id="Path_168" data-name="Path 168" d="M2269.271,1721.775h22.456v.031a4.363,4.363,0,0,0-3.624,4.458h0a4.362,4.362,0,0,0,3.624,4.457v.031h-22.456a4.306,4.306,0,0,1-4.1-4.488h0A4.306,4.306,0,0,1,2269.271,1721.775Z" transform="translate(-1981.967 -1526.816)" fill="#fff"/>
      <path id="Path_169" data-name="Path 169" d="M2265.174,1725.859a4.306,4.306,0,0,1,4.1-4.488h22.456v.03a4,4,0,0,0-2.642,1.544c-4.491-.39-17.887-.844-19.3,7.4h-.516A4.306,4.306,0,0,1,2265.174,1725.859Z" transform="translate(-1981.967 -1526.461)" fill="#62c1c6"/>
      <path id="Path_174" data-name="Path 174" d="M2214.158,1088.946c-1.487-2.285-4.589-3.688-4.828-6.4-.088-1.008.246-2.116-.278-2.981-.576-.95-1.89-1.1-3-.989a4.589,4.589,0,0,0-3.254,1.459c-.943,1.217-.733,2.931-1.031,4.442-.717,3.641-4.3,5.88-7.577,7.629-1.7.908-3.483,1.873-4.516,3.5-1.749,2.753-.784,6.33-.93,9.588a13.6,13.6,0,0,1-2.493,7.234c-.883,1.24-1.973,2.328-2.794,3.61a5.613,5.613,0,0,0-.977,4.328c.254.972,1.226,2.216,2.33,2.256,1.446.053,1.37-1.056,1.741-2.1a5.724,5.724,0,0,1,4.976-3.753c1.977-.288,4-.053,5.98-.337s4.05-1.264,4.8-3.118c.7-1.746.049-3.74.334-5.6.4-2.579,2.494-4.511,4.465-6.222l5.073-4.4a10.3,10.3,0,0,0,2.124-2.256A5.626,5.626,0,0,0,2214.158,1088.946Z" transform="translate(-1908.974 -959.889)" fill="#fff"/>
      <rect id="Rectangle_57" data-name="Rectangle 57" width="18.76" height="22.661" transform="translate(267.34 160.761)" fill="#fdd44e"/>
      <path id="Path_175" data-name="Path 175" d="M2275.291,1475.839h-7.27a1.3,1.3,0,0,1,0-2.606h5.967v-8.572h-5.264a1.3,1.3,0,1,1,0-2.606h6.566a1.3,1.3,0,0,1,1.3,1.3v11.178A1.3,1.3,0,0,1,2275.291,1475.839Z" transform="translate(-1983.328 -1297.907)" fill="#fdd44e"/>
    </g>
  </g>
</svg>
